<svg width="50" height="50" viewBox="0 0 50 50" fill="none" xmlns="http://www.w3.org/2000/svg">
<path d="M40.625 38.5415H39.5833V24.9998C39.5833 23.0847 39.2061 21.1884 38.4732 19.419C37.7404 17.6497 36.6662 16.0421 35.312 14.6879C33.9578 13.3337 32.3501 12.2595 30.5808 11.5266C28.8115 10.7937 26.9151 10.4165 25 10.4165C23.0849 10.4165 21.1885 10.7937 19.4192 11.5266C17.6499 12.2595 16.0422 13.3337 14.688 14.6879C13.3338 16.0421 12.2596 17.6497 11.5268 19.419C10.7939 21.1884 10.4167 23.0847 10.4167 24.9998V38.5415H9.375C8.5462 38.5415 7.75134 38.8707 7.16529 39.4568C6.57924 40.0429 6.25 40.8377 6.25 41.6665V42.7082C6.25 43.537 6.57924 44.3318 7.16529 44.9179C7.75134 45.5039 8.5462 45.8332 9.375 45.8332H40.625C41.4538 45.8332 42.2487 45.5039 42.8347 44.9179C43.4208 44.3318 43.75 43.537 43.75 42.7082V41.6665C43.75 40.8377 43.4208 40.0429 42.8347 39.4568C42.2487 38.8707 41.4538 38.5415 40.625 38.5415ZM12.5 24.9998C12.5 21.6846 13.817 18.5052 16.1612 16.161C18.5054 13.8168 21.6848 12.4998 25 12.4998C28.3152 12.4998 31.4946 13.8168 33.8388 16.161C36.183 18.5052 37.5 21.6846 37.5 24.9998V38.5415H12.5V24.9998ZM41.6667 42.7082C41.6667 42.9844 41.5569 43.2494 41.3616 43.4447C41.1662 43.6401 40.9013 43.7498 40.625 43.7498H9.375C9.09873 43.7498 8.83378 43.6401 8.63843 43.4447C8.44308 43.2494 8.33333 42.9844 8.33333 42.7082V41.6665C8.33333 41.3902 8.44308 41.1253 8.63843 40.9299C8.83378 40.7346 9.09873 40.6248 9.375 40.6248H40.625C40.9013 40.6248 41.1662 40.7346 41.3616 40.9299C41.5569 41.1253 41.6667 41.3902 41.6667 41.6665V42.7082Z" fill="black"/>
<path d="M31.2497 23.9582H28.1247V20.8332C28.1247 20.5569 28.0149 20.292 27.8196 20.0966C27.6242 19.9012 27.3593 19.7915 27.083 19.7915H22.9163C22.6401 19.7915 22.3751 19.9012 22.1798 20.0966C21.9844 20.292 21.8747 20.5569 21.8747 20.8332V23.9582H18.7497C18.4734 23.9582 18.2085 24.0679 18.0131 24.2633C17.8178 24.4586 17.708 24.7236 17.708 24.9998V29.1665C17.708 29.4428 17.8178 29.7077 18.0131 29.9031C18.2085 30.0984 18.4734 30.2082 18.7497 30.2082H21.8747V33.3332C21.8747 33.6094 21.9844 33.8744 22.1798 34.0697C22.3751 34.2651 22.6401 34.3748 22.9163 34.3748H27.083C27.3593 34.3748 27.6242 34.2651 27.8196 34.0697C28.0149 33.8744 28.1247 33.6094 28.1247 33.3332V30.2082H31.2497C31.5259 30.2082 31.7909 30.0984 31.9862 29.9031C32.1816 29.7077 32.2913 29.4428 32.2913 29.1665V24.9998C32.2913 24.7236 32.1816 24.4586 31.9862 24.2633C31.7909 24.0679 31.5259 23.9582 31.2497 23.9582ZM30.208 28.1248H27.083C26.8067 28.1248 26.5418 28.2346 26.3464 28.4299C26.1511 28.6253 26.0413 28.8902 26.0413 29.1665V32.2915H23.958V29.1665C23.958 28.8902 23.8483 28.6253 23.6529 28.4299C23.4576 28.2346 23.1926 28.1248 22.9163 28.1248H19.7913V26.0415H22.9163C23.1926 26.0415 23.4576 25.9318 23.6529 25.7364C23.8483 25.5411 23.958 25.2761 23.958 24.9998V21.8748H26.0413V24.9998C26.0413 25.2761 26.1511 25.5411 26.3464 25.7364C26.5418 25.9318 26.8067 26.0415 27.083 26.0415H30.208V28.1248Z" fill="black"/>
<path d="M26.0413 7.29183V3.12516C26.0413 2.8489 25.9316 2.58394 25.7362 2.38859C25.5409 2.19324 25.2759 2.0835 24.9997 2.0835C24.7234 2.0835 24.4585 2.19324 24.2631 2.38859C24.0678 2.58394 23.958 2.8489 23.958 3.12516V7.29183C23.958 7.5681 24.0678 7.83305 24.2631 8.0284C24.4585 8.22375 24.7234 8.3335 24.9997 8.3335C25.2759 8.3335 25.5409 8.22375 25.7362 8.0284C25.9316 7.83305 26.0413 7.5681 26.0413 7.29183Z" fill="black"/>
<path d="M16.6671 10.4168C16.8547 10.4159 17.0385 10.3643 17.1992 10.2675C17.3599 10.1707 17.4915 10.0323 17.58 9.86691C17.6686 9.70154 17.7108 9.51532 17.7023 9.32793C17.6938 9.14053 17.6349 8.95891 17.5317 8.80225L15.4484 5.67725C15.2883 5.46445 15.0528 5.32103 14.7903 5.27643C14.5278 5.23184 14.2582 5.28947 14.0369 5.43747C13.8155 5.58548 13.6593 5.81263 13.6002 6.07226C13.5411 6.33189 13.5837 6.60429 13.7192 6.8335L15.8025 9.9585C15.8981 10.0999 16.0269 10.2156 16.1777 10.2955C16.3284 10.3754 16.4965 10.4171 16.6671 10.4168Z" fill="black"/>
<path d="M10.4162 16.6665C10.6387 16.6648 10.8549 16.5919 11.033 16.4584C11.211 16.3249 11.3417 16.1379 11.4057 15.9247C11.4698 15.7116 11.4639 15.4835 11.3889 15.274C11.3139 15.0644 11.1738 14.8844 10.9891 14.7603L7.8641 12.677C7.75089 12.5918 7.6215 12.5307 7.48385 12.4972C7.34619 12.4638 7.20316 12.4588 7.0635 12.4825C6.92385 12.5062 6.7905 12.5582 6.6716 12.6352C6.55271 12.7122 6.45078 12.8127 6.37204 12.9304C6.2933 13.0482 6.2394 13.1808 6.21365 13.3201C6.18789 13.4594 6.19082 13.6024 6.22225 13.7406C6.25369 13.8787 6.31296 14.009 6.39645 14.1234C6.47995 14.2378 6.58591 14.334 6.70785 14.4061L9.83285 16.4895C10.0053 16.6053 10.2084 16.667 10.4162 16.6665Z" fill="black"/>
<path d="M34.1981 9.94775L36.2815 6.82275C36.417 6.59355 36.4595 6.32115 36.4005 6.06152C36.3414 5.80189 36.1851 5.57474 35.9638 5.42673C35.7424 5.27872 35.4728 5.2211 35.2103 5.26569C34.9478 5.31028 34.7123 5.45371 34.5523 5.6665L32.469 8.7915C32.3838 8.90471 32.3226 9.0341 32.2892 9.17176C32.2558 9.30941 32.2508 9.45244 32.2745 9.5921C32.2982 9.73175 32.3502 9.86511 32.4272 9.984C32.5042 10.1029 32.6047 10.2048 32.7224 10.2836C32.8402 10.3623 32.9728 10.4162 33.1121 10.442C33.2513 10.4677 33.3944 10.4648 33.5326 10.4333C33.6707 10.4019 33.801 10.3426 33.9154 10.2591C34.0298 10.1757 34.126 10.0697 34.1981 9.94775Z" fill="black"/>
<path d="M39.5831 16.6665C39.7873 16.665 39.9865 16.6034 40.156 16.4895L43.281 14.4061C43.4029 14.334 43.5089 14.2378 43.5924 14.1234C43.6759 14.009 43.7351 13.8787 43.7666 13.7406C43.798 13.6024 43.8009 13.4594 43.7752 13.3201C43.7494 13.1808 43.6955 13.0482 43.6168 12.9304C43.538 12.8127 43.4361 12.7122 43.3172 12.6352C43.1983 12.5582 43.065 12.5062 42.9253 12.4825C42.7857 12.4588 42.6426 12.4638 42.505 12.4972C42.3673 12.5307 42.2379 12.5918 42.1247 12.677L38.9997 14.7603C38.8143 14.8849 38.6738 15.0659 38.5991 15.2764C38.5243 15.487 38.5193 15.716 38.5847 15.9297C38.65 16.1434 38.7824 16.3303 38.9622 16.463C39.1419 16.5957 39.3596 16.667 39.5831 16.6665Z" fill="black"/>
</svg>
