<svg width="50" height="50" viewBox="0 0 50 50" fill="none" xmlns="http://www.w3.org/2000/svg">
<g clip-path="url(#clip0_295_1898)">
<path d="M45.1082 28.7373H42.5318L37.5173 17.9678C37.0383 16.9456 36.2786 16.0805 35.3268 15.4735C34.375 14.8665 33.2703 14.5425 32.1414 14.5393H26.7879L25.7885 10.9055C25.6115 10.2618 25.2284 9.69376 24.6978 9.28848C24.1672 8.88319 23.5184 8.66296 22.8508 8.6615H20.7294C20.0618 8.66296 19.413 8.88319 18.8824 9.28848C18.3518 9.69376 17.9687 10.2618 17.7917 10.9055L16.799 14.5393H4.86058C3.57184 14.5404 2.33622 15.0529 1.42494 15.9642C0.513656 16.8755 0.00118125 18.1111 0 19.3998L0 40.3501C0.00118125 41.6388 0.513656 42.8745 1.42494 43.7857C2.33622 44.697 3.57184 45.2095 4.86058 45.2107H7.53736C7.72893 46.3114 8.30281 47.3092 9.1579 48.0283C10.013 48.7475 11.0944 49.1417 12.2117 49.1417C13.329 49.1417 14.4104 48.7475 15.2655 48.0283C16.1206 47.3092 16.6944 46.3114 16.886 45.2107H33.3928C33.5858 46.3106 34.1603 47.3073 35.0154 48.0255C35.8706 48.7437 36.9515 49.1374 38.0683 49.1374C39.185 49.1374 40.2659 48.7437 41.1211 48.0255C41.9762 47.3073 42.5508 46.3106 42.7437 45.2107H45.1149C45.8213 45.1983 46.517 45.036 47.156 44.7346C47.795 44.4331 48.3626 43.9993 48.8213 43.4619C49.28 42.9246 49.6193 42.2959 49.8167 41.6175C50.0142 40.9392 50.0652 40.2266 49.9665 39.527V33.5957C49.9654 32.3075 49.4531 31.0725 48.5423 30.1616C47.6314 29.2508 46.3963 28.7385 45.1082 28.7373ZM40.87 28.7373H30.0491V20.0958H36.8369L40.87 28.7373ZM19.2527 11.2981C19.6074 9.75451 21.7265 10.2363 22.8508 10.1694C23.1866 10.1698 23.513 10.2804 23.7798 10.4843C24.0466 10.6883 24.239 10.9742 24.3275 11.2981L25.2197 14.5393H18.3694L19.2527 11.2981ZM1.51461 19.3998C1.51461 18.5124 1.86713 17.6614 2.49462 17.0339C3.12212 16.4064 3.97318 16.0539 4.86058 16.0539H24.12V34.2381H1.51461V19.3998ZM12.1994 47.6733C11.3583 47.6512 10.5592 47.3015 9.9721 46.6988C9.38504 46.0961 9.05652 45.288 9.05652 44.4467C9.05652 43.6053 9.38504 42.7972 9.9721 42.1945C10.5592 41.5918 11.3583 41.2422 12.1994 41.22C13.0405 41.2422 13.8397 41.5918 14.4267 42.1945C15.0138 42.7972 15.3423 43.6053 15.3423 44.4467C15.3423 45.288 15.0138 46.0961 14.4267 46.6988C13.8397 47.3015 13.0405 47.6512 12.1994 47.6733ZM12.1994 39.7032C11.0725 39.7035 9.98249 40.1046 9.12427 40.8349C8.26605 41.5652 7.69563 42.577 7.51506 43.6894H4.83828C3.95087 43.6894 3.09981 43.3369 2.47232 42.7094C1.84483 42.0819 1.4923 41.2308 1.4923 40.3434V35.7527H24.12V43.6961H16.8749C16.6964 42.5838 16.128 41.5714 15.2714 40.8398C14.4148 40.1083 13.3259 39.7054 12.1994 39.7032ZM38.0593 47.6733C37.2183 47.6512 36.4191 47.3015 35.832 46.6988C35.245 46.0961 34.9164 45.288 34.9164 44.4467C34.9164 43.6053 35.245 42.7972 35.832 42.1945C36.4191 41.5918 37.2183 41.2422 38.0593 41.22C38.9004 41.2422 39.6996 41.5918 40.2867 42.1945C40.8737 42.7972 41.2022 43.6053 41.2022 44.4467C41.2022 45.288 40.8737 46.0961 40.2867 46.6988C39.6996 47.3015 38.9004 47.6512 38.0593 47.6733ZM45.1082 43.6894H42.737C42.5468 42.5873 41.9733 41.5878 41.1179 40.8674C40.2624 40.147 39.18 39.7519 38.0616 39.7519C36.9432 39.7519 35.8607 40.147 35.0053 40.8674C34.1498 41.5878 33.5764 42.5873 33.3861 43.6894H25.6346V16.0539H32.1414C32.9779 16.0554 33.7969 16.2936 34.5038 16.7408C35.2107 17.188 35.7768 17.826 36.1365 18.5812H29.2929C29.0921 18.5812 28.8996 18.6608 28.7574 18.8025C28.6152 18.9443 28.5351 19.1366 28.5345 19.3374V29.4958C28.5356 29.6963 28.616 29.8883 28.758 30.03C28.9001 30.1716 29.0923 30.2514 29.2929 30.2519H45.1082C45.5776 30.2554 46.0412 30.3565 46.4695 30.5487C46.8978 30.7409 47.2815 31.0201 47.5961 31.3685C47.9108 31.7169 48.1495 32.127 48.2973 32.5726C48.445 33.0182 48.4984 33.4897 48.4542 33.9571H45.2532C45.0524 33.9576 44.8601 34.0378 44.7183 34.18C44.5766 34.3221 44.497 34.5147 44.497 34.7155V39.527C44.497 39.7275 44.5767 39.9199 44.7185 40.0617C44.8603 40.2035 45.0526 40.2832 45.2532 40.2832H48.4519C48.4608 40.728 48.3809 41.1701 48.2169 41.5837C48.0529 41.9972 47.808 42.3739 47.4967 42.6917C47.1853 43.0095 46.8137 43.262 46.4036 43.4345C45.9935 43.6069 45.5531 43.6959 45.1082 43.6961V43.6894ZM48.4542 38.7686H46.0116V35.4717H48.4519L48.4542 38.7686ZM32.4158 33.9994H29.2929C29.0923 33.9994 28.9 33.9198 28.7582 33.778C28.6164 33.6361 28.5367 33.4438 28.5367 33.2432C28.5367 33.0427 28.6164 32.8504 28.7582 32.7085C28.9 32.5667 29.0923 32.4871 29.2929 32.4871H32.4158C32.6163 32.4874 32.8086 32.5673 32.9502 32.7093C33.0918 32.8514 33.1712 33.0438 33.1709 33.2444C33.1706 33.4449 33.0906 33.6371 32.9486 33.7787C32.8066 33.9203 32.6163 33.9997 32.4158 33.9994ZM21.0395 5.89326V1.6238C21.05 1.43006 21.1344 1.24771 21.2752 1.11429C21.4161 0.980858 21.6028 0.906494 21.7968 0.906494C21.9908 0.906494 22.1775 0.980858 22.3183 1.11429C22.4592 1.24771 22.5436 1.43006 22.5541 1.6238V5.90218C22.5597 6.00509 22.5442 6.10806 22.5087 6.2048C22.4732 6.30154 22.4183 6.39002 22.3474 6.46485C22.2765 6.53967 22.1912 6.59926 22.0965 6.63999C22.0018 6.68072 21.8998 6.70172 21.7968 6.70172C21.6937 6.70172 21.5917 6.68072 21.4971 6.63999C21.4024 6.59926 21.317 6.53967 21.2462 6.46485C21.1753 6.39002 21.1204 6.30154 21.0849 6.2048C21.0493 6.10806 21.0339 6.00509 21.0395 5.90218V5.89326ZM26.3261 6.56246L29.4446 3.65592C30.1517 2.97557 31.2045 4.10205 30.4751 4.77124L27.3522 7.6867C27.2043 7.82366 27.0081 7.89625 26.8066 7.88851C26.6052 7.88077 26.4151 7.79334 26.2782 7.64544C26.1412 7.49753 26.0686 7.30129 26.0763 7.09986C26.0841 6.89844 26.1715 6.70833 26.3194 6.57138L26.3261 6.56246ZM13.0984 4.76455C13.0251 4.69688 12.9659 4.61546 12.9242 4.52491C12.8824 4.43437 12.8589 4.33649 12.855 4.23686C12.851 4.13723 12.8668 4.0378 12.9012 3.94424C12.9357 3.85069 12.9883 3.76484 13.056 3.69161C13.1237 3.61838 13.2051 3.55919 13.2956 3.51743C13.3862 3.47566 13.484 3.45214 13.5837 3.44821C13.6833 3.44427 13.7827 3.46 13.8763 3.49449C13.9699 3.52898 14.0557 3.58156 14.1289 3.64923L17.2518 6.56692C17.9813 7.22273 16.9239 8.35144 16.219 7.68224L13.0984 4.76455ZM12.1994 45.2575C11.9941 45.2467 11.8007 45.1575 11.6591 45.0083C11.5176 44.8591 11.4387 44.6613 11.4387 44.4556C11.4387 44.25 11.5176 44.0521 11.6591 43.9029C11.8007 43.7537 11.9941 43.6645 12.1994 43.6537C12.4048 43.6645 12.5982 43.7537 12.7397 43.9029C12.8812 44.0521 12.9601 44.25 12.9601 44.4556C12.9601 44.6613 12.8812 44.8591 12.7397 45.0083C12.5982 45.1575 12.4048 45.2467 12.1994 45.2575ZM38.0616 45.2575C37.8562 45.2467 37.6628 45.1575 37.5213 45.0083C37.3797 44.8591 37.3008 44.6613 37.3008 44.4556C37.3008 44.25 37.3797 44.0521 37.5213 43.9029C37.6628 43.7537 37.8562 43.6645 38.0616 43.6537C38.2669 43.6645 38.4603 43.7537 38.6019 43.9029C38.7434 44.0521 38.8223 44.25 38.8223 44.4556C38.8223 44.6613 38.7434 44.8591 38.6019 45.0083C38.4603 45.1575 38.2669 45.2467 38.0616 45.2575ZM13.0025 18.9359C11.3761 18.9667 9.82677 19.6344 8.68751 20.7955C7.54825 21.9565 6.91002 23.5182 6.91002 25.1449C6.91002 26.7715 7.54825 28.3332 8.68751 29.4943C9.82677 30.6554 11.3761 31.3231 13.0025 31.3539C14.6288 31.3231 16.1781 30.6554 17.3174 29.4943C18.4567 28.3332 19.0949 26.7715 19.0949 25.1449C19.0949 23.5182 18.4567 21.9565 17.3174 20.7955C16.1781 19.6344 14.6288 18.9667 13.0025 18.9359ZM13.0025 29.8393C11.7571 29.8393 10.5628 29.3446 9.68222 28.464C8.80164 27.5834 8.30694 26.3891 8.30694 25.1438C8.30694 23.8984 8.80164 22.7041 9.68222 21.8235C10.5628 20.9429 11.7571 20.4482 13.0025 20.4482C14.2481 20.4482 15.4427 20.9431 16.3235 21.8239C17.2043 22.7046 17.6991 23.8993 17.6991 25.1449C17.6991 26.3905 17.2043 27.5851 16.3235 28.4659C15.4427 29.3467 14.2481 29.8415 13.0025 29.8415V29.8393ZM15.5097 25.9022H13.7586C13.6605 26.6205 14.1535 28.3983 13.0025 28.4094C11.8514 28.4206 12.3444 26.6249 12.244 25.9022C11.5258 25.8018 9.75017 26.2948 9.73901 25.1438C9.72786 23.9927 11.5235 24.4857 12.244 24.3853C12.3444 23.6671 11.8514 21.8915 13.0025 21.8803C14.1535 21.8692 13.6605 23.6648 13.7586 24.3853H15.5097C15.7111 24.3853 15.9043 24.4654 16.0468 24.6078C16.1892 24.7502 16.2692 24.9434 16.2692 25.1449C16.2692 25.3463 16.1892 25.5395 16.0468 25.6819C15.9043 25.8244 15.7111 25.9044 15.5097 25.9044V25.9022Z" fill="#136DF4"/>
</g>
<defs>
<clipPath id="clip0_295_1898">
<rect width="50" height="50" fill="white"/>
</clipPath>
</defs>
</svg>
