<svg width="50" height="50" viewBox="0 0 50 50" fill="none" xmlns="http://www.w3.org/2000/svg">
<path d="M39.9161 8.89004C36.1601 5.11371 31.1064 2.91024 25.7833 2.72793V2.05078C25.7833 1.84358 25.701 1.64487 25.5545 1.49835C25.408 1.35184 25.2093 1.26953 25.0021 1.26953C24.7949 1.26953 24.5961 1.35184 24.4496 1.49835C24.3031 1.64487 24.2208 1.84358 24.2208 2.05078V2.72744C18.7645 2.92804 13.5986 5.23678 9.80956 9.16807C6.02054 13.0994 3.90372 18.3468 3.9043 23.8068C3.9043 24.1399 3.91094 24.4434 3.92451 24.7346C3.93386 24.9348 4.01982 25.1238 4.16462 25.2625C4.30942 25.4011 4.50197 25.4788 4.70244 25.4794H4.70498C4.90502 25.4794 5.09742 25.4026 5.24255 25.265C5.38769 25.1273 5.47448 24.9392 5.48506 24.7395C5.54401 23.6213 6.03724 22.5704 6.85967 21.8106C7.68209 21.0509 8.7687 20.6422 9.88798 20.6719C11.0073 20.7015 12.0707 21.167 12.8518 21.9693C13.6329 22.7715 14.0698 23.847 14.0695 24.9667C14.0695 25.1739 14.1518 25.3726 14.2984 25.5191C14.4449 25.6656 14.6436 25.7479 14.8508 25.7479C15.058 25.7479 15.2567 25.6656 15.4032 25.5191C15.5497 25.3726 15.632 25.1739 15.632 24.9667C15.6293 24.401 15.7384 23.8404 15.953 23.317C16.1676 22.7936 16.4835 22.3178 16.8826 21.9168C17.2816 21.5159 17.7559 21.1977 18.2783 20.9806C18.8006 20.7635 19.3607 20.6518 19.9264 20.6518C20.4921 20.6518 21.0522 20.7635 21.5746 20.9806C22.0969 21.1977 22.5712 21.5159 22.9703 21.9168C23.3693 22.3178 23.6852 22.7936 23.8998 23.317C24.1144 23.8404 24.2235 24.401 24.2208 24.9667C24.2208 25.1739 24.3031 25.3726 24.4496 25.5191C24.5961 25.6656 24.7949 25.7479 25.0021 25.7479C25.2093 25.7479 25.408 25.6656 25.5545 25.5191C25.701 25.3726 25.7833 25.1739 25.7833 24.9667C25.7806 24.401 25.8897 23.8404 26.1043 23.317C26.3189 22.7936 26.6348 22.3177 27.0339 21.9168C27.4329 21.5158 27.9072 21.1977 28.4296 20.9806C28.952 20.7635 29.5121 20.6517 30.0778 20.6517C30.6435 20.6517 31.2036 20.7635 31.726 20.9806C32.2483 21.1977 32.7227 21.5158 33.1217 21.9168C33.5208 22.3177 33.8367 22.7936 34.0513 23.317C34.2659 23.8404 34.375 24.401 34.3723 24.9667C34.3723 25.1739 34.4546 25.3726 34.6011 25.5191C34.7476 25.6656 34.9463 25.7479 35.1535 25.7479C35.3607 25.7479 35.5594 25.6656 35.7059 25.5191C35.8525 25.3726 35.9348 25.1739 35.9348 24.9667C35.9351 23.8523 36.3685 22.7816 37.1434 21.9807C37.9183 21.1798 38.9741 20.7114 40.0879 20.6744C41.2017 20.6374 42.2863 21.0346 43.1127 21.7823C43.9391 22.5299 44.4426 23.5694 44.517 24.6813C44.5305 24.8814 44.6205 25.0687 44.7682 25.2043C44.916 25.3399 45.1102 25.4135 45.3107 25.4098C45.5113 25.4062 45.7027 25.3255 45.8454 25.1846C45.9881 25.0437 46.0711 24.8533 46.0773 24.6528C46.0857 24.3802 46.0943 24.0983 46.0943 23.8067C46.102 21.0354 45.5599 18.29 44.4994 15.7295C43.4389 13.1691 41.8811 10.8444 39.9161 8.89004ZM9.77363 19.1084C8.2555 19.1068 6.79637 19.6963 5.70537 20.752C6.92012 13.0525 12.6496 6.83398 20.0884 4.90029C18.9939 5.94727 17.9927 7.35449 17.1239 9.09336C15.48 12.3844 14.4531 16.5685 14.1582 21.0863C13.6095 20.4645 12.9348 19.9665 12.1788 19.6255C11.4228 19.2844 10.603 19.1082 9.77363 19.1084ZM19.9251 19.1084C19.1445 19.108 18.3717 19.2643 17.6525 19.5679C16.9333 19.8715 16.2823 20.3163 15.7381 20.876C16.0442 16.685 17.006 12.8257 18.5213 9.79199C20.1055 6.6208 22.1053 4.721 24.2203 4.34502V20.9876C23.6729 20.3948 23.0087 19.9217 22.2694 19.5983C21.5302 19.2749 20.732 19.1081 19.9251 19.1084ZM30.0792 19.1084C29.2722 19.108 28.4739 19.2748 27.7345 19.5982C26.9951 19.9216 26.3308 20.3947 25.7833 20.9876V4.3457C27.8955 4.72402 29.8929 6.62334 31.4759 9.7916C32.9914 12.8246 33.9533 16.6814 34.2602 20.8696C33.7161 20.3118 33.0659 19.8686 32.3478 19.5662C31.6297 19.2637 30.8584 19.108 30.0792 19.1084ZM40.2305 19.1084C39.3998 19.1082 38.5787 19.285 37.8218 19.627C37.0649 19.9691 36.3895 20.4685 35.8408 21.0921C35.5462 16.5723 34.5188 12.3858 32.8736 9.09326C32.0045 7.3543 31.0031 5.94688 29.9087 4.89971C37.3494 6.8333 43.0803 13.054 44.2935 20.7554C43.2041 19.7 41.7472 19.1094 40.2305 19.1084ZM30.1767 42.7697V47.9492C30.1767 48.1564 30.0944 48.3551 29.9478 48.5016C29.8013 48.6482 29.6026 48.7305 29.3954 48.7305C29.1882 48.7305 28.9895 48.6482 28.843 48.5016C28.6965 48.3551 28.6142 48.1564 28.6142 47.9492V42.7697C28.6142 42.5625 28.6965 42.3638 28.843 42.2173C28.9895 42.0708 29.1882 41.9885 29.3954 41.9885C29.6026 41.9885 29.8013 42.0708 29.9478 42.2173C30.0944 42.3638 30.1767 42.5625 30.1767 42.7697ZM21.3845 42.7697V47.9492C21.3845 48.1564 21.3022 48.3551 21.1556 48.5016C21.0091 48.6482 20.8104 48.7305 20.6032 48.7305C20.396 48.7305 20.1973 48.6482 20.0508 48.5016C19.9043 48.3551 19.822 48.1564 19.822 47.9492V42.7697C19.822 42.5625 19.9043 42.3638 20.0508 42.2173C20.1973 42.0708 20.396 41.9885 20.6032 41.9885C20.8104 41.9885 21.0091 42.0708 21.1556 42.2173C21.3022 42.3638 21.3845 42.5625 21.3845 42.7697ZM36.806 36.1706C37.4425 35.2652 37.7728 34.0732 37.7728 32.9173C37.7753 32.417 37.6789 31.9211 37.4892 31.4582C37.2995 30.9953 37.0202 30.5744 36.6674 30.2197C36.3145 29.865 35.895 29.5836 35.4331 29.3916C34.9711 29.1995 34.4757 29.1007 33.9754 29.1007C33.4751 29.1007 32.9798 29.1995 32.5178 29.3916C32.0558 29.5836 31.6364 29.865 31.2835 30.2197C30.9306 30.5744 30.6513 30.9953 30.4616 31.4582C30.2719 31.9211 30.1756 32.417 30.1781 32.9173C30.1781 34.0733 30.5085 35.2653 31.1449 36.1708C30.4719 36.2476 29.8279 36.4881 29.2693 36.8714C28.9874 36.83 28.7028 36.8092 28.4179 36.809C29.5745 35.5155 30.1796 33.5967 30.1796 31.7436C30.1796 30.3693 29.6337 29.0514 28.662 28.0797C27.6903 27.108 26.3724 26.5621 24.9981 26.5621C23.6239 26.5621 22.306 27.108 21.3343 28.0797C20.3626 29.0514 19.8167 30.3693 19.8167 31.7436C19.8167 33.226 20.2493 34.8129 20.9741 35.9884C21.1522 36.2785 21.3548 36.553 21.5796 36.8087C21.2948 36.8088 21.0105 36.8296 20.7287 36.8709C20.17 36.4883 19.5264 36.2479 18.8537 36.1706C19.4904 35.2651 19.821 34.073 19.821 32.917C19.8235 32.4167 19.7272 31.9208 19.5375 31.4579C19.3478 30.995 19.0685 30.5741 18.7156 30.2194C18.3628 29.8648 17.9433 29.5833 17.4813 29.3913C17.0193 29.1992 16.524 29.1004 16.0237 29.1004C15.5234 29.1004 15.028 29.1992 14.566 29.3913C14.1041 29.5833 13.6846 29.8648 13.3317 30.2194C12.9789 30.5741 12.6996 30.995 12.5099 31.4579C12.3202 31.9208 12.2238 32.4167 12.2264 32.917C12.2264 34.073 12.5567 35.2649 13.1932 36.1704C11.2087 36.398 9.66602 37.995 9.66602 39.9264V44.0263C9.66602 44.2335 9.74833 44.4322 9.89484 44.5787C10.0414 44.7252 10.2401 44.8075 10.4473 44.8075C10.6545 44.8075 10.8532 44.7252 10.9997 44.5787C11.1462 44.4322 11.2285 44.2335 11.2285 44.0263V39.9267C11.2285 38.7013 12.3285 37.7043 13.6806 37.7043H18.3665C18.4051 37.7043 18.4434 37.7076 18.4818 37.7093C17.0341 38.6397 16.082 40.2021 16.082 41.9697V47.9492C16.082 48.1564 16.1643 48.3551 16.3109 48.5016C16.4574 48.6482 16.6561 48.7305 16.8633 48.7305C17.0705 48.7305 17.2692 48.6482 17.4157 48.5016C17.5622 48.3551 17.6445 48.1564 17.6445 47.9492V41.9697C17.6445 39.9856 19.4103 38.3715 21.5801 38.3715H28.415C30.5868 38.3715 32.3537 39.9856 32.3537 41.9697V47.9492C32.3537 48.1564 32.436 48.3551 32.5825 48.5016C32.729 48.6482 32.9278 48.7305 33.135 48.7305C33.3422 48.7305 33.5409 48.6482 33.6874 48.5016C33.8339 48.3551 33.9162 48.1564 33.9162 47.9492V41.9697C33.9162 40.2021 32.9637 38.6396 31.5152 37.7093C31.5543 37.7076 31.5927 37.7043 31.6317 37.7043H36.3186C37.6706 37.7043 38.7706 38.7013 38.7706 39.9267V44.0266C38.7706 44.2338 38.8529 44.4325 38.9994 44.579C39.1459 44.7255 39.3447 44.8078 39.5519 44.8078C39.7591 44.8078 39.9578 44.7255 40.1043 44.579C40.2508 44.4325 40.3331 44.2338 40.3331 44.0266V39.9267C40.3335 37.9951 38.7905 36.398 36.806 36.1706ZM16.0217 30.6812C16.6146 30.6818 17.1831 30.9176 17.6023 31.3368C18.0216 31.7561 18.2574 32.3246 18.258 32.9175C18.258 33.9696 17.7111 36.142 16.0217 36.142C14.4812 36.142 13.7883 34.2564 13.7883 32.9175C13.7885 32.325 14.0238 31.7567 14.4425 31.3375C14.8612 30.9182 15.4292 30.6822 16.0217 30.6812ZM24.9993 28.126C25.9584 28.1271 26.8779 28.5085 27.5561 29.1867C28.2343 29.8649 28.6158 30.7844 28.6169 31.7436C28.6169 33.702 27.6348 36.809 24.9993 36.809C22.3619 36.809 21.379 33.702 21.379 31.7436C21.3805 30.7841 21.7624 29.8644 22.4411 29.1862C23.1198 28.508 24.0398 28.1267 24.9993 28.126ZM33.9739 30.6812C34.5668 30.6818 35.1353 30.9176 35.5546 31.3368C35.9738 31.7561 36.2096 32.3246 36.2103 32.9175C36.2103 34.2564 35.5169 36.142 33.9739 36.142C32.2865 36.142 31.7405 33.9696 31.7405 32.9175C31.7408 32.325 31.9761 31.7567 32.3948 31.3375C32.8135 30.9182 33.3814 30.6822 33.9739 30.6812Z" fill="#136DF4"/>
</svg>
