<svg width="50" height="50" viewBox="0 0 50 50" fill="none" xmlns="http://www.w3.org/2000/svg">
<path d="M35.9864 43.6035C35.4699 43.6035 35.0508 43.1844 35.0508 42.6679V40.7194C35.0508 40.203 35.4699 39.7838 35.9864 39.7838C36.5028 39.7838 36.922 40.203 36.922 40.7194V42.6679C36.922 43.1844 36.5028 43.6035 35.9864 43.6035Z" fill="white"/>
<path d="M35.9864 30.5514C35.4699 30.5514 35.0508 30.1323 35.0508 29.6158V27.6673C35.0508 27.1508 35.4699 26.7317 35.9864 26.7317C36.5028 26.7317 36.922 27.1508 36.922 27.6673V29.6158C36.922 30.1323 36.5028 30.5514 35.9864 30.5514Z" fill="white"/>
<path d="M36.9785 41.6549H34.9769C32.9985 41.6549 31.3886 40.0875 31.3886 38.1602C31.3886 37.6437 31.8078 37.2246 32.3242 37.2246C32.8407 37.2246 33.2598 37.6437 33.2598 38.1602C33.2598 39.0552 34.0301 39.7837 34.9769 39.7837H36.9785C38.0494 39.7837 38.9202 38.9579 38.9202 37.9431C38.9202 37.4578 38.7224 37 38.3632 36.6532C37.9945 36.2983 37.503 36.1025 36.9785 36.1025H34.9769C32.8743 36.1025 31.1641 34.4377 31.1641 32.3913C31.1641 31.3939 31.5651 30.4577 32.2924 29.7554C33.0109 29.0618 33.964 28.6794 34.9763 28.6794H36.9779C38.9563 28.6794 40.5662 30.2469 40.5662 32.1742C40.5662 32.6907 40.147 33.1098 39.6306 33.1098C39.1141 33.1098 38.695 32.6907 38.695 32.1742C38.695 31.2792 37.9247 30.5506 36.9779 30.5506H34.9763C34.4517 30.5506 33.9602 30.7465 33.5922 31.1014C33.233 31.4482 33.0353 31.906 33.0353 32.3913C33.0353 33.4061 33.906 34.2313 34.9769 34.2313H36.9785C37.9896 34.2313 38.9432 34.613 39.6624 35.3066C40.3903 36.0095 40.7914 36.9458 40.7914 37.9431C40.7914 39.9896 39.0811 41.6549 36.9785 41.6549Z" fill="white"/>
<path d="M35.9801 49H4.48042C2.5612 49 1 47.4388 1 45.5196V5.48042C1 3.5612 2.5612 2 4.48042 2H33.4353C35.3545 2 36.9157 3.5612 36.9157 5.48042V22.2713C36.9157 22.7877 36.4965 23.2069 35.9801 23.2069C33.9785 23.2069 31.9994 23.7102 30.2561 24.6626C30.1189 24.7375 29.9954 24.808 29.8775 24.8785C29.3367 25.2003 28.8215 25.5639 28.345 25.9606C28.3444 25.9613 28.3431 25.9619 28.3425 25.9631C28.335 25.9694 28.3263 25.9768 28.3163 25.985C25.5856 28.2659 24.02 31.6123 24.02 35.1681C24.02 41.7635 29.3854 47.1294 35.9807 47.1294C36.4971 47.1294 36.9163 47.5486 36.9163 48.065C36.9163 48.5815 36.4965 49 35.9801 49ZM4.48042 3.87119C3.59285 3.87119 2.87119 4.59285 2.87119 5.48042V45.5196C2.87119 46.4071 3.59285 47.1288 4.48042 47.1288H29.0211C28.0032 46.5344 27.0551 45.8046 26.1994 44.9489C23.5872 42.3361 22.1482 38.8625 22.1482 35.1675C22.1482 31.049 23.9645 27.1738 27.1312 24.5354C27.1362 24.531 27.1418 24.5267 27.1468 24.5229C27.1493 24.5211 27.1518 24.5186 27.1543 24.5167C27.7044 24.0601 28.2982 23.641 28.9194 23.2711C29.0579 23.1888 29.202 23.1064 29.3604 23.0204C31.1044 22.0673 33.0529 21.5028 35.0451 21.3675V5.48042C35.0451 4.59285 34.3234 3.87119 33.4359 3.87119H4.48042ZM27.1942 24.4874C27.1936 24.4874 27.1936 24.488 27.193 24.488C27.1936 24.488 27.1936 24.488 27.1942 24.4874ZM27.1967 24.4861C27.1961 24.4867 27.1954 24.4867 27.1948 24.4874C27.1954 24.4867 27.1961 24.4861 27.1967 24.4861Z" fill="white"/>
<path d="M29.8122 17.4622H8.11138C7.59493 17.4622 7.17578 17.0431 7.17578 16.5266V8.54351C7.17578 8.02706 7.59493 7.60791 8.11138 7.60791H29.8122C30.3287 7.60791 30.7478 8.02706 30.7478 8.54351V16.5266C30.7478 17.0431 30.3287 17.4622 29.8122 17.4622ZM9.04697 15.591H28.8766V9.4791H9.04697V15.591Z" fill="white"/>
<path d="M12.4083 26.1765H8.11138C7.59493 26.1765 7.17578 25.758 7.17578 25.241V21.3458C7.17578 20.8293 7.59493 20.4102 8.11138 20.4102H12.4083C12.9247 20.4102 13.3439 20.8293 13.3439 21.3458V25.241C13.3439 25.7574 12.9247 26.1765 12.4083 26.1765ZM9.04697 24.3054H11.4727V22.2813H9.04697V24.3054Z" fill="white"/>
<path d="M21.1075 26.1765H16.8106C16.2941 26.1765 15.875 25.758 15.875 25.241V21.3458C15.875 20.8293 16.2941 20.4102 16.8106 20.4102H21.1075C21.6239 20.4102 22.0431 20.8293 22.0431 21.3458V25.241C22.0431 25.7574 21.6239 26.1765 21.1075 26.1765ZM17.7462 24.3054H20.1719V22.2813H17.7462V24.3054Z" fill="white"/>
<path d="M35.9803 48.9999C32.2859 48.9999 28.8124 47.5609 26.1996 44.9488C23.5874 42.3359 22.1484 38.8624 22.1484 35.1674C22.1484 31.0489 23.9647 27.1743 27.1314 24.5365C27.1352 24.5334 27.1395 24.5297 27.1439 24.5266C27.1476 24.5234 27.152 24.5203 27.1557 24.5172C27.7078 24.0594 28.3009 23.6409 28.9197 23.2722C29.0656 23.1855 29.2097 23.1032 29.3606 23.0215C31.3765 21.9194 33.6656 21.3368 35.9809 21.3368C36.0495 21.3368 36.1175 21.3374 36.1868 21.3387C39.5137 21.3854 42.716 22.6342 45.1978 24.8553C47.1482 26.5992 48.5585 28.8421 49.2757 31.3408C49.6325 32.5739 49.8134 33.8619 49.8134 35.168C49.8134 35.9726 49.7435 36.7804 49.6057 37.5688C49.2165 39.7949 48.2709 41.9143 46.8713 43.6982C44.2266 47.0669 40.2578 48.9999 35.9803 48.9999ZM28.3234 25.9786C25.5883 28.2602 24.0196 31.6084 24.0196 35.1674C24.0196 41.7627 29.385 47.1287 35.9803 47.1287C39.679 47.1287 43.1114 45.4571 45.3974 42.5424C46.6074 40.9999 47.4251 39.1686 47.7613 37.245C47.8811 36.5627 47.9416 35.8635 47.9416 35.1668C47.9416 34.0372 47.785 32.9238 47.4769 31.8579C46.8569 29.6967 45.6375 27.7575 43.9497 26.2487C41.8041 24.3288 39.036 23.2491 36.1549 23.2086C36.0926 23.2074 36.0371 23.2067 35.9809 23.2067C33.9787 23.2067 31.9996 23.7101 30.2569 24.6625C30.1253 24.7343 30.0012 24.8047 29.8765 24.879C29.3394 25.1989 28.8242 25.5626 28.3452 25.9605C28.3415 25.9636 28.3377 25.9667 28.334 25.9692C28.3302 25.973 28.3265 25.9761 28.3234 25.9786Z" fill="white"/>
<path d="M27.7453 26.1765H25.5098C24.9934 26.1765 24.5742 25.758 24.5742 25.241V21.3458C24.5742 20.8293 24.9934 20.4102 25.5098 20.4102H29.8061C30.3225 20.4102 30.7417 20.8293 30.7417 21.3458V23.8419C30.7417 24.1844 30.5546 24.4993 30.2539 24.6634C30.1167 24.7382 29.9932 24.8087 29.8759 24.8786C29.3352 25.2004 28.82 25.564 28.3434 25.9607C28.175 26.1005 27.9636 26.1765 27.7453 26.1765ZM26.4454 24.3054H27.4141C27.875 23.9417 28.3634 23.6043 28.8705 23.2993V22.2813H26.4454V24.3054Z" fill="white"/>
<path d="M12.4083 34.8901H8.11138C7.59493 34.8901 7.17578 34.4709 7.17578 33.9545V30.0593C7.17578 29.5428 7.59493 29.1237 8.11138 29.1237H12.4083C12.9247 29.1237 13.3439 29.5428 13.3439 30.0593V33.9545C13.3439 34.4709 12.9247 34.8901 12.4083 34.8901ZM9.04697 33.0189H11.4727V30.9949H9.04697V33.0189Z" fill="white"/>
<path d="M21.1075 34.8901H16.8106C16.2941 34.8901 15.875 34.4709 15.875 33.9545V30.0593C15.875 29.5428 16.2941 29.1237 16.8106 29.1237H21.1075C21.6239 29.1237 22.0431 29.5428 22.0431 30.0593V33.9545C22.0431 34.4709 21.6239 34.8901 21.1075 34.8901ZM17.7462 33.0189H20.1719V30.9949H17.7462V33.0189Z" fill="white"/>
<path d="M12.4083 43.6039H8.11138C7.59493 43.6039 7.17578 43.1848 7.17578 42.6683V38.7731C7.17578 38.2567 7.59493 37.8375 8.11138 37.8375H12.4083C12.9247 37.8375 13.3439 38.2567 13.3439 38.7731V42.6683C13.3439 43.1848 12.9247 43.6039 12.4083 43.6039ZM9.04697 41.7327H11.4727V39.7087H9.04697V41.7327Z" fill="white"/>
<path d="M21.1075 43.6039H16.8106C16.2941 43.6039 15.875 43.1848 15.875 42.6683V38.7731C15.875 38.2567 16.2941 37.8375 16.8106 37.8375H21.1075C21.6239 37.8375 22.0431 38.2567 22.0431 38.7731V42.6683C22.0431 43.1848 21.6239 43.6039 21.1075 43.6039ZM17.7462 41.7327H20.1719V39.7087H17.7462V41.7327Z" fill="white"/>
</svg>
