<svg width="41" height="50" viewBox="0 0 41 50" fill="none" xmlns="http://www.w3.org/2000/svg">
<g clip-path="url(#clip0_68_822)">
<path d="M13.831 2.2931C14.7945 1.69749 16.1305 1.60368 17.5037 2.00869C18.8976 2.41966 19.5686 3.35477 19.5716 4.81104C19.573 5.47961 19.5716 6.14967 19.5716 6.9195C19.7363 6.77209 19.8447 6.69168 19.9338 6.5934C22.2882 3.99356 25.2393 2.7398 28.716 2.68769C29.81 2.67131 30.9056 2.67727 31.9997 2.68322C33.6801 2.69216 34.9241 3.56473 35.4244 5.17436C35.6144 5.78635 35.6782 6.44748 35.7228 7.09074C35.7628 7.66699 35.3858 8.02882 34.8603 8.03478C34.3392 8.04074 34.0156 7.69082 33.9518 7.1101C33.8968 6.61425 33.8523 6.10798 33.7098 5.63447C33.5124 4.9793 33.0314 4.4909 32.3411 4.50132C30.3608 4.52961 28.3582 4.47601 26.4091 4.76488C23.9166 5.13416 22.012 6.63659 20.4845 8.6155C18.7848 10.8178 17.7442 13.3655 16.6872 15.9073C15.7535 18.1527 14.8123 20.3967 13.7999 22.6064C13.1853 23.948 12.3139 25.1407 11.1783 26.1071C9.25735 27.7435 7.03953 27.9788 4.68365 27.4189C3.77069 27.2015 2.88148 26.8784 1.81711 26.5523C2.13776 27.5842 2.37527 28.5506 2.73304 29.4708C3.88351 32.4354 5.67529 35.01 7.70755 37.4207C10.8146 41.106 14.3016 44.3759 18.3765 46.9758C18.9525 47.3436 19.5805 47.6295 20.1921 47.9392C21.1243 48.4142 22.0165 48.2876 22.8834 47.7516C24.1735 46.9534 25.1562 45.8352 26.0113 44.6142C29.2994 39.9208 31.4163 34.7181 32.4851 29.0985C32.7642 27.6289 32.9022 26.1056 32.8829 24.6106C32.8503 22.1582 31.8987 19.9827 30.4736 18.0113C30.386 17.8906 30.2881 17.779 30.2064 17.6539C29.9273 17.231 29.9852 16.7635 30.3519 16.4537C30.7512 16.1157 31.2678 16.1038 31.5751 16.5595C32.258 17.572 32.9512 18.5935 33.4871 19.6864C34.7667 22.2982 34.9419 25.0826 34.4877 27.9163C33.502 34.0749 31.3717 39.7987 27.9218 45.0028C26.8485 46.6214 25.6 48.0926 23.9478 49.1706C22.5376 50.0908 21.0932 50.2874 19.5226 49.5667C17.1726 48.4871 15.1018 46.9907 13.1304 45.3468C9.09554 41.9816 5.54465 38.1771 2.82656 33.646C1.52021 31.4661 0.421692 29.176 0.121826 26.6208C-0.371024 22.4277 0.636942 18.5726 2.99282 15.0809C4.22197 13.2583 5.75545 11.7276 7.57691 10.4976C7.87529 10.2951 7.94358 10.0896 7.87381 9.75758C7.59027 8.41299 7.07961 7.16817 6.30174 6.03502C5.36057 4.6666 5.35464 3.54983 6.30322 2.17546C6.98015 1.18973 7.89756 0.527113 9.03319 0.166768C10.0426 -0.154861 10.9808 -0.0163818 11.8181 0.63879C12.4742 1.15101 13.1066 1.696 13.831 2.2931ZM6.84654 25.9656C8.70364 25.9761 10.1258 25.0916 11.0744 23.5921C12.0022 22.1269 12.7207 20.5292 13.5178 18.9806C13.5861 18.8481 13.5935 18.6456 13.552 18.4982C13.0057 16.5803 12.3688 14.6907 11.1263 13.1004C10.7062 12.5629 10.102 12.1564 9.53346 11.7618C9.37314 11.6516 8.97975 11.7157 8.78825 11.8422C8.17367 12.2532 7.57097 12.6954 7.0232 13.1898C3.81077 16.0889 2.08283 19.7162 1.81711 24.0403C1.80672 24.219 1.90469 24.5109 2.03681 24.5779C3.55544 25.3313 5.12157 25.9388 6.84654 25.9656ZM14.6861 16.0368C14.7989 15.7866 14.8717 15.6258 14.9444 15.465C15.7089 13.7958 16.3562 12.0566 17.2721 10.4768C18.1123 9.02796 17.6016 7.57169 17.8228 6.03651C16.5788 6.50257 15.4358 6.59191 14.2259 6.27177C14.2259 7.18604 14.2304 8.01989 14.2244 8.85374C14.2215 9.2528 14.0938 9.63995 13.6767 9.72334C13.3842 9.78141 12.9804 9.74865 12.7622 9.58039C12.5633 9.42553 12.4727 9.03838 12.4609 8.74654C12.403 7.3543 12.4238 5.95908 12.3362 4.56982C12.305 4.07397 12.0467 3.59302 11.8923 3.10462C11.8344 3.11653 11.7765 3.12993 11.7201 3.14184C11.1723 4.7217 10.0872 5.72232 8.48839 6.12585C8.73333 6.71401 8.98123 7.23517 9.16531 7.77718C9.34939 8.32067 9.49784 8.88055 9.60323 9.4434C9.67004 9.79779 9.8645 9.91095 10.154 10.0881C10.8888 10.5349 11.68 10.9875 12.2189 11.6308C12.9344 12.487 13.454 13.5144 14.0151 14.4927C14.2749 14.9468 14.4382 15.4591 14.6861 16.0368ZM10.2119 1.83448C8.80755 1.72727 7.25032 3.19991 7.45518 4.40007C8.86099 4.49983 9.92834 3.51857 10.2119 1.83448ZM14.3521 4.38667C15.3809 4.87209 16.8594 4.71574 17.5482 4.04866C16.5313 3.24458 14.7499 3.43369 14.3521 4.38667Z" fill="#136DF4"/>
<path d="M27.2508 27.6542C27.0444 28.6861 26.8812 29.5035 26.7164 30.321C26.5753 31.0283 26.1983 31.3559 25.6446 31.2502C25.0597 31.1385 24.8222 30.6873 24.9691 29.9503C25.1725 28.9303 25.3699 27.9088 25.5956 26.8933C25.6787 26.521 25.5926 26.317 25.2334 26.1622C24.6574 25.9135 24.1052 25.6112 23.504 25.3119C23.3941 25.4832 23.2917 25.6306 23.2026 25.7869C22.3921 27.206 21.5667 28.6176 20.7888 30.0545C20.5973 30.4089 20.5424 30.8466 20.4667 31.2546C20.1564 32.9268 20.7428 34.1955 22.0803 35.2452C22.9799 35.951 23.7444 36.837 24.5223 37.6842C24.7316 37.9121 24.9053 38.3201 24.8578 38.606C24.7376 39.3356 23.9062 39.5381 23.354 39.002C22.5405 38.2143 21.7508 37.3998 20.9492 36.5987C20.823 36.4722 20.6894 36.356 20.4652 36.1476C20.4652 36.6256 20.4652 36.9889 20.4652 37.3522C20.4652 38.5241 20.4697 39.6974 20.4637 40.8693C20.4593 41.59 20.1446 41.9741 19.5745 41.9801C19.003 41.9846 18.6868 41.6049 18.6853 40.8842C18.6823 38.1488 18.6838 35.4135 18.6838 32.6781C18.6838 32.4801 18.6838 32.2821 18.6838 31.9515C17.7234 32.5307 16.8535 33.043 16.0014 33.582C15.8871 33.6549 15.8396 33.8619 15.7995 34.0168C15.5709 34.8983 15.3571 35.7828 15.1315 36.6643C14.9652 37.315 14.5555 37.6187 14.03 37.4922C13.4629 37.3552 13.2358 36.904 13.402 36.219C13.5861 35.4611 13.7657 34.7017 13.975 33.9498C14.0715 33.6013 13.9958 33.4137 13.7078 33.1591C12.7919 32.3491 11.8463 32.1481 10.7537 32.76C10.5162 32.8926 10.2341 32.9611 9.96544 33.0236C9.47556 33.1353 9.12968 32.9209 8.94412 32.4697C8.75559 32.0126 8.92927 31.5405 9.40282 31.3633C10.3395 31.0149 11.2866 30.6858 12.2486 30.4163C12.4876 30.3493 12.8305 30.4878 13.0695 30.6292C13.6603 30.9777 14.2036 31.405 14.796 31.749C14.9726 31.8517 15.2992 31.8741 15.4714 31.7773C16.5373 31.1757 17.5823 30.5369 18.623 29.8922C18.8026 29.7805 18.9659 29.6048 19.0713 29.4216C20.0733 27.684 21.0679 25.9418 22.0462 24.1907C22.1664 23.9763 22.2332 23.7038 22.2362 23.4581C22.254 21.9512 22.2407 20.4443 22.2466 18.9374C22.2496 18.254 22.5583 17.8832 23.1106 17.8728C23.6806 17.8623 24.0206 18.254 24.025 18.9583C24.0324 20.3163 24.0458 21.6757 24.0161 23.0322C24.0072 23.4521 24.1393 23.6844 24.5253 23.8214C26.7312 24.6046 28.3642 26.1637 29.8783 27.8641C30.0832 28.0949 30.2495 28.5044 30.199 28.7903C30.0758 29.4946 29.2608 29.706 28.7293 29.2013C28.2484 28.7486 27.8119 28.2483 27.2508 27.6542Z" fill="#136DF4"/>
<path d="M35.3887 14.6222C35.8192 13.5769 36.5243 12.8845 37.5694 12.5778C37.5664 12.5287 37.5783 12.4751 37.5605 12.4617C35.6455 10.9354 33.5732 9.81268 31.0258 9.93627C29.3943 10.0152 27.9484 10.6406 26.6822 11.6189C25.2882 12.6954 23.9938 13.9015 22.6132 14.996C22.0862 15.4129 21.4657 15.7479 20.8378 15.9936C20.1683 16.2557 19.6502 15.9609 19.5151 15.3906C19.3859 14.8411 19.7036 14.5091 20.3805 14.2723C20.8036 14.1234 21.1955 13.839 21.5533 13.5531C22.9576 12.4274 24.3129 11.2377 25.744 10.1477C27.0058 9.1858 28.4131 8.4666 29.9911 8.16284C31.7933 7.8159 33.49 8.24325 35.1363 8.93713C36.9652 9.70845 38.5892 10.7939 40.0455 12.1519C40.7685 12.8265 41.0832 13.5963 40.9822 14.5835C40.8189 16.1946 40.145 17.4693 38.6783 18.2227C37.2651 18.9493 36.03 18.5726 35.2091 17.2161C33.5286 14.4421 30.0059 14.4972 28.3953 17.3218C28.1013 17.837 27.6694 17.9919 27.1884 17.7551C26.7134 17.5199 26.5515 17.0702 26.8128 16.5267C27.7792 14.521 29.4715 13.5874 31.6077 13.4161C33.0417 13.3 33.9695 13.6395 35.3887 14.6222ZM39.189 14.2589C37.7178 14.0102 36.6921 14.9558 36.8821 16.3525C36.9029 16.5059 37.1716 16.7575 37.2962 16.7411C37.6258 16.6964 37.991 16.5967 38.2478 16.3972C38.9173 15.8745 39.137 15.1166 39.189 14.2589Z" fill="#136DF4"/>
</g>
<defs>
<clipPath id="clip0_68_822">
<rect width="41" height="50" fill="white"/>
</clipPath>
</defs>
</svg>
