<svg width="50" height="50" viewBox="0 0 50 50" fill="none" xmlns="http://www.w3.org/2000/svg">
<g clip-path="url(#clip0_186_1622)">
<path d="M19.9651 5.98773C19.8346 4.79682 19.3844 3.65834 18.6559 2.69603C18.5137 2.50824 18.509 2.25004 18.6441 2.05717C19.3243 1.08676 20.4971 0.587441 21.668 0.76957L21.6734 0.770449C21.8216 0.793496 21.9535 0.876797 22.0381 1.00053C23.1693 2.65668 23.8012 4.60033 23.8622 6.60062" stroke="#136DF4" stroke-width="2" stroke-miterlimit="10" stroke-linecap="round" stroke-linejoin="round"/>
<path d="M29.9354 17.6228L31.5607 15.9975C31.6764 15.8818 31.8427 15.8322 32.0028 15.8655C32.8997 16.052 33.6004 16.7527 33.7869 17.6496C33.8202 17.8098 33.7706 17.976 33.6549 18.0917L32.1344 19.6122" stroke="#136DF4" stroke-width="2" stroke-miterlimit="10" stroke-linecap="round" stroke-linejoin="round"/>
<path d="M32.7552 20.8604H34.8983C35.0619 20.8604 35.2145 20.9428 35.3043 21.0796C35.8066 21.8456 35.8066 22.8366 35.3043 23.6026C35.2145 23.7395 35.062 23.8219 34.8983 23.8219H32.9163" stroke="#136DF4" stroke-width="2" stroke-miterlimit="10" stroke-linecap="round" stroke-linejoin="round"/>
<path d="M5.47523 25.317L2.56371 22.4055C2.41625 22.258 2.36634 22.039 2.43539 21.8422C2.75697 20.9254 3.47787 20.2045 4.39466 19.8829C4.59144 19.8139 4.81039 19.8638 4.95785 20.0112L5.60589 20.6593C5.92074 20.9741 6.2641 21.258 6.63109 21.5074" stroke="#136DF4" stroke-width="2" stroke-miterlimit="10" stroke-linecap="round" stroke-linejoin="round"/>
<path d="M5.27522 29.9669H2.18C1.97141 29.9669 1.78137 29.8473 1.69104 29.6594C1.27014 28.7837 1.27014 27.7642 1.69104 26.8886C1.78137 26.7006 1.97151 26.581 2.18 26.581H3.09651C3.8593 26.581 4.61682 26.4576 5.33967 26.2157" stroke="#136DF4" stroke-width="2" stroke-miterlimit="10" stroke-linecap="round" stroke-linejoin="round"/>
<path d="M24.7527 17.9921C25.5623 17.5066 26.5098 17.2275 27.5224 17.2275C30.5013 17.2275 32.9162 19.6424 32.9162 22.6213C32.9162 23.2733 32.8004 23.8983 32.5885 24.477" stroke="#136DF4" stroke-width="2" stroke-miterlimit="10" stroke-linecap="round" stroke-linejoin="round"/>
<path d="M28.3801 13.4071C28.6826 14.5993 28.8475 15.8859 28.8475 17.2276C28.8475 17.2511 28.8474 17.2744 28.8473 17.2978" stroke="#136DF4" stroke-width="2" stroke-miterlimit="10" stroke-linecap="round" stroke-linejoin="round"/>
<path d="M14.6935 10.6375C16.1166 7.84521 18.4208 6.03076 21.0212 6.03076C23.3151 6.03076 25.3784 7.44268 26.8099 9.69219" stroke="#136DF4" stroke-width="2" stroke-miterlimit="10" stroke-linecap="round" stroke-linejoin="round"/>
<path d="M14.6552 17.1472V12.9627L14.6653 8.07997C14.6659 7.77392 14.4804 7.49814 14.1967 7.38329L13.9233 7.27265C12.4465 6.74032 10.8298 6.74179 9.35386 7.27714C8.93814 7.42792 8.70015 7.86591 8.78687 8.2995L8.9815 9.27265C9.15923 10.1611 9.30445 11.0552 9.41812 11.953L7.00025 10.3619C6.84634 10.2606 6.65171 10.2454 6.48267 10.3188C5.54654 10.7257 4.9397 11.6478 4.93628 12.6685C4.9357 12.8528 5.02661 13.0256 5.18052 13.1268L7.45806 14.6257C8.6855 15.4334 9.48814 16.7309 9.67661 18.1666" stroke="#136DF4" stroke-width="2" stroke-miterlimit="10" stroke-linecap="round" stroke-linejoin="round"/>
<path d="M9.67353 40.4233C9.58993 42.1812 9.39257 43.9324 9.08232 45.666L8.65292 48.0654C8.61454 48.28 8.72304 48.494 8.91884 48.5899L9.0998 48.6786C10.7805 49.5017 12.7557 49.46 14.4001 48.5666C14.5573 48.4812 14.6553 48.3165 14.6553 48.1375V44.6163" stroke="#136DF4" stroke-width="2" stroke-miterlimit="10" stroke-linecap="round" stroke-linejoin="round"/>
<path d="M22.3678 11.8008C24.7819 10.2002 27.6393 9.31836 30.6022 9.31836C30.7281 9.31836 30.8473 9.35449 30.9489 9.41797C31.0504 9.48242 31.1344 9.57422 31.1891 9.6875C31.3903 10.1055 31.4908 10.5586 31.4908 11.0117C31.4908 11.4648 31.3903 11.917 31.1891 12.335C31.1344 12.4473 31.0504 12.54 30.9489 12.6045C30.8473 12.668 30.7281 12.7041 30.6022 12.7041C30.0153 12.7041 29.4371 12.8125 28.8971 13.0186C28.3571 13.2246 27.8541 13.5273 27.4156 13.9189C26.6129 14.6348 25.9371 15.4727 25.4098 16.3936C24.8824 17.3154 24.5026 18.3223 24.2916 19.377L23.778 21.9453" stroke="#136DF4" stroke-width="2" stroke-miterlimit="10" stroke-linecap="round" stroke-linejoin="round"/>
<path d="M16.7321 17.7207L18.942 14.9424C19.2008 14.6172 19.4713 14.3047 19.7535 14.0049" stroke="#136DF4" stroke-width="2" stroke-miterlimit="10" stroke-linecap="round" stroke-linejoin="round"/>
<path d="M7.23596 36.6416C8.47034 39.0635 10.1979 41.1611 12.274 42.8203C14.1334 44.3066 16.2731 45.4414 18.5924 46.1436" stroke="#136DF4" stroke-width="2" stroke-miterlimit="10" stroke-linecap="round" stroke-linejoin="round"/>
<path d="M21.9147 46.9805L30.858 49.1465C31.1891 49.2266 31.528 49.2676 31.8688 49.2676C32.4196 49.2676 32.9518 49.1621 33.444 48.9688C33.9362 48.7744 34.3883 48.4902 34.776 48.1338" stroke="#136DF4" stroke-width="2" stroke-miterlimit="10" stroke-linecap="round" stroke-linejoin="round"/>
<path d="M5.97717 33.458C5.51038 31.8389 5.27502 30.166 5.27502 28.4902C5.27502 26.3652 5.65295 24.2373 6.41272 22.2061C6.97229 20.709 7.96838 19.4648 9.22327 18.5937C10.4781 17.7236 11.9928 17.2275 13.5914 17.2275C15.1256 17.2275 16.6237 17.6875 17.8932 18.5479L21.5231 21.0088C22.1578 21.4395 22.8502 21.7695 23.5748 21.9922C24.3004 22.2148 25.0582 22.3301 25.8248 22.3301C27.8229 22.3301 29.7438 22.8662 31.4117 23.8359C33.0807 24.8066 34.4957 26.2109 35.484 27.9473C36.0426 28.9287 36.5084 29.9492 36.8824 30.9951" stroke="#136DF4" stroke-width="2" stroke-miterlimit="10" stroke-linecap="round" stroke-linejoin="round"/>
<path d="M28.032 22.7163V28.9275C28.032 30.872 27.5857 32.7904 26.7276 34.5352C25.8695 36.28 25.4232 38.1984 25.4232 40.1428V42.1735" stroke="#136DF4" stroke-width="2" stroke-miterlimit="10" stroke-linecap="round" stroke-linejoin="round"/>
<path d="M28.0593 27.8057L29.9193 32.0014C30.1976 32.6292 30.3858 33.2932 30.4784 33.9736C30.5844 34.7531 30.8149 35.504 31.1559 36.1998" stroke="#136DF4" stroke-width="2" stroke-miterlimit="10" stroke-linecap="round" stroke-linejoin="round"/>
<path d="M27.3943 32.7588L26.0921 33.204C23.874 33.9623 22.1963 35.8004 21.6432 38.0784" stroke="#136DF4" stroke-width="2" stroke-miterlimit="10" stroke-linecap="round" stroke-linejoin="round"/>
<path d="M17.3979 18.5396V18.8389C17.3979 21.4787 16.473 24.0352 14.7839 26.0639C13.0117 28.1925 12.0413 30.8747 12.0413 33.6445V33.7438" stroke="#136DF4" stroke-width="2" stroke-miterlimit="10" stroke-linecap="round" stroke-linejoin="round"/>
<path d="M16.4224 23.5911L16.819 24.2398C17.8477 25.9218 18.0727 27.975 17.4327 29.84" stroke="#136DF4" stroke-width="2" stroke-miterlimit="10" stroke-linecap="round" stroke-linejoin="round"/>
<path d="M17.1564 20.6904L16.2085 21.4101C14.5277 22.6861 12.4753 23.377 10.365 23.377" stroke="#136DF4" stroke-width="2" stroke-miterlimit="10" stroke-linecap="round" stroke-linejoin="round"/>
<path d="M48.6246 41.7764C47.8239 46.041 44.0807 49.2676 39.5836 49.2676C34.5026 49.2676 30.3824 45.1484 30.3824 40.0674C30.3824 34.9854 34.5026 30.8662 39.5836 30.8662C44.0807 30.8662 47.8248 34.0928 48.6246 38.3584" stroke="#136DF4" stroke-width="2" stroke-miterlimit="10" stroke-linecap="round" stroke-linejoin="round"/>
<path d="M34.6309 38.3846H37.9011V35.1144H41.2659V38.3846H44.5361V41.7494H41.2659V45.0197H37.9011V41.7494H34.6309V38.3846Z" stroke="#136DF4" stroke-width="2" stroke-miterlimit="10" stroke-linecap="round" stroke-linejoin="round"/>
</g>
<defs>
<clipPath id="clip0_186_1622">
<rect width="50" height="50" fill="white"/>
</clipPath>
</defs>
</svg>
