<svg width="49" height="50" viewBox="0 0 49 50" fill="none" xmlns="http://www.w3.org/2000/svg">
<path d="M39.3839 24.9788C41.8392 25.2126 44.0282 23.4702 44.0131 21.2844C44.0131 20.3096 43.5877 19.423 42.8929 18.7604" stroke="#136DF4" stroke-width="2" stroke-miterlimit="10" stroke-linecap="round" stroke-linejoin="round"/>
<path d="M2.12029 18.7604C1.42547 19.4229 1.00008 20.3095 1.00008 21.2844C0.984941 23.4702 3.1741 25.2126 5.62928 24.9788" stroke="#136DF4" stroke-width="2" stroke-miterlimit="10" stroke-linecap="round" stroke-linejoin="round"/>
<path d="M17.1144 35.9087C17.0801 36.1557 17.061 36.4075 17.061 36.6639C17.061 39.6714 19.4991 42.1095 22.5066 42.1095C24.1719 42.1095 25.6617 41.3611 26.6605 40.1834" stroke="#136DF4" stroke-width="2" stroke-miterlimit="10" stroke-linecap="round" stroke-linejoin="round"/>
<path d="M34.5774 32.3518C37.8512 29.5568 39.8879 25.636 39.8879 21.2941C39.8879 20.2905 39.7779 19.3096 39.5702 18.3596" stroke="#136DF4" stroke-width="2" stroke-miterlimit="10" stroke-linecap="round" stroke-linejoin="round"/>
<path d="M37.8429 48.9596C37.0882 49.3689 36.1839 49.3703 35.4281 48.9632C31.1386 46.6529 26.0051 41.5849 25.9988 37.3692C25.9941 34.1929 28.5652 31.6139 31.7417 31.6092C33.7924 31.6061 35.593 32.6776 36.6136 34.2917C37.6295 32.6746 39.4268 31.5977 41.4776 31.5946C44.6541 31.5898 47.2329 34.161 47.2377 37.3375C47.2439 41.5533 42.1256 46.6365 37.8429 48.9596Z" stroke="#136DF4" stroke-width="2" stroke-miterlimit="10" stroke-linecap="round" stroke-linejoin="round"/>
<path d="M39.1473 39.3094H38.1586V38.3207C38.1586 37.8387 37.768 37.4481 37.2861 37.4481H35.9502C35.4683 37.4481 35.0777 37.8387 35.0777 38.3207V39.3094H34.089C33.6071 39.3094 33.2164 39.7 33.2164 40.1819V41.5178C33.2164 41.9998 33.6071 42.3904 34.089 42.3904H35.0777V43.3791C35.0777 43.861 35.4683 44.2516 35.9502 44.2516H37.2861C37.768 44.2516 38.1586 43.861 38.1586 43.3791V42.3904H39.1473C39.6292 42.3904 40.0198 41.9998 40.0198 41.5178V40.1819C40.0198 39.7 39.6292 39.3094 39.1473 39.3094Z" stroke="#136DF4" stroke-width="2" stroke-miterlimit="10" stroke-linecap="round" stroke-linejoin="round"/>
<path d="M16.4081 22.2715V23.4434" stroke="#136DF4" stroke-width="2" stroke-miterlimit="10" stroke-linecap="round" stroke-linejoin="round"/>
<path d="M28.6051 22.2715V23.4434" stroke="#136DF4" stroke-width="2" stroke-miterlimit="10" stroke-linecap="round" stroke-linejoin="round"/>
<path d="M20.8988 23.4084C21.2897 23.8571 21.8648 24.141 22.5066 24.141C23.1484 24.141 23.7235 23.8571 24.1144 23.4084" stroke="#136DF4" stroke-width="2" stroke-miterlimit="10" stroke-linecap="round" stroke-linejoin="round"/>
<path d="M34.4031 4.11934C31.0549 1.98838 26.9469 0.732422 22.5067 0.732422C11.247 0.732422 2.11926 8.80381 2.11926 18.7604C3.2803 18.7604 4.37249 18.6676 5.4387 18.3745C6.63167 14.7725 10.5235 10.6831 15.6595 10.4584C14.1033 12.4056 13.5675 14.4658 14.4943 15.6432C15.6894 17.1614 18.8824 16.6609 21.7757 14.5596C21.6027 16.0842 21.9529 17.3315 22.8576 17.9049C24.5666 18.9878 27.6057 17.256 29.6455 14.0367C30.3556 12.9162 30.8503 11.7634 31.1224 10.6905C35.3728 11.6401 38.5219 15.1939 39.5737 18.3697C40.6146 18.6182 41.7171 18.7603 42.894 18.7603C42.894 13.8733 40.694 9.4415 37.1234 6.19434" stroke="#136DF4" stroke-width="2" stroke-miterlimit="10" stroke-linecap="round" stroke-linejoin="round"/>
<path d="M17.2675 48.5526H34.7062" stroke="#136DF4" stroke-width="2" stroke-miterlimit="10" stroke-linecap="round" stroke-linejoin="round"/>
<path d="M16.2797 35.6471C12.2714 37.5847 9.30199 41.3328 8.43695 45.831C8.16547 47.2426 9.24672 48.5528 10.6841 48.5528H13.8495" stroke="#136DF4" stroke-width="2" stroke-miterlimit="10" stroke-linecap="round" stroke-linejoin="round"/>
<path d="M5.44204 18.3644C5.23501 19.3129 5.12524 20.2921 5.12524 21.2942C5.12524 29.7826 12.9072 36.6639 22.5066 36.6639C23.7357 36.6639 24.9346 36.5504 26.0917 36.3359" stroke="#136DF4" stroke-width="2" stroke-miterlimit="10" stroke-linecap="round" stroke-linejoin="round"/>
</svg>
