<svg width="50" height="50" viewBox="0 0 50 50" fill="none" xmlns="http://www.w3.org/2000/svg">
<g clip-path="url(#clip0_222_631)">
<path d="M42.6777 7.32227C37.9558 2.60049 31.6777 0 25 0C18.3223 0 12.0442 2.60049 7.32227 7.32227C2.60049 12.0442 0 18.3223 0 25C0 31.6777 2.60049 37.9558 7.32227 42.6777C12.0442 47.3995 18.3223 50 25 50C31.6777 50 37.9558 47.3995 42.6777 42.6777C47.3995 37.9558 50 31.6777 50 25C50 18.3223 47.3995 12.0442 42.6777 7.32227ZM41.6419 41.6419C37.1967 46.0871 31.2865 48.5352 25 48.5352C18.7135 48.5352 12.8033 46.0871 8.35811 41.6419C3.91289 37.1967 1.46484 31.2865 1.46484 25C1.46484 18.7135 3.91289 12.8033 8.35811 8.35811C12.8033 3.91289 18.7135 1.46484 25 1.46484C31.2865 1.46484 37.1967 3.91289 41.6419 8.35811C46.0871 12.8033 48.5352 18.7135 48.5352 25C48.5352 31.2865 46.0871 37.1967 41.6419 41.6419Z" fill="#136DF4"/>
<path d="M25 7.82812C24.5955 7.82812 24.2676 8.15605 24.2676 8.56055V11.6918C24.2676 12.0963 24.5955 12.4242 25 12.4242C25.4045 12.4242 25.7324 12.0964 25.7324 11.6919V8.56055C25.7324 8.15605 25.4045 7.82812 25 7.82812Z" fill="#136DF4"/>
<path d="M25 37.5757C24.5955 37.5757 24.2676 37.9036 24.2676 38.3081V41.4394C24.2676 41.8438 24.5955 42.1718 25 42.1718C25.4045 42.1718 25.7324 41.8438 25.7324 41.4394V38.3081C25.7324 37.9036 25.4045 37.5757 25 37.5757Z" fill="#136DF4"/>
<path d="M41.4394 24.2676H38.3081C37.9036 24.2676 37.5757 24.5955 37.5757 25C37.5757 25.4045 37.9036 25.7324 38.3081 25.7324H41.4394C41.8438 25.7324 42.1718 25.4045 42.1718 25C42.1718 24.5955 41.8438 24.2676 41.4394 24.2676Z" fill="#136DF4"/>
<path d="M11.6919 24.2676H8.56067C8.15618 24.2676 7.82825 24.5955 7.82825 25C7.82825 25.4045 8.15618 25.7324 8.56067 25.7324H11.6919C12.0964 25.7324 12.4243 25.4045 12.4243 25C12.4243 24.5955 12.0964 24.2676 11.6919 24.2676Z" fill="#136DF4"/>
<path d="M12.4852 16.929L11.1294 16.1461C10.779 15.9438 10.3311 16.0639 10.1289 16.4142C9.92664 16.7645 10.0467 17.2125 10.397 17.4147L11.7528 18.1975C11.8681 18.2641 11.9941 18.2958 12.1183 18.2958C12.3715 18.2958 12.6177 18.1643 12.7533 17.9294C12.9555 17.5791 12.8355 17.1312 12.4852 16.929Z" fill="#136DF4"/>
<path d="M39.603 32.5854L38.2472 31.8026C37.8969 31.6003 37.4489 31.7204 37.2467 32.0707C37.0444 32.421 37.1645 32.8689 37.5147 33.0712L38.8706 33.854C38.9859 33.9206 39.1119 33.9522 39.2361 33.9522C39.4893 33.9522 39.7355 33.8208 39.8711 33.5859C40.0733 33.2356 39.9533 32.7877 39.603 32.5854Z" fill="#136DF4"/>
<path d="M33.5859 10.1288C33.2356 9.92646 32.7877 10.0466 32.5854 10.3969L31.8026 11.7527C31.6003 12.103 31.7204 12.551 32.0707 12.7532C32.186 12.8198 32.312 12.8515 32.4362 12.8515C32.6893 12.8515 32.9355 12.72 33.0711 12.4852L33.854 11.1293C34.0562 10.779 33.9362 10.3311 33.5859 10.1288Z" fill="#136DF4"/>
<path d="M17.9294 37.2467C17.579 37.0444 17.1311 37.1645 16.9289 37.5148L16.1461 38.8707C15.9439 39.2209 16.0639 39.6689 16.4142 39.8711C16.5295 39.9377 16.6555 39.9694 16.7797 39.9694C17.0328 39.9694 17.279 39.8379 17.4147 39.6031L18.1975 38.2472C18.3997 37.8969 18.2797 37.449 17.9294 37.2467Z" fill="#136DF4"/>
<path d="M39.8712 16.4142C39.669 16.0639 39.2209 15.9439 38.8707 16.1461L37.5149 16.9289C37.1646 17.1312 37.0446 17.5791 37.2468 17.9294C37.3825 18.1644 37.6286 18.2957 37.8818 18.2957C38.006 18.2957 38.132 18.2641 38.2473 18.1975L39.6032 17.4147C39.9534 17.2124 40.0735 16.7645 39.8712 16.4142Z" fill="#136DF4"/>
<path d="M12.7533 32.0707C12.5511 31.7203 12.1031 31.6003 11.7528 31.8027L10.397 32.5855C10.0467 32.7877 9.92664 33.2357 10.1289 33.586C10.2645 33.8209 10.5107 33.9523 10.7638 33.9523C10.8881 33.9523 11.014 33.9206 11.1294 33.854L12.4852 33.0712C12.8355 32.8691 12.9555 32.4211 12.7533 32.0707Z" fill="#136DF4"/>
<path d="M18.1975 11.7528L17.4147 10.3969C17.2124 10.0465 16.7645 9.92648 16.4142 10.1288C16.0639 10.3311 15.9439 10.779 16.1461 11.1293L16.9289 12.4852C17.0646 12.7201 17.3107 12.8515 17.5639 12.8515C17.6881 12.8515 17.8141 12.8198 17.9294 12.7532C18.2797 12.551 18.3997 12.103 18.1975 11.7528Z" fill="#136DF4"/>
<path d="M33.854 38.8707L33.0711 37.5148C32.869 37.1645 32.421 37.0444 32.0707 37.2467C31.7204 37.449 31.6003 37.8969 31.8026 38.2472L32.5854 39.6031C32.7211 39.838 32.9672 39.9694 33.2204 39.9694C33.3446 39.9694 33.4706 39.9377 33.5859 39.8711C33.9362 39.6689 34.0562 39.2209 33.854 38.8707Z" fill="#136DF4"/>
<path d="M35.9006 23.323C35.8392 22.9233 35.466 22.6489 35.0654 22.7105L27.0407 23.945C26.6578 23.2073 25.8871 22.702 25.0001 22.702C24.6333 22.702 24.2864 22.7889 23.9784 22.9425L16.1242 15.0883C15.8381 14.8023 15.3744 14.8023 15.0884 15.0883C14.8024 15.3743 14.8024 15.8381 15.0884 16.124L22.9426 23.9782C22.789 24.2863 22.7021 24.6331 22.7021 25C22.7021 26.2672 23.7331 27.2981 25.0001 27.2981C26.1333 27.2981 27.077 26.4734 27.2639 25.3928L35.2882 24.1583C35.6879 24.0967 35.9622 23.7228 35.9006 23.323ZM25 25.8332C24.5406 25.8332 24.1668 25.4594 24.1668 25C24.1668 24.5406 24.5407 24.1668 25 24.1668C25.4594 24.1668 25.8333 24.5406 25.8333 25C25.8333 25.4594 25.4595 25.8332 25 25.8332Z" fill="#136DF4"/>
<path d="M38.1588 9.54519C34.2858 6.24089 29.3422 4.52459 24.2382 4.71384C19.1057 4.90359 14.2777 7.00955 10.6437 10.6435C7.00972 14.2775 4.90377 19.1055 4.71402 24.2381C4.52525 29.3419 6.24107 34.2857 9.54537 38.1587C9.69019 38.3285 9.89586 38.4157 10.1029 38.4157C10.2711 38.4157 10.44 38.3582 10.5779 38.2405C10.8856 37.978 10.9222 37.5157 10.6597 37.208C7.59439 33.615 6.0026 29.0282 6.17779 24.2922C6.35387 19.5303 8.30777 15.0511 11.6795 11.6793C15.0511 8.3075 19.5305 6.35369 24.2923 6.17761C29.0287 6.00252 33.6152 7.59421 37.2082 10.6595C37.5158 10.922 37.9782 10.8854 38.2407 10.5777C38.5032 10.27 38.4666 9.80769 38.1588 9.54519Z" fill="#136DF4"/>
<path d="M40.4548 11.8413C40.1923 11.5336 39.7299 11.4969 39.4222 11.7595C39.1145 12.022 39.0779 12.4843 39.3404 12.792C42.4057 16.385 43.9974 20.9719 43.8223 25.7078C43.6463 30.4696 41.6924 34.9489 38.3207 38.3207C34.949 41.6925 30.4696 43.6463 25.7078 43.8224C20.9722 43.9977 16.3849 42.4059 12.792 39.3404C12.4843 39.0779 12.0219 39.1146 11.7594 39.4223C11.4969 39.73 11.5336 40.1923 11.8413 40.4548C15.5217 43.5947 20.1687 45.3002 25.0014 45.3002C25.2544 45.3002 25.5081 45.2955 25.762 45.2861C30.8945 45.0964 35.7225 42.9904 39.3565 39.3565C42.9905 35.7225 45.0965 30.8944 45.2862 25.7619C45.4749 20.6582 43.7591 15.7144 40.4548 11.8413Z" fill="#136DF4"/>
</g>
<defs>
<clipPath id="clip0_222_631">
<rect width="50" height="50" fill="white"/>
</clipPath>
</defs>
</svg>
