<svg width="50" height="50" viewBox="0 0 50 50" fill="none" xmlns="http://www.w3.org/2000/svg">
<g clip-path="url(#clip0_295_1949)">
<path d="M3.48486 14.7585H5.0751" stroke="#136DF4" stroke-width="1.5" stroke-miterlimit="10" stroke-linecap="round" stroke-linejoin="round"/>
<path d="M9.14844 14.7585H10.7387" stroke="#136DF4" stroke-width="1.5" stroke-miterlimit="10" stroke-linecap="round" stroke-linejoin="round"/>
<path d="M7.11182 11.1316V12.7219" stroke="#136DF4" stroke-width="1.5" stroke-miterlimit="10" stroke-linecap="round" stroke-linejoin="round"/>
<path d="M7.11182 16.7952V18.3854" stroke="#136DF4" stroke-width="1.5" stroke-miterlimit="10" stroke-linecap="round" stroke-linejoin="round"/>
<path d="M37.4248 9.06201H39.0151" stroke="#136DF4" stroke-width="1.5" stroke-miterlimit="10" stroke-linecap="round" stroke-linejoin="round"/>
<path d="M43.0884 9.06201H44.6786" stroke="#136DF4" stroke-width="1.5" stroke-miterlimit="10" stroke-linecap="round" stroke-linejoin="round"/>
<path d="M41.0518 5.43506V7.02529" stroke="#136DF4" stroke-width="1.5" stroke-miterlimit="10" stroke-linecap="round" stroke-linejoin="round"/>
<path d="M41.0518 11.0986V12.6889" stroke="#136DF4" stroke-width="1.5" stroke-miterlimit="10" stroke-linecap="round" stroke-linejoin="round"/>
<path d="M31.6553 35.8203V39.3122C31.6553 39.9567 32.1826 40.4841 32.8271 40.4841H37.5189C38.1635 40.4841 38.6908 39.9567 38.6908 39.3122V34.6279C38.6908 33.9834 38.1635 33.4561 37.5189 33.4561H35.6594" stroke="#136DF4" stroke-width="1.5" stroke-miterlimit="10" stroke-linecap="round" stroke-linejoin="round"/>
<path d="M7.84347 43.1818L7.65597 42.8546C7.27443 42.1888 6.52717 41.8188 5.76564 41.9184C5.52433 41.9502 5.29308 42.0279 5.08371 42.1453C4.87433 42.2626 4.68771 42.4198 4.53468 42.6092L1.09064 46.887C0.764372 47.2915 0.641814 47.8076 0.803142 48.292C0.963884 48.7744 1.3589 49.1161 1.82355 49.228C2.04054 49.2802 2.27267 49.2826 2.50304 49.2249L3.85285 48.888C4.76115 48.6622 7.84347 47.5122 7.84347 47.5122" stroke="#136DF4" stroke-width="1.5" stroke-miterlimit="10" stroke-linecap="round" stroke-linejoin="round"/>
<path d="M28.7312 40.9805C28.4687 40.3886 28.0867 39.8334 27.5813 39.3495L18.6284 31.7112" stroke="#136DF4" stroke-width="1.5" stroke-miterlimit="10" stroke-linecap="round" stroke-linejoin="round"/>
<path d="M20.4326 47.5122H24.8322C26.3659 47.5122 27.7562 46.7111 28.525 45.4656" stroke="#136DF4" stroke-width="1.5" stroke-miterlimit="10" stroke-linecap="round" stroke-linejoin="round"/>
<path d="M20.9918 37.1319L19.9149 36.0759C19.3034 35.4762 18.7531 34.8194 18.2713 34.1152C18.0536 33.7971 17.8262 33.4862 17.5889 33.1833" stroke="#136DF4" stroke-width="1.5" stroke-miterlimit="10" stroke-linecap="round" stroke-linejoin="round"/>
<path d="M14.1562 47.5121H20.5036C22.5485 47.5121 24.3385 46.0881 24.7402 44.0851C25.0597 42.4922 24.6312 40.7595 23.3847 39.48" stroke="#136DF4" stroke-width="1.5" stroke-miterlimit="10" stroke-linecap="round" stroke-linejoin="round"/>
<path d="M9.03467 30.7637C7.45605 34.2984 9.05176 38.511 12.6844 40.0708L16.1565 41.6778L8.4126 43.0542C7.61367 43.1962 7.03174 43.8901 7.03174 44.7007V46.4155C7.03174 47.0212 7.52324 47.5122 8.12959 47.5122H10.8262" stroke="#136DF4" stroke-width="1.5" stroke-miterlimit="10" stroke-linecap="round" stroke-linejoin="round"/>
<path d="M31.5573 22.24L28.0294 22.6586C27.3558 22.7385 26.673 22.5829 26.0969 22.2182L22.5708 19.9858" stroke="#136DF4" stroke-width="1.5" stroke-miterlimit="10" stroke-linecap="round" stroke-linejoin="round"/>
<path d="M24.7017 27.1578C26.0966 27.3879 27.801 27.2456 28.9166 26.995L32.2056 26.2563" stroke="#136DF4" stroke-width="1.5" stroke-miterlimit="10" stroke-linecap="round" stroke-linejoin="round"/>
<path d="M29.9434 35.022C30.5379 35.512 31.4014 35.8203 32.3623 35.8203C34.1557 35.8203 35.6095 34.7466 35.6095 33.4222C35.6095 32.0978 34.1557 31.0242 32.3623 31.0242C32.1964 31.0242 32.0334 31.0333 31.8742 31.0511" stroke="#136DF4" stroke-width="1.5" stroke-miterlimit="10" stroke-linecap="round" stroke-linejoin="round"/>
<path d="M38.6571 21.8666C38.0635 21.388 37.2103 21.0879 36.262 21.0879C35.7153 21.0879 35.2001 21.1877 34.748 21.364" stroke="#136DF4" stroke-width="1.5" stroke-miterlimit="10" stroke-linecap="round" stroke-linejoin="round"/>
<path d="M35.4941 25.8164C35.7402 25.8604 35.9974 25.8838 36.2618 25.8838C37.2101 25.8838 38.0634 25.5836 38.657 25.105" stroke="#136DF4" stroke-width="1.5" stroke-miterlimit="10" stroke-linecap="round" stroke-linejoin="round"/>
<path d="M18.5811 16.5544L19.4352 13.6802" stroke="#136DF4" stroke-width="1.5" stroke-miterlimit="10" stroke-linecap="round" stroke-linejoin="round"/>
<path d="M30.7603 9.23193C30.7603 11.2426 29.6322 12.1957 30.3741 14.7113C30.5171 15.1961 30.3564 15.7278 29.9552 16.035C29.9339 16.0513 29.9146 16.0645 29.8977 16.0741L27.5733 17.8195C26.8745 18.3443 25.964 18.4974 25.1317 18.2299L24.578 17.8939C23.8767 17.6686 23.1258 18.0569 22.9052 18.7591L22.0713 21.4132" stroke="#136DF4" stroke-width="1.5" stroke-miterlimit="10" stroke-linecap="round" stroke-linejoin="round"/>
<path d="M19.2919 43.1645L16.1567 41.6777" stroke="#136DF4" stroke-width="1.5" stroke-miterlimit="10" stroke-linecap="round" stroke-linejoin="round"/>
<path d="M17.6157 3.81572C19.3751 1.86016 21.8902 0.732422 24.5407 0.732422C26.0969 0.732422 27.6027 1.28389 28.7901 2.28867L30.6917 3.89785C31.7671 4.80791 32.359 6.16494 32.2938 7.57139C32.2662 8.16855 31.8778 8.68887 31.3127 8.88594L26.6086 10.5261C26.1537 10.6847 25.6754 10.7656 25.1937 10.7656H24.5014C23.6346 10.7656 22.9249 11.4543 22.8998 12.3198C22.8747 13.1854 22.1651 13.874 21.2983 13.874C19.1536 13.874 17.2391 12.531 16.5112 10.5158L16.3091 9.95645C15.9453 8.94951 15.8669 7.88184 16.056 6.8624" stroke="#136DF4" stroke-width="1.5" stroke-miterlimit="10" stroke-linecap="round" stroke-linejoin="round"/>
<path d="M10.0426 28.7373L9.87002 29.0367C9.77227 29.2063 9.68184 29.38 9.59893 29.5572L9.03467 30.7634L12.0249 30.8976C13.9451 30.9998 15.7834 31.7079 17.2752 32.9201L17.5711 33.1605L20.0326 29.6487" stroke="#136DF4" stroke-width="1.5" stroke-miterlimit="10" stroke-linecap="round" stroke-linejoin="round"/>
<path d="M28.911 29.8331L24.7492 27.2265C24.1182 26.8313 23.643 26.2302 23.404 25.5249L20.976 18.3585C20.5052 16.9689 18.9716 16.2496 17.6005 16.7754C17.1007 16.9671 16.6946 17.2969 16.4094 17.7046L16.3346 17.8179L11.749 25.7758" stroke="#136DF4" stroke-width="1.5" stroke-miterlimit="10" stroke-linecap="round" stroke-linejoin="round"/>
<path d="M17.436 23.5554L19.041 27.7332C19.6744 29.382 20.9074 30.7313 22.4935 31.5116L26.9604 33.7089" stroke="#136DF4" stroke-width="1.5" stroke-miterlimit="10" stroke-linecap="round" stroke-linejoin="round"/>
<path d="M27.5192 35.3361L28.2467 35.6981C28.8232 35.985 29.5301 35.7483 29.8175 35.172L31.753 31.2913C32.0409 30.714 31.804 30.0065 31.2265 29.7191L30.499 29.3571C29.9225 29.0702 29.2156 29.3069 28.9282 29.8832L26.9927 33.7639C26.7048 34.3412 26.9417 35.0487 27.5192 35.3361Z" stroke="#136DF4" stroke-width="1.5" stroke-miterlimit="10" stroke-linecap="round" stroke-linejoin="round"/>
<path d="M33.6446 27.141L34.4464 27.0059C35.0822 26.8987 35.5146 26.2909 35.4073 25.6552L34.6854 21.3803C34.5781 20.7449 33.9706 20.3128 33.3352 20.4198L32.5333 20.555C31.8976 20.6621 31.4652 21.2699 31.5725 21.9057L32.2944 26.1806C32.4016 26.8159 33.0092 27.2482 33.6446 27.141Z" stroke="#136DF4" stroke-width="1.5" stroke-miterlimit="10" stroke-linecap="round" stroke-linejoin="round"/>
<path d="M43.4038 47.5122H48.0956C48.7401 47.5122 49.2675 46.9848 49.2675 46.3403V41.656C49.2675 41.0115 48.7401 40.4841 48.0956 40.4841H43.4038C42.7593 40.4841 42.2319 41.0115 42.2319 41.656V46.3403C42.2319 46.9848 42.7593 47.5122 43.4038 47.5122Z" stroke="#136DF4" stroke-width="1.5" stroke-miterlimit="10" stroke-linecap="round" stroke-linejoin="round"/>
<path d="M32.8272 40.4841H29.7456C29.1011 40.4841 28.5737 41.0115 28.5737 41.656V46.3403C28.5737 46.9848 29.1011 47.5122 29.7456 47.5122H34.4374C35.0819 47.5122 35.6093 46.9848 35.6093 46.3403V41.656C35.6093 41.0115 35.0819 40.4841 34.4374 40.4841H34.3606" stroke="#136DF4" stroke-width="1.5" stroke-miterlimit="10" stroke-linecap="round" stroke-linejoin="round"/>
<path d="M39.8628 26.9997H44.5546C45.1991 26.9997 45.7265 26.4724 45.7265 25.8278V21.1436C45.7265 20.499 45.1991 19.9717 44.5546 19.9717H39.8628C39.2183 19.9717 38.6909 20.499 38.6909 21.1436V25.8278C38.6909 26.4724 39.2183 26.9997 39.8628 26.9997Z" stroke="#136DF4" stroke-width="1.5" stroke-miterlimit="10" stroke-linecap="round" stroke-linejoin="round"/>
<path d="M48.0956 40.4841C48.7401 40.4841 49.2675 39.9567 49.2675 39.3122V34.6279C49.2675 33.9834 48.7401 33.4561 48.0956 33.4561H43.4038C42.7593 33.4561 42.2319 33.9834 42.2319 34.6279V39.3122C42.2319 39.9567 42.7593 40.4841 43.4038 40.4841" stroke="#136DF4" stroke-width="1.5" stroke-miterlimit="10" stroke-linecap="round" stroke-linejoin="round"/>
</g>
<defs>
<clipPath id="clip0_295_1949">
<rect width="50" height="50" fill="white"/>
</clipPath>
</defs>
</svg>
