<svg width="50" height="50" viewBox="0 0 50 50" fill="none" xmlns="http://www.w3.org/2000/svg">
<path d="M42.5684 15.625C42.5684 10.1074 38.0762 5.61523 32.5586 5.61523C31.8262 5.61523 31.1133 5.69336 30.4297 5.83984C29.707 5.69336 28.9648 5.61523 28.2227 5.61523C26.4648 5.61523 24.7266 6.04492 23.1836 6.875C21.6406 6.05469 19.9121 5.61523 18.1445 5.61523C12.2363 5.61523 7.43164 10.4199 7.43164 16.3281C7.43164 20.5566 8.52539 23.3594 9.67773 26.3379C10.459 28.3496 11.2598 30.4199 11.7773 33.0664C12.0703 34.5801 12.2656 35.8789 12.4414 37.0313C12.7832 39.2676 13.0469 41.0352 13.7891 42.832C14.2188 43.8867 15.1855 44.4922 16.25 44.375C17.334 44.2578 18.1641 43.4375 18.3789 42.2949C19.502 36.0352 22.0898 31.4648 23.1836 29.7461C24.2871 31.4648 26.8652 36.0254 27.9883 42.2949C28.1934 43.4473 29.0234 44.2676 30.1172 44.375C30.2051 44.3848 30.2832 44.3848 30.3711 44.3848C31.3281 44.3848 32.1777 43.7988 32.5781 42.832C33.3105 41.0449 33.584 39.2676 33.9258 37.0313C34.1016 35.8789 34.2969 34.5801 34.5898 33.0664C35.0977 30.4199 35.9082 28.3398 36.6895 26.3379C36.9434 25.6934 37.1973 25.0391 37.4316 24.375C40.4883 22.6562 42.5684 19.375 42.5684 15.625ZM26.2109 7.89063C25.6152 7.8418 25.0684 7.73437 24.6289 7.58789C25.5859 7.19727 26.6113 6.96289 27.6465 6.89453C27.1387 7.1875 26.6602 7.51953 26.2109 7.89063ZM35.498 25.8789C34.6973 27.9395 33.8672 30.0684 33.3398 32.832C33.0469 34.375 32.8418 35.6836 32.666 36.8457C32.3242 39.082 32.0801 40.7031 31.3965 42.3535C31.1426 42.9785 30.6348 43.1543 30.2441 43.1152C29.834 43.0762 29.3652 42.7734 29.2383 42.0703C27.7441 33.7402 23.8574 28.4473 23.6914 28.2227C23.5742 28.0664 23.3789 27.9688 23.1836 27.9688C22.9883 27.9688 22.793 28.0664 22.6758 28.2227C22.5098 28.4473 18.623 33.7305 17.1289 42.0703C17.002 42.7734 16.5234 43.0762 16.123 43.1152C15.7324 43.1543 15.2344 42.9785 14.9707 42.3535C14.2871 40.7031 14.043 39.082 13.7012 36.8457C13.5254 35.6836 13.3203 34.375 13.0273 32.832C12.4902 30.0684 11.6699 27.9395 10.8691 25.8789C9.75586 23.0176 8.71094 20.3125 8.71094 16.3281C8.71094 11.123 12.9492 6.88477 18.1543 6.88477C19.9316 6.88477 21.6699 7.38281 23.1738 8.33008C23.6426 8.62305 24.3164 8.86719 25.0684 9.01367C23.5059 10.7813 22.5684 13.0957 22.5684 15.625C22.5684 21.1426 27.0605 25.6348 32.5781 25.6348C33.7109 25.6348 34.8047 25.4492 35.8203 25.0977C35.6934 25.3516 35.5957 25.6152 35.498 25.8789ZM33.1934 24.3457V23.8184C33.1934 23.4668 32.9102 23.1836 32.5586 23.1836C32.207 23.1836 31.9238 23.4668 31.9238 23.8184V24.3457C27.6074 24.0332 24.1504 20.5762 23.8379 16.2598H24.3652C24.7168 16.2598 25 15.9766 25 15.625C25 15.2734 24.7168 14.9902 24.3652 14.9902H23.8379C24.0039 12.627 25.1172 10.5273 26.8066 9.05273C26.8359 9.0332 26.8555 9.01367 26.875 8.99414C28.252 7.8125 30 7.05078 31.9238 6.91406V7.44141C31.9238 7.79297 32.207 8.07617 32.5586 8.07617C32.9102 8.07617 33.1934 7.79297 33.1934 7.44141V6.91406C37.5098 7.22656 40.9668 10.6836 41.2793 15H40.752C40.4004 15 40.1172 15.2832 40.1172 15.6348C40.1172 15.9863 40.4004 16.2695 40.752 16.2695H41.2793C40.957 20.5762 37.5 24.0332 33.1934 24.3457Z" fill="white"/>
<path d="M36.0254 10.3613C35.7324 10.166 35.3418 10.2539 35.1465 10.5469L32.0313 15.2734C31.9629 15.3808 31.9238 15.498 31.9238 15.625V20.5273C31.9238 20.8789 32.207 21.1621 32.5586 21.1621C32.9102 21.1621 33.1934 20.8789 33.1934 20.5273V15.8105L36.2012 11.2402C36.3965 10.9473 36.3184 10.5566 36.0254 10.3613Z" fill="white"/>
</svg>
