<svg width="75" height="75" viewBox="0 0 75 75" fill="none" xmlns="http://www.w3.org/2000/svg">
<g clip-path="url(#clip0_413_770)">
<path d="M69.3457 52.6356C66.9022 52.6356 64.8571 54.3738 64.3818 56.6786H58.6292L52.1256 45.4141C52.2675 44.967 52.4247 44.5283 52.6015 44.1004C52.7815 43.7089 52.9589 43.2961 53.1327 42.8698H55.5686C56.1349 42.8698 56.5939 42.4107 56.5939 41.8444V36.6223H63.7228C64.1982 38.9271 66.2433 40.6652 68.6867 40.6652C71.4813 40.6652 73.755 38.3917 73.755 35.5969C73.755 32.8021 71.4814 30.5285 68.6867 30.5285C66.2432 30.5285 64.1982 32.2667 63.7228 34.5715H55.3938C55.444 34.1965 55.4861 33.8272 55.5183 33.4655H59.6521C60.2184 33.4655 60.6775 33.0064 60.6775 32.4401V24.48C60.6775 23.9137 60.2184 23.4546 59.6521 23.4546H53.468L58.6293 14.515H64.3819C64.8574 16.8198 66.9025 18.558 69.3458 18.558C72.1406 18.558 74.4142 16.2844 74.4142 13.4896C74.4142 10.6948 72.1406 8.42124 69.3458 8.42124C66.9023 8.42124 64.8574 10.1594 64.3819 12.4642H58.0374C57.671 12.4642 57.3325 12.6596 57.1494 12.9769L51.3208 23.0723C50.2295 22.5353 48.9439 22.2365 47.4829 22.1836C45.1474 22.0994 43.2954 22.6784 41.6615 23.1896C40.6074 23.5194 39.5991 23.8342 38.5257 23.9594V10.6184C40.8305 10.1429 42.5686 8.0978 42.5686 5.6543C42.5686 2.85967 40.2951 0.585938 37.5003 0.585938C34.7055 0.585938 32.4319 2.85952 32.4319 5.6543C32.4319 8.0978 34.1701 10.1429 36.4749 10.6184V23.9584C35.4021 23.8327 34.3929 23.5194 33.339 23.1896C31.7051 22.6784 29.8538 22.0994 27.5174 22.1836C26.0457 22.2369 24.7652 22.5354 23.6782 23.07L17.8509 12.9769C17.6678 12.6596 17.3292 12.4642 16.9629 12.4642H10.6184C10.1429 10.1594 8.0978 8.42124 5.6543 8.42124C2.85967 8.42124 0.585938 10.6948 0.585938 13.4896C0.585938 16.2844 2.85952 18.558 5.6543 18.558C8.0978 18.558 10.1429 16.8198 10.6184 14.515H16.3709L21.9844 24.2377C21.5399 24.6577 21.1485 25.1407 20.8124 25.6874C19.3403 28.0806 19.1578 31.3343 19.5916 34.5715H10.6185C10.143 32.2667 8.09795 30.5285 5.65444 30.5285C2.85981 30.5285 0.586084 32.8021 0.586084 35.5969C0.586084 38.3917 2.85967 40.6652 5.65444 40.6652C8.09795 40.6652 10.143 38.9271 10.6185 36.6223H19.9446C20.5427 39.4912 21.5235 42.1964 22.3988 44.1004C22.5754 44.5283 22.7328 44.967 22.8747 45.4141L16.3711 56.6788H10.6185C10.143 54.374 8.09795 52.6358 5.65444 52.6358C2.85981 52.6358 0.586084 54.9094 0.586084 57.7042C0.586084 60.4989 2.85967 62.7725 5.65444 62.7725C8.09795 62.7725 10.143 61.0343 10.6185 58.7295H16.963C17.3294 58.7295 17.6679 58.5341 17.851 58.2168L23.5406 48.3623C23.8099 50.2761 23.8084 52.3279 23.5332 54.501C23.5304 54.5224 23.5285 54.5437 23.527 54.5651C23.2854 58.3935 23.503 61.9046 24.1739 65.0011C24.7863 67.8275 25.8574 71.5639 27.4833 73.3126C28.1386 74.0174 28.937 74.4086 29.7312 74.4142H29.7488C30.7572 74.4142 31.6099 73.8117 32.0899 72.7588C32.4817 71.8994 32.5567 70.7313 32.6703 68.9632C32.6984 68.526 32.729 68.0484 32.7675 67.5275C32.9468 65.0981 33.2095 62.4759 33.9117 59.7633C35.2271 54.6806 36.7786 52.2921 37.5003 52.1629C38.2219 52.2921 39.7731 54.6806 41.0889 59.7633C41.7908 62.4756 42.0536 65.0978 42.2329 67.5275C42.2713 68.0484 42.3021 68.5257 42.3302 68.9629C42.4437 70.7311 42.5188 71.8992 42.9105 72.7585C43.3904 73.8116 44.243 74.4141 45.2518 74.4141H45.2694C46.0636 74.4085 46.862 74.0174 47.5173 73.3125C49.1432 71.5638 50.2144 67.8275 50.8267 65.0011C51.4975 61.9047 51.7151 58.3935 51.4736 54.5651C51.4723 54.5437 51.4702 54.5222 51.4674 54.501C51.1922 52.3279 51.1907 50.2762 51.46 48.3624L57.1496 58.2168C57.3327 58.5341 57.6712 58.7295 58.0375 58.7295H64.3821C64.8576 61.0343 66.9025 62.7725 69.346 62.7725C72.1408 62.7725 74.4144 60.4989 74.4144 57.7042C74.4144 54.9094 72.1408 52.6358 69.346 52.6358L69.3457 52.6356ZM68.6867 32.5793C70.3506 32.5793 71.7042 33.933 71.7042 35.5969C71.7042 37.2608 70.3506 38.6145 68.6867 38.6145C67.0228 38.6145 65.6691 37.2608 65.6691 35.5969C65.6691 33.933 67.0228 32.5793 68.6867 32.5793ZM69.3457 10.472C71.0096 10.472 72.3633 11.8257 72.3633 13.4896C72.3633 15.1535 71.0096 16.5072 69.3457 16.5072C67.6818 16.5072 66.3281 15.1535 66.3281 13.4896C66.3281 11.8257 67.6818 10.472 69.3457 10.472ZM5.65415 16.507C3.99023 16.507 2.63657 15.1534 2.63657 13.4895C2.63657 11.8255 3.99023 10.4719 5.65415 10.4719C7.31807 10.4719 8.67173 11.8255 8.67173 13.4895C8.67173 15.1534 7.31807 16.507 5.65415 16.507ZM5.65415 38.6143C3.99023 38.6143 2.63657 37.2606 2.63657 35.5967C2.63657 33.9328 3.99023 32.5791 5.65415 32.5791C7.31807 32.5791 8.67173 33.9328 8.67173 35.5967C8.67173 37.2606 7.31807 38.6143 5.65415 38.6143ZM5.65415 60.7214C3.99023 60.7214 2.63657 59.3678 2.63657 57.7039C2.63657 56.0399 3.99023 54.6863 5.65415 54.6863C7.31807 54.6863 8.67173 56.0399 8.67173 57.7039C8.67173 59.3678 7.31807 60.7214 5.65415 60.7214ZM54.5432 40.8189H50.3464V36.6221H54.5432V40.8189ZM58.6267 31.4146H52.7172V25.5053H58.6267V31.4146ZM34.4824 5.6543C34.4824 3.99038 35.8361 2.63672 37.5 2.63672C39.1639 2.63672 40.5176 3.99038 40.5176 5.6543C40.5176 7.31821 39.1639 8.67188 37.5 8.67188C35.8361 8.67188 34.4824 7.31821 34.4824 5.6543ZM48.8221 64.5669C48.0448 68.1548 47.0216 70.8335 46.015 71.9161C45.756 72.1947 45.4718 72.3618 45.2547 72.3634H45.2527C45.0305 72.3634 44.8709 72.116 44.7762 71.908C44.5406 71.3916 44.4716 70.3178 44.3763 68.8317C44.3479 68.3886 44.3167 67.9047 44.2778 67.3768C44.0915 64.8514 43.8167 62.1189 43.0739 59.2496C42.8023 58.2007 42.2272 56.1628 41.4251 54.2993C40.2226 51.5055 38.99 50.1741 37.5461 50.1092C37.5155 50.1078 37.4848 50.1078 37.4542 50.1092C36.0103 50.174 34.7777 51.5055 33.5752 54.2993C32.7729 56.1631 32.1979 58.2009 31.9264 59.2496C31.1836 62.1193 30.9088 64.8516 30.7223 67.3768C30.6833 67.9047 30.6523 68.3887 30.6239 68.832C30.5284 70.3181 30.4594 71.3918 30.224 71.9082C30.1292 72.1162 29.9697 72.3636 29.7475 72.3636H29.7454C29.5283 72.362 29.2441 72.1948 28.9852 71.9164C27.9785 70.8337 26.9555 68.1549 26.1781 64.5671C25.5492 61.6641 25.3452 58.3532 25.5716 54.7263C26.104 50.4863 25.6714 46.6412 24.2858 43.2976C24.2807 43.2853 24.2754 43.2731 24.2698 43.2611C22.2284 38.8298 20.0881 30.7789 22.559 26.762C23.5525 25.147 25.1987 24.3198 27.5915 24.2332C29.5774 24.1629 31.1064 24.6401 32.7265 25.147C34.1944 25.6062 35.71 26.0811 37.5001 26.0673C39.2936 26.0818 40.8059 25.6062 42.2736 25.147C43.8938 24.6403 45.4229 24.1623 47.4086 24.2332C48.6986 24.2799 49.7903 24.5546 50.6666 25.0468V32.4404C50.6666 33.0067 51.1257 33.4658 51.692 33.4658H53.4582C53.423 33.8273 53.3805 34.1949 53.3259 34.5718H49.3211C48.7548 34.5718 48.2958 35.0309 48.2958 35.5972V41.8447C48.2958 42.411 48.7548 42.8701 49.3211 42.8701H50.9064C50.8479 43.0025 50.7894 43.1334 50.7305 43.2611C50.7249 43.2731 50.7196 43.2853 50.7145 43.2976C49.3291 46.6412 48.8963 50.4866 49.4287 54.7264C49.6551 58.3534 49.4511 61.6641 48.8222 64.5671L48.8221 64.5669ZM69.3457 60.7217C67.6818 60.7217 66.3281 59.3681 66.3281 57.7042C66.3281 56.0402 67.6818 54.6866 69.3457 54.6866C71.0096 54.6866 72.3633 56.0402 72.3633 57.7042C72.3633 59.3681 71.0096 60.7217 69.3457 60.7217ZM28.2911 39.3473C28.5568 39.8474 28.367 40.4682 27.8669 40.7339C27.7137 40.8154 27.5489 40.8541 27.3866 40.8541C27.0196 40.8541 26.6646 40.6564 26.4803 40.3097C24.4458 36.4821 24.0451 31.2757 24.9582 28.997C25.1688 28.4713 25.7657 28.2158 26.2913 28.4266C26.8169 28.6373 27.0724 29.234 26.8617 29.7598C26.2191 31.3635 26.4564 35.8957 28.2911 39.3473ZM48.6615 32.7041V27.8262C48.6615 27.2599 48.2024 26.8008 47.6361 26.8008H42.7582C42.1919 26.8008 41.7328 27.2599 41.7328 27.8262V32.7041C41.7328 33.2704 42.1919 33.7295 42.7582 33.7295H47.6361C48.2024 33.7295 48.6615 33.2704 48.6615 32.7041ZM46.6107 31.6787H43.7836V28.8516H46.6107V31.6787ZM45.7904 35.2093H42.099C41.5327 35.2093 41.0736 35.6684 41.0736 36.2347V39.9261C41.0736 40.4924 41.5327 40.9515 42.099 40.9515H45.7904C46.3567 40.9515 46.8158 40.4924 46.8158 39.9261V36.2347C46.8158 35.6684 46.3567 35.2093 45.7904 35.2093ZM44.765 38.9007H43.1244V37.2601H44.765V38.9007Z" fill="#1F2937"/>
</g>
<defs>
<clipPath id="clip0_413_770">
<rect width="75" height="75" fill="white"/>
</clipPath>
</defs>
</svg>
