<svg width="50" height="50" viewBox="0 0 50 50" fill="none" xmlns="http://www.w3.org/2000/svg">
<path d="M41.6798 32.8015C38.6763 31.2851 35.3761 30.241 32.1264 29.5851C31.3578 28.7602 30.8291 27.7411 30.5974 26.6377C32.609 25.0644 34.149 22.7047 34.9928 19.8935C37.3226 19.5408 37.9284 15.9608 37.0044 14.0005C41.2471 -4.59153 8.8628 -4.6301 13.0047 13.9599C12.0324 15.9193 12.6374 19.5476 14.9942 19.8954C15.8269 22.7065 17.378 25.0664 19.3897 26.6395C19.149 27.7916 18.587 28.8518 17.7686 29.6975C16.2304 29.9665 15.2835 30.193 15.2632 30.2152C8.96134 31.9499 3.36895 33.8994 4.13673 41.6569C3.8168 52.7684 46.1662 52.7788 45.8634 41.6572C46.1962 38.1571 45.0661 34.3975 41.6798 32.8015ZM25.0211 1.52898C32.3316 1.4283 36.6371 6.2365 35.6891 12.7257C35.2568 12.5175 34.7377 12.5084 34.2725 12.6133C34.0883 12.0606 33.788 11.1745 33.2722 9.73582C33.2066 9.60838 33.0995 9.49304 33.0143 9.37664C26.4265 4.99344 23.6764 13.1209 17.7611 9.35271C17.7262 9.33064 17.7022 9.31033 17.6709 9.2864C17.3688 9.20935 17.0302 9.26053 16.8383 9.53328C16.226 10.7663 15.9043 12.1329 15.7017 12.6134C15.2549 12.499 14.7647 12.5085 14.3422 12.7036C13.3939 6.2199 17.713 1.43035 25.0211 1.52898ZM16.2764 18.8619C15.9012 17.9129 15.2785 18.5878 14.8708 18.2761C13.946 17.6475 13.7161 14.4334 14.9041 14.0962C15.5218 13.8929 16.0674 14.6801 16.6467 14.2288C16.809 14.101 16.9175 13.9169 16.9507 13.713C17.006 13.4642 17.3983 12.3184 17.8275 11.134C24.5696 14.2281 26.0198 7.17498 31.9459 10.4966C32.7271 12.404 32.744 13.4157 33.3384 14.227C33.9157 14.681 34.4652 13.8859 35.0813 14.0943C35.5547 14.2269 36.0023 15.1277 35.8918 16.3418C35.7997 17.3531 35.4184 17.9997 35.1162 18.2742C34.6774 18.5591 34.0109 17.9157 33.7107 18.86C31.024 29.7756 18.9524 29.7782 16.2764 18.8619ZM20.7399 27.5403C23.3784 29.0386 26.6105 29.0386 29.2489 27.5403C29.5756 28.6742 30.1644 29.7155 30.9677 30.5799C30.5753 31.816 27.7513 34.1555 24.999 35.8632C22.2357 34.1554 19.4117 31.8104 19.0286 30.5799C19.8283 29.7141 20.4145 28.6731 20.7399 27.5403ZM5.6544 41.6568C5.09122 35.4714 8.48204 33.9375 13.6789 32.2396C13.4395 33.2321 13.255 34.237 13.1263 35.2497C9.90372 36.2221 10.0779 39.1875 10.5841 41.9054C9.87686 42.867 11.0723 44.1763 12.0929 43.5468C12.8537 43.1314 12.8245 41.9589 12.0578 41.5683C11.7716 39.5764 11.2266 37.1141 13.9542 36.709C16.5387 36.5947 16.5866 39.0982 16.783 40.9918C16.1202 41.5646 16.4191 42.707 17.264 42.9105C18.3754 43.2487 19.2159 41.7274 18.2991 40.9918C18.132 38.4351 17.7333 35.5836 14.6571 35.1706C14.8239 34.0145 15.0633 32.8702 15.3737 31.7441C15.8664 31.6147 16.0933 31.5402 17.6894 31.2486C18.6676 33.5421 22.7388 36.2409 24.2438 37.162V48.4692C15.3961 48.1068 5.66173 46.2971 5.6544 41.6568ZM44.3399 41.6568C44.3375 46.2879 34.6055 48.1091 25.7469 48.4691V37.1619C27.2759 36.2169 31.4023 33.4775 32.3252 31.1822C33.0715 31.3238 33.7928 31.509 34.5045 31.698C34.9372 33.2806 35.2306 34.8981 35.3814 36.5319C31.8584 37.7999 33.655 43.0708 37.2187 41.9234C39.913 41.0983 39.6573 36.9512 36.8993 36.4434C36.7651 35.0166 36.5318 33.6009 36.2012 32.2064C41.4246 33.893 44.9232 35.4353 44.3399 41.6568ZM36.3025 37.8822C38.0334 37.8994 38.0377 40.5256 36.3013 40.5338C34.5638 40.5218 34.5754 37.8964 36.3063 37.8822H36.3025Z" fill="#1F2937"/>
</svg>
