<svg width="50" height="50" viewBox="0 0 50 50" fill="none" xmlns="http://www.w3.org/2000/svg">
<g clip-path="url(#clip0_658_2802)">
<path d="M17.1875 22.0383C17.7265 22.0383 18.1641 21.6007 18.1641 21.0617C18.1641 20.517 17.7216 20.0851 17.1875 20.0851C16.6485 20.0851 16.2109 20.5215 16.2109 21.0617C16.2109 21.6057 16.6546 22.0383 17.1875 22.0383Z" fill="#1F2937"/>
<path d="M7.53392 32.5741C12.5747 36.5005 18.6618 39.6164 24.9999 39.6164C31.3387 39.6164 37.4262 36.4998 42.4658 32.5741C46.8909 29.1271 49.666 25.7259 49.782 25.5825C50.0727 25.2243 50.0727 24.7112 49.782 24.353C49.666 24.21 46.8912 20.8084 42.4658 17.3615C37.4251 13.435 31.338 10.3195 24.9999 10.3195C18.6618 10.3195 12.5743 13.4354 7.53392 17.3615C3.10888 20.8084 0.33369 24.21 0.217724 24.353C-0.0725745 24.7112 -0.0725745 25.2243 0.217724 25.5825C0.33369 25.7259 3.10888 29.1271 7.53392 32.5741ZM8.76874 18.8755C12.6433 15.863 18.6045 12.2727 24.9999 12.2727C31.3956 12.2727 37.3568 15.8634 41.2314 18.8755C44.4075 21.3451 46.7432 23.8434 47.737 24.9679C46.7432 26.0921 44.4075 28.5908 41.2314 31.06C37.3568 34.0721 31.3956 37.6632 24.9999 37.6632C18.6045 37.6632 12.6433 34.0721 8.76874 31.06C5.59186 28.5904 3.25613 26.0918 2.26316 24.9679C3.25613 23.8434 5.59224 21.3451 8.76874 18.8755Z" fill="#1F2937"/>
<path d="M24.9995 34.7336C30.3844 34.7336 34.7651 30.3528 34.7651 24.968C34.7651 19.5831 30.3844 15.2023 24.9995 15.2023C22.816 15.2023 20.7515 15.9065 19.0288 17.2394C18.6023 17.5694 18.5241 18.1828 18.8541 18.6092C19.1844 19.0361 19.7974 19.1143 20.2239 18.784C21.6014 17.7185 23.2524 17.1551 24.9995 17.1551C29.3071 17.1551 32.812 20.66 32.812 24.9676C32.812 29.2755 29.3071 32.7801 24.9995 32.7801C20.4753 32.7801 17.0894 28.9963 17.1878 24.8669C17.2004 24.3279 16.7739 23.8804 16.2345 23.8674C15.6944 23.8571 15.248 24.2813 15.2351 24.8207C15.1107 30.0541 19.3858 34.7336 24.9995 34.7336Z" fill="#1F2937"/>
<path d="M29.8828 24.9679C29.8828 22.2755 27.6924 20.0851 25 20.0851C22.3076 20.0851 20.1172 22.2755 20.1172 24.9679C20.1172 27.6604 22.3076 29.8508 25 29.8508C27.6924 29.8508 29.8828 27.6604 29.8828 24.9679ZM22.0703 24.9679C22.0703 23.3524 23.3845 22.0383 25 22.0383C26.6155 22.0383 27.9297 23.3524 27.9297 24.9679C27.9297 26.5831 26.6155 27.8976 25 27.8976C23.3845 27.8976 22.0703 26.5831 22.0703 24.9679Z" fill="#1F2937"/>
<path d="M49.0234 3.05176e-05H39.2578C38.7184 3.05176e-05 38.2812 0.437194 38.2812 0.976592C38.2812 1.51599 38.7184 1.95315 39.2578 1.95315H48.0469V10.7102C48.0469 11.2492 48.484 11.6867 49.0234 11.6867C49.5628 11.6867 50 11.2492 50 10.7102V0.976592C50 0.437194 49.5628 3.05176e-05 49.0234 3.05176e-05Z" fill="#1F2937"/>
<path d="M0.976561 12.2727C1.51596 12.2727 1.95312 11.8351 1.95312 11.2961V1.95315H11.2305C11.7698 1.95315 12.207 1.51599 12.207 0.976592C12.207 0.437194 11.7698 3.05176e-05 11.2305 3.05176e-05H0.976561C0.437164 3.05176e-05 0 0.437194 0 0.976592V11.2961C0 11.8351 0.437164 12.2727 0.976561 12.2727Z" fill="#1F2937"/>
<path d="M12.3409 49.0234C12.3409 48.484 11.9037 48.0468 11.3643 48.0468H1.95312V38.7375C1.95312 38.1981 1.51596 37.7609 0.976561 37.7609C0.437164 37.7609 0 38.1981 0 38.7375V49.0234C0 49.5628 0.437164 50 0.976561 50H11.3643C11.9037 50 12.3409 49.5628 12.3409 49.0234Z" fill="#1F2937"/>
<path d="M49.0235 37.6991C48.4841 37.6991 48.047 38.1367 48.047 38.6757V48.0468H38.6357C38.0967 48.0468 37.6592 48.484 37.6592 49.0234C37.6592 49.5628 38.0967 50 38.6357 50H49.0235C49.5629 50 50.0001 49.5628 50.0001 49.0234V38.6757C50.0001 38.1367 49.5629 37.6991 49.0235 37.6991Z" fill="#1F2937"/>
</g>
<defs>
<clipPath id="clip0_658_2802">
<rect width="50" height="50" fill="white"/>
</clipPath>
</defs>
</svg>
