<svg width="50" height="50" viewBox="0 0 50 50" fill="none" xmlns="http://www.w3.org/2000/svg">
<path d="M25.0106 37.9701C32.1704 37.9701 37.9955 32.145 37.9955 24.9852C37.9955 17.825 32.1704 12 25.0106 12C21.6945 12 18.5375 13.2497 16.1216 15.5194L17.1279 16.5906C19.2703 14.5784 22.0699 13.4702 25.0106 13.4702C31.3598 13.4702 36.5257 18.6357 36.5257 24.9852C36.5257 31.3348 31.3598 36.5003 25.0106 36.5003C18.6611 36.5003 13.4956 31.3348 13.4956 24.9852C13.4956 22.2856 14.4485 19.6607 16.1796 17.5946L15.0527 16.6505C13.1008 18.9809 12.0254 21.9407 12.0254 24.9852C12.0254 32.145 17.8504 37.9701 25.0106 37.9701Z" fill="white"/>
<path d="M25.0106 34.05C30.009 34.05 34.0754 29.9836 34.0754 24.9852C34.0754 19.9864 30.009 15.9199 25.0106 15.9199C20.0118 15.9199 15.9453 19.9864 15.9453 24.9852C15.9453 29.9836 20.0118 34.05 25.0106 34.05ZM25.0106 17.3901C26.8019 17.3901 28.4491 18.015 29.7492 19.056H25.196L23.276 20.9763C22.8923 20.7528 22.4475 20.6242 21.9725 20.6242C20.5405 20.6242 19.3755 21.7892 19.3755 23.2213C19.3755 24.6529 20.5405 25.8179 21.9725 25.8179C23.4046 25.8179 24.5696 24.6529 24.5696 23.2213C24.5696 22.7978 24.467 22.398 24.2865 22.0444L25.8048 20.5262H31.1534C32.0655 21.7793 32.6056 23.3201 32.6056 24.9852C32.6056 29.1729 29.1983 32.5802 25.0106 32.5802C23.2192 32.5802 21.5716 31.9554 20.2716 30.914H24.8248L26.7451 28.994C27.1285 29.2172 27.5737 29.3461 28.0486 29.3461C29.4806 29.3461 30.6456 28.1811 30.6456 26.7491C30.6456 25.317 29.4806 24.152 28.0486 24.152C26.6165 24.152 25.4515 25.317 25.4515 26.7491C25.4515 27.1725 25.5538 27.5723 25.7346 27.9255L24.216 29.4442H18.8678C17.9553 28.191 17.4155 26.6503 17.4155 24.9852C17.4155 20.7974 20.8224 17.3901 25.0106 17.3901ZM23.0994 23.2213C23.0994 23.8427 22.5939 24.3481 21.9725 24.3481C21.3511 24.3481 20.8453 23.8427 20.8453 23.2213C20.8453 22.5995 21.3511 22.094 21.9725 22.094C22.5939 22.094 23.0994 22.5995 23.0994 23.2213ZM26.9213 26.7491C26.9213 26.1277 27.4272 25.6222 28.0486 25.6222C28.67 25.6222 29.1754 26.1277 29.1754 26.7491C29.1754 27.3705 28.67 27.8759 28.0486 27.8759C27.4272 27.8759 26.9213 27.3705 26.9213 26.7491Z" fill="white"/>
<path d="M24.2754 1.46484H25.7452V7.34482H24.2754V1.46484Z" fill="white"/>
<path d="M7.12448 7.10007H15.2094V5.62988H5.6543V15.1849H7.12448V7.10007Z" fill="white"/>
<path d="M24.2754 42.625H25.7452V48.5054H24.2754V42.625Z" fill="white"/>
<path d="M7.12448 34.7852H5.6543V44.3402H15.2094V42.8704H7.12448V34.7852Z" fill="white"/>
<path d="M42.8958 15.1849H44.3656V5.62988H34.8105V7.10007H42.8958V15.1849Z" fill="white"/>
<path d="M42.8958 42.8704H34.8105V44.3402H44.3656V34.7852H42.8958V42.8704Z" fill="white"/>
<path d="M40.1992 24.25H41.669V25.7202H40.1992V24.25Z" fill="white"/>
<path d="M43.1406 24.25H44.6104V25.7202H43.1406V24.25Z" fill="white"/>
<path d="M8.34961 24.25H9.81979V25.7202H8.34961V24.25Z" fill="white"/>
<path d="M5.41016 24.25H6.88034V25.7202H5.41016V24.25Z" fill="white"/>
<path d="M25.0099 40.9105C21.5694 40.9105 17.9993 39.9297 14.3986 37.9961L15.094 36.701C18.4788 38.5187 21.8147 39.4403 25.0099 39.4403C31.6498 39.4403 37.6694 35.42 41.5493 32.0474C44.9661 29.0781 47.3728 26.0725 48.2021 24.9845C48.1152 24.8701 48.0106 24.7346 47.8897 24.5805C46.5748 22.9047 42.9943 18.6418 38.1504 15.2612L38.9919 14.0558C43.998 17.55 47.691 21.9453 49.0463 23.673C49.2317 23.9091 50 24.9845 50 24.9845L49.7173 25.411C49.6048 25.5689 46.9177 29.3233 42.5396 33.1346C39.959 35.3811 37.3276 37.1729 34.7191 38.4607C31.4274 40.0861 28.1609 40.9105 25.0099 40.9105ZM13.0894 37.2522C12.6678 36.9993 12.2398 36.7296 11.8176 36.4511L12.6274 35.2239C13.0322 35.4913 13.4418 35.7492 13.8454 35.9914L13.0894 37.2522ZM10.582 35.5989C5.37071 31.8502 1.65291 27.1993 0.637817 25.863C0.421524 25.5788 0.307083 25.4175 0.302505 25.411L0 24.9853L0.302505 24.5596C0.414658 24.4016 3.10173 20.6468 7.48024 16.8356C10.0609 14.5895 12.6919 12.7973 15.3004 11.5095C18.5921 9.88403 21.859 9.06006 25.0099 9.06006C28.2944 9.06006 31.7009 9.95461 35.1353 11.7189L34.4635 13.0266C31.2389 11.3699 28.0582 10.5302 25.0099 10.5302C18.3697 10.5302 12.3505 14.5502 8.47015 17.9231C5.05371 20.8925 2.64664 23.8981 1.8177 24.9857C2.81448 26.2964 6.41022 30.787 11.4407 34.4053L10.582 35.5989ZM36.9522 14.4605C36.5444 14.2004 36.1313 13.949 35.7231 13.7136L36.4578 12.4406C36.8847 12.6867 37.3173 12.9495 37.7434 13.2215L36.9522 14.4605Z" fill="white"/>
</svg>
