<svg width="50" height="50" viewBox="0 0 50 50" fill="none" xmlns="http://www.w3.org/2000/svg">
<g clip-path="url(#clip0_658_2820)">
<path d="M38.4742 15.3024C37.9448 15.0594 37.5066 14.8703 37.095 14.7075L36.5566 16.0678C36.9433 16.2208 37.3586 16.4 37.8635 16.632L38.4742 15.3024Z" fill="white"/>
<path d="M41.1298 16.7179C40.7511 16.4869 40.3361 16.2511 39.8238 15.9756L39.1309 17.2639C39.6194 17.5267 40.0125 17.7501 40.3683 17.967L41.1298 16.7179Z" fill="white"/>
<path d="M43.6095 18.4023C43.1459 18.0527 42.7587 17.7742 42.391 17.5259L41.5723 18.7384C41.9185 18.972 42.2858 19.2364 42.7286 19.5703L43.6095 18.4023Z" fill="white"/>
<path d="M43.8105 20.4453L44.801 19.3686L45.8777 20.359L44.8873 21.4357L43.8105 20.4453Z" fill="white"/>
<path d="M45.9629 22.4253L46.9533 21.3486L48.03 22.339L47.0396 23.4157L45.9629 22.4253Z" fill="white"/>
<path d="M7.73438 20.7517L8.68704 21.8619C8.81938 21.7483 8.95095 21.634 9.08252 21.5195C9.31317 21.3189 9.55183 21.1115 9.78765 20.9152L8.85215 19.7905C8.60385 19.9971 8.35915 20.2098 8.12254 20.4157C7.99331 20.5279 7.86419 20.6403 7.73438 20.7517Z" fill="white"/>
<path d="M10.0137 18.8459L10.8941 20.0142L11.0153 19.9227C11.3525 19.6684 11.7012 19.4053 12.0484 19.1651L11.2164 17.9619C10.8444 18.2192 10.4834 18.4915 10.1343 18.7547L10.0137 18.8459Z" fill="white"/>
<path d="M13.2336 18.3718C13.6677 18.1027 14.0724 17.8582 14.4706 17.6244L13.73 16.3628C13.3215 16.6025 12.907 16.8529 12.4629 17.1282L13.2336 18.3718Z" fill="white"/>
<path d="M15.7195 16.9558C16.1485 16.7392 16.569 16.53 16.9964 16.3493L16.4264 15.002C15.9573 15.2004 15.5127 15.4216 15.0605 15.6496L15.7195 16.9558Z" fill="white"/>
<path d="M18.3135 15.8033C18.7455 15.6451 19.1908 15.4894 19.6752 15.327L19.2102 13.9399C18.7129 14.1066 18.2551 14.2668 17.8105 14.4295L18.3135 15.8033Z" fill="white"/>
<path d="M29.9041 28.1292C29.4013 28.1292 28.9244 28.2403 28.4951 28.438C27.5 27.6376 26.2375 27.2284 24.9539 27.3044C22.1109 27.4726 19.9346 29.9225 20.1029 32.7656C20.1843 34.141 20.7978 35.4035 21.8302 36.3206C22.7847 37.1685 23.9901 37.6259 25.2533 37.6259C25.3566 37.6259 25.4602 37.6227 25.5642 37.6166C27.3611 37.5103 28.9756 36.4587 29.8164 34.8885C29.8456 34.8893 29.8746 34.8908 29.9041 34.8908C31.7682 34.8908 33.2848 33.3742 33.2848 31.5099C33.2848 29.6458 31.7682 28.1292 29.9041 28.1292ZM25.4777 36.1562C24.4931 36.2143 23.542 35.8844 22.8017 35.2269C22.0614 34.5693 21.6215 33.6644 21.5633 32.6792C21.4427 30.6413 23.0025 28.8853 25.0403 28.7647C25.8393 28.7173 26.6283 28.9337 27.29 29.3685C26.8111 29.952 26.5232 30.6979 26.5232 31.5098C26.5232 32.8103 27.2617 33.9408 28.3409 34.5061C27.7036 35.4609 26.6446 36.0872 25.4777 36.1562ZM29.9041 33.4278C28.8466 33.4278 27.9862 32.5675 27.9862 31.5099C27.9862 30.4524 28.8466 29.5921 29.9041 29.5921C30.9616 29.5921 31.8219 30.4524 31.8219 31.5099C31.8219 32.5674 30.9616 33.4278 29.9041 33.4278Z" fill="white"/>
<path d="M48.7882 39.2778L49.9995 38.4574C49.3451 37.4914 48.3587 36.9586 47.5901 36.6725C48.4533 35.6243 48.9225 34.9282 48.9624 34.8684L49.0858 34.6839V34.2422C49.0858 30.3826 46.6696 26.0355 42.6224 22.6137C38.1989 18.8737 32.5803 16.814 26.8019 16.814C22.7732 16.814 18.6034 18.046 14.7435 20.3768L15.4998 21.6292C19.1314 19.4361 23.0397 18.2769 26.8019 18.2769C32.235 18.2769 37.518 20.2138 41.6778 23.7309C44.8675 26.4277 47.0054 29.8257 47.5083 32.8912C46.163 31.9067 43.8556 30.3364 40.9074 28.7891C36.54 26.4968 29.9052 23.8486 23.0993 24.2533C16.0052 24.6744 9.84912 28.0706 5.82303 31.6269C7.22861 28.7772 10.1898 25.1855 14.2887 22.405L13.4675 21.1944C7.99783 24.9044 4.49527 29.9123 3.64784 33.2443C2.66396 33.3325 1.76523 33.7849 1.10623 34.5267C0.420798 35.2984 0.0768128 36.2909 0.137768 37.3213C0.198724 38.3517 0.657305 39.2967 1.42905 39.9823C2.2008 40.6678 3.19364 41.0117 4.22365 40.9507C4.59387 40.9288 4.95336 40.8556 5.29735 40.7326C9.67055 43.6818 17.7361 48.2046 26.0642 48.2044C26.5044 48.2044 26.946 48.1917 27.3872 48.1655C30.9223 47.9557 34.0988 46.8933 36.8156 45.5098C37.6367 45.678 40.7109 46.526 41.7826 49.9372L43.1783 49.4988C42.2533 46.5541 40.1213 45.1695 38.5775 44.5342C39.3215 44.0881 40.023 43.6244 40.6788 43.1565C41.388 43.2363 43.7244 43.7281 44.8038 46.7459L46.1812 46.2532C45.2334 43.6033 43.4935 42.4884 42.1812 42.019C42.5189 41.7481 42.8411 41.4796 43.146 41.2164C43.3638 41.0284 43.5754 40.8409 43.7818 40.6543C44.4758 40.7221 46.3272 41.0671 47.2687 42.8228L48.5579 42.1315C47.6661 40.4682 46.2031 39.741 45.0811 39.4227C45.6257 38.8816 46.1161 38.3619 46.5502 37.8794C47.0835 38.0142 48.1862 38.389 48.7882 39.2778ZM4.13733 39.4903C3.49735 39.5281 2.88019 39.3145 2.40073 38.8885C1.92109 38.4625 1.63611 37.8753 1.59827 37.2349C1.56023 36.5946 1.77401 35.9778 2.20002 35.4983C2.61793 35.0279 3.19101 34.7454 3.81695 34.6988L4.56393 39.4262C4.42505 39.4598 4.28265 39.4818 4.13733 39.4903ZM42.19 40.109C38.9488 42.9073 33.7346 46.3232 27.3007 46.7051C18.9001 47.2043 10.4832 42.4745 6.05329 39.4775L5.2243 34.231C7.26148 32.0845 10.191 29.837 13.7179 28.1839C13.1287 29.7731 12.8726 31.4743 12.974 33.1876C13.1681 36.4691 14.6286 39.4784 17.0863 41.6615C19.3579 43.6793 22.2295 44.7677 25.2426 44.7677C25.4894 44.7677 25.7376 44.7604 25.986 44.7457C30.5547 44.4753 34.571 41.7172 36.4675 37.5477L35.1359 36.942C33.4646 40.6164 29.9255 43.0471 25.8996 43.2854C23.0082 43.4565 20.2235 42.4913 18.0578 40.5678C15.8924 38.6444 14.6056 35.9927 14.4345 33.1013C14.3158 31.0946 14.7529 29.1076 15.697 27.3466C18.0085 26.4712 20.5281 25.8716 23.1861 25.7138C27.3634 25.4657 31.4971 26.4411 35.0321 27.7556C35.6457 29.0276 35.9994 30.3935 36.0837 31.8202C36.1611 33.1255 36.0069 34.4149 35.6255 35.6527L37.0237 36.0834C37.4567 34.6778 37.6318 33.2143 37.5442 31.7338C37.4784 30.6227 37.2678 29.544 36.9172 28.5093C38.1118 29.0202 39.2152 29.5541 40.1987 30.0694C43.6734 31.8903 46.2807 33.7839 47.3522 34.6045C46.6059 35.6056 44.8219 37.8367 42.19 40.109Z" fill="white"/>
<path d="M2.93228 7.83449L17.6376 10.8147L17.9206 10.0427L21.5699 10.7823L22.093 13.1108L29.1411 14.5392C29.516 14.6152 29.8924 14.6527 30.2664 14.6527C31.3569 14.6527 32.424 14.3334 33.3536 13.7171C34.6021 12.8893 35.4534 11.625 35.751 10.157L36.2586 7.65182L20.0046 4.35759L20.3722 3.35499L8.51338 0.951678L8.22284 2.38545L11.4038 3.03012L10.4249 7.86024L3.22272 6.40062C2.64818 6.28417 2.15351 5.95101 1.82962 5.46249C1.50572 4.97397 1.39152 4.3886 1.50787 3.81406L1.61505 3.28535C1.85546 2.0994 3.01577 1.33029 4.20162 1.5705L6.76605 2.09023L7.05659 0.656457L4.49216 0.136725C2.51632 -0.263729 0.581832 1.01819 0.181183 2.99481L0.0739983 3.52352C-0.119987 4.48096 0.0703898 5.45664 0.610213 6.27091C1.15013 7.08508 1.97474 7.64041 2.93228 7.83449ZM19.6163 5.77146L34.5343 8.79477L34.3171 9.86612C34.0972 10.9512 33.4679 11.8858 32.5451 12.4976C31.6223 13.1094 30.5167 13.3252 29.4314 13.1053L23.3124 11.8652L22.7893 9.53667L18.4299 8.65325L19.6163 5.77146ZM16.5619 9.10393L14.9175 8.77068L15.8964 3.94055L18.4125 4.45043L16.5619 9.10393ZM12.8377 3.32066L14.4626 3.65001L13.4837 8.48014L11.8588 8.15078L12.8377 3.32066Z" fill="white"/>
<path d="M24.7695 10.1265L25.0607 8.69279L30.8766 9.87378L30.5855 11.3075L24.7695 10.1265Z" fill="white"/>
<path d="M16.5123 34.9335C16.4283 34.6217 16.3509 34.3069 16.2761 34.0024C16.2352 33.836 16.1944 33.6697 16.1523 33.5036L17.5707 33.145C17.6134 33.3142 17.6551 33.4838 17.6968 33.6533C17.7697 33.9499 17.845 34.2567 17.9247 34.5526L16.5123 34.9335Z" fill="white"/>
<path d="M17.899 37.7938C17.5923 37.3752 17.3168 36.9156 17.0801 36.4277L18.3963 35.7891C18.5946 36.1979 18.8244 36.5815 19.0791 36.9291L17.899 37.7938Z" fill="white"/>
<path d="M20.1698 39.9909C19.7287 39.6914 19.3141 39.3542 18.9375 38.9888L19.9564 37.939C20.2676 38.2411 20.6255 38.5321 20.9915 38.7804L20.1698 39.9909Z" fill="white"/>
</g>
<defs>
<clipPath id="clip0_658_2820">
<rect width="50" height="50" fill="white"/>
</clipPath>
</defs>
</svg>
