<svg width="16" height="16" viewBox="0 0 16 16" fill="none" xmlns="http://www.w3.org/2000/svg">
<path d="M14.6667 7.33342V13.3334H13.3334V11.3334H2.66671V13.3334H1.33337V2.66675H2.66671V9.33342H8.00004V4.66675H12C13.4728 4.66675 14.6667 5.86065 14.6667 7.33342ZM13.3334 9.33342V7.33342C13.3334 6.59703 12.7364 6.00008 12 6.00008H9.33337V9.33342H13.3334ZM5.33337 7.33342C5.70156 7.33342 6.00004 7.03495 6.00004 6.66675C6.00004 6.29856 5.70156 6.00008 5.33337 6.00008C4.96519 6.00008 4.66671 6.29856 4.66671 6.66675C4.66671 7.03495 4.96519 7.33342 5.33337 7.33342ZM5.33337 8.66675C4.22881 8.66675 3.33337 7.77135 3.33337 6.66675C3.33337 5.56218 4.22881 4.66675 5.33337 4.66675C6.43794 4.66675 7.33337 5.56218 7.33337 6.66675C7.33337 7.77135 6.43794 8.66675 5.33337 8.66675Z" fill="#136DF4"/>
</svg>
