<svg width="24" height="24" viewBox="0 0 24 24" fill="none" xmlns="http://www.w3.org/2000/svg">
<g clip-path="url(#clip0_432_1305)">
<path d="M22.7751 4.16456C20.826 4.08928 19.0403 3.80241 17.4677 3.312C15.5747 2.7217 14.0455 1.8472 12.9227 0.712781C12.4211 0.205875 11.5875 0.217968 11.0926 0.727875C10.3223 1.5217 9.26114 2.20514 7.93861 2.75916C7.75955 2.8342 7.67518 3.04017 7.75018 3.21923C7.82522 3.39834 8.03119 3.48262 8.21025 3.40772C9.62082 2.81676 10.7603 2.07989 11.5972 1.21748C11.8189 0.989062 12.197 0.979078 12.4229 1.20736C13.6275 2.42442 15.2543 3.35836 17.2583 3.98325C18.89 4.49203 20.737 4.78941 22.7479 4.86708C23.0565 4.87898 23.2976 5.1322 23.2968 5.44364C23.2891 8.33887 22.6617 11.248 21.4825 13.8565C19.7452 17.6995 16.7032 20.7266 12.4409 22.8538C12.1649 22.9914 11.8367 22.9943 11.5629 22.8618C7.45594 20.8729 4.2435 17.6748 2.51743 13.8566C1.33721 11.2459 0.709879 8.33433 0.703129 5.43675C0.702425 5.12925 0.94341 4.87912 1.2518 4.86717C2.34999 4.8248 4.54107 4.64226 6.87675 3.89658C7.06172 3.83751 7.16377 3.63975 7.10471 3.45473C7.04564 3.26981 6.84793 3.16776 6.66291 3.22678C4.40649 3.94711 2.28718 4.1235 1.22461 4.16456C0.536347 4.19114 -0.00159022 4.75069 3.53215e-06 5.43839C0.00694103 8.43459 0.655925 11.4457 1.87674 14.1463C3.6705 18.1141 7.00163 21.4342 11.2565 23.4947C11.7251 23.7216 12.2894 23.7152 12.7549 23.483C17.1657 21.2817 20.3176 18.1404 22.1232 14.1463C23.3431 11.448 23.992 8.43928 24 5.44551C24.0018 4.75378 23.4638 4.19109 22.7751 4.16456Z" fill="#136DF4"/>
<path d="M17.2277 18.1909C17.3681 18.3249 17.5906 18.3198 17.7247 18.1793C19.0259 16.8159 20.0747 15.2641 20.8419 13.5669C21.8478 11.3418 22.4451 8.85534 22.5691 6.37645C22.5912 5.93569 22.2507 5.55127 21.8102 5.51972C19.6363 5.36358 17.6831 4.9508 16.0048 4.29281C14.6704 3.76964 13.5063 3.09131 12.545 2.27672C12.2402 2.01844 11.7963 2.01797 11.4896 2.27569C10.373 3.21342 8.90388 3.98025 7.12314 4.55498C5.60172 5.04605 3.89332 5.37825 2.18257 5.51583C1.73885 5.55155 1.40861 5.92753 1.43074 6.37186C1.55425 8.85225 2.15158 11.3403 3.15817 13.567C4.77832 17.1508 7.78371 20.1835 11.6207 22.1064C11.8684 22.2239 12.116 22.2234 12.3634 22.1052C13.9936 21.2691 15.453 20.2809 16.7009 19.1681C16.8458 19.0388 16.8585 18.8166 16.7292 18.6717C16.6 18.5269 16.3779 18.514 16.2328 18.6433C15.0295 19.7165 13.6196 20.6707 12.0426 21.4795C12.0104 21.4959 11.9704 21.4954 11.9357 21.4779C8.24242 19.627 5.35267 16.7147 3.79882 13.2775C2.82817 11.1302 2.25208 8.73023 2.13292 6.33698C2.12988 6.27562 2.17741 6.22172 2.23886 6.2168C4.003 6.07495 5.76663 5.73173 7.33905 5.22427C9.20664 4.62155 10.7552 3.81066 11.9417 2.81423C11.9853 2.77772 12.0478 2.7772 12.0903 2.81325C13.1109 3.678 14.3415 4.39608 15.7481 4.94752C17.4924 5.63142 19.515 6.05986 21.7597 6.22111C21.8218 6.22561 21.8699 6.27952 21.8668 6.34139C21.7471 8.73323 21.1711 11.1317 20.2011 13.2774C19.4666 14.9022 18.4623 16.3881 17.2159 17.694C17.082 17.8343 17.0872 18.0569 17.2277 18.1909Z" fill="#136DF4"/>
<path d="M10.9927 12.0022C11.0827 12.0022 11.1727 11.9678 11.2414 11.8992C11.3787 11.7618 11.3786 11.5392 11.2413 11.402C10.5651 10.726 9.4648 10.726 8.78858 11.402C8.65124 11.5393 8.65119 11.7619 8.78849 11.8992C8.92579 12.0365 9.14835 12.0364 9.28565 11.8993C9.68774 11.4973 10.342 11.4972 10.7442 11.8993C10.8128 11.9679 10.9028 12.0022 10.9927 12.0022Z" fill="#136DF4"/>
<path d="M13.2554 11.8993C13.6574 11.4973 14.3117 11.4973 14.7139 11.8993C14.8796 12.0365 15.0453 12.0365 15.2111 11.8991C15.3483 11.7618 15.3483 11.5392 15.2109 11.402C14.5346 10.726 13.4344 10.726 12.7583 11.402C12.621 11.5393 12.6209 11.7619 12.7582 11.8992C12.8954 12.0365 13.118 12.0364 13.2554 11.8993Z" fill="#136DF4"/>
<path d="M13.5618 13.5332C13.3733 13.4859 13.1826 13.6007 13.1355 13.7892C12.9861 14.3882 12.4304 14.6007 12 14.6007C11.5697 14.6007 11.0141 14.3881 10.8646 13.7892C10.8177 13.6007 10.6268 13.4863 10.4384 13.5331C10.25 13.5802 10.1354 13.771 10.1824 13.9594C10.3831 14.7635 11.1135 15.3038 12 15.3038C12.8865 15.3038 13.617 14.7635 13.8177 13.9594C13.8648 13.771 13.7502 13.5803 13.5618 13.5332Z" fill="#136DF4"/>
<path d="M12.5871 5.90325C12.7532 5.80265 12.8062 5.58647 12.7056 5.42039C12.605 5.25431 12.3888 5.20134 12.2227 5.30194C11.8626 5.52014 11.7054 5.86317 11.6369 6.11962C10.7579 6.17278 9.89263 6.41639 9.14062 6.8505C7.71459 7.67376 6.91715 9.05461 6.88748 10.7462H6.86863C6.13171 10.7462 5.53223 11.3458 5.53223 12.0828C5.53223 12.8197 6.13176 13.4192 6.86863 13.4192H6.8991C7.0049 14.9537 7.78087 16.2073 9.11113 16.9752C9.95052 17.4598 10.9485 17.7158 11.9976 17.7158H11.9999C13.0495 17.7155 14.0484 17.4588 14.8886 16.9736C16.2195 16.2051 16.9959 14.9521 17.1017 13.4192H17.1321C17.869 13.4192 18.4686 12.8197 18.4686 12.0827C18.4686 11.3458 17.869 10.7462 17.1321 10.7462H17.1167C17.0872 9.0532 16.2907 7.67203 14.8662 6.84937C14.1191 6.41798 13.2597 6.17498 12.3859 6.12037C12.4303 6.03872 12.4944 5.9594 12.5871 5.90325ZM6.2353 12.0827C6.2353 11.7335 6.51941 11.4494 6.86859 11.4494H6.88654V12.7161H6.86859C6.51941 12.7161 6.2353 12.432 6.2353 12.0827ZM17.7654 12.0828C17.7654 12.432 17.4813 12.7161 17.1321 12.7161H17.1143C17.1147 12.3144 17.1156 11.8263 17.1163 11.4494H17.1321C17.4814 11.4494 17.7654 11.7335 17.7654 12.0828ZM16.4144 10.8444C16.4144 10.8826 16.4111 12.3238 16.4111 13.0533C16.4112 14.4907 15.7457 15.6668 14.537 16.3648C13.0426 17.2277 10.9559 17.2284 9.4627 16.3662C8.25491 15.669 7.58976 14.4924 7.58976 13.0533V10.8444C7.58976 9.36984 8.26541 8.16769 9.49218 7.45945C10.2322 7.03223 11.1188 6.81858 12.0052 6.81858C12.8908 6.81858 13.7761 7.03181 14.5147 7.45828C15.7399 8.16581 16.4146 9.36839 16.4144 10.8444Z" fill="#136DF4"/>
</g>
<defs>
<clipPath id="clip0_432_1305">
<rect width="24" height="24" fill="white"/>
</clipPath>
</defs>
</svg>
