<svg width="16" height="16" viewBox="0 0 16 16" fill="none" xmlns="http://www.w3.org/2000/svg">
<path d="M8 13.933L11.2998 10.6332C13.1223 8.81077 13.1223 5.85599 11.2998 4.03354C9.4774 2.21109 6.52261 2.21109 4.70017 4.03354C2.87772 5.85599 2.87772 8.81077 4.70017 10.6332L8 13.933ZM8 15.8186L3.75736 11.576C1.41421 9.23284 1.41421 5.43388 3.75736 3.09073C6.10051 0.747587 9.89947 0.747587 12.2427 3.09073C14.5858 5.43388 14.5858 9.23284 12.2427 11.576L8 15.8186ZM8 8.66671C8.7364 8.66671 9.33333 8.06977 9.33333 7.33337C9.33333 6.59699 8.7364 6.00004 8 6.00004C7.2636 6.00004 6.66667 6.59699 6.66667 7.33337C6.66667 8.06977 7.2636 8.66671 8 8.66671ZM8 10C6.52724 10 5.33333 8.80611 5.33333 7.33337C5.33333 5.86061 6.52724 4.66671 8 4.66671C9.47273 4.66671 10.6667 5.86061 10.6667 7.33337C10.6667 8.80611 9.47273 10 8 10Z" fill="white"/>
</svg>
