<svg width="50" height="50" viewBox="0 0 50 50" fill="none" xmlns="http://www.w3.org/2000/svg">
<path d="M37.4934 35.1656C37.3309 35.1656 37.1653 35.1141 37.0247 35.0078C36.6794 34.7484 36.6106 34.2594 36.87 33.9141C38.8153 31.3281 39.8434 28.2453 39.8434 25C39.8434 23.9812 39.7388 22.9609 39.5325 21.9687C39.445 21.5453 39.7169 21.1328 40.1388 21.0453C40.5591 20.9578 40.9747 21.2297 41.0622 21.6516C41.2903 22.7484 41.4059 23.875 41.4059 25C41.4059 28.5859 40.2684 31.9953 38.1184 34.8547C37.9638 35.0594 37.7294 35.1656 37.4934 35.1656Z" fill="#136DF4"/>
<path d="M9.7125 29.0375C9.35156 29.0375 9.02656 28.7844 8.94844 28.4172C8.71406 27.2969 8.59375 26.1469 8.59375 25C8.59375 21.4297 9.72031 18.0344 11.8531 15.1844C12.1109 14.8375 12.6016 14.7656 12.9469 15.0266C13.2922 15.2859 13.3641 15.775 13.1047 16.1203C11.175 18.6984 10.1562 21.7687 10.1562 25C10.1562 26.0391 10.2641 27.0812 10.4781 28.0953C10.5672 28.5172 10.2969 28.9312 9.875 29.0203C9.82031 29.0328 9.76563 29.0375 9.7125 29.0375Z" fill="#136DF4"/>
<path d="M27.3438 32.8125H22.6562C22.225 32.8125 21.875 32.4625 21.875 32.0312V28.125H17.9688C17.5375 28.125 17.1875 27.775 17.1875 27.3438V22.6562C17.1875 22.225 17.5375 21.875 17.9688 21.875H21.875V17.9688C21.875 17.5375 22.225 17.1875 22.6562 17.1875H27.3438C27.775 17.1875 28.125 17.5375 28.125 17.9688V21.875H32.0312C32.4625 21.875 32.8125 22.225 32.8125 22.6562V27.3438C32.8125 27.775 32.4625 28.125 32.0312 28.125H28.125V32.0312C28.125 32.4625 27.775 32.8125 27.3438 32.8125ZM23.4375 31.25H26.5625V27.3438C26.5625 26.9125 26.9125 26.5625 27.3438 26.5625H31.25V23.4375H27.3438C26.9125 23.4375 26.5625 23.0875 26.5625 22.6562V18.75H23.4375V22.6562C23.4375 23.0875 23.0875 23.4375 22.6562 23.4375H18.75V26.5625H22.6562C23.0875 26.5625 23.4375 26.9125 23.4375 27.3438V31.25Z" fill="#136DF4"/>
<path d="M28.3453 46.875H20.1562C18.6297 46.875 17.1391 46.5344 15.725 45.8625L10.2516 43.2031C8.84844 42.5297 7.35313 42.1875 5.81406 42.1875H2.34375C1.9125 42.1875 1.5625 41.8375 1.5625 41.4063C1.5625 40.975 1.9125 40.625 2.34375 40.625H5.81406C7.58906 40.625 9.31094 41.0188 10.9312 41.7969L16.4031 44.4547C17.6 45.0219 18.8641 45.3125 20.1562 45.3125H28.1891L35.0125 42.4969C35.0125 42.4313 35.1047 41.8266 34.8047 41.3125C34.3469 40.525 33.2891 40.5 32.4875 40.6172C31.3234 40.7969 30.3609 41.1203 29.5125 41.4063L29.1906 41.5141C28.7797 41.6469 28.3391 41.4297 28.2031 41.0188C28.0672 40.6094 28.2891 40.1672 28.6984 40.0313L29.0141 39.9266C29.9234 39.6203 30.9531 39.2735 32.2562 39.0735C35.4781 38.6047 36.2828 40.6172 36.4563 41.2438C36.7422 42.2766 36.5047 43.5688 35.6125 43.9422L28.6422 46.8188C28.5484 46.8547 28.4469 46.875 28.3453 46.875Z" fill="#136DF4"/>
<path d="M18.1797 35.7453C17.8859 35.7453 17.6031 35.5781 17.4703 35.2938C15.9391 31.9984 11.9609 31.5266 9.00313 32.7531C8.90781 32.7922 8.80625 32.8125 8.70313 32.8125H2.34375C1.9125 32.8125 1.5625 32.4625 1.5625 32.0313C1.5625 31.6 1.9125 31.25 2.34375 31.25H8.55156C12.7812 29.5703 17.2016 31.0125 18.8891 34.6359C19.0703 35.0266 18.9016 35.4922 18.5094 35.675C18.4016 35.7219 18.2906 35.7453 18.1797 35.7453Z" fill="#136DF4"/>
<path d="M25.5846 43.161C25.483 43.161 25.3815 43.1406 25.2862 43.1016L16.3393 39.3875C15.9409 39.2219 15.7518 38.7656 15.9174 38.3656C16.083 37.9672 16.5409 37.7797 16.9393 37.9438L25.1002 41.3313C25.4424 39.7203 24.5612 38.4672 22.4674 37.6L17.869 35.6906C17.4705 35.525 17.2815 35.0672 17.4471 34.6688C17.6127 34.2703 18.0705 34.0813 18.469 34.2469L23.0659 36.1563C26.2862 37.4906 27.4674 39.8672 26.3065 42.675C26.2268 42.8672 26.0752 43.0203 25.883 43.0985C25.7877 43.1406 25.6862 43.161 25.5846 43.161Z" fill="#136DF4"/>
<path d="M16.8302 10.9984C14.3724 10.9984 13.7005 9.32031 13.5443 8.75781C13.2584 7.725 13.4959 6.43281 14.388 6.05938L21.3584 3.18281C21.4521 3.14531 21.5537 3.125 21.6552 3.125H29.8427C31.3693 3.125 32.8599 3.46562 34.274 4.1375L39.7474 6.79687C41.1521 7.47031 42.6474 7.8125 44.1865 7.8125H47.6568C48.088 7.8125 48.438 8.1625 48.438 8.59375C48.438 9.025 48.088 9.375 47.6568 9.375H44.1865C42.4115 9.375 40.6896 8.98125 39.0693 8.20312L33.5974 5.54688C32.4005 4.97812 31.1365 4.6875 29.8443 4.6875H21.8115L14.9865 7.50313C14.9865 7.56875 14.8943 8.17344 15.1943 8.6875C15.6537 9.475 16.7084 9.5 17.5115 9.38281C18.6755 9.20312 19.638 8.87969 20.4865 8.59375L20.8084 8.48594C21.2193 8.35156 21.6599 8.57031 21.7959 8.98125C21.9318 9.39062 21.7099 9.83281 21.3005 9.96875L20.9849 10.0734C20.0755 10.3797 19.0459 10.7266 17.7427 10.9266C17.4146 10.9766 17.1099 10.9984 16.8302 10.9984Z" fill="#136DF4"/>
<path d="M37.9056 19.4453C34.9525 19.4453 32.3243 17.9703 31.1118 15.3641C30.9306 14.9735 31.0993 14.5078 31.4915 14.325C31.8837 14.1438 32.3478 14.3141 32.5306 14.7047C34.0603 17.9985 38.0368 18.4688 40.9978 17.2453C41.0931 17.2078 41.1946 17.1875 41.2978 17.1875H47.6571C48.0884 17.1875 48.4384 17.5375 48.4384 17.9688C48.4384 18.4 48.0884 18.75 47.6571 18.75H41.4493C40.2618 19.2203 39.0587 19.4453 37.9056 19.4453Z" fill="#136DF4"/>
<path d="M31.8316 15.8125C31.7316 15.8125 31.6301 15.7938 31.5316 15.7532L26.9347 13.8438C23.7144 12.5094 22.5332 10.1328 23.6941 7.32503C23.7738 7.13284 23.9254 6.97971 24.1176 6.90159C24.3097 6.82346 24.5238 6.8219 24.716 6.90159L33.6629 10.6157C34.0613 10.7813 34.2504 11.2375 34.0847 11.6375C33.9191 12.0375 33.4644 12.2235 33.0629 12.0594L24.9019 8.6719C24.5597 10.2828 25.441 11.536 27.5347 12.4032L32.1332 14.3125C32.5316 14.4782 32.7207 14.936 32.5551 15.3344C32.4285 15.6313 32.1379 15.8125 31.8316 15.8125Z" fill="#136DF4"/>
<path d="M35.1801 37.5547C34.9801 37.5547 34.7801 37.4781 34.627 37.3266C34.3223 37.0219 34.3223 36.5265 34.627 36.2219C34.9332 35.9172 35.4816 35.8625 35.7863 36.1672C36.091 36.4719 36.1457 36.9125 35.841 37.2172L35.7316 37.3266C35.5801 37.4781 35.3801 37.5547 35.1801 37.5547Z" fill="#136DF4"/>
<path d="M14.8674 14.1172C14.6658 14.1172 14.4643 14.039 14.3112 13.8843C14.008 13.5765 14.0112 13.0828 14.319 12.7797L14.4299 12.6703C14.7362 12.3672 15.2315 12.3703 15.5346 12.6781C15.8377 12.9859 15.8346 13.4797 15.5268 13.7828L15.4158 13.8922C15.2643 14.0422 15.0658 14.1172 14.8674 14.1172Z" fill="#136DF4"/>
</svg>
