<svg width="50" height="50" viewBox="0 0 50 50" fill="none" xmlns="http://www.w3.org/2000/svg">
<path d="M20.5202 11.3566V10.3053C20.5202 9.97612 20.787 9.70942 21.116 9.70942C21.445 9.70942 21.7119 9.97612 21.7119 10.3053V11.3566C21.7119 11.6854 21.4451 11.9523 21.116 11.9523C20.787 11.9522 20.5202 11.6854 20.5202 11.3566ZM25.006 11.9522C25.335 11.9522 25.6019 11.6854 25.6019 11.3565V10.3052C25.6019 9.97603 25.3351 9.70933 25.006 9.70933C24.6771 9.70933 24.4102 9.97603 24.4102 10.3052V11.3565C24.4102 11.6854 24.677 11.9522 25.006 11.9522ZM21.116 16.0405C21.445 16.0405 21.7119 15.7736 21.7119 15.4445V14.3933C21.7119 14.0645 21.4451 13.7976 21.116 13.7976C20.7871 13.7976 20.5202 14.0645 20.5202 14.3933V15.4445C20.5202 15.7736 20.787 16.0405 21.116 16.0405ZM25.006 16.0405C25.335 16.0405 25.6019 15.7736 25.6019 15.4445V14.3933C25.6019 14.0645 25.3351 13.7976 25.006 13.7976C24.6771 13.7976 24.4102 14.0645 24.4102 14.3933V15.4445C24.4102 15.7736 24.677 16.0405 25.006 16.0405ZM28.8841 16.0405C29.2132 16.0405 29.48 15.7736 29.48 15.4445V14.3933C29.48 14.0645 29.2133 13.7976 28.8841 13.7976C28.5552 13.7976 28.2884 14.0645 28.2884 14.3933V15.4445C28.2885 15.7736 28.5552 16.0405 28.8841 16.0405ZM21.116 20.1409C21.445 20.1409 21.7119 19.8739 21.7119 19.5449V18.4821C21.7119 18.1529 21.4451 17.8861 21.116 17.8861C20.7871 17.8861 20.5202 18.1529 20.5202 18.4821V19.5449C20.5202 19.8739 20.787 20.1409 21.116 20.1409ZM25.006 20.1409C25.335 20.1409 25.6019 19.8739 25.6019 19.5449V18.4821C25.6019 18.1529 25.3351 17.8861 25.006 17.8861C24.6771 17.8861 24.4102 18.1529 24.4102 18.4821V19.5449C24.4102 19.8739 24.677 20.1409 25.006 20.1409ZM28.8841 11.9522C29.2132 11.9522 29.48 11.6854 29.48 11.3565V10.3052C29.48 9.97603 29.2133 9.70933 28.8841 9.70933C28.5552 9.70933 28.2884 9.97603 28.2884 10.3052V11.3565C28.2885 11.6854 28.5552 11.9522 28.8841 11.9522ZM28.8841 20.1409C29.2132 20.1409 29.48 19.8739 29.48 19.5449V18.4821C29.48 18.1529 29.2133 17.8861 28.8841 17.8861C28.5552 17.8861 28.2884 18.1529 28.2884 18.4821V19.5449C28.2885 19.8739 28.5552 20.1409 28.8841 20.1409ZM47.8897 37.9548C47.8897 39.063 46.9884 39.9636 45.8807 39.9636H37.3028C37.3073 40.0149 37.3182 40.0641 37.3182 40.1159C37.3182 40.8147 36.9283 41.4166 36.3605 41.7338L36.3661 41.7724C36.3701 41.8002 36.3721 41.8285 36.3721 41.8567C36.3721 43.1834 35.2927 44.2626 33.9656 44.2626H32.1783V45.4427C32.1783 47.5874 30.4334 49.3322 28.2885 49.3322C26.1498 49.3322 24.4102 47.5874 24.4102 45.4427V44.2626H16.0347C14.7077 44.2626 13.6282 43.1834 13.6282 41.8567C13.6282 41.8347 13.6295 41.813 13.6319 41.7916C13.7041 41.1321 13.8474 40.5246 14.0466 39.9636H4.11985C3.01194 39.9636 2.11047 39.0629 2.11047 37.9548C2.11047 37.9331 2.11174 37.9121 2.11418 37.89C2.20168 37.0885 2.40706 36.3741 2.72502 35.7666C3.28665 34.3729 5.16282 33.142 8.45774 32.007C8.59417 31.9288 8.65012 31.6848 8.67278 31.4769C7.38958 30.0911 6.93645 28.0816 7.20598 25.018C7.27825 23.9962 7.67678 23.2119 8.24319 22.645V17.1856H7.21526C6.88645 17.1856 6.61956 16.9187 6.61956 16.5898V14.4288C6.61956 14.0997 6.88635 13.8327 7.21526 13.8327H17.4833V5.02515C17.4833 4.69585 17.7501 4.42925 18.0792 4.42925H20.6372V3.74028C20.6372 3.41118 20.9039 3.14458 21.2329 3.14458H23.1136V1.26362C23.1136 0.934619 23.3803 0.667725 23.7096 0.667725H26.2911C26.62 0.667725 26.8869 0.934619 26.8869 1.26362V3.14458H28.7677C29.0967 3.14458 29.3636 3.41118 29.3636 3.74028V4.42925H31.9216C32.2506 4.42925 32.5175 4.69585 32.5175 5.02515V13.8327H42.7855C43.1144 13.8327 43.3813 14.0996 43.3813 14.4288V16.5898C43.3813 16.9186 43.1145 17.1856 42.7855 17.1856H41.7574V22.6469C42.3241 23.2153 42.7226 24.0019 42.7955 25.0279C43.0642 28.0822 42.6109 30.0911 41.328 31.4769C41.3506 31.6848 41.4065 31.9288 41.5432 32.007C44.8382 33.1426 46.7143 34.3729 47.2758 35.7666C47.5935 36.3749 47.799 37.0891 47.8865 37.89C47.8887 37.9122 47.8897 37.9332 47.8897 37.9548ZM40.5655 17.1856H37.1313V21.888C37.693 21.634 38.3053 21.5077 38.8952 21.5077C39.4522 21.5077 40.0298 21.619 40.5656 21.847L40.5655 17.1856ZM35.4724 39.4617C35.1051 39.4617 34.8067 39.7554 34.8067 40.1159C34.8067 40.4895 35.0989 40.7821 35.4724 40.7821C35.8331 40.7821 36.1265 40.483 36.1265 40.1159C36.1266 39.7554 35.8332 39.4617 35.4724 39.4617ZM34.0865 38.8994C33.3567 37.9714 31.8893 37.0593 29.7019 36.1758V36.8684C29.7019 38.9876 27.9781 40.7117 25.8587 40.7117H25.6018V43.0712H30.9867V41.039C30.9867 40.2013 31.6682 39.5204 32.5055 39.5204H33.723C33.8032 39.289 33.9264 39.0792 34.0865 38.8994ZM21.4899 36.8684C21.4899 38.3308 22.6793 39.5204 24.1415 39.5204H25.8587C27.3209 39.5204 28.5103 38.3307 28.5103 36.8684V35.7232C28.3178 35.6538 28.1223 35.5851 27.9211 35.5165C27.901 35.5098 27.8812 35.5018 27.862 35.4928C27.1369 35.1556 26.7614 34.4104 26.7467 33.2786C26.7446 33.1143 26.8098 32.9572 26.9274 32.8433C27.7397 32.055 28.2636 31.0523 28.5304 29.7281C28.534 29.705 28.5384 29.6821 28.5445 29.6594C28.7675 28.5049 28.7996 27.1083 28.6529 25.3897C28.4868 23.1498 26.7017 22.15 25.006 22.15C23.3045 22.15 21.5136 23.1498 21.3483 25.3832C21.2009 27.1068 21.2328 28.5064 21.4568 29.6628C21.4621 29.6832 21.4661 29.7037 21.4693 29.7252C21.7363 31.051 22.2602 32.0541 23.0732 32.8434C23.1905 32.9573 23.2561 33.1144 23.2538 33.2787C23.2392 34.4105 22.8638 35.1553 22.1387 35.4929C22.1195 35.5019 22.0996 35.5099 22.0796 35.5166C21.8741 35.587 21.683 35.656 21.49 35.7254V36.8684H21.4899ZM21.8754 33.6211C21.8754 33.8761 21.7151 34.0934 21.4899 34.1791V34.461C21.5468 34.4414 21.6007 34.4211 21.6584 34.4013C21.8826 34.2819 22.0145 33.9809 22.0519 33.5048C21.2561 32.6685 20.7138 31.6627 20.3989 30.4084H14.3112C14.1006 30.8013 13.8475 31.1577 13.546 31.4815C13.5662 31.685 13.6208 31.9253 13.7641 32.0066C16.7026 33.019 18.5097 34.1078 19.2655 35.3197C19.594 35.1778 19.9369 35.0367 20.2982 34.897V34.0185C20.2982 33.4804 20.7477 33.0255 21.2796 33.0255C21.6086 33.0255 21.8754 33.2919 21.8754 33.6211ZM14.0605 17.1856V22.7365C14.5831 23.2973 14.9478 24.0539 15.0169 25.0279C15.1615 26.7436 15.0909 28.1059 14.7828 29.2172H17.4832V17.1856H14.0605ZM36.2364 32.0066C36.3796 31.9253 36.4342 31.685 36.4542 31.4815C36.153 31.1579 35.8998 30.8013 35.6893 30.4084H29.6017C29.2868 31.6624 28.7446 32.6685 27.9485 33.5048C27.9859 33.9809 28.1176 34.2819 28.342 34.4013C28.3994 34.4211 28.4533 34.4412 28.5103 34.4606V34.1791C28.2852 34.0934 28.1246 33.8761 28.1246 33.6211C28.1246 33.2919 28.3916 33.0254 28.7206 33.0254C29.2524 33.0254 29.7019 33.4803 29.7019 34.0184V34.8947C30.0646 35.0349 30.4066 35.1762 30.7359 35.3181C31.4921 34.1068 33.299 33.0188 36.2364 32.0066ZM32.5172 29.2173H35.2177C34.9097 28.1051 34.8392 26.7401 34.9841 25.0203C35.0528 24.0493 35.4174 23.2946 35.9398 22.7347V17.1856H32.5171V29.2173H32.5172ZM32.5172 15.0246V15.9941H42.1893V15.0246H32.5172ZM21.8287 5.72593H23.7094C24.0382 5.72593 24.3051 5.99253 24.3051 6.32173V8.20259H25.695V6.32173C25.695 5.99253 25.9617 5.72593 26.2909 5.72593H28.1717V4.33599H26.2909C25.9618 4.33599 25.695 4.06948 25.695 3.74028V1.85952H24.3051V3.74028C24.3051 4.06948 24.0383 4.33599 23.7094 4.33599H21.8287V5.72593ZM18.6748 29.2173H20.1756C20.0332 28.0957 20.031 26.8011 20.1604 25.2884C20.3806 22.3157 22.8267 20.9584 25.0059 20.9584C27.1796 20.9584 29.6198 22.3157 29.8406 25.2953C29.9696 26.8045 29.9672 28.0973 29.8248 29.2173H31.3255V5.62065H29.3633V6.32173C29.3633 6.65063 29.0965 6.91753 28.7674 6.91753H26.8866V8.79819C26.8866 9.12739 26.6198 9.39399 26.2908 9.39399H23.7093C23.3801 9.39399 23.1133 9.12739 23.1133 8.79819V6.91743H21.2326C20.9037 6.91743 20.6369 6.65054 20.6369 6.32163V5.62056H18.6748V29.2173ZM7.81116 15.9941H17.4832V15.0246H7.81116V15.9941ZM9.43479 17.1856V21.847C9.97034 21.619 10.5483 21.5077 11.1051 21.5077C11.6948 21.5077 12.3071 21.634 12.8689 21.8884V17.1856H9.43479ZM4.11985 38.7725H14.5709C15.1379 37.7237 16.3297 36.7481 18.1733 35.8258C17.6658 35.1196 16.3888 34.1674 13.3416 33.1214C13.3236 33.1153 13.3061 33.1081 13.2888 33.1004C12.8574 32.9043 12.3434 32.425 12.3434 31.2496C12.3434 31.0886 12.4085 30.9344 12.5241 30.8223C13.681 29.6987 14.0714 27.9933 13.8293 25.1205C13.71 23.4451 12.3754 22.6989 11.1052 22.6989C9.84085 22.6989 8.51204 23.4451 8.39338 25.1125C8.14114 27.9841 8.53147 29.6889 9.69788 30.8223C9.81584 30.9368 9.88118 31.0949 9.87844 31.2595C9.86272 32.2033 9.54485 32.8228 8.93372 33.1005C8.91633 33.1082 8.89885 33.1154 8.88069 33.1215C5.20618 34.3832 4.10198 35.5084 3.82268 36.2304C3.81418 36.2528 3.80413 36.2743 3.79309 36.2957C3.5386 36.7738 3.37805 37.3266 3.30256 37.9834C3.3177 38.4214 3.67844 38.7725 4.11985 38.7725ZM24.4102 43.0713V40.7118H24.1415C22.0223 40.7118 20.2983 38.9877 20.2983 36.8685V36.1799C16.954 37.5379 15.8284 38.7572 15.5029 39.5861C15.502 39.5889 15.5005 39.5913 15.4993 39.5937C15.4968 39.6001 15.4937 39.6061 15.4909 39.6124C15.4852 39.6246 15.4804 39.6366 15.474 39.6488C15.1375 40.2799 14.9176 41.0326 14.8204 41.8865C14.8369 42.5317 15.3864 43.0713 16.0349 43.0713H24.4102ZM30.9867 44.2626H25.6018V45.4427C25.6018 46.9302 26.8071 48.1409 28.2885 48.1409C29.7761 48.1409 30.9867 46.9303 30.9867 45.4427V44.2626ZM35.1734 41.9431C34.492 41.8315 33.9402 41.3507 33.722 40.7118H32.5055C32.3313 40.7118 32.1783 40.8645 32.1783 41.0391V43.0714H33.9656C34.5947 43.0713 35.1267 42.5626 35.1734 41.9431ZM46.6979 37.9834C46.6223 37.3265 46.4619 36.7738 46.2073 36.2951C46.1962 36.2743 46.1863 36.2527 46.178 36.2304C45.8986 35.5084 44.7945 34.3832 41.1198 33.1214C41.1017 33.1153 41.0842 33.1081 41.0668 33.1004C40.4554 32.8227 40.1375 32.2032 40.1218 31.2594C40.1189 31.0948 40.1844 30.9367 40.3023 30.8222C41.4687 29.689 41.8591 27.9846 41.6074 25.1223C41.4883 23.4451 40.1595 22.6989 38.8952 22.6989C37.6249 22.6989 36.2902 23.4451 36.1719 25.1125C36.0068 27.0738 36.1358 28.4882 36.599 29.5472C36.6087 29.5666 36.6175 29.5859 36.6251 29.6063C36.8397 30.0772 37.1218 30.4776 37.4765 30.8222C37.592 30.9343 37.6572 31.0885 37.6572 31.2495C37.6572 32.4249 37.1431 32.9042 36.7118 33.1003C36.6945 33.108 36.6771 33.1152 36.6589 33.1213C33.6138 34.1667 32.3363 35.1179 31.8283 35.8245C33.3998 36.6089 34.4925 37.4314 35.129 38.3047C35.2407 38.2839 35.355 38.2704 35.4726 38.2704C35.9595 38.2704 36.3998 38.4632 36.73 38.7724H45.8808C46.3219 38.7725 46.6824 38.4214 46.6979 37.9834Z" fill="#136DF4"/>
</svg>
