<svg width="50" height="50" viewBox="0 0 50 50" fill="none" xmlns="http://www.w3.org/2000/svg">
<g clip-path="url(#clip0_85_93)">
<path d="M0 46.2892C0.682292 45.5548 1.35807 44.8152 2.05339 44.0938C2.15365 43.9897 2.35677 43.9194 2.5 43.9376C2.9362 43.9936 3.1875 43.7449 3.44401 43.4662C3.6875 43.2032 3.94792 42.9584 4.20182 42.7045C5.03646 41.8699 5.47656 41.8243 6.41536 42.4506C7.35938 41.5053 8.29687 40.5665 9.25651 39.6069C9.25 39.5977 9.21354 39.5483 9.17448 39.5001C8.60807 38.8061 8.6276 38.2358 9.25521 37.6082C11.6589 35.2006 14.0768 32.8087 16.457 30.3803C16.8398 29.9897 17.1576 29.4753 17.3411 28.9597C18.0729 26.9102 18.75 24.8412 19.4284 22.7735C19.8789 21.4011 20.6068 20.2136 21.6328 19.198C23.3438 17.5027 25.0404 15.7931 26.7474 14.0938C26.8724 13.9688 27.0365 13.8829 27.2747 13.711C26.6185 13.4662 25.9401 13.3477 26.1875 12.5912C26.4388 11.823 27.0729 12.1576 27.6354 12.2605C27.6198 11.6772 27.1836 10.9441 28.1328 10.7436C28.569 10.6524 28.7812 10.9011 29.056 11.7319C29.1745 11.629 29.2852 11.5457 29.3815 11.4493C31.3164 9.51701 33.2539 7.58862 35.1745 5.64201C35.3229 5.49227 35.4128 5.23055 35.4271 5.0144C35.487 4.12248 35.474 3.22404 35.5534 2.33342C35.6445 1.30607 36.2148 0.593831 37.1602 0.184977C37.306 0.122477 37.4518 0.0599772 37.5964 -0.0012207C37.9219 -0.0012207 38.2474 -0.0012207 38.5729 -0.0012207C38.6146 0.0235189 38.6523 0.0573731 38.6966 0.071696C40.0104 0.466227 40.6602 1.28394 40.7122 2.65763C40.7292 3.10685 40.9648 3.30737 41.3555 3.45842C43.5964 4.3217 45.2552 5.85555 46.2578 8.01961C46.6211 8.80477 46.9284 9.30477 47.9141 9.37508C49.0716 9.45711 49.6732 10.3621 49.9987 11.4259C49.9987 11.7514 49.9987 12.0769 49.9987 12.4024C49.9596 12.4871 49.9128 12.5691 49.8802 12.6563C49.4766 13.7683 48.5911 14.4194 47.4115 14.4649C46.5664 14.4975 45.7201 14.5144 44.8763 14.5665C44.7057 14.5769 44.5026 14.6694 44.3802 14.7904C43.0469 16.1042 41.7279 17.4311 40.4062 18.7566C40.3372 18.8256 40.2904 18.9154 40.2018 19.0404C41.9466 19.0404 43.6224 19.0444 45.2982 19.0391C46.1406 19.0365 46.8073 19.3842 47.332 20.0209C48.0339 20.8738 48.1406 22.4154 47.5781 23.3985C47.3997 23.7097 47.0951 23.8569 46.7969 23.7162C46.5742 23.6108 46.3424 23.3386 46.2917 23.1029C46.2305 22.8217 46.3464 22.4962 46.4049 22.1941C46.6315 21.0326 46.1693 20.4675 44.9779 20.4662C42.0156 20.4649 39.0534 20.4649 36.0911 20.4662C34.8542 20.4662 33.6172 20.4545 32.3802 20.4714C31.5052 20.4845 31.0443 21.0183 31.1055 21.8907C31.1406 22.3933 31.2031 22.8972 31.2018 23.3998C31.2005 23.7813 31.3815 23.9167 31.7148 24.0196C35.0065 25.03 38.2943 26.0561 41.5859 27.0691C41.7969 27.1342 42.0339 27.1654 42.2526 27.1459C42.9974 27.0782 43.737 26.9441 44.4831 26.905C45.1354 26.8712 45.625 26.7787 45.6771 25.9584C45.7018 25.56 46.0872 25.3829 46.4961 25.4766C46.9076 25.5717 47.0768 25.8699 47.0378 26.2787C47.0195 26.4714 46.9674 26.6628 46.9219 26.8516C46.2552 29.6225 46.1302 32.4128 46.5755 35.2306C46.8503 36.9727 47.3516 38.6459 47.9857 40.2905C49.457 44.1121 46.9883 48.2436 42.9232 48.6303C41.6484 48.7514 40.3307 48.5248 39.043 48.3764C37.0664 48.1472 35.0964 48.0079 33.1055 48.2123C31.1315 48.4155 29.1536 48.6537 27.1732 48.6928C23.1549 48.7709 19.1341 48.7319 15.1133 48.7253C13.7487 48.7227 12.7878 47.6082 12.9922 46.2683C13.0443 45.9259 13.2214 45.6016 13.349 45.2462C13.2461 45.1251 13.112 44.9832 12.9948 44.8282C12.2878 43.8855 12.2812 42.5847 12.9766 41.6433C13.6953 40.6694 14.5495 40.4389 15.8151 40.8751C15.9844 40.9337 16.1615 40.9727 16.3229 41.047C16.8034 41.267 17.2812 41.2123 17.7448 41.0235C18.4141 40.7527 19.0729 40.4558 19.7331 40.1655C20.6367 39.7683 21.5234 39.3308 22.4427 38.9727C24.5156 38.1641 26.6042 37.3946 28.6862 36.6056C29.6602 36.2371 30.2721 35.5587 30.2773 34.4923C30.2852 32.9311 30.2305 31.3699 30.1979 29.8087C30.1927 29.5587 30.1641 29.3087 30.1536 29.1772C29.1094 29.6641 28.099 30.2214 27.0286 30.6134C25.0625 31.3347 23.0638 31.9675 21.0716 32.6173C20.4831 32.8087 19.9961 33.116 19.5612 33.5548C17.1888 35.9467 14.8034 38.3256 12.418 40.7045C11.7344 41.3868 11.1823 41.4024 10.4596 40.7826C10.4245 40.7527 10.3776 40.7371 10.3828 40.7397C9.42708 41.6954 8.48828 42.6342 7.54297 43.5795C8.16667 44.5222 8.12109 44.9597 7.28646 45.7944C7.03385 46.0483 6.78776 46.3087 6.52474 46.5522C6.24479 46.81 5.9987 47.0613 6.05339 47.4975C6.07161 47.6394 5.9987 47.8425 5.89583 47.9428C5.17708 48.6381 4.4375 49.3139 3.70573 49.9962C3.51042 49.9962 3.3151 49.9962 3.11979 49.9962C2.46354 49.405 1.78646 48.836 1.15625 48.2175C0.739583 47.8074 0.385417 47.3256 0 46.8751C0 46.6798 0 46.4845 0 46.2892ZM43.6667 47.0678C46.3138 46.1642 47.6276 43.3777 46.6693 40.8152C46.4023 40.1003 46.1367 39.3842 45.9036 38.6576C45.8138 38.3777 45.6732 38.2462 45.3919 38.1589C42.1784 37.1694 38.9701 36.1641 35.7591 35.1641C35.5273 35.0925 35.293 35.03 34.9453 34.9311C35.3841 35.5431 35.7474 36.0418 36.1029 36.5444C36.4362 37.017 36.4036 37.4415 36.026 37.6967C35.668 37.9363 35.2695 37.8256 34.9479 37.3829C34.2982 36.4871 33.6276 35.6069 33.0208 34.6824C32.707 34.2058 32.293 34.0339 31.7435 33.9623C31.8086 35.7423 31.0846 37.0574 29.4896 37.8464C29.4896 37.9142 29.4779 37.9649 29.4909 38.0092C29.9297 39.4884 30.3646 40.9688 30.819 42.4441C30.8672 42.6003 31.0013 42.7488 31.1302 42.8595C32.5286 44.0522 33.931 45.2423 35.3451 46.4168C35.5052 46.5496 35.7383 46.6394 35.9479 46.6615C36.9167 46.7683 37.8906 46.8386 38.8607 46.935C39.888 47.0365 40.9154 47.1524 42.0221 47.2696C41.888 47.0678 41.806 46.9337 41.7135 46.8061C40.319 44.8634 38.9232 42.922 37.5286 40.9806C37.2826 40.6368 37.0273 40.2983 36.7917 39.948C36.5234 39.5496 36.5729 39.1589 36.9036 38.9089C37.2435 38.6511 37.6536 38.7371 37.9622 39.1316C38.0326 39.2214 38.0964 39.3152 38.1628 39.4076C39.1029 40.7149 40.0417 42.0235 40.9818 43.3308C41.8724 44.5717 42.7643 45.8113 43.6667 47.0678ZM36.1211 6.75008C36.0026 6.86206 35.9062 6.948 35.8151 7.03784C31.418 11.4337 27.0234 15.8321 22.6237 20.2253C21.7786 21.0691 21.1732 22.0496 20.7969 23.1837C20.0977 25.297 19.3737 27.4011 18.6784 29.5157C18.444 30.2292 18.0638 30.8282 17.5326 31.3569C15.2461 33.629 12.9714 35.9115 10.694 38.1902C10.5703 38.3139 10.4531 38.4454 10.3411 38.5639C10.7122 38.9415 11.0612 39.2944 11.4271 39.6655C11.5625 39.5365 11.694 39.4168 11.819 39.2918C14.1094 37.0027 16.4036 34.7149 18.6875 32.4194C19.1914 31.9128 19.7695 31.5548 20.4505 31.3308C22.5951 30.6251 24.7331 29.8972 26.8737 29.1798C27.9896 28.8061 28.9648 28.2084 29.7786 27.3569C29.875 27.2566 30 27.1199 29.9974 27.0014C29.9883 26.4454 29.9388 25.8907 29.8958 25.1993C29.4414 25.6628 29.0885 26.0183 28.7409 26.379C28.1055 27.0339 27.3555 27.5053 26.4922 27.7957C24.9674 28.3087 23.4401 28.8113 21.9167 29.3282C21.5143 29.4649 21.1484 29.4649 20.8346 29.1446C20.5208 28.8243 20.5378 28.4584 20.6745 28.0574C21.168 26.6121 21.6628 25.1667 22.1289 23.7123C22.4492 22.7123 22.9883 21.8686 23.7344 21.1329C25.4258 19.4636 27.1029 17.78 28.7734 16.0899C28.9323 15.9298 29.0495 15.698 29.1159 15.4792C29.3919 14.5613 29.9687 13.9727 30.8932 13.7058C31.1133 13.642 31.3424 13.5196 31.5026 13.3608C33.2839 11.5977 35.0534 9.823 36.8255 8.04956C36.9245 7.9506 37.0143 7.84253 37.1172 7.72925C36.7786 7.39852 36.4674 7.09253 36.1211 6.75008ZM45.1836 28.2566C40.6289 28.7839 36.1497 29.3022 31.7305 29.8139C31.7305 30.56 31.7604 31.2436 31.7188 31.922C31.6927 32.3373 31.8633 32.4701 32.2279 32.5821C35.319 33.5274 38.4023 34.4936 41.4896 35.4519C42.7565 35.8464 44.0247 36.2397 45.3685 36.6563C44.849 33.8529 44.7083 31.1082 45.1836 28.2566ZM46.0495 13.0678C46.4466 13.0678 46.7396 13.0717 47.0326 13.0665C47.1953 13.0626 47.3581 13.0509 47.5182 13.0261C48.1745 12.9246 48.5768 12.4532 48.5534 11.8243C48.5299 11.2032 48.0794 10.7462 47.4167 10.7253C46.2721 10.6902 45.5794 10.1316 45.1602 9.06128C44.362 7.02222 42.9036 5.59253 40.8581 4.80217C39.8646 4.41805 39.3333 3.74748 39.2786 2.69019C39.2383 1.92065 38.8359 1.46493 38.1901 1.448C37.474 1.42977 37 1.87899 36.9479 2.65633C36.9062 3.28914 36.918 3.92586 36.8594 4.55607C36.806 5.1381 36.9857 5.58472 37.401 5.99487C39.4232 7.99618 41.4557 9.98967 43.4297 12.0391C44.2057 12.8451 44.9727 13.4428 46.0495 13.0678ZM27.5 47.2983C26.0286 44.9493 24.6354 42.7201 23.2253 40.5001C23.1628 40.4024 22.918 40.336 22.7982 40.3751C22.2435 40.5561 21.7044 40.7826 21.1562 40.9871C20.569 41.2058 20.2773 41.6251 20.2773 42.2501C20.2773 42.9975 20.276 43.7462 20.276 44.4936C20.276 45.8477 20.224 45.9011 18.8854 45.9011C17.6497 45.9011 16.4128 45.8777 15.1797 45.922C14.9284 45.9311 14.6081 46.1511 14.4688 46.3686C14.3724 46.5183 14.4596 46.9024 14.6003 47.0535C14.7474 47.211 15.0586 47.2774 15.2982 47.2787C17.737 47.297 20.1758 47.2944 22.6146 47.2957C24.2044 47.2996 25.793 47.2983 27.5 47.2983ZM29.4557 17.474C29.4167 17.5053 29.3633 17.5404 29.319 17.5834C27.7201 19.1811 26.1003 20.7579 24.5391 22.392C24.1159 22.836 23.7904 23.4181 23.5612 23.9936C23.1315 25.0782 22.8034 26.2032 22.4362 27.3126C22.4036 27.4089 22.3971 27.5144 22.3672 27.6694C23.0104 27.4532 23.582 27.2149 24.1771 27.0704C26.0833 26.6082 27.6615 25.6641 28.9635 24.1733C29.4857 23.5756 29.9232 23.073 29.6979 22.241C29.6523 22.073 29.6758 21.8855 29.6745 21.7058C29.6667 20.7136 30.0924 19.9571 30.9206 19.4207C31.0221 19.3542 31.1211 19.2839 31.2474 19.1967C30.6432 18.6147 30.0703 18.0639 29.4557 17.474ZM35.8607 17.0873C37.6289 15.3191 39.3906 13.5574 41.0872 11.8595C40.1081 10.8803 39.0924 9.86467 38.1406 8.91284C36.4219 10.6264 34.6654 12.379 32.9062 14.1329C33.8841 15.1095 34.8919 16.1186 35.8607 17.0873ZM24.5195 39.5977C24.5195 39.7918 24.513 39.8113 24.5208 39.8217C26 42.1928 27.4779 44.5652 28.9714 46.9272C29.0417 47.0391 29.2617 47.1199 29.4036 47.1108C30.2305 47.0548 31.056 46.9662 31.8815 46.8894C32.3867 46.8425 32.8919 46.7983 33.4479 46.7488C33.3672 46.6485 33.3424 46.6069 33.3073 46.5769C30.6133 44.297 27.9219 42.0131 25.2148 39.7488C25.0638 39.6238 24.7852 39.6511 24.5195 39.5977ZM42.2682 12.8842C40.4206 14.5183 36.4206 18.6511 36.3437 19.0391C36.7526 19.0391 37.1549 19.0144 37.5534 19.0457C37.9414 19.0756 38.2135 18.9467 38.4883 18.6667C39.944 17.1824 41.418 15.7175 42.8958 14.2553C43.0182 14.1342 43.2122 14.0873 43.3737 14.0053C43.319 13.9506 43.2643 13.8946 43.2096 13.8399C42.9049 13.53 42.599 13.2188 42.2682 12.8842ZM31.3411 25.3907C31.4154 26.4233 31.4844 27.3894 31.556 28.3959C33.7943 28.1355 35.9909 27.8803 38.1888 27.6251C38.1888 27.5899 38.1901 27.5548 38.1901 27.5196C35.9349 26.8191 33.6797 26.1173 31.3411 25.3907ZM18.8203 42.0886C17.6784 42.7983 16.5651 42.6641 15.444 42.2345C15.293 42.1772 15.1341 42.1069 14.9779 42.1056C14.7943 42.1043 14.5846 42.1277 14.431 42.2162C14.0273 42.4506 13.819 42.9884 13.9115 43.4402C14.013 43.9428 14.3919 44.4063 14.8672 44.4207C16.1758 44.4584 17.487 44.4337 18.8229 44.4337C18.8203 43.6668 18.8203 42.9246 18.8203 42.0886ZM33.8008 19.0352C34.0195 19.0352 34.1367 19.0535 34.2474 19.0313C34.4518 18.991 34.7995 18.9649 34.8255 18.8647C34.8906 18.6225 34.8242 18.3347 34.7682 18.0756C34.7435 17.9636 34.6198 17.8673 34.5286 17.7761C33.7604 17.004 32.9922 16.2319 32.2174 15.4662C31.7435 14.9975 31.2031 14.9584 30.7917 15.3464C30.3594 15.754 30.3815 16.3074 30.8672 16.8048C31.4115 17.3634 31.9896 17.892 32.5143 18.4675C32.901 18.8907 33.3034 19.185 33.8008 19.0352ZM4.49089 47.323C3.88021 46.7071 3.27604 46.0977 2.71745 45.5352C2.34505 45.8816 1.95964 46.2397 1.61719 46.5587C2.23047 47.1759 2.83203 47.7839 3.43359 48.3894C3.77344 48.0457 4.13542 47.6811 4.49089 47.323ZM5.17188 45.8217C5.60286 45.4011 6.01953 44.9936 6.42057 44.6017C6.08073 44.2527 5.74479 43.9076 5.45964 43.6147C5.02995 44.0431 4.60938 44.461 4.21354 44.8556C4.51562 45.1602 4.84375 45.491 5.17188 45.8217ZM28.7201 40.8243C28.7526 40.8087 28.7865 40.7931 28.819 40.7761C28.5794 39.9793 28.3385 39.1824 28.0924 38.3647C27.556 38.5678 27.0755 38.7488 26.5182 38.9597C27.2943 39.6173 28.0065 40.2201 28.7201 40.8243Z" fill="#136DF4"/>
</g>
<defs>
<clipPath id="clip0_85_93">
<rect width="50" height="50" fill="white"/>
</clipPath>
</defs>
</svg>
