<svg width="50" height="50" viewBox="0 0 50 50" fill="none" xmlns="http://www.w3.org/2000/svg">
<g clip-path="url(#clip0_313_354)">
<path d="M39.3268 26.0507C39.3149 26.0184 39.3029 25.9861 39.2907 25.9539C38.519 23.9136 37.1428 22.1577 35.3461 20.9209L32.7158 19.1101" stroke="#136DF4" stroke-width="1.5" stroke-miterlimit="10" stroke-linecap="round" stroke-linejoin="round"/>
<path d="M22.4665 15.8728L22.3212 15.337C22.1235 14.6078 22.1602 13.8348 22.426 13.1276L22.6683 12.483C24.0634 8.77151 22.7591 4.58665 19.5023 2.32503C16.8818 0.505303 13.4887 0.224443 10.6047 1.58851L10.5042 1.63606C5.86039 3.83235 3.53471 8.93919 4.66459 13.7394" stroke="#136DF4" stroke-width="1.5" stroke-miterlimit="10" stroke-linecap="round" stroke-linejoin="round"/>
<path d="M22.7959 20.9156L22.1215 20.6209C19.5598 19.5013 16.7437 19.0932 13.9695 19.4396L11.6318 19.7315" stroke="#136DF4" stroke-width="1.5" stroke-miterlimit="10" stroke-linecap="round" stroke-linejoin="round"/>
<path d="M37.0742 21.542L38.9082 21.1416C41.3252 20.6152 43.0264 18.6279 43.3232 16.3311C43.3545 16.0937 43.3701 15.8525 43.3701 15.6094C43.3701 15.0957 43.2998 14.5742 43.1523 14.0547C42.8486 12.957 41.8516 12.2266 40.751 12.2266C40.5928 12.2266 40.4316 12.2422 40.2705 12.2734C39.708 12.3828 39.2188 12.6777 38.8643 13.0879C38.5088 13.499 38.2871 14.0254 38.2588 14.5977C38.2275 15.2295 37.5459 15.6113 36.9902 15.3086L36.9492 15.2861C35.6299 14.5674 34.1855 14.1299 32.708 13.9902" stroke="#136DF4" stroke-width="1.5" stroke-miterlimit="10" stroke-linecap="round" stroke-linejoin="round"/>
<path d="M25.0439 16.1504C26.3926 15.2979 27.751 14.5684 29.2969 14.2061" stroke="#136DF4" stroke-width="1.5" stroke-miterlimit="10" stroke-linecap="round" stroke-linejoin="round"/>
<path d="M25.818 27.0539C26.4579 26.3418 26.9756 25.5119 27.3354 24.5936C28.3269 22.0624 27.7745 19.1866 25.9159 17.2028L25.3521 16.601C24.4036 15.5887 22.8284 15.497 21.769 16.3924C21.0446 17.0045 20.7101 17.9619 20.8956 18.8919L21.1154 19.979" stroke="#136DF4" stroke-width="1.5" stroke-miterlimit="10" stroke-linecap="round" stroke-linejoin="round"/>
<path d="M13.0533 10.5494C12.0526 10.0715 10.8678 10.6525 10.6332 11.7364L10.5981 11.8981C10.3287 13.1425 10.9498 14.4089 12.0987 14.9576" stroke="#136DF4" stroke-width="1.5" stroke-miterlimit="10" stroke-linecap="round" stroke-linejoin="round"/>
<path d="M17.3438 13.6643H17.8887C18.3522 13.6643 18.8081 13.7832 19.2127 14.0095" stroke="#136DF4" stroke-width="1.5" stroke-miterlimit="10" stroke-linecap="round" stroke-linejoin="round"/>
<path d="M43.2959 27.3291V16.7383C43.2959 16.6094 43.3037 16.4814 43.3203 16.3564C43.3213 16.3477 43.3223 16.3398 43.3232 16.3311C43.4141 15.666 43.7227 15.0693 44.1738 14.6172C44.7168 14.0752 45.4668 13.7393 46.2949 13.7393C46.9121 13.7393 47.4131 14.2393 47.4131 14.8564V29.2441C47.4131 30.001 47.1533 30.7354 46.6777 31.3242L44.3145 34.2529" stroke="#136DF4" stroke-width="1.5" stroke-miterlimit="10" stroke-linecap="round" stroke-linejoin="round"/>
<path d="M37.7248 49.2676L37.2306 46.1621C36.966 44.4961 37.4191 42.7959 38.4787 41.4834L42.1672 36.9131" stroke="#136DF4" stroke-width="1.5" stroke-miterlimit="10" stroke-linecap="round" stroke-linejoin="round"/>
<path d="M33.3052 32.0668L39.6249 25.8004C40.4634 24.9689 41.8149 24.9674 42.6554 25.797C43.4809 26.6118 43.513 27.934 42.7281 28.788L36.6618 35.3891" stroke="#136DF4" stroke-width="1.5" stroke-miterlimit="10" stroke-linecap="round" stroke-linejoin="round"/>
<path d="M28.9038 49.2676V44.6379" stroke="#136DF4" stroke-width="1.5" stroke-miterlimit="10" stroke-linecap="round" stroke-linejoin="round"/>
<path d="M2.58691 21.542V14.8564C2.58691 14.2393 3.08789 13.7393 3.70508 13.7393C4.5332 13.7393 5.2832 14.0752 5.82617 14.6172C6.36816 15.1602 6.7041 15.9102 6.7041 16.7383V27.3291" stroke="#136DF4" stroke-width="1.5" stroke-miterlimit="10" stroke-linecap="round" stroke-linejoin="round"/>
<path d="M2.58691 24.96V29.2441C2.58691 30.001 2.84668 30.7354 3.32227 31.3242L11.5215 41.4834C12.5811 42.7959 13.0342 44.4961 12.7695 46.1621L12.2754 49.2676" stroke="#136DF4" stroke-width="1.5" stroke-miterlimit="10" stroke-linecap="round" stroke-linejoin="round"/>
<path d="M16.7217 32.0934L10.375 25.8004C9.5365 24.9689 8.18494 24.9674 7.34451 25.797C6.51902 26.6118 6.4869 27.934 7.27176 28.788L13.3381 35.3891" stroke="#136DF4" stroke-width="1.5" stroke-miterlimit="10" stroke-linecap="round" stroke-linejoin="round"/>
<path d="M21.0962 49.2676V44.6379" stroke="#136DF4" stroke-width="1.5" stroke-miterlimit="10" stroke-linecap="round" stroke-linejoin="round"/>
<path d="M18.3818 42.499C20.0459 44.2471 22.3955 45.3359 25 45.3359C30.0488 45.3359 34.1416 41.2432 34.1416 36.1953C34.1416 31.1465 30.0488 27.0537 25 27.0537C19.9512 27.0537 15.8584 31.1465 15.8584 36.1953C15.8584 37.4053 16.0937 38.5605 16.5215 39.6172" stroke="#136DF4" stroke-width="1.5" stroke-miterlimit="10" stroke-linecap="round" stroke-linejoin="round"/>
<path d="M20.0796 34.5233H23.3286V31.2742H26.6718V34.5233H29.9208V37.8664H26.6718V41.1155H23.3286V37.8664H20.0796V34.5233Z" stroke="#136DF4" stroke-width="1.5" stroke-miterlimit="10" stroke-linecap="round" stroke-linejoin="round"/>
</g>
<defs>
<clipPath id="clip0_313_354">
<rect width="50" height="50" fill="white"/>
</clipPath>
</defs>
</svg>
