<svg width="50" height="50" viewBox="0 0 50 50" fill="none" xmlns="http://www.w3.org/2000/svg">
<g clip-path="url(#clip0_186_1614)">
<path d="M49.1667 15H48.3333V5.83333C48.3333 5.37313 47.9602 5 47.5 5H33.3333V0.833333C33.3333 0.373128 32.9602 0 32.5 0H17.5C17.0398 0 16.6667 0.373128 16.6667 0.833333V5H2.5C2.03979 5 1.66667 5.37313 1.66667 5.83333V15H0.833333C0.373128 15 0 15.3731 0 15.8333V19.1667C0 19.6269 0.373128 20 0.833333 20H1.66667V49.1667C1.66667 49.6269 2.03979 50 2.5 50H47.5C47.9602 50 48.3333 49.6269 48.3333 49.1667V20H49.1667C49.6269 20 50 19.6269 50 19.1667V15.8333C50 15.3731 49.6269 15 49.1667 15ZM33.3333 6.66667H46.6667V15H33.3333V6.66667ZM18.3333 1.66667H31.6667V15H18.3333V1.66667ZM3.33333 6.66667H16.6667V15H3.33333V6.66667ZM40.8333 48.3333H30V41.6667H40.8333V48.3333ZM40.8333 40H30V31.6667H40.8333V40ZM40.8333 30H30V25.8333H40.8333V30ZM46.6667 48.3333H42.5V25C42.5 24.5398 42.1269 24.1667 41.6667 24.1667H29.1667C28.7065 24.1667 28.3333 24.5398 28.3333 25V48.3333H3.33333V20H46.6667V48.3333ZM48.3333 18.3333H1.66667V16.6667H48.3333V18.3333Z" fill="#136DF4"/>
<path d="M8.33333 42.5H23.3333C23.7935 42.5 24.1667 42.1268 24.1667 41.6666V37.5C24.1667 37.0398 23.7935 36.6666 23.3333 36.6666H22.5V25C22.5 24.5398 22.1269 24.1666 21.6667 24.1666H10C9.53979 24.1666 9.16667 24.5398 9.16667 25V36.6666H8.33333C7.87313 36.6666 7.5 37.0398 7.5 37.5V41.6666C7.5 42.1268 7.87313 42.5 8.33333 42.5ZM10.8333 25.8333H20.8333V36.6666H10.8333V25.8333ZM9.16667 38.3333H22.5V40.8333H9.16667V38.3333Z" fill="#136DF4"/>
<path d="M38.3333 36.6666C38.7935 36.6666 39.1667 36.2935 39.1667 35.8333V35C39.1667 34.5398 38.7935 34.1666 38.3333 34.1666C37.8731 34.1666 37.5 34.5398 37.5 35V35.8333C37.5 36.2935 37.8731 36.6666 38.3333 36.6666Z" fill="#136DF4"/>
<path d="M29.1667 5.83337H27.5V4.16671C27.5 3.7065 27.1269 3.33337 26.6667 3.33337H23.3333C22.8731 3.33337 22.5 3.7065 22.5 4.16671V5.83337H20.8333C20.3731 5.83337 20 6.2065 20 6.66671V10C20 10.4602 20.3731 10.8334 20.8333 10.8334H22.5V12.5C22.5 12.9602 22.8731 13.3334 23.3333 13.3334H26.6667C27.1269 13.3334 27.5 12.9602 27.5 12.5V10.8334H29.1667C29.6269 10.8334 30 10.4602 30 10V6.66671C30 6.2065 29.6269 5.83337 29.1667 5.83337ZM28.3333 9.16671H26.6667C26.2065 9.16671 25.8333 9.53984 25.8333 10V11.6667H24.1667V10C24.1667 9.53984 23.7935 9.16671 23.3333 9.16671H21.6667V7.50004H23.3333C23.7935 7.50004 24.1667 7.12691 24.1667 6.66671V5.00004H25.8333V6.66671C25.8333 7.12691 26.2065 7.50004 26.6667 7.50004H28.3333V9.16671Z" fill="#136DF4"/>
<path d="M13.9225 31.4225L16.4225 28.9225C16.7382 28.5954 16.7337 28.0758 16.4123 27.7543C16.0908 27.4329 15.5712 27.4284 15.2441 27.7442L12.7441 30.2442C12.5276 30.4533 12.4405 30.7634 12.517 31.0547C12.5931 31.346 12.8206 31.5735 13.1119 31.6496C13.4033 31.7261 13.7133 31.639 13.9225 31.4225Z" fill="#136DF4"/>
<path d="M17.7441 29.4108L13.5775 33.5774C13.361 33.7866 13.2739 34.0967 13.3504 34.388C13.4265 34.6793 13.654 34.9068 13.9453 34.9829C14.2366 35.0594 14.5467 34.9723 14.7558 34.7558L18.9225 30.5892C19.2383 30.262 19.2338 29.7424 18.9123 29.421C18.5909 29.0995 18.0713 29.095 17.7441 29.4108Z" fill="#136DF4"/>
</g>
<defs>
<clipPath id="clip0_186_1614">
<rect width="50" height="50" fill="white"/>
</clipPath>
</defs>
</svg>
