<svg width="86" height="65" viewBox="0 0 86 65" fill="none" xmlns="http://www.w3.org/2000/svg">
<path d="M6.91807 64.246C6.60094 64.2461 6.29093 64.1519 6.02742 63.9755C5.76391 63.799 5.55878 63.5483 5.43807 63.255L2.12007 55.181C1.96643 54.8071 1.96001 54.3889 2.10212 54.0104C2.24422 53.632 2.5243 53.3214 2.88607 53.141C8.57107 50.306 12.7521 45.841 15.3131 39.871C16.2202 37.7569 16.8766 35.5438 17.2691 33.277H8.41707C7.99272 33.277 7.58576 33.1084 7.2857 32.8084C6.98564 32.5083 6.81707 32.1014 6.81707 31.677V4.6C6.81707 4.17565 6.98564 3.76869 7.2857 3.46863C7.58576 3.16857 7.99272 3 8.41707 3H41.1001C41.5244 3 41.9314 3.16857 42.2314 3.46863C42.5315 3.76869 42.7001 4.17565 42.7001 4.6V23.143C42.7022 30.2077 40.9037 37.1563 37.4743 43.3328C34.0448 49.5092 29.0977 54.7097 23.1001 58.443C19.0392 60.9672 14.5698 62.7651 9.89207 63.756C8.17907 64.121 7.12707 64.231 7.08307 64.236C7.02829 64.2423 6.97321 64.2457 6.91807 64.246ZM5.63207 55.307L7.92207 60.881C8.28507 60.818 8.72207 60.735 9.22207 60.628C26.7701 56.895 39.5001 41.13 39.5001 23.143V6.2H10.0171V30.077H19.0841C19.3017 30.0767 19.5171 30.1208 19.7171 30.2066C19.9172 30.2924 20.0976 30.418 20.2473 30.576C20.3971 30.7339 20.5131 30.9207 20.5882 31.125C20.6633 31.3292 20.6959 31.5467 20.6841 31.764C20.6751 31.935 20.4341 36 18.3071 41.012C17.0937 43.8978 15.4408 46.5782 13.4071 48.958C11.2076 51.5137 8.57584 53.6628 5.63207 55.307Z" fill="#8694A7" fill-opacity="0.5"/>
<path d="M49.4132 64.246C49.0962 64.2459 48.7864 64.1516 48.5231 63.9752C48.2598 63.7988 48.0548 63.5481 47.9342 63.255L44.6162 55.181C44.4625 54.8071 44.4561 54.3889 44.5982 54.0104C44.7403 53.632 45.0204 53.3214 45.3822 53.141C51.0672 50.306 55.2482 45.841 57.8092 39.871C58.7153 37.7565 59.3718 35.5436 59.7652 33.277H50.9132C50.4888 33.277 50.0818 33.1084 49.7818 32.8084C49.4817 32.5083 49.3132 32.1014 49.3132 31.677V4.6C49.3132 4.17565 49.4817 3.76869 49.7818 3.46863C50.0818 3.16857 50.4888 3 50.9132 3H83.6002C84.0245 3 84.4315 3.16857 84.7315 3.46863C85.0316 3.76869 85.2002 4.17565 85.2002 4.6V23.143C85.218 32.6494 81.9673 41.8729 75.9931 49.2675C70.0188 56.6621 61.6841 61.7781 52.3862 63.758C50.6732 64.123 49.6222 64.233 49.5782 64.238C49.5234 64.2437 49.4683 64.2463 49.4132 64.246ZM48.1272 55.307L50.4182 60.881C50.7802 60.818 51.2182 60.735 51.7182 60.628C69.2662 56.895 82.0002 41.13 82.0002 23.143V6.2H52.5132V30.077H61.5802C61.7978 30.0767 62.0132 30.1208 62.2132 30.2066C62.4133 30.2924 62.5937 30.418 62.7434 30.576C62.8932 30.7339 63.0092 30.9207 63.0843 31.125C63.1594 31.3292 63.192 31.5467 63.1802 31.764C63.1712 31.935 62.9292 36 60.8032 41.012C59.5898 43.8977 57.9369 46.5782 55.9032 48.958C53.7038 51.5142 51.0716 53.6634 48.1272 55.307Z" fill="#8694A7" fill-opacity="0.5"/>
<path d="M4.91807 61.246C4.60094 61.2461 4.29093 61.1519 4.02742 60.9755C3.76391 60.799 3.55878 60.5483 3.43807 60.255L0.120068 52.181C-0.0335727 51.8071 -0.0399864 51.3889 0.102115 51.0104C0.244217 50.632 0.5243 50.3214 0.886068 50.141C6.57107 47.306 10.7521 42.841 13.3131 36.871C14.2202 34.7569 14.8766 32.5438 15.2691 30.277H6.41707C5.99272 30.277 5.58576 30.1084 5.2857 29.8084C4.98564 29.5083 4.81707 29.1014 4.81707 28.677V1.6C4.81707 1.17565 4.98564 0.768688 5.2857 0.46863C5.58576 0.168571 5.99272 0 6.41707 0H39.1001C39.5244 0 39.9314 0.168571 40.2314 0.46863C40.5315 0.768688 40.7001 1.17565 40.7001 1.6V20.143C40.7022 27.2077 38.9037 34.1563 35.4743 40.3328C32.0448 46.5092 27.0977 51.7097 21.1001 55.443C17.0392 57.9672 12.5698 59.7651 7.89207 60.756C6.17907 61.121 5.12707 61.231 5.08307 61.236C5.02829 61.2423 4.97321 61.2457 4.91807 61.246ZM3.63207 52.307L5.92207 57.881C6.28507 57.818 6.72207 57.735 7.22207 57.628C24.7701 53.895 37.5001 38.13 37.5001 20.143V3.2H8.01707V27.077H17.0841C17.3017 27.0767 17.5171 27.1208 17.7171 27.2066C17.9172 27.2924 18.0976 27.418 18.2473 27.576C18.3971 27.7339 18.5131 27.9207 18.5882 28.125C18.6633 28.3292 18.6959 28.5467 18.6841 28.764C18.6751 28.935 18.4341 33 16.3071 38.012C15.0937 40.8978 13.4408 43.5782 11.4071 45.958C9.20758 48.5137 6.57584 50.6628 3.63207 52.307Z" fill="#136DF4"/>
<path d="M47.4132 61.246C47.0962 61.2459 46.7864 61.1516 46.5231 60.9752C46.2598 60.7988 46.0548 60.5481 45.9342 60.255L42.6162 52.181C42.4625 51.8071 42.4561 51.3889 42.5982 51.0104C42.7403 50.632 43.0204 50.3214 43.3822 50.141C49.0672 47.306 53.2482 42.841 55.8092 36.871C56.7153 34.7565 57.3718 32.5436 57.7652 30.277H48.9132C48.4888 30.277 48.0818 30.1084 47.7818 29.8084C47.4817 29.5083 47.3132 29.1014 47.3132 28.677V1.6C47.3132 1.17565 47.4817 0.768688 47.7818 0.46863C48.0818 0.168571 48.4888 0 48.9132 0H81.6002C82.0245 0 82.4315 0.168571 82.7315 0.46863C83.0316 0.768688 83.2002 1.17565 83.2002 1.6V20.143C83.218 29.6494 79.9673 38.8729 73.9931 46.2675C68.0188 53.6621 59.6841 58.7781 50.3862 60.758C48.6732 61.123 47.6222 61.233 47.5782 61.238C47.5234 61.2437 47.4683 61.2463 47.4132 61.246ZM46.1272 52.307L48.4182 57.881C48.7802 57.818 49.2182 57.735 49.7182 57.628C67.2662 53.895 80.0002 38.13 80.0002 20.143V3.2H50.5132V27.077H59.5802C59.7978 27.0767 60.0132 27.1208 60.2132 27.2066C60.4133 27.2924 60.5937 27.418 60.7434 27.576C60.8932 27.7339 61.0092 27.9207 61.0843 28.125C61.1594 28.3292 61.192 28.5467 61.1802 28.764C61.1712 28.935 60.9292 33 58.8032 38.012C57.5898 40.8977 55.9369 43.5782 53.9032 45.958C51.7038 48.5142 49.0716 50.6634 46.1272 52.307Z" fill="#136DF4"/>
</svg>
