<svg width="50" height="50" viewBox="0 0 50 50" fill="none" xmlns="http://www.w3.org/2000/svg">
<path d="M18.5493 9.11642L17.3883 8.07111L10.9727 15.1992L8.42271 12.0117L7.20239 12.9883L10.9024 17.6133L18.5493 9.11642Z" fill="#1F2937"/>
<path d="M10.1562 27.3438H11.7188V28.9062H10.1562V27.3438Z" fill="#1F2937"/>
<path d="M39.0625 17.9688C37.7703 17.9688 36.7188 19.0203 36.7188 20.3125C36.7188 21.6047 37.7703 22.6562 39.0625 22.6562C40.3547 22.6562 41.4062 21.6047 41.4062 20.3125C41.4062 19.0203 40.3547 17.9688 39.0625 17.9688ZM39.0625 21.0938C38.6313 21.0938 38.2812 20.743 38.2812 20.3125C38.2812 19.882 38.6313 19.5312 39.0625 19.5312C39.4938 19.5312 39.8438 19.882 39.8438 20.3125C39.8438 20.743 39.4938 21.0938 39.0625 21.0938Z" fill="#1F2937"/>
<path d="M49.2188 29.2453C49.2188 25.0766 47.3922 21.1766 44.2141 18.4945C43.8391 17.4352 43.1484 16.5258 42.2523 15.8797L43.2039 14.3734C43.4297 14.0149 43.5 13.5906 43.4016 13.1774C43.3031 12.7656 43.0492 12.418 42.6859 12.2L40.9867 11.1805L41.4805 10.1922L41.9734 10.4797C42.2195 10.6234 42.4906 10.6922 42.7594 10.6922C43.2367 10.6922 43.7055 10.4734 44.0109 10.0672L45.4109 8.20079C45.6781 7.84454 45.7812 7.38985 45.693 6.95391C45.6047 6.51719 45.3336 6.13751 44.9484 5.91329L36.932 1.23829C36.2461 0.838289 35.3711 1.01563 34.8953 1.65001L33.4953 3.51641C33.2281 3.87266 33.125 4.32735 33.2133 4.76329C33.3016 5.20001 33.5727 5.57969 33.9578 5.80391L34.4805 6.10938L33.8766 6.91485L32.3164 5.97891C31.5828 5.53907 30.625 5.77501 30.1789 6.50391L23.1383 18.0242C22.9805 17.9914 22.8195 17.9688 22.6562 17.9688H21.0445C22.0594 16.3883 22.6562 14.5141 22.6562 12.5C22.6562 6.90001 18.1 2.34376 12.5 2.34376C6.9 2.34376 2.34375 6.90001 2.34375 12.5C2.34375 14.5141 2.94063 16.3883 3.95547 17.9688H3.125C1.83281 17.9688 0.78125 19.0203 0.78125 20.3125V23.4375C0.78125 24.7297 1.83281 25.7813 3.125 25.7813H3.77109L0.836719 44.1227C0.8 44.3524 0.78125 44.5859 0.78125 44.8188C0.78125 47.2453 2.75469 49.2188 5.18125 49.2188H14.0625H14.8438H31.25C32.1117 49.2188 32.8125 48.518 32.8125 47.6563V46.0938C32.8125 46.0859 32.8102 46.0789 32.8102 46.0711C41.8961 45.8352 49.2188 38.3867 49.2188 29.2453ZM42.9688 20.3125C42.9688 22.4664 41.2164 24.2188 39.0625 24.2188C36.9086 24.2188 35.1562 22.4664 35.1562 20.3125C35.1562 18.1586 36.9086 16.4063 39.0625 16.4063C41.2164 16.4063 42.9688 18.1586 42.9688 20.3125ZM32.8102 39.8227C32.7992 38.9711 32.1039 38.2813 31.25 38.2813H24.0094L22.5492 29.1547C22.7594 29.2547 22.9812 29.3242 23.2133 29.3242C23.3133 29.3242 23.4133 29.3149 23.5133 29.2953C23.9469 29.2102 24.3258 28.9445 24.5523 28.5656L25.8563 26.393L26.9078 27.0734L25.4742 29.4633C25.0609 30.1524 25.2336 31.0359 25.8773 31.5172L27.7453 32.9188C28.018 33.1227 28.3477 33.2313 28.6836 33.2313C28.7836 33.2313 28.8836 33.2219 28.9836 33.2024C29.4172 33.1172 29.7961 32.8516 30.0227 32.4727L31.4852 30.0352L32.5234 30.707C32.7836 30.875 33.0766 30.9555 33.3672 30.9555C33.8742 30.9555 34.3727 30.7109 34.6719 30.2609L35.368 29.218C35.6023 28.8672 35.6836 28.4461 35.5977 28.0336C35.5289 27.7023 35.3563 27.4125 35.1086 27.1922L36.4289 25.1024C37.2094 25.5336 38.1078 25.7813 39.0625 25.7813C40.0359 25.7813 40.9492 25.5227 41.7422 25.0742C42.5359 26.2586 42.9688 27.6617 42.9688 29.0953V29.2742C42.9688 34.9641 38.4477 39.6047 32.8102 39.8227ZM25.9531 42.9688L26.3438 44.5313H18.9688L19.3594 42.9688H25.9531ZM14.0625 41.4063V39.8438H31.25L31.2508 41.4063H14.0625ZM22.0969 20.6055L34.0664 28.3508L33.3703 29.3945L21.4016 21.6492L22.0969 20.6055ZM30.1719 29.1852L28.682 31.668L26.8133 30.2664L28.2203 27.9219L30.1719 29.1852ZM22.5922 24.2805L24.5438 25.543L23.2133 27.7617L21.3445 26.3602L22.5922 24.2805ZM36.1453 2.58829L44.1617 7.26407L42.7617 9.13126L34.7453 4.45469L36.1453 2.58829ZM35.8391 6.90157L40.1281 9.40313L39.643 10.3734L35.2242 7.72188L35.8391 6.90157ZM31.5125 7.31876L41.8813 13.5399L40.8617 15.1539C40.2977 14.9563 39.6937 14.8438 39.0625 14.8438C36.0477 14.8438 33.5938 17.2969 33.5938 20.3125C33.5938 21.8094 34.1992 23.1664 35.1766 24.1547L33.8078 26.3219L23.8406 19.8719L31.5125 7.31876ZM12.5 3.90626C17.2383 3.90626 21.0938 7.76173 21.0938 12.5C21.0938 17.2383 17.2383 21.0938 12.5 21.0938C7.76172 21.0938 3.90625 17.2383 3.90625 12.5C3.90625 7.76173 7.76172 3.90626 12.5 3.90626ZM2.34375 23.4375V20.3125C2.34375 19.882 2.69375 19.5313 3.125 19.5313H5.18828C7.0375 21.4531 9.62891 22.6563 12.5 22.6563C15.3711 22.6563 17.9625 21.4531 19.8117 19.5313H20.9688C20.9078 19.5953 20.8484 19.6633 20.7977 19.7391L20.1016 20.782C19.8672 21.1328 19.7859 21.5539 19.8719 21.9664C19.957 22.3789 20.1992 22.732 20.5531 22.9602L21.2797 23.4305L20.807 24.2188H3.125C2.69375 24.2188 2.34375 23.868 2.34375 23.4375ZM5.18125 47.6563C3.61641 47.6563 2.34375 46.3836 2.34375 44.8188C2.34375 44.6688 2.35625 44.5195 2.37969 44.3703L3.35391 38.2813H9.375V36.7188H3.60391L4.10391 33.5938H11.7188V32.0313H4.35391L4.85391 28.9063H8.59375V27.3438H5.10391L5.35391 25.7813H19.8977C19.6375 26.4281 19.8328 27.1797 20.4086 27.6102L20.7641 27.8766L22.4273 38.2813H14.0625C13.2008 38.2813 12.5 38.982 12.5 39.8438V41.4063C12.5 42.268 13.2008 42.9688 14.0625 42.9688H17.75L17.3594 44.5313H14.0625C13.2008 44.5313 12.5 45.232 12.5 46.0938V47.6563H5.18125ZM14.8438 47.6563H14.0625V46.0938H31.25L31.2508 47.6563H14.8438ZM32.3703 44.5313H31.25H27.9531L27.5625 42.9688H31.25C32.1117 42.9688 32.8125 42.268 32.8125 41.4063V41.3852C39.3102 41.1648 44.5312 35.825 44.5312 29.275V29.0961C44.5312 27.3172 43.9852 25.5758 42.9828 24.1172C43.7992 23.2758 44.3477 22.175 44.4914 20.95C46.5117 23.2227 47.6562 26.1469 47.6562 29.2453C47.6562 37.6742 40.7992 44.5313 32.3703 44.5313Z" fill="#1F2937"/>
</svg>
