<svg width="16" height="16" viewBox="0 0 16 16" fill="none" xmlns="http://www.w3.org/2000/svg">
<path d="M2.66957 4.27791L0.507812 2.11615L1.45062 1.17334L3.61238 3.3351H13.7735C14.1417 3.3351 14.4402 3.63358 14.4402 4.00177C14.4402 4.06665 14.4307 4.13119 14.4121 4.19333L12.8121 9.52667C12.7275 9.80867 12.4679 10.0018 12.1735 10.0018H4.00291V11.3351H11.3363V12.6685H3.33624C2.96805 12.6685 2.66957 12.3699 2.66957 12.0018V4.27791ZM4.00291 4.66843V8.66847H11.6775L12.8775 4.66843H4.00291ZM3.66957 15.3351C3.11729 15.3351 2.66957 14.8874 2.66957 14.3351C2.66957 13.7828 3.11729 13.3351 3.66957 13.3351C4.22186 13.3351 4.66957 13.7828 4.66957 14.3351C4.66957 14.8874 4.22186 15.3351 3.66957 15.3351ZM11.6696 15.3351C11.1173 15.3351 10.6696 14.8874 10.6696 14.3351C10.6696 13.7828 11.1173 13.3351 11.6696 13.3351C12.2219 13.3351 12.6696 13.7828 12.6696 14.3351C12.6696 14.8874 12.2219 15.3351 11.6696 15.3351Z" fill="#1F2937"/>
</svg>
