<svg width="24" height="24" viewBox="0 0 24 24" fill="none" xmlns="http://www.w3.org/2000/svg">
<g clip-path="url(#clip0_234_1082)">
<path d="M12 24C18.6274 24 24 18.6274 24 12C24 5.37258 18.6274 0 12 0C5.37258 0 0 5.37258 0 12C0 18.6274 5.37258 24 12 24Z" fill="#FFD93B"/>
<path d="M12 19.7132C8.49073 19.7132 5.43298 17.3365 4.56448 13.9345C4.49623 13.6667 4.65748 13.3945 4.92523 13.3262C5.19148 13.2565 5.46448 13.4192 5.53273 13.687C6.28873 16.6465 8.94748 18.7135 11.9992 18.7135C15.051 18.7135 17.7105 16.6465 18.4657 13.687C18.5332 13.4192 18.8055 13.2565 19.074 13.3262C19.3417 13.3945 19.503 13.6667 19.4347 13.9345C18.567 17.3365 15.5092 19.7132 12 19.7132Z" fill="#3E4347"/>
<path d="M23.9999 11.9999C23.9999 18.6299 18.6262 23.9999 11.9999 23.9999C8.22744 23.9999 4.85994 22.2599 2.65869 19.5337C4.71744 21.1987 7.33869 22.1924 10.1924 22.1924C16.8187 22.1924 22.1924 16.8224 22.1924 10.1924C22.1924 7.33869 21.1987 4.71744 19.5337 2.65869C22.2562 4.85994 23.9999 8.22744 23.9999 11.9999Z" fill="#F4C534"/>
<path d="M8.12477 12.5121C9.14042 12.5121 9.96377 11.5336 9.96377 10.3266C9.96377 9.1196 9.14042 8.14111 8.12477 8.14111C7.10912 8.14111 6.28577 9.1196 6.28577 10.3266C6.28577 11.5336 7.10912 12.5121 8.12477 12.5121Z" fill="#3E4347"/>
<path d="M8.9543 9.85663C8.81105 9.96913 8.57555 9.91363 8.4248 9.73063C8.27405 9.54763 8.26655 9.30238 8.4098 9.18988C8.5523 9.07213 8.78855 9.12763 8.93855 9.31063C9.09005 9.49888 9.09155 9.73963 8.9543 9.85663Z" fill="#5A5F63"/>
<path d="M15.8775 12.5121C16.8931 12.5121 17.7165 11.5336 17.7165 10.3266C17.7165 9.1196 16.8931 8.14111 15.8775 8.14111C14.8618 8.14111 14.0385 9.1196 14.0385 10.3266C14.0385 11.5336 14.8618 12.5121 15.8775 12.5121Z" fill="#3E4347"/>
<path d="M16.7055 9.85663C16.5623 9.96913 16.3268 9.91363 16.176 9.73063C16.0253 9.54763 16.0178 9.30238 16.161 9.18988C16.3035 9.07213 16.539 9.12763 16.6898 9.31063C16.8413 9.49888 16.8428 9.73963 16.7055 9.85663Z" fill="#5A5F63"/>
</g>
<defs>
<clipPath id="clip0_234_1082">
<rect width="24" height="24" fill="white"/>
</clipPath>
</defs>
</svg>
