<svg width="50" height="50" viewBox="0 0 50 50" fill="none" xmlns="http://www.w3.org/2000/svg">
<g clip-path="url(#clip0_304_2118)">
<path d="M18.3973 20.0228C21.1416 20.0228 23.3663 17.7981 23.3663 15.0538C23.3663 12.3094 21.1416 10.0847 18.3973 10.0847C15.6529 10.0847 13.4282 12.3094 13.4282 15.0538C13.4282 17.7981 15.6529 20.0228 18.3973 20.0228Z" stroke="#136DF4" stroke-width="1.5" stroke-miterlimit="10" stroke-linecap="round" stroke-linejoin="round"/>
<path d="M33.2334 33.8393C33.1128 33.8393 32.9908 33.8297 32.868 33.8099L24.3491 32.4358C22.6713 32.1652 21.1374 31.3991 19.9133 30.2202L13.3207 23.8717C12.4148 22.9994 12.3876 21.5579 13.2599 20.652C14.1322 19.746 15.5737 19.7189 16.4796 20.5913L23.0723 26.9398C23.6248 27.4719 24.3171 27.8176 25.0743 27.9398L33.5932 29.3139C34.8347 29.5142 35.6788 30.6829 35.4786 31.9245C35.2982 33.0432 34.3312 33.8393 33.2334 33.8393Z" stroke="#136DF4" stroke-width="1.5" stroke-miterlimit="10" stroke-linecap="round" stroke-linejoin="round"/>
<path d="M25.0746 27.9397L31.4045 28.9607L29.8956 25.9284C29.5468 25.2275 28.8623 24.7549 28.0832 24.6771C27.3043 24.5992 26.5397 24.9273 26.0592 25.5455L24.3486 27.7463C24.5817 27.8341 24.8245 27.8993 25.0746 27.9397Z" stroke="#136DF4" stroke-width="1.5" stroke-miterlimit="10" stroke-linecap="round" stroke-linejoin="round"/>
<path d="M24.3492 32.4357C23.3329 32.2719 22.37 31.925 21.4961 31.4158L18.1757 35.6879C17.4955 33.199 17.5349 30.3739 17.7521 28.1388L13.3208 23.8716C12.6462 23.222 12.4593 22.2567 12.7679 21.4321C12.435 22.29 8.45141 33.0591 13.7531 43.5063C14.1112 44.212 14.8394 44.7426 15.7814 44.7426H17.5566C18.9626 44.7426 20.259 43.9834 20.947 42.7572L26.5401 32.7891L24.3492 32.4357Z" stroke="#136DF4" stroke-width="1.5" stroke-miterlimit="10" stroke-linecap="round" stroke-linejoin="round"/>
<path d="M38.8258 40.1987H37.6311C37.2426 40.1987 36.8875 39.9788 36.7143 39.631L33.7961 33.7668C33.6149 33.8133 33.4265 33.8392 33.2337 33.8392C33.1131 33.8392 32.9911 33.8296 32.8683 33.8098L28.3696 33.0842L33.548 43.4904C33.933 44.2639 34.7225 44.753 35.5866 44.753H38.7744C40.051 44.753 41.1266 43.7082 41.1023 42.4319C41.0789 41.1945 40.0686 40.1987 38.8258 40.1987Z" stroke="#136DF4" stroke-width="1.5" stroke-miterlimit="10" stroke-linecap="round" stroke-linejoin="round"/>
<path d="M38.8255 40.1988H37.6309C37.2423 40.1988 36.8872 39.9789 36.7141 39.631L36.4252 39.0505L32.3237 41.0306L33.5477 43.4902C33.9326 44.2637 34.7222 44.7528 35.5862 44.7528H38.774C40.0506 44.7528 41.1262 43.7081 41.102 42.4317C41.0786 41.1946 40.0684 40.1988 38.8255 40.1988Z" stroke="#136DF4" stroke-width="1.5" stroke-miterlimit="10" stroke-linecap="round" stroke-linejoin="round"/>
<path d="M17.7519 28.1388L13.3206 23.8716C12.646 23.222 12.4591 22.2567 12.7677 21.4321C12.4868 22.1564 9.6047 29.9424 11.9017 38.636L18.1756 35.6878C17.4954 33.199 17.5348 30.3739 17.7519 28.1388Z" stroke="#136DF4" stroke-width="1.5" stroke-miterlimit="10" stroke-linecap="round" stroke-linejoin="round"/>
<path d="M21.218 25.1542L16.4795 20.5913C15.5736 19.7189 14.1321 19.746 13.2599 20.652C12.3876 21.5579 12.4148 22.9994 13.3206 23.8716L18.0614 28.4369L21.218 25.1542Z" stroke="#136DF4" stroke-width="1.5" stroke-miterlimit="10" stroke-linecap="round" stroke-linejoin="round"/>
<path d="M26.7091 49.2675H46.9748C47.5411 49.2675 48.0002 48.8084 48.0002 48.2421V45.7783C48.0002 45.212 47.5411 44.7529 46.9748 44.7529H3.0254C2.45909 44.7529 2 45.212 2 45.7783V48.2421C2 48.8084 2.45909 49.2675 3.0254 49.2675H23.2911" stroke="#136DF4" stroke-width="1.5" stroke-miterlimit="10" stroke-linecap="round" stroke-linejoin="round"/>
<path d="M44.8845 29.6694V20.6168C44.8845 9.63493 35.9819 0.732422 25.0001 0.732422C14.0182 0.732422 5.11572 9.63493 5.11572 20.6168V44.753H44.8845V33.0874" stroke="#136DF4" stroke-width="1.5" stroke-miterlimit="10" stroke-linecap="round" stroke-linejoin="round"/>
</g>
<defs>
<clipPath id="clip0_304_2118">
<rect width="50" height="50" fill="white"/>
</clipPath>
</defs>
</svg>
