<svg width="50" height="50" viewBox="0 0 50 50" fill="none" xmlns="http://www.w3.org/2000/svg">
<path d="M36.2525 6.5225C36.4125 6.1025 36.908 5.8755 37.3285 6.035H37.3365C37.774 6.2035 37.984 6.699 37.816 7.1275C37.6895 7.447 37.3785 7.665 37.034 7.665C36.934 7.665 36.833 7.648 36.732 7.606C36.303 7.438 36.0845 6.951 36.2525 6.5225ZM39.58 9.043L39.5885 9.052C41.1515 10.043 42.5295 11.2785 43.6725 12.7235C43.8325 12.9255 44.067 13.043 44.328 13.043C44.521 13.043 44.6975 12.984 44.849 12.867C45.0255 12.7235 45.1345 12.5305 45.16 12.3035C45.1845 12.0855 45.1265 11.8585 44.9835 11.682C43.723 10.0855 42.21 8.724 40.4795 7.6235C40.101 7.38 39.5635 7.506 39.32 7.884C39.076 8.278 39.1935 8.7995 39.58 9.043ZM18.279 27.448V32.245C21.2915 36.135 25.9575 38.4445 30.883 38.4445C34.1515 38.4445 36.9835 37.831 39.294 36.629C39.6975 36.419 40.218 36.587 40.428 36.982C40.529 37.184 40.554 37.4105 40.487 37.621C40.42 37.8395 40.269 38.016 40.067 38.117C37.5205 39.453 34.4205 40.1255 30.883 40.1255C25.835 40.1255 21.0335 37.9405 17.709 34.1985C17.6205 34.2285 17.5285 34.2435 17.4385 34.2435C17.184 34.2435 16.938 34.1285 16.7755 33.92C16.405 33.4435 16.0855 32.9925 15.8 32.5415C15.2865 31.7325 14.419 30.5775 13.824 30.033C12.3265 28.663 10.7155 25.7145 10.7155 22.4795C10.7155 19.2435 12.3265 16.2955 13.824 14.926C14.42 14.3805 15.2865 13.226 15.7995 12.4175C15.7995 12.417 15.8005 12.4165 15.8005 12.4165C16.0885 11.962 16.4075 11.512 16.776 11.0395C16.997 10.757 17.373 10.6465 17.7095 10.7605C21.0335 7.019 25.8355 4.8335 30.8835 4.8335C31.9 4.8335 32.9335 4.926 33.942 5.094C34.169 5.136 34.362 5.2535 34.4885 5.4385C34.614 5.6235 34.665 5.8505 34.631 6.0685C34.5465 6.5225 34.11 6.8335 33.656 6.758C32.7485 6.598 31.807 6.5145 30.883 6.5145C25.957 6.5145 21.2915 8.824 18.279 12.7135V17.511C18.448 17.4665 18.621 17.438 18.8 17.438C18.854 17.438 18.9085 17.4465 18.963 17.451C20.6035 11.8195 25.05 8.1945 30.879 8.1945C38.756 8.1945 45.164 14.6025 45.164 22.479C45.164 30.356 38.756 36.764 30.879 36.764C25.05 36.764 20.6035 33.1385 18.963 27.508C18.909 27.512 18.854 27.5205 18.8 27.5205C18.6215 27.521 18.448 27.4925 18.279 27.448ZM18.279 19.449V22.2665V22.692V25.5095C18.3725 25.621 18.467 25.7055 18.5585 25.761C18.6425 25.8115 18.7245 25.8405 18.8005 25.8405C18.965 25.8405 19.17 25.7515 19.3855 25.589C19.6285 25.406 19.8835 25.127 20.11 24.778C20.4955 24.1845 20.796 23.3845 20.796 22.4795C20.796 21.5745 20.4955 20.775 20.11 20.181C19.8835 19.8325 19.6285 19.553 19.3855 19.37C19.17 19.2075 18.965 19.1185 18.8005 19.1185C18.7245 19.1185 18.6425 19.1475 18.5585 19.198C18.467 19.253 18.3725 19.338 18.279 19.449ZM20.5275 18.134C21.6075 19.001 22.4765 20.5975 22.4765 22.4795C22.4765 24.3615 21.6075 25.9585 20.5275 26.825C21.7745 31.3765 25.1055 35.084 30.8795 35.084C37.83 35.084 43.484 29.43 43.484 22.48C43.484 15.53 37.83 9.876 30.8795 9.876C25.105 9.875 21.7745 13.5825 20.5275 18.134ZM16.5985 22.625V22.3335V18.931V14.8325V14.6945V14.3475V14.229C16.591 14.2395 16.582 14.2505 16.5745 14.2615C16.064 14.9665 15.464 15.7025 14.958 16.1655C14.7825 16.326 14.5915 16.534 14.397 16.7775C13.5895 17.788 12.705 19.463 12.462 21.4325C12.42 21.773 12.396 22.1225 12.396 22.4785C12.396 22.835 12.4195 23.184 12.462 23.525C12.7 25.4495 13.55 27.096 14.3425 28.113C14.5565 28.3875 14.766 28.6165 14.958 28.7925C15.4205 29.2155 15.9625 29.8685 16.443 30.517C16.495 30.5875 16.548 30.6585 16.5985 30.7285V30.1255V26.027V22.625ZM31.1035 31.4985C30.6385 31.4985 30.263 31.8745 30.263 32.3385C30.263 32.8025 30.6385 33.179 31.103 33.179C37.003 33.179 41.8025 28.379 41.8025 22.4795C41.8025 16.58 37.003 11.78 31.103 11.78C30.6385 11.78 30.263 12.156 30.263 12.62C30.263 13.084 30.6385 13.4605 31.103 13.4605C36.0755 13.4605 40.122 17.5065 40.122 22.4795C40.122 27.4525 36.076 31.498 31.1035 31.4985ZM14.905 35.162C15.951 36.2245 16.5985 37.6795 16.5985 39.2845C16.5985 40.8895 15.951 42.345 14.905 43.407C14.8945 43.419 14.8865 43.4325 14.8755 43.4435C14.864 43.455 14.8505 43.463 14.8385 43.4735C13.776 44.5185 12.321 45.166 10.7165 45.166C9.11196 45.166 7.65696 44.5185 6.59496 43.4735C6.58296 43.463 6.56946 43.455 6.55796 43.4435C6.54646 43.432 6.53896 43.419 6.52846 43.407C5.48246 42.3445 4.83496 40.8895 4.83496 39.2845C4.83496 37.6795 5.48246 36.2245 6.52846 35.162C6.53896 35.15 6.54696 35.137 6.55796 35.1255C6.56946 35.114 6.58296 35.106 6.59496 35.0955C7.65746 34.05 9.11246 33.4025 10.7165 33.4025C12.3205 33.4025 13.776 34.05 14.8385 35.0955C14.8505 35.106 14.864 35.114 14.8755 35.1255C14.887 35.137 14.8945 35.1505 14.905 35.162ZM13.031 42.7875L10.7165 40.473L8.40196 42.7875C9.06646 43.228 9.86146 43.486 10.7165 43.486C11.5715 43.486 12.3665 43.228 13.031 42.7875ZM8.40246 35.782L10.717 38.0965L13.0315 35.782C12.367 35.3415 11.572 35.0835 10.717 35.0835C9.86146 35.0835 9.06646 35.3415 8.40246 35.782ZM6.51496 39.285C6.51496 40.14 6.77296 40.9355 7.21396 41.6L9.52846 39.285L7.21396 36.9705C6.77346 37.6345 6.51496 38.4295 6.51496 39.285ZM14.918 39.285C14.918 38.43 14.66 37.6345 14.219 36.9705L11.905 39.285L14.2195 41.6C14.66 40.9355 14.918 40.14 14.918 39.285Z" fill="white"/>
</svg>
