<svg width="18" height="19" viewBox="0 0 18 19" fill="none" xmlns="http://www.w3.org/2000/svg">
<path d="M4 0V2H2V6C2 8.2091 3.79086 10 6 10C8.2091 10 10 8.2091 10 6V2H8V0H11C11.5523 0 12 0.44772 12 1V6C12 8.9727 9.8381 11.4405 7.0008 11.9169L7 13.5C7 15.433 8.567 17 10.5 17C11.9973 17 13.275 16.0598 13.7749 14.7375C12.7283 14.27 12 13.2201 12 12C12 10.3431 13.3431 9 15 9C16.6569 9 18 10.3431 18 12C18 13.3711 17.0802 14.5274 15.824 14.8854C15.2102 17.252 13.0592 19 10.5 19C7.4624 19 5 16.5376 5 13.5L5.00019 11.9171C2.16238 11.4411 0 8.9731 0 6V1C0 0.44772 0.44772 0 1 0H4ZM15 11C14.4477 11 14 11.4477 14 12C14 12.5523 14.4477 13 15 13C15.5523 13 16 12.5523 16 12C16 11.4477 15.5523 11 15 11Z" fill="#136DF4"/>
</svg>
