<svg width="50" height="50" viewBox="0 0 50 50" fill="none" xmlns="http://www.w3.org/2000/svg">
<g clip-path="url(#clip0_660_2922)">
<path d="M49.2188 40.625H45.1836C45.2684 40.3813 45.312 40.1252 45.3125 39.8672V25.7812C45.3125 25.574 45.2302 25.3753 45.0837 25.2288C44.9372 25.0823 44.7384 25 44.5312 25C44.3241 25 44.1253 25.0823 43.9788 25.2288C43.8323 25.3753 43.75 25.574 43.75 25.7812V39.8672C43.75 40.0682 43.6702 40.2609 43.528 40.403C43.3859 40.5452 43.1932 40.625 42.9922 40.625H35.9375V38.25C35.9214 35.1797 34.9043 32.1983 33.0403 29.7584C31.1764 27.3186 28.5675 25.5533 25.6094 24.7305C26.7196 24.0748 27.6421 23.1441 28.288 22.0282C28.9339 20.9122 29.2814 19.6487 29.2969 18.3594V8.59375C29.2582 7.57009 28.8342 6.59883 28.1099 5.87448C27.3855 5.15013 26.4143 4.72617 25.3906 4.6875H18.3594C17.3357 4.72617 16.3645 5.15013 15.6401 5.87448C14.9158 6.59883 14.4918 7.57009 14.4531 8.59375V18.3594C14.4685 19.6516 14.8175 20.9179 15.4663 22.0355C16.1152 23.1531 17.0417 24.0841 18.1562 24.7383C15.8875 25.3833 13.8192 26.5929 12.1445 28.2539C10.7795 29.5984 9.6939 31.1997 8.95041 32.9656C8.20692 34.7314 7.82019 36.627 7.8125 38.543V40.625H7.00781C6.80683 40.625 6.61408 40.5452 6.47196 40.403C6.32984 40.2609 6.25 40.0682 6.25 39.8672V14.8203C6.25 14.6193 6.32984 14.4266 6.47196 14.2845C6.61408 14.1423 6.80683 14.0625 7.00781 14.0625H12.1094C12.3166 14.0625 12.5153 13.9802 12.6618 13.8337C12.8083 13.6872 12.8906 13.4885 12.8906 13.2812C12.8906 13.074 12.8083 12.8753 12.6618 12.7288C12.5153 12.5823 12.3166 12.5 12.1094 12.5H7.00781C6.39432 12.5061 5.80768 12.7525 5.37385 13.1864C4.94003 13.6202 4.6936 14.2068 4.6875 14.8203V39.8672C4.68804 40.1252 4.7316 40.3813 4.81641 40.625H0.78125C0.57405 40.625 0.375336 40.7073 0.228823 40.8538C0.08231 41.0003 0 41.1991 0 41.4062L0 41.6016C0 43.3594 1.41797 45.3125 3.32031 45.3125H46.6797C48.582 45.3125 50 43.3594 50 41.6016V41.4062C50 41.1991 49.9177 41.0003 49.7712 40.8538C49.6247 40.7073 49.4259 40.625 49.2188 40.625ZM16.0156 8.59375C16.0527 7.98426 16.3115 7.4094 16.7433 6.97763C17.175 6.54586 17.7499 6.28704 18.3594 6.25H25.3906C26.0001 6.28704 26.575 6.54586 27.0067 6.97763C27.4385 7.4094 27.6973 7.98426 27.7344 8.59375V12.5H16.0156V8.59375ZM16.0156 18.3594V14.0625H27.7344V18.3594C27.6958 19.9012 27.0661 21.3693 25.9755 22.4598C24.8849 23.5504 23.4168 24.1801 21.875 24.2188C20.3332 24.1801 18.8651 23.5504 17.7745 22.4598C16.6839 21.3693 16.0542 19.9012 16.0156 18.3594ZM9.375 38.543C9.38277 36.8344 9.72807 35.1443 10.3911 33.5696C11.054 31.9949 12.0217 30.5668 13.2383 29.3672C14.3433 28.2776 15.6397 27.4009 17.0625 26.7812C16.6719 27.832 16.3516 29.043 16.1719 29.7422C15.3524 29.8707 14.6076 30.2926 14.0759 30.9292C13.5441 31.5658 13.2618 32.3739 13.2812 33.2031V38.2812C13.2812 38.4884 13.3636 38.6872 13.5101 38.8337C13.6566 38.9802 13.8553 39.0625 14.0625 39.0625H14.8438C15.051 39.0625 15.2497 38.9802 15.3962 38.8337C15.5427 38.6872 15.625 38.4884 15.625 38.2812C15.625 38.0741 15.5427 37.8753 15.3962 37.7288C15.2497 37.5823 15.051 37.5 14.8438 37.5V33.2031C14.8345 32.9441 14.8786 32.686 14.9735 32.4448C15.0684 32.2037 15.2119 31.9846 15.3951 31.8014C15.5784 31.6181 15.7974 31.4746 16.0386 31.3797C16.2798 31.2849 16.5379 31.2407 16.7969 31.25C17.0559 31.2407 17.314 31.2849 17.5552 31.3797C17.7963 31.4746 18.0154 31.6181 18.1986 31.8014C18.3819 31.9846 18.5254 32.2037 18.6203 32.4448C18.7151 32.686 18.7593 32.9441 18.75 33.2031V37.5C18.5428 37.5 18.3441 37.5823 18.1976 37.7288C18.0511 37.8753 17.9688 38.0741 17.9688 38.2812C17.9688 38.4884 18.0511 38.6872 18.1976 38.8337C18.3441 38.9802 18.5428 39.0625 18.75 39.0625H19.5312C19.7385 39.0625 19.9372 38.9802 20.0837 38.8337C20.2302 38.6872 20.3125 38.4884 20.3125 38.2812V33.2031C20.3303 32.4351 20.0892 31.6834 19.6279 31.0691C19.1666 30.4548 18.512 30.0135 17.7695 29.8164C18.0781 28.6445 18.5898 26.9219 19.0312 26.1797C19.0312 26.1562 19.0508 26.1328 19.0625 26.1133C20.0536 25.8753 21.0708 25.7637 22.0898 25.7812C23.409 25.805 24.7159 26.0398 25.9609 26.4766C26.7617 27.9219 27.1328 29.9922 27.2695 31.0352C26.6017 31.2356 26.029 31.671 25.6572 32.2609C25.2854 32.8509 25.1398 33.5554 25.2471 34.2444C25.3544 34.9334 25.7075 35.5602 26.2411 36.0091C26.7747 36.4579 27.4527 36.6985 28.1499 36.6863C28.8471 36.6741 29.5163 36.41 30.0339 35.9427C30.5514 35.4754 30.8824 34.8366 30.9655 34.1443C31.0487 33.452 30.8784 32.753 30.4863 32.1764C30.0941 31.5999 29.5065 31.1848 28.832 31.0078C28.6816 29.7976 28.4201 28.6037 28.0508 27.4414C29.9551 28.534 31.5386 30.1081 32.6424 32.0059C33.7463 33.9037 34.3317 36.0584 34.3398 38.2539L34.375 40.625H9.375V38.543ZM28.125 32.4727C28.3869 32.4727 28.6429 32.5503 28.8607 32.6958C29.0785 32.8413 29.2482 33.0481 29.3484 33.2901C29.4486 33.5321 29.4749 33.7983 29.4238 34.0552C29.3727 34.3121 29.2466 34.548 29.0614 34.7332C28.8762 34.9184 28.6402 35.0446 28.3833 35.0956C28.1265 35.1467 27.8602 35.1205 27.6182 35.0203C27.3763 34.9201 27.1695 34.7503 27.024 34.5326C26.8784 34.3148 26.8008 34.0588 26.8008 33.7969C26.8008 33.4457 26.9403 33.1089 27.1886 32.8605C27.437 32.6122 27.7738 32.4727 28.125 32.4727ZM46.6797 43.75H3.32031C2.55859 43.75 1.88672 42.9688 1.65234 42.1875H48.3477C48.1133 42.9883 47.4414 43.75 46.6797 43.75Z" fill="#136DF4"/>
<path d="M47.6556 7.8125H35.1556C34.534 7.8125 33.9378 8.05943 33.4983 8.49897C33.0588 8.93851 32.8118 9.53465 32.8118 10.1562V15.7578C32.8118 18.8398 31.9134 20.8789 30.0775 21.9883C29.9327 22.0761 29.8203 22.2085 29.7573 22.3657C29.6943 22.5228 29.684 22.6962 29.7281 22.8597C29.7722 23.0232 29.8682 23.1679 30.0016 23.2722C30.1351 23.3764 30.2988 23.4344 30.4681 23.4375H47.6556C48.2772 23.4375 48.8733 23.1906 49.3129 22.751C49.7524 22.3115 49.9993 21.7154 49.9993 21.0938V10.1562C49.9993 9.53465 49.7524 8.93851 49.3129 8.49897C48.8733 8.05943 48.2772 7.8125 47.6556 7.8125ZM48.4368 21.0938C48.4368 21.301 48.3545 21.4997 48.208 21.6462C48.0615 21.7927 47.8628 21.875 47.6556 21.875H32.5775C33.7845 20.4219 34.3743 18.3984 34.3743 15.7578V10.1562C34.3743 9.94905 34.4566 9.75034 34.6032 9.60382C34.7497 9.45731 34.9484 9.375 35.1556 9.375H47.6556C47.8628 9.375 48.0615 9.45731 48.208 9.60382C48.3545 9.75034 48.4368 9.94905 48.4368 10.1562V21.0938Z" fill="#136DF4"/>
<path d="M44.5312 12.5H38.2812C38.074 12.5 37.8753 12.5823 37.7288 12.7288C37.5823 12.8753 37.5 13.074 37.5 13.2812C37.5 13.4885 37.5823 13.6872 37.7288 13.8337C37.8753 13.9802 38.074 14.0625 38.2812 14.0625H44.5312C44.7385 14.0625 44.9372 13.9802 45.0837 13.8337C45.2302 13.6872 45.3125 13.4885 45.3125 13.2812C45.3125 13.074 45.2302 12.8753 45.0837 12.7288C44.9372 12.5823 44.7385 12.5 44.5312 12.5Z" fill="#136DF4"/>
<path d="M42.9688 17.1875H38.2812C38.074 17.1875 37.8753 17.2698 37.7288 17.4163C37.5823 17.5628 37.5 17.7615 37.5 17.9688C37.5 18.176 37.5823 18.3747 37.7288 18.5212C37.8753 18.6677 38.074 18.75 38.2812 18.75H42.9688C43.176 18.75 43.3747 18.6677 43.5212 18.5212C43.6677 18.3747 43.75 18.176 43.75 17.9688C43.75 17.7615 43.6677 17.5628 43.5212 17.4163C43.3747 17.2698 43.176 17.1875 42.9688 17.1875Z" fill="#136DF4"/>
<path d="M23.0469 8.59375H22.6562V8.20312C22.6562 7.99592 22.5739 7.79721 22.4274 7.6507C22.2809 7.50419 22.0822 7.42188 21.875 7.42188C21.6678 7.42188 21.4691 7.50419 21.3226 7.6507C21.1761 7.79721 21.0938 7.99592 21.0938 8.20312V8.59375H20.7031C20.4959 8.59375 20.2972 8.67606 20.1507 8.82257C20.0042 8.96909 19.9219 9.1678 19.9219 9.375C19.9219 9.5822 20.0042 9.78091 20.1507 9.92743C20.2972 10.0739 20.4959 10.1562 20.7031 10.1562H21.0938V10.5469C21.0938 10.7541 21.1761 10.9528 21.3226 11.0993C21.4691 11.2458 21.6678 11.3281 21.875 11.3281C22.0822 11.3281 22.2809 11.2458 22.4274 11.0993C22.5739 10.9528 22.6562 10.7541 22.6562 10.5469V10.1562H23.0469C23.2541 10.1562 23.4528 10.0739 23.5993 9.92743C23.7458 9.78091 23.8281 9.5822 23.8281 9.375C23.8281 9.1678 23.7458 8.96909 23.5993 8.82257C23.4528 8.67606 23.2541 8.59375 23.0469 8.59375Z" fill="#136DF4"/>
</g>
<defs>
<clipPath id="clip0_660_2922">
<rect width="50" height="50" fill="white"/>
</clipPath>
</defs>
</svg>
