<svg width="50" height="50" viewBox="0 0 50 50" fill="none" xmlns="http://www.w3.org/2000/svg">
<path d="M7.42419 13.2575C7.42419 12.0454 8.40904 11.0605 9.62116 11.0605H14.3939H31.2121C32.4242 11.0605 33.409 12.0454 33.409 13.2575V35.3787H19.3181" stroke="#136DF4" stroke-width="1.5" stroke-miterlimit="10" stroke-linecap="round" stroke-linejoin="round"/>
<path d="M12.1969 35.3788H9.62116C8.40904 35.3788 7.42419 34.3939 7.42419 33.1818V24.2424" stroke="#136DF4" stroke-width="1.5" stroke-miterlimit="10" stroke-linecap="round" stroke-linejoin="round"/>
<path d="M45.6818 25.3788L43.2576 20.1515C42.9546 19.4697 42.197 19.0151 41.4394 19.0151H35.6061V25.3788H45.6818Z" stroke="#136DF4" stroke-width="1.5" stroke-miterlimit="10" stroke-linecap="round" stroke-linejoin="round"/>
<path d="M36.7424 35.3787H33.4849V16.8181H41.4394C43.0303 16.8181 44.5455 17.7272 45.2273 19.2424L48.1061 25.3787C48.3333 25.909 48.4849 26.5151 48.4849 27.1211V33.1818C48.4849 34.3939 47.5 35.3787 46.2879 35.3787H43.9394" stroke="#136DF4" stroke-width="1.5" stroke-miterlimit="10" stroke-linecap="round" stroke-linejoin="round"/>
<path d="M18.292 37.8781C19.7119 36.4582 19.7359 34.1801 18.3456 32.7898C16.9553 31.3995 14.6772 31.4235 13.2573 32.8434C11.8374 34.2633 11.8135 36.5414 13.2038 37.9317C14.594 39.3219 16.8721 39.298 18.292 37.8781Z" stroke="#136DF4" stroke-width="1.5" stroke-miterlimit="10" stroke-linecap="round" stroke-linejoin="round"/>
<path d="M40.3787 38.9393C42.3452 38.9393 43.9393 37.3452 43.9393 35.3787C43.9393 33.4123 42.3452 31.8181 40.3787 31.8181C38.4123 31.8181 36.8181 33.4123 36.8181 35.3787C36.8181 37.3452 38.4123 38.9393 40.3787 38.9393Z" stroke="#136DF4" stroke-width="1.5" stroke-miterlimit="10" stroke-linecap="round" stroke-linejoin="round"/>
<path d="M35.7576 27.5H37.803" stroke="#136DF4" stroke-width="1.5" stroke-miterlimit="10" stroke-linecap="round" stroke-linejoin="round"/>
<path d="M48.4848 29.2424H47.1969C46.7424 29.2424 46.2878 29.6212 46.2878 30.1515C46.2878 30.6061 46.6666 31.0606 47.1969 31.0606H48.4091" stroke="#136DF4" stroke-width="1.5" stroke-miterlimit="10" stroke-linecap="round" stroke-linejoin="round"/>
<path d="M4.6969 15.9089H13.8636" stroke="#136DF4" stroke-width="1.5" stroke-miterlimit="10" stroke-linecap="round" stroke-linejoin="round"/>
<path d="M1.51514 19.0151H11.9697" stroke="#136DF4" stroke-width="1.5" stroke-miterlimit="10" stroke-linecap="round" stroke-linejoin="round"/>
<path d="M9.54541 21.8181H13.8636" stroke="#136DF4" stroke-width="1.5" stroke-miterlimit="10" stroke-linecap="round" stroke-linejoin="round"/>
</svg>
