<svg width="50" height="50" viewBox="0 0 50 50" fill="none" xmlns="http://www.w3.org/2000/svg">
<g clip-path="url(#clip0_313_306)">
<path d="M49.0218 36.8643V40.9846V45.9406C49.0218 47.557 47.7116 48.8672 46.0951 48.8672H18.1313" stroke="#136DF4" stroke-width="1.5" stroke-miterlimit="10" stroke-linecap="round" stroke-linejoin="round"/>
<path d="M19.627 33.57V23.3916V20.5618C19.627 18.9757 20.2708 17.4579 21.4111 16.3555L25.152 12.7366C25.3412 12.5532 25.4486 12.2996 25.4486 12.0352V7.04468H43.2002V12.0352C43.2002 12.2996 43.3076 12.5532 43.4978 12.7366L47.2387 16.3555C48.3779 17.4578 49.0218 18.9757 49.0218 20.5618V23.3916V27.9558" stroke="#136DF4" stroke-width="1.5" stroke-miterlimit="10" stroke-linecap="round" stroke-linejoin="round"/>
<circle cx="49.0214" cy="32.4179" r="0.978474" fill="#136DF4"/>
<path d="M48.5511 23.3916H20.0034" stroke="#136DF4" stroke-width="1.5" stroke-miterlimit="10" stroke-linecap="round" stroke-linejoin="round"/>
<path d="M48.7717 40.9841H25.9556" stroke="#136DF4" stroke-width="1.5" stroke-miterlimit="10" stroke-linecap="round" stroke-linejoin="round"/>
<path d="M37.7268 28.626C36.997 28.1329 36.1171 27.845 35.1701 27.845C32.6445 27.845 30.5972 29.8923 30.5972 32.4179C30.5972 34.9434 32.6445 36.9908 35.1701 36.9908C36.1958 36.9908 37.0394 36.6531 37.6798 36.0827C37.8122 35.9647 37.936 35.8368 38.0509 35.6998" stroke="#136DF4" stroke-width="1.5" stroke-miterlimit="10" stroke-linecap="round" stroke-linejoin="round"/>
<path d="M25.4077 12.3145H35.7041" stroke="#136DF4" stroke-width="1.5" stroke-miterlimit="10" stroke-linecap="round" stroke-linejoin="round"/>
<path d="M43.7924 7.0448H24.8558C24.3171 7.0448 23.8804 6.6081 23.8804 6.06936V2.1085C23.8804 1.56975 24.3171 1.13306 24.8558 1.13306H43.7924C44.3312 1.13306 44.7678 1.56975 44.7678 2.1085V6.06936C44.7678 6.6081 44.3311 7.0448 43.7924 7.0448Z" stroke="#136DF4" stroke-width="1.5" stroke-miterlimit="10" stroke-linecap="round" stroke-linejoin="round"/>
<path d="M18.1303 48.8668C22.339 48.8668 25.7509 45.455 25.7509 41.2463C25.7509 37.0376 22.339 33.6257 18.1303 33.6257C13.9216 33.6257 10.5098 37.0376 10.5098 41.2463C10.5098 45.455 13.9216 48.8668 18.1303 48.8668Z" stroke="#136DF4" stroke-width="1.5" stroke-miterlimit="10" stroke-linecap="round" stroke-linejoin="round"/>
<path d="M13.4258 36.5415L23.078 46.1938" stroke="#136DF4" stroke-width="1.5" stroke-miterlimit="10" stroke-linecap="round" stroke-linejoin="round"/>
<path d="M13.2327 47.2976C10.2439 49.592 5.94581 49.3705 3.21039 46.6352C0.234558 43.6594 0.234558 38.8342 3.21039 35.8572C5.96342 33.1042 10.2994 32.8975 13.2904 35.2396" stroke="#136DF4" stroke-width="1.5" stroke-miterlimit="10" stroke-linecap="round" stroke-linejoin="round"/>
<path d="M10.689 39.1565L3.65186 46.1937" stroke="#136DF4" stroke-width="1.5" stroke-miterlimit="10" stroke-linecap="round" stroke-linejoin="round"/>
<path d="M34.3242 1.5437V3.39448" stroke="#136DF4" stroke-width="1.5" stroke-miterlimit="10" stroke-linecap="round" stroke-linejoin="round"/>
<path d="M30.0542 1.5437V3.39448" stroke="#136DF4" stroke-width="1.5" stroke-miterlimit="10" stroke-linecap="round" stroke-linejoin="round"/>
<path d="M38.5947 1.5437V3.39448" stroke="#136DF4" stroke-width="1.5" stroke-miterlimit="10" stroke-linecap="round" stroke-linejoin="round"/>
</g>
<defs>
<clipPath id="clip0_313_306">
<rect width="50" height="50" fill="white"/>
</clipPath>
</defs>
</svg>
