<svg width="50" height="50" viewBox="0 0 50 50" fill="none" xmlns="http://www.w3.org/2000/svg">
<path d="M10.1563 13.2813H10.3017C11.3333 13.2622 12.3156 12.8364 13.0349 12.0968C13.7543 11.3571 14.1525 10.3633 14.1429 9.33159C14.1333 8.29985 13.7167 7.31363 12.9838 6.58745C12.2508 5.86126 11.2608 5.45386 10.229 5.45386C9.19722 5.45386 8.20718 5.86126 7.47422 6.58745C6.74126 7.31363 6.32469 8.29985 6.31511 9.33159C6.30553 10.3633 6.70373 11.3571 7.42308 12.0968C8.14243 12.8364 9.12474 13.2622 10.1563 13.2813ZM8.4376 7.77975C8.64653 7.55295 8.89849 7.36997 9.17881 7.24148C9.45913 7.11299 9.76221 7.04155 10.0704 7.03131H10.1571C10.6956 7.03171 11.2175 7.21751 11.6351 7.55747C12.0527 7.89742 12.3405 8.3708 12.4501 8.898C12.5597 9.4252 12.4844 9.97406 12.2369 10.4523C11.9894 10.9305 11.5848 11.3089 11.0911 11.5239C10.5974 11.7389 10.0448 11.7773 9.52607 11.6327C9.00737 11.4882 8.55428 11.1694 8.24299 10.73C7.93169 10.2906 7.78118 9.75747 7.81677 9.22017C7.85235 8.68288 8.07108 8.17423 8.4376 7.77975Z" fill="#136DF4"/>
<path d="M39.8438 20.3125C39.8438 19.4837 39.5145 18.6888 38.9285 18.1028C38.3424 17.5167 37.5476 17.1875 36.7188 17.1875C35.8899 17.1875 35.0951 17.5167 34.509 18.1028C33.923 18.6888 33.5938 19.4837 33.5938 20.3125H35.1562C35.1562 20.0035 35.2479 19.7014 35.4196 19.4444C35.5913 19.1875 35.8353 18.9872 36.1208 18.8689C36.4063 18.7507 36.7205 18.7197 37.0236 18.78C37.3267 18.8403 37.6051 18.9891 37.8236 19.2076C38.0421 19.4262 38.1909 19.7046 38.2512 20.0077C38.3115 20.3108 38.2806 20.6249 38.1623 20.9104C38.0441 21.196 37.8438 21.44 37.5868 21.6117C37.3299 21.7834 37.0278 21.875 36.7188 21.875H31.25V23.4375H36.7188C37.5476 23.4375 38.3424 23.1083 38.9285 22.5222C39.5145 21.9362 39.8438 21.1413 39.8438 20.3125Z" fill="#136DF4"/>
<path d="M44.5312 20.3125C43.7024 20.3125 42.9076 20.6417 42.3215 21.2278C41.7355 21.8138 41.4062 22.6087 41.4062 23.4375H42.9688C42.9688 23.1285 43.0604 22.8264 43.2321 22.5694C43.4038 22.3125 43.6478 22.1122 43.9333 21.9939C44.2188 21.8757 44.533 21.8447 44.8361 21.905C45.1392 21.9653 45.4176 22.1141 45.6361 22.3326C45.8546 22.5512 46.0034 22.8296 46.0637 23.1327C46.124 23.4358 46.0931 23.7499 45.9748 24.0354C45.8566 24.321 45.6563 24.565 45.3993 24.7367C45.1424 24.9084 44.8403 25 44.5312 25H31.25V26.5625H44.5312C45.3601 26.5625 46.1549 26.2333 46.741 25.6472C47.327 25.0612 47.6562 24.2663 47.6562 23.4375C47.6562 22.6087 47.327 21.8138 46.741 21.2278C46.1549 20.6417 45.3601 20.3125 44.5312 20.3125Z" fill="#136DF4"/>
<path d="M41.4062 28.125H31.25V29.6875H41.4062C41.7153 29.6875 42.0174 29.7791 42.2743 29.9508C42.5313 30.1225 42.7316 30.3665 42.8498 30.6521C42.9681 30.9376 42.999 31.2517 42.9387 31.5548C42.8784 31.8579 42.7296 32.1363 42.5111 32.3549C42.2926 32.5734 42.0142 32.7222 41.7111 32.7825C41.408 32.8428 41.0938 32.8118 40.8083 32.6936C40.5228 32.5753 40.2788 32.375 40.1071 32.1181C39.9354 31.8611 39.8438 31.559 39.8438 31.25H38.2812C38.2812 31.8681 38.4645 32.4723 38.8079 32.9862C39.1513 33.5001 39.6393 33.9006 40.2104 34.1371C40.7814 34.3736 41.4097 34.4355 42.0159 34.315C42.6221 34.1944 43.1789 33.8967 43.616 33.4597C44.053 33.0227 44.3506 32.4658 44.4712 31.8597C44.5918 31.2535 44.5299 30.6251 44.2934 30.0541C44.0569 29.4831 43.6563 28.995 43.1424 28.6517C42.6285 28.3083 42.0243 28.125 41.4062 28.125Z" fill="#136DF4"/>
<path d="M9.375 21.875H18.75V23.4375H9.375V21.875Z" fill="#136DF4"/>
<path d="M9.375 25H18.75V26.5625H9.375V25Z" fill="#136DF4"/>
<path d="M9.375 28.125H18.75V29.6875H9.375V28.125Z" fill="#136DF4"/>
<path d="M29.6875 32.6492V6.25C29.6875 5.0068 29.1936 3.81451 28.3146 2.93544C27.4355 2.05636 26.2432 1.5625 25 1.5625C23.7568 1.5625 22.5645 2.05636 21.6854 2.93544C20.8064 3.81451 20.3125 5.0068 20.3125 6.25V32.6492C18.7598 33.6597 17.5752 35.1449 16.9353 36.8834C16.2953 38.622 16.2343 40.5207 16.7613 42.2968C17.2884 44.0728 18.3752 45.6309 19.8598 46.739C21.3445 47.8471 23.1474 48.4457 25 48.4457C26.8526 48.4457 28.6555 47.8471 30.1402 46.739C31.6248 45.6309 32.7116 44.0728 33.2387 42.2968C33.7657 40.5207 33.7047 38.622 33.0648 36.8834C32.4248 35.1449 31.2402 33.6597 29.6875 32.6492ZM25 46.875C23.4523 46.8764 21.9474 46.3668 20.719 45.4252C19.4906 44.4836 18.6075 43.1628 18.2067 41.6679C17.806 40.1729 17.91 38.5875 18.5027 37.1577C19.0953 35.728 20.1435 34.5339 21.4844 33.7609C21.603 33.6924 21.7016 33.5939 21.7701 33.4753C21.8387 33.3567 21.8749 33.2222 21.875 33.0852V6.25C21.875 5.4212 22.2042 4.62634 22.7903 4.04029C23.3763 3.45424 24.1712 3.125 25 3.125C25.8288 3.125 26.6237 3.45424 27.2097 4.04029C27.7958 4.62634 28.125 5.4212 28.125 6.25V33.0852C28.1251 33.2222 28.1613 33.3567 28.2299 33.4753C28.2984 33.5939 28.397 33.6924 28.5156 33.7609C29.8565 34.5339 30.9047 35.728 31.4973 37.1577C32.09 38.5875 32.194 40.1729 31.7933 41.6679C31.3925 43.1628 30.5094 44.4836 29.281 45.4252C28.0526 46.3668 26.5477 46.8764 25 46.875Z" fill="#136DF4"/>
<path d="M25.7813 36.0156V10.9375H24.2188V36.0156C23.2703 36.2092 22.4275 36.7481 21.8538 37.5278C21.28 38.3075 21.0162 39.2724 21.1135 40.2356C21.2108 41.1987 21.6623 42.0914 22.3804 42.7406C23.0984 43.3898 24.032 43.7492 25 43.7492C25.968 43.7492 26.9016 43.3898 27.6197 42.7406C28.3377 42.0914 28.7892 41.1987 28.8865 40.2356C28.9838 39.2724 28.72 38.3075 28.1463 37.5278C27.5725 36.7481 26.7297 36.2092 25.7813 36.0156ZM25 42.1875C24.5365 42.1875 24.0833 42.05 23.6979 41.7925C23.3125 41.535 23.0121 41.1689 22.8347 40.7407C22.6573 40.3124 22.6109 39.8412 22.7013 39.3865C22.7917 38.9319 23.0149 38.5143 23.3427 38.1865C23.6705 37.8587 24.0881 37.6355 24.5428 37.545C24.9974 37.4546 25.4687 37.501 25.8969 37.6784C26.3252 37.8558 26.6912 38.1562 26.9488 38.5416C27.2063 38.9271 27.3438 39.3802 27.3438 39.8438C27.3438 40.4654 27.0968 41.0615 26.6573 41.501C26.2178 41.9406 25.6216 42.1875 25 42.1875Z" fill="#136DF4"/>
<path d="M9.375 1.5625H10.9375V4.6875H9.375V1.5625Z" fill="#136DF4"/>
<path d="M3 6.14502L3.78125 4.79189L6.4875 6.35439L5.70625 7.70752L3 6.14502Z" fill="#136DF4"/>
<path d="M2.99951 12.6047L5.70576 11.0422L6.48701 12.3954L3.78076 13.9579L2.99951 12.6047Z" fill="#136DF4"/>
<path d="M9.375 14.0625H10.9375V17.1875H9.375V14.0625Z" fill="#136DF4"/>
<path d="M13.8257 12.3979L14.6069 11.0448L17.3132 12.6073L16.5319 13.9604L13.8257 12.3979Z" fill="#136DF4"/>
<path d="M13.8247 6.35303L16.531 4.79053L17.3122 6.14365L14.606 7.70615L13.8247 6.35303Z" fill="#136DF4"/>
<path d="M6.25 21.875H7.8125V23.4375H6.25V21.875Z" fill="#136DF4"/>
<path d="M6.25 25H7.8125V26.5625H6.25V25Z" fill="#136DF4"/>
<path d="M6.25 28.125H7.8125V29.6875H6.25V28.125Z" fill="#136DF4"/>
</svg>
