<svg width="16" height="16" viewBox="0 0 16 16" fill="none" xmlns="http://www.w3.org/2000/svg">
<path d="M0.459717 4.66439C2.52026 2.99803 5.14359 2 8.00001 2C10.8564 2 13.4797 2.99803 15.5403 4.66439L14.7025 5.70168C12.8709 4.22047 10.5391 3.33333 8.00001 3.33333C5.46097 3.33333 3.12912 4.22047 1.29753 5.70168L0.459717 4.66439ZM2.55424 7.2576C4.04241 6.05413 5.93704 5.33333 8.00001 5.33333C10.063 5.33333 11.9576 6.05413 13.4458 7.2576L12.6079 8.29493C11.3487 7.2766 9.74562 6.66667 8.00001 6.66667C6.25442 6.66667 4.65127 7.2766 3.39205 8.29493L2.55424 7.2576ZM4.64878 9.85087C5.56457 9.1102 6.73048 8.66667 8.00001 8.66667C9.26955 8.66667 10.4355 9.1102 11.3513 9.85087L10.5135 10.8881C9.82661 10.3327 8.95215 10 8.00001 10C7.04788 10 6.17343 10.3327 5.48658 10.8881L4.64878 9.85087ZM6.74328 12.4441C7.08675 12.1663 7.52395 12 8.00001 12C8.47608 12 8.91328 12.1663 9.25675 12.4441L8.00001 14L6.74328 12.4441Z" fill="#136DF4"/>
</svg>
