<svg width="75" height="75" viewBox="0 0 75 75" fill="none" xmlns="http://www.w3.org/2000/svg">
<path d="M63.5815 43.0532L71.1108 35.5239C72.3545 34.2817 73.04 32.6265 73.04 30.8628C73.04 29.0977 72.3545 27.4424 71.1123 26.2031L56.8608 11.9487C55.7095 10.7974 54.1875 10.1367 52.582 10.0664C52.5337 9.94189 52.4839 9.81885 52.4312 9.69873C51.2915 7.1499 48.9902 5.79492 45.189 5.43896L46.4941 3.58301C46.9951 2.88721 47.0581 1.98193 46.6582 1.21436C46.2568 0.454102 45.5054 0 44.647 0H34.5938C30.7119 0 27.063 1.23779 24.3208 3.48633C22.1895 5.23389 20.7407 7.51465 20.0859 10.0942C18.6167 10.248 17.2324 10.8984 16.1807 11.9502L1.92627 26.2046C0.684082 27.4424 0 29.0977 0 30.8613C0 32.6265 0.685547 34.2817 1.92773 35.5225L16.1367 49.7314C16.3711 49.9658 16.4751 50.2178 16.4751 50.5474V63.2666C16.4751 64.7212 17.6587 65.9033 19.1118 65.9033H44.8169C47.5122 70.9702 52.8457 74.4272 58.9746 74.4272C67.8105 74.4272 74.9985 67.2393 74.9985 58.4033C74.9971 51.1685 70.1777 45.0381 63.5815 43.0532ZM49.3696 18.9565C50.2354 18.9565 50.9385 19.6626 50.9385 20.5298V24.022C50.9385 24.8877 50.2339 25.5923 49.3696 25.5923H48.668V18.9565H49.3696ZM46.3257 18.2344V25.5923C46.3257 25.9263 46.3081 26.2559 46.2744 26.5796C46.27 26.6074 46.2656 26.6353 46.2642 26.6646C45.9463 29.5034 44.3848 31.9702 42.1377 33.5054C42.0864 33.5332 42.0381 33.5669 41.9912 33.6021C40.4839 34.5923 38.6821 35.1709 36.7471 35.1709H36.2285C34.3389 35.1709 32.5767 34.6187 31.0898 33.6694C31.021 33.6138 30.9463 33.5654 30.8672 33.5259C28.604 31.9907 27.0293 29.5137 26.7114 26.6631C26.7085 26.6353 26.7056 26.606 26.7012 26.5781C26.6675 26.2529 26.6499 25.9233 26.6499 25.5908V18.2329C26.6499 17.0098 27.6445 16.0151 28.8677 16.0151H29.7568C30.9551 16.0151 32.0215 15.6914 33.0146 15.0249L34.5366 14.0098C35.7598 13.1895 37.2202 13.1895 38.4434 14.0098C38.4448 14.0098 38.4448 14.0112 38.4463 14.0112L39.9639 15.0234C40.9585 15.6899 42.0249 16.0151 43.2231 16.0151H44.1123C45.3311 16.0181 46.3257 17.0127 46.3257 18.2344ZM24.3062 25.5923H23.6001C22.7344 25.5923 22.0313 24.8877 22.0313 24.022V20.5298C22.0313 19.6626 22.7358 18.9565 23.6001 18.9565H24.3062V25.5923ZM20.3115 26.1372C21.0088 27.2183 22.2217 27.9346 23.6001 27.9346H24.5376C25.1294 30.8965 26.8242 33.4644 29.1724 35.1943V36.0732C29.1724 37.9775 28.1411 39.5947 26.4229 40.3975C26.127 40.5337 25.8296 40.6626 25.5205 40.7915L15.5903 30.8613L20.3115 26.1372ZM31.5 36.5347C32.9502 37.1631 34.5483 37.5146 36.2271 37.5146H36.7456C38.4521 37.5146 40.0737 37.1514 41.5415 36.5039C41.6323 38.1299 42.2344 39.5977 43.2524 40.7534C42.0645 43.3872 39.4424 45.1143 36.5215 45.1143C33.5991 45.1143 30.9771 43.3901 29.7876 40.7578C30.8013 39.6079 31.4033 38.1489 31.5 36.5347ZM43.8721 36.0732V35.1445C46.1836 33.416 47.8491 30.8672 48.4351 27.9346H49.3696C50.7671 27.9346 51.9946 27.1978 52.686 26.0933L57.4541 30.8613L47.5239 40.7915C47.1929 40.6538 46.8984 40.5249 46.6304 40.4004C44.9033 39.5947 43.8721 37.9775 43.8721 36.0732ZM34.5952 2.33936H44.5049L43.2026 4.19092C42.7266 4.86328 42.6489 5.7085 42.9961 6.4541C43.3447 7.20264 44.042 7.69043 44.8579 7.75781C48.6768 8.08887 49.7681 9.47754 50.2939 10.6523C50.9868 12.2007 51.0264 14.4053 50.9868 16.9673C50.4932 16.7417 49.9453 16.6143 49.3682 16.6143H48.3677C47.7129 14.8975 46.0503 13.6743 44.1064 13.6743H43.2173C42.479 13.6743 41.8755 13.4912 41.2588 13.0781L39.7397 12.0645C37.7314 10.7197 35.2354 10.7197 33.23 12.0645L31.708 13.0796C31.0942 13.4912 30.4907 13.6743 29.7524 13.6743H28.8633C26.9194 13.6743 25.2568 14.8975 24.6021 16.6143H23.5986C23.0405 16.6143 22.5103 16.7329 22.0298 16.9438V13.3315C22.0298 12.7061 22.0781 12.1084 22.1689 11.5356C22.1865 11.4683 22.1982 11.3994 22.2041 11.3276C23.2573 5.41846 28.9585 2.33936 34.5952 2.33936ZM19.1118 63.561C18.9492 63.561 18.8174 63.4292 18.8174 63.2666V50.5474C18.8174 49.5996 18.4629 48.7456 17.7935 48.0747L3.58301 33.8643C2.7832 33.0659 2.34229 31.998 2.34229 30.8599C2.34229 29.7217 2.7832 28.6553 3.58447 27.8555L17.8389 13.6011C18.3589 13.0811 19.0093 12.7148 19.7124 12.5317C19.6963 12.7954 19.689 13.062 19.689 13.3301V23.4463L13.6538 29.4858C12.895 30.2446 12.895 31.4795 13.6538 32.2383L24.0513 42.6357C24.4248 43.0093 24.9199 43.207 25.4253 43.207C25.6729 43.207 25.9219 43.1602 26.1606 43.062C26.5884 42.8877 26.9927 42.7119 27.4058 42.5244C27.5815 42.4424 27.7515 42.3545 27.9185 42.2607C29.5855 45.4204 32.8784 47.4551 36.5229 47.4551C40.166 47.4551 43.4575 45.4189 45.1245 42.2578C45.293 42.353 45.4658 42.4424 45.6431 42.5259C46.0122 42.6958 46.418 42.8716 46.8838 43.062C47.1226 43.1602 47.3716 43.207 47.6191 43.207C48.1245 43.207 48.6211 43.0093 48.9932 42.6357L59.3906 32.2383C60.1494 31.4795 60.1494 30.2446 59.3906 29.4858L53.2808 23.376V20.5312C53.2808 19.667 53.2969 18.8232 53.3115 18.0088C53.3496 15.9873 53.3833 14.1372 53.1694 12.4922C53.9326 12.6577 54.6401 13.0371 55.2056 13.6025L69.457 27.8584C70.2568 28.6567 70.6978 29.7246 70.6978 30.8628C70.6978 32.001 70.2568 33.0674 69.4556 33.8672L60.8364 42.4863C60.2241 42.4146 59.603 42.3779 58.9731 42.3779C50.1372 42.3779 42.9492 49.5674 42.9492 58.4062C42.9492 60.2095 43.2495 61.9439 43.8003 63.564H19.1118V63.561ZM58.9731 72.0864C51.4292 72.0864 45.2915 65.9487 45.2915 58.4048C45.2915 50.8579 51.4292 44.7188 58.9731 44.7188C66.5171 44.7188 72.6548 50.8579 72.6548 58.4048C72.6562 65.9487 66.5186 72.0864 58.9731 72.0864ZM58.9731 46.8647C52.6128 46.8647 47.4375 52.0415 47.4375 58.4033C47.4375 64.7637 52.6128 69.939 58.9731 69.939C65.3335 69.939 70.5088 64.7637 70.5088 58.4033C70.5088 52.0415 65.335 46.8647 58.9731 46.8647ZM58.9731 67.5981C53.9033 67.5981 49.7798 63.4746 49.7798 58.4048C49.7798 53.3335 53.9033 49.207 58.9731 49.207C64.043 49.207 68.1665 53.3335 68.1665 58.4048C68.1665 63.4731 64.043 67.5981 58.9731 67.5981ZM64.3887 58.4048C64.3887 59.0508 63.8643 59.5752 63.2183 59.5752H58.9731C58.3257 59.5752 57.8027 59.0508 57.8027 58.4048V52.5249C57.8027 51.8789 58.3271 51.3545 58.9731 51.3545C59.6191 51.3545 60.1436 51.8789 60.1436 52.5249V57.2344H63.2168C63.8643 57.2329 64.3887 57.7573 64.3887 58.4048Z" fill="#1F2937"/>
</svg>
