<svg width="50" height="50" viewBox="0 0 50 50" fill="none" xmlns="http://www.w3.org/2000/svg">
<path fill-rule="evenodd" clip-rule="evenodd" d="M7.5957 15.3199L9.67904 17.4032C10.0853 17.8105 10.7447 17.8105 11.152 17.4032L15.3197 13.2365C15.7259 12.8303 15.7259 12.1699 15.3197 11.7636C14.9134 11.3574 14.253 11.3574 13.8468 11.7636L10.4155 15.1938L9.06862 13.8469C8.66237 13.4407 8.00195 13.4407 7.5957 13.8469C7.18945 14.2532 7.18945 14.9136 7.5957 15.3199Z" fill="#136DF4"/>
<path fill-rule="evenodd" clip-rule="evenodd" d="M18.7487 13.5417H24.9987C25.5737 13.5417 26.0404 13.075 26.0404 12.5C26.0404 11.925 25.5737 11.4584 24.9987 11.4584H18.7487C18.1737 11.4584 17.707 11.925 17.707 12.5C17.707 13.075 18.1737 13.5417 18.7487 13.5417Z" fill="#136DF4"/>
<path fill-rule="evenodd" clip-rule="evenodd" d="M18.7487 17.7084H33.332C33.907 17.7084 34.3737 17.2417 34.3737 16.6667C34.3737 16.0917 33.907 15.6251 33.332 15.6251H18.7487C18.1737 15.6251 17.707 16.0917 17.707 16.6667C17.707 17.2417 18.1737 17.7084 18.7487 17.7084Z" fill="#136DF4"/>
<path fill-rule="evenodd" clip-rule="evenodd" d="M7.5957 25.7365L9.67904 27.8198C10.0853 28.2271 10.7447 28.2271 11.152 27.8198L15.3197 23.6532C15.7259 23.2469 15.7259 22.5865 15.3197 22.1802C14.9134 21.774 14.253 21.774 13.8468 22.1802L10.4155 25.6104L9.06862 24.2636C8.66237 23.8573 8.00195 23.8573 7.5957 24.2636C7.18945 24.6698 7.18945 25.3302 7.5957 25.7365Z" fill="#136DF4"/>
<path fill-rule="evenodd" clip-rule="evenodd" d="M7.5957 36.1532L9.67904 38.2365C10.0853 38.6438 10.7447 38.6438 11.152 38.2365L15.3197 34.0698C15.7259 33.6636 15.7259 33.0032 15.3197 32.5969C14.9134 32.1907 14.253 32.1907 13.8468 32.5969L10.4155 36.0271L9.06862 34.6803C8.66237 34.274 8.00195 34.274 7.5957 34.6803C7.18945 35.0865 7.18945 35.7469 7.5957 36.1532Z" fill="#136DF4"/>
<path fill-rule="evenodd" clip-rule="evenodd" d="M18.7487 23.9583H33.332C33.907 23.9583 34.3737 23.4917 34.3737 22.9167C34.3737 22.3417 33.907 21.875 33.332 21.875H18.7487C18.1737 21.875 17.707 22.3417 17.707 22.9167C17.707 23.4917 18.1737 23.9583 18.7487 23.9583Z" fill="#136DF4"/>
<path fill-rule="evenodd" clip-rule="evenodd" d="M18.7487 28.125H27.0831C27.6581 28.125 28.1247 27.6584 28.1247 27.0834C28.1247 26.5084 27.6581 26.0417 27.0831 26.0417H18.7487C18.1737 26.0417 17.707 26.5084 17.707 27.0834C17.707 27.6584 18.1737 28.125 18.7487 28.125Z" fill="#136DF4"/>
<path fill-rule="evenodd" clip-rule="evenodd" d="M32.2736 38.2688L35.2194 41.2146C35.6259 41.6212 36.2858 41.6212 36.6923 41.2146L42.584 35.323C42.9905 34.9164 42.9905 34.2566 42.584 33.8501C42.1775 33.4435 41.5176 33.4435 41.1111 33.8501L35.9559 39.0053L33.7465 36.7959C33.34 36.3894 32.6801 36.3894 32.2736 36.7959C31.867 37.2024 31.867 37.8623 32.2736 38.2688Z" fill="#136DF4"/>
<path fill-rule="evenodd" clip-rule="evenodd" d="M18.7487 34.375H22.9164C23.4914 34.375 23.9581 33.9084 23.9581 33.3334C23.9581 32.7584 23.4914 32.2917 22.9164 32.2917H18.7487C18.1737 32.2917 17.707 32.7584 17.707 33.3334C17.707 33.9084 18.1737 34.375 18.7487 34.375Z" fill="#136DF4"/>
<path fill-rule="evenodd" clip-rule="evenodd" d="M18.7487 38.5417H22.9164C23.4914 38.5417 23.9581 38.075 23.9581 37.5C23.9581 36.925 23.4914 36.4584 22.9164 36.4584H18.7487C18.1737 36.4584 17.707 36.925 17.707 37.5C17.707 38.075 18.1737 38.5417 18.7487 38.5417Z" fill="#136DF4"/>
<path fill-rule="evenodd" clip-rule="evenodd" d="M37.5004 48.9584C37.0796 48.9584 13.4639 48.9584 6.24935 48.9584C3.37331 48.9584 1.04102 46.6271 1.04102 43.75C1.04102 35.0344 1.04102 14.9656 1.04102 6.25002C1.04102 3.37294 3.37331 1.04169 6.24935 1.04169H27.441C28.8223 1.04169 30.1473 1.59065 31.1244 2.56669C33.1285 4.5719 37.0952 8.53856 39.0994 10.5427C40.0754 11.5198 40.6244 12.8438 40.6244 14.225V26.474C45.4316 27.8344 48.9587 32.2584 48.9587 37.5C48.9587 43.824 43.8244 48.9584 37.5004 48.9584ZM38.541 26.0886V14.225C38.541 13.9938 38.515 13.7646 38.465 13.5417H33.3337C30.4577 13.5417 28.1254 11.2094 28.1254 8.33335V3.20106C27.9025 3.15002 27.6733 3.12502 27.441 3.12502H6.24935C4.52331 3.12502 3.12435 4.52398 3.12435 6.25002V43.75C3.12435 45.4761 4.52331 46.875 6.24935 46.875H30.915C27.9681 44.8011 26.0421 41.374 26.0421 37.5C26.0421 31.1761 31.1764 26.0417 37.5004 26.0417C37.8514 26.0417 38.1983 26.0573 38.541 26.0886ZM37.5004 28.125C42.6744 28.125 46.8754 32.3261 46.8754 37.5C46.8754 42.674 42.6744 46.875 37.5004 46.875C32.3264 46.875 28.1254 42.674 28.1254 37.5C28.1254 32.3261 32.3264 28.125 37.5004 28.125ZM30.2087 4.59794V8.33335C30.2087 10.0594 31.6077 11.4584 33.3337 11.4584H37.0681L30.2087 4.59794Z" fill="#136DF4"/>
</svg>
