<svg width="66" height="100" viewBox="0 0 66 100" fill="none" xmlns="http://www.w3.org/2000/svg">
<path d="M63.7498 88.5579H53.9421V31.3466C53.9421 30.7349 53.6015 30.1758 53.0589 29.8945C52.5162 29.6138 51.8615 29.6593 51.3624 30.0127L45.0796 34.4613L44.223 31.8238L58.8086 21.2269C59.3815 20.8101 59.6208 20.0726 59.4024 19.399C59.183 18.7254 58.5555 18.2697 57.8476 18.2697H39.8173L34.247 1.12418C34.0261 0.453149 33.4006 0 32.6942 0C31.9879 0 31.3624 0.453149 31.1404 1.12418L25.5676 18.2697H7.53731C6.82895 18.2697 6.2019 18.7254 5.98249 19.399C5.7641 20.0726 6.00346 20.8101 6.57629 21.2269L21.162 31.8238L15.5917 48.9682C15.3713 49.6434 15.6106 50.3814 16.1835 50.7992C16.7573 51.2156 17.5337 51.2156 18.107 50.7977L32.6922 40.2009L34.8173 41.7424L12.1322 57.8011C11.6995 58.1074 11.4423 58.6051 11.4423 59.1349V88.5579H1.63461C0.732404 88.5579 0 89.2893 0 90.1925V98.3656C0 99.2678 0.732404 100 1.63461 100H63.7498C64.6525 100 65.3844 99.2678 65.3844 98.3656V90.1925C65.3844 89.2893 64.6525 88.5579 63.7498 88.5579ZM32.6922 36.545C32.347 36.545 32.0109 36.6534 31.7312 36.857L20.2567 45.1937L24.6393 31.7025C24.8577 31.0295 24.6184 30.2914 24.0455 29.8756L12.5685 21.5389H26.7542C27.4621 21.5389 28.0896 21.0832 28.308 20.4096L32.6922 6.91896L37.0769 20.4096C37.2953 21.0832 37.9229 21.5389 38.6302 21.5389H52.8164L41.3399 29.8756C40.766 30.2914 40.5267 31.0295 40.7456 31.7025L45.1287 45.1937L33.6532 36.857C33.374 36.6534 33.0385 36.545 32.6922 36.545ZM14.7115 59.9799L37.6088 43.7698L47.2779 50.7977C47.8507 51.2145 48.6266 51.2145 49.1999 50.7992C49.7728 50.3819 50.0121 49.6439 49.7937 48.9708L46.1373 37.7208L50.6729 34.5058V88.5579H14.7115V59.9799ZM62.1152 96.731H3.26922V91.8271H62.1152V96.731Z" fill="#136DF4"/>
</svg>
