<svg width="16" height="16" viewBox="0 0 16 16" fill="none" xmlns="http://www.w3.org/2000/svg">
<path d="M5.9987 0.666626V1.99996H9.9987V0.666626H11.332V1.99996H13.9987C14.3669 1.99996 14.6654 2.29844 14.6654 2.66663V13.3333C14.6654 13.7015 14.3669 14 13.9987 14H1.9987C1.63051 14 1.33203 13.7015 1.33203 13.3333V2.66663C1.33203 2.29844 1.63051 1.99996 1.9987 1.99996H4.66536V0.666626H5.9987ZM13.332 7.33329H2.66536V12.6666H13.332V7.33329ZM4.66536 3.33329H2.66536V5.99996H13.332V3.33329H11.332V4.66663H9.9987V3.33329H5.9987V4.66663H4.66536V3.33329Z" fill="white"/>
</svg>
