<svg width="16" height="16" viewBox="0 0 16 16" fill="none" xmlns="http://www.w3.org/2000/svg">
<path d="M11.332 4.00004H14.6654V5.33337H13.332V14C13.332 14.3682 13.0336 14.6667 12.6654 14.6667H3.33203C2.96384 14.6667 2.66536 14.3682 2.66536 14V5.33337H1.33203V4.00004H4.66536V2.00004C4.66536 1.63185 4.96384 1.33337 5.33203 1.33337H10.6654C11.0336 1.33337 11.332 1.63185 11.332 2.00004V4.00004ZM11.9987 5.33337H3.9987V13.3334H11.9987V5.33337ZM5.9987 7.33337H7.33203V11.3334H5.9987V7.33337ZM8.66536 7.33337H9.9987V11.3334H8.66536V7.33337ZM5.9987 2.66671V4.00004H9.9987V2.66671H5.9987Z" fill="#EF4444"/>
</svg>
