<svg width="50" height="50" viewBox="0 0 50 50" fill="none" xmlns="http://www.w3.org/2000/svg">
<path d="M44.5312 31.25H33.5938C33.1625 31.25 32.8125 31.6 32.8125 32.0312V35.1562C32.8125 35.5875 33.1625 35.9375 33.5938 35.9375H33.6383L33.7766 38.2812H32.8125C30.5398 38.2812 30.3992 40.5578 30.2852 42.3867C30.1258 44.964 29.8727 46.0937 28.125 46.0937C27.4844 46.0937 25.7812 46.0937 25.7812 42.1875C25.7812 41.5718 26.1703 39.464 28.7758 32.2695C28.9227 31.864 28.7125 31.4156 28.307 31.2687C27.9023 31.1234 27.4539 31.3312 27.3062 31.7375C24.2187 40.264 24.2188 41.7117 24.2188 42.1875C24.2188 46.7078 26.343 47.6562 28.125 47.6562C31.5234 47.6562 31.7172 44.5437 31.8445 42.4836C31.9781 40.3367 32.1594 39.8437 32.8125 39.8437H33.868L34.3766 48.4836C34.4008 48.8961 34.743 49.2187 35.1562 49.2187H42.9688C43.382 49.2187 43.7242 48.8961 43.7484 48.4836L44.4867 35.9375H44.5312C44.9625 35.9375 45.3125 35.5875 45.3125 35.1562V32.0312C45.3125 31.6 44.9625 31.25 44.5312 31.25ZM34.375 32.8125H43.75V34.375H34.375V32.8125ZM42.232 47.6562H35.893C35.3234 37.7445 35.2602 36.1539 35.2031 35.9375H42.9211L42.232 47.6562Z" fill="#136DF4"/>
<path d="M18.75 10.1562V5.46875C18.75 5.0375 18.4 4.6875 17.9688 4.6875H12.5C12.0688 4.6875 11.7188 5.0375 11.7188 5.46875V10.1562C11.7188 10.5875 12.0688 10.9375 12.5 10.9375H17.9688C18.4 10.9375 18.75 10.5875 18.75 10.1562ZM17.1875 9.375H13.2812V6.25H17.1875V9.375Z" fill="#136DF4"/>
<path d="M29.6875 30.4688C30.5422 30.4688 32.8125 30.4688 32.8125 28.125C32.8125 27.2875 31.9477 26.643 30.6383 25.6672C29.3852 24.7336 27.825 23.5719 27.2766 22.3383C26.6633 20.9609 26.15 19.3984 25.6977 18.0195C24.5234 14.4453 24.3898 14.0055 21.0945 11.3422V6.25C21.0945 2.82578 18.7578 0.78125 14.8445 0.78125C10.9312 0.78125 8.59453 2.82578 8.59453 6.25V11.3031C7.60313 11.9891 6.19531 13.1117 5.57891 14.1523C4.73359 15.5781 0.78125 29.75 0.78125 32.0312C0.78125 34.6039 2.05312 35.1508 3.12031 35.1562H3.13906C5.19141 35.1562 6.04375 33.1375 7.61016 27.9344C7.54297 45.5211 5.35156 49.2188 10.1562 49.2188C12.8102 49.2188 13.3734 47.9664 14.8438 39.2055C16.3141 47.9664 16.8773 49.2188 19.5312 49.2188C22.1586 49.2188 22.6562 47.8461 22.6562 45.2867C22.4391 38.7586 22.3094 34.8883 21.9953 25.4617C24.3672 29.0766 27.6672 30.4688 29.6875 30.4688ZM24.2125 18.507C24.6766 19.9211 25.2039 21.5234 25.8484 22.9734C26.5641 24.5805 28.3055 25.8773 29.7047 26.9203C30.2867 27.3539 31.0734 27.9398 31.25 28.2094C31.2445 28.632 31.1539 28.9062 29.6875 28.9062C27.6758 28.9062 23.7984 26.9539 21.8789 21.7383C21.8977 19.6445 22.3469 17.5688 23.1828 15.6523C23.5008 16.3445 23.8609 17.4359 24.2125 18.507ZM10.1562 6.25C10.1562 2.85078 13.093 2.34375 14.8438 2.34375C16.5945 2.34375 19.5312 2.85078 19.5312 6.25V11.2914C18.2023 12.0938 16.6281 12.5 14.8438 12.5C13.0594 12.5 11.4852 12.0938 10.1562 11.2914V6.25ZM6.83437 25.057C5.15938 30.7383 4.31719 33.5938 3.13359 33.5938C3.13203 33.5938 3.13047 33.5938 3.12969 33.5938C2.81641 33.5922 2.34375 33.5898 2.34375 32.0312C2.34375 30.2727 5.37734 19.1336 6.56953 15.8047C7.36797 17.6891 7.79531 19.7227 7.80938 21.7727C7.45156 22.9625 7.12813 24.0586 6.83437 25.057ZM10.1562 47.6562C8.95625 47.6562 8.59375 47.6562 8.59375 45.3383L8.59453 45.3125H12.057C11.4961 47.4094 11.0188 47.6562 10.1562 47.6562ZM14.8438 33.5938C14.4609 33.5938 14.1336 33.8711 14.0727 34.25C13.3406 38.7617 12.8391 41.757 12.4211 43.75H8.64687L9.375 21.9008C9.375 21.8961 9.37266 21.8922 9.37266 21.8867C9.37266 21.8828 9.375 21.8789 9.375 21.875C9.375 19.2094 8.7375 16.5656 7.53984 14.1859C8.11406 13.6 8.86875 13.0219 9.39609 12.6508C10.7594 13.4648 12.3227 13.932 14.0625 14.0375V30.4688C14.0625 30.9 14.4125 31.25 14.8438 31.25C15.275 31.25 15.625 30.9 15.625 30.4688V14.0375C17.3484 13.9328 18.8992 13.4734 20.2531 12.6742C20.7094 13.0469 21.4555 13.6727 22.0969 14.2859C20.932 16.6398 20.3125 19.2469 20.3125 21.875C20.3125 21.8789 20.3148 21.8828 20.3148 21.8867C20.3148 21.8914 20.3125 21.8961 20.3125 21.9008L21.0414 43.75H17.2664C16.8484 41.757 16.3469 38.7617 15.6148 34.25C15.5539 33.8711 15.2266 33.5938 14.8438 33.5938ZM19.5312 47.6562C18.6688 47.6562 18.1914 47.4094 17.6313 45.3125H21.0938C21.0938 47.6562 20.7313 47.6562 19.5312 47.6562Z" fill="#136DF4"/>
<path d="M30.8803 24.4453C30.9733 24.4812 31.0686 24.4984 31.1631 24.4984C31.4756 24.4984 31.7717 24.3086 31.8912 23.9992C33.0959 20.8969 34.1545 18.2531 34.703 16.8953C34.8233 16.5984 35.1076 16.4062 35.428 16.4062H35.9373C36.3686 16.4062 36.7186 16.0562 36.7186 15.625C36.7186 15.1937 36.3686 14.8438 35.9373 14.8438H35.428C34.467 14.8438 33.6139 15.4195 33.2537 16.3109C32.7045 17.6727 31.642 20.3234 30.435 23.4344C30.2787 23.8359 30.4787 24.2891 30.8803 24.4453Z" fill="#136DF4"/>
<path d="M38.2812 16.4062H39.0625C39.4937 16.4062 39.8438 16.0562 39.8438 15.625C39.8438 15.1938 39.4937 14.8438 39.0625 14.8438H38.2812C37.85 14.8438 37.5 15.1938 37.5 15.625C37.5 16.0562 37.85 16.4062 38.2812 16.4062Z" fill="#136DF4"/>
<path d="M41.4062 16.4062H42.1875C42.6187 16.4062 42.9688 16.0562 42.9688 15.625C42.9688 15.1938 42.6187 14.8438 42.1875 14.8438H41.4062C40.975 14.8438 40.625 15.1938 40.625 15.625C40.625 16.0562 40.975 16.4062 41.4062 16.4062Z" fill="#136DF4"/>
<path d="M45.3125 14.8438H44.5312C44.1 14.8438 43.75 15.1938 43.75 15.625C43.75 16.0562 44.1 16.4062 44.5312 16.4062H45.3125C45.7437 16.4062 46.0938 16.0562 46.0938 15.625C46.0938 15.1938 45.7437 14.8438 45.3125 14.8438Z" fill="#136DF4"/>
<path d="M48.4375 14.8438H47.6562C47.225 14.8438 46.875 15.1938 46.875 15.625C46.875 16.0562 47.225 16.4062 47.6562 16.4062H48.4375C48.8687 16.4062 49.2188 16.0562 49.2188 15.625C49.2188 15.1938 48.8687 14.8438 48.4375 14.8438Z" fill="#136DF4"/>
<path d="M38.5713 14.1913C38.658 14.1913 38.7463 14.1765 38.8322 14.146L39.569 13.8851C39.976 13.7413 40.1885 13.2945 40.044 12.8882C39.8994 12.4812 39.4526 12.2663 39.0471 12.4132L38.3104 12.6741C37.9033 12.8179 37.6908 13.2648 37.8354 13.671C37.9479 13.9905 38.2494 14.1913 38.5713 14.1913Z" fill="#136DF4"/>
<path d="M39.5679 17.3657L38.8312 17.1048C38.4242 16.9587 37.9781 17.1728 37.8343 17.5798C37.6898 17.9868 37.9031 18.4329 38.3093 18.5767L39.046 18.8376C39.132 18.8689 39.2202 18.8829 39.307 18.8829C39.6288 18.8829 39.9296 18.6829 40.0429 18.3618C40.1874 17.9556 39.9749 17.5095 39.5679 17.3657Z" fill="#136DF4"/>
<path d="M41.5179 13.1507C41.6038 13.1507 41.6921 13.1359 41.778 13.1054L42.5148 12.8452C42.9218 12.7015 43.1351 12.2554 42.9913 11.8484C42.8476 11.4413 42.4007 11.2273 41.9944 11.3718L41.2577 11.632C40.8507 11.7757 40.6374 12.2218 40.7812 12.6288C40.8945 12.9499 41.1952 13.1507 41.5179 13.1507Z" fill="#136DF4"/>
<path d="M42.5143 18.4047L41.7776 18.1446C41.369 17.9993 40.9244 18.2141 40.7807 18.6211C40.6369 19.0282 40.8502 19.4743 41.2572 19.618L41.994 19.8782C42.0799 19.9086 42.1682 19.9235 42.2541 19.9235C42.576 19.9235 42.8776 19.7227 42.9908 19.4024C43.1346 18.9946 42.9213 18.5485 42.5143 18.4047Z" fill="#136DF4"/>
<path d="M44.4647 12.1101C44.5506 12.1101 44.6389 12.0952 44.7248 12.0647L45.4615 11.8046C45.8686 11.6608 46.0819 11.2147 45.9381 10.8077C45.7944 10.4007 45.3483 10.1882 44.9412 10.3312L44.2045 10.5913C43.7975 10.7351 43.5842 11.1812 43.7279 11.5882C43.8412 11.9101 44.142 12.1101 44.4647 12.1101Z" fill="#136DF4"/>
<path d="M45.4611 19.4445L44.7243 19.1843C44.3165 19.0398 43.8712 19.2538 43.7275 19.6609C43.5837 20.0679 43.797 20.514 44.204 20.6577L44.9407 20.9179C45.0267 20.9484 45.115 20.9632 45.2009 20.9632C45.5228 20.9632 45.8243 20.7624 45.9376 20.4421C46.0814 20.0351 45.8681 19.5882 45.4611 19.4445Z" fill="#136DF4"/>
<path d="M47.4116 11.0704C47.4984 11.0704 47.5866 11.0556 47.6726 11.0251L48.4093 10.7642C48.8163 10.6204 49.0288 10.1735 48.8843 9.76729C48.7405 9.36026 48.2921 9.14619 47.8874 9.29229L47.1507 9.55323C46.7437 9.69698 46.5312 10.1439 46.6757 10.5501C46.7882 10.8704 47.0898 11.0704 47.4116 11.0704Z" fill="#136DF4"/>
<path d="M48.4087 20.4859L47.672 20.2249C47.2658 20.0804 46.8189 20.2937 46.6751 20.6999C46.5306 21.107 46.7439 21.5531 47.1501 21.6968L47.8868 21.9577C47.9728 21.989 48.0611 22.0031 48.1478 22.0031C48.4697 22.0031 48.7704 21.8031 48.8837 21.482C49.0283 21.0765 48.8158 20.6296 48.4087 20.4859Z" fill="#136DF4"/>
</svg>
