<svg width="50" height="50" viewBox="0 0 50 50" fill="none" xmlns="http://www.w3.org/2000/svg">
<g clip-path="url(#clip0_171_1134)">
<path fill-rule="evenodd" clip-rule="evenodd" d="M15.9948 34.0058C17.4611 35.4739 19.0822 36.776 20.8321 37.8814L20.8327 37.8818C21.2248 38.13 21.6957 38.1277 22.0855 37.8761L24.5886 36.2527L24.5904 36.2516C25.342 35.7668 26.1971 35.6746 27.0331 35.9878L27.0336 35.9879L34.472 38.7795C36.1072 39.3927 36.7534 41.333 35.8159 42.8047L35.8153 42.8057C34.9857 44.1034 34.1562 45.4031 33.3267 46.7009C32.007 48.7649 29.6362 49.7215 27.254 49.153C20.798 47.6135 14.987 44.2538 10.3918 39.61C5.74597 35.0128 2.38833 29.2018 0.846855 22.7459C0.278326 20.3634 1.23715 17.9924 3.30097 16.6751L7.19431 14.1864C8.66627 13.246 10.607 13.8923 11.2203 15.5277L14.012 22.9682L14.0121 22.9686C14.3255 23.8053 14.2327 24.6611 13.7475 25.4106L12.1254 27.9167L12.1244 27.9182C11.8719 28.3063 11.8702 28.7776 12.118 29.169L12.1182 29.1694C13.2236 30.9172 14.5255 32.5403 15.9937 34.0047L15.9948 34.0058ZM14.8854 35.1147C13.3349 33.5681 11.9601 31.8539 10.7926 30.0081C10.209 29.0863 10.2151 27.9763 10.8086 27.0643L12.4308 24.5582C12.6371 24.2392 12.6766 23.875 12.5431 23.5189L9.75156 16.0786C9.49068 15.3828 8.66499 15.1082 8.03882 15.5082L4.14578 17.9968L4.14529 17.9971C2.6545 18.9486 1.96195 20.6611 2.37254 22.3817C3.84587 28.552 7.05725 34.1046 11.4979 38.4978C11.5 38.4998 11.502 38.5018 11.5039 38.5038C15.8952 42.9426 21.4478 46.1559 27.618 47.6273C29.3389 48.0378 31.0517 47.347 32.005 45.8559C32.8344 44.5584 33.6637 43.2591 34.493 41.9617C34.892 41.3352 34.6172 40.5092 33.9213 40.2482L26.4828 37.4567C26.1263 37.3231 25.7617 37.3629 25.4411 37.5694L22.938 39.1927L22.9368 39.1936C22.0212 39.785 20.9147 39.7903 19.9943 39.2076C18.1464 38.0401 16.434 36.6653 14.8854 35.1147ZM49.3137 20.6824C49.3137 22.8752 47.5251 24.6589 45.3322 24.6589H31.2237L25.2013 30.9283C24.9795 31.1591 24.6397 31.2321 24.3427 31.1126C24.0459 30.993 23.8514 30.705 23.8514 30.385V24.6589H21.9319C19.739 24.6589 17.9504 22.8752 17.9504 20.6824V4.66775C17.9504 2.4752 19.7394 0.686279 21.9319 0.686279H45.3322C47.5248 0.686279 49.3137 2.4752 49.3137 4.66775V20.6824ZM47.7451 20.6824V4.66775C47.7451 3.33902 46.661 2.25491 45.3322 2.25491H21.9319C20.6031 2.25491 19.519 3.33902 19.519 4.66775V20.6824C19.519 22.0107 20.6035 23.0903 21.9319 23.0903H24.6357C25.0688 23.0903 25.42 23.4415 25.42 23.8746V28.4364L30.324 23.3313C30.4719 23.1774 30.6762 23.0903 30.8896 23.0903H45.3322C46.6607 23.0903 47.7451 22.0107 47.7451 20.6824ZM39.39 17.0867H39.8397C40.2446 17.0867 40.6328 17.2476 40.9191 17.5338C41.2054 17.8201 41.3663 18.2083 41.3663 18.6132V20.4884C41.3663 20.8933 41.2054 21.2816 40.9191 21.5678C40.6328 21.8541 40.2446 22.015 39.8397 22.015H27.5891C27.1842 22.015 26.796 21.8541 26.5097 21.5678C26.2234 21.2816 26.0626 20.8933 26.0626 20.4884V18.6132C26.0626 18.2083 26.2234 17.8201 26.5097 17.5338C26.796 17.2476 27.1842 17.0867 27.5891 17.0867H27.8742V10.9377C27.8742 10.0701 28.2188 9.23804 28.8322 8.62461C29.4457 8.01118 30.2777 7.66657 31.1453 7.66657H36.1188C36.9865 7.66657 37.8184 8.01118 38.4319 8.62461C39.0454 9.23804 39.39 10.0701 39.39 10.9377V17.0867ZM29.4428 17.0867H32.8477V14.182C32.8477 13.7491 33.1992 13.3977 33.632 13.3977C34.065 13.3977 34.4164 13.7491 34.4164 14.182V17.0867H37.8214V10.9377C37.8214 10.4861 37.642 10.053 37.3227 9.73383C37.0034 9.41452 36.5704 9.2352 36.1188 9.2352H31.1453C30.6937 9.2352 30.2607 9.41452 29.9415 9.73383C29.6222 10.053 29.4428 10.4861 29.4428 10.9377V17.0867ZM39.7976 18.6553H27.6313V20.4464H39.7976V18.6553ZM32.8477 3.82667C32.8477 3.39383 33.1992 3.04236 33.632 3.04236C34.065 3.04236 34.4164 3.39383 34.4164 3.82667V5.31608C34.4164 5.74893 34.065 6.1004 33.632 6.1004C33.1992 6.1004 32.8477 5.74893 32.8477 5.31608V3.82667ZM24.272 9.68353C23.8971 9.46716 23.7684 8.98706 23.9848 8.61216C24.2013 8.23726 24.6814 8.10863 25.0563 8.3251L26.3462 9.06981C26.721 9.28628 26.8496 9.76628 26.6332 10.1412C26.4168 10.5161 25.9367 10.6447 25.5619 10.4282L24.272 9.68353ZM38.1305 4.82187C38.347 4.44697 38.8271 4.31834 39.2019 4.53481C39.5768 4.75118 39.7054 5.23128 39.489 5.60618L38.7443 6.89608C38.5278 7.27099 38.0477 7.39961 37.6728 7.18314C37.298 6.96667 37.1693 6.48667 37.3858 6.11177L38.1305 4.82187ZM27.7752 5.60618C27.5587 5.23128 27.6873 4.75118 28.0622 4.53481C28.4371 4.31834 28.9172 4.44697 29.1336 4.82187L29.8783 6.11177C30.0948 6.48667 29.9662 6.96667 29.5913 7.18314C29.2164 7.39961 28.7364 7.27099 28.5199 6.89608L27.7752 5.60618ZM42.2079 8.3251C42.5828 8.10863 43.0628 8.23726 43.2793 8.61216C43.4958 8.98706 43.3671 9.46716 42.9922 9.68353L41.7023 10.4282C41.3274 10.6447 40.8473 10.5161 40.631 10.1412C40.4145 9.76628 40.5431 9.28628 40.918 9.06981L42.2079 8.3251Z" fill="#1F2937"/>
</g>
<defs>
<clipPath id="clip0_171_1134">
<rect width="50" height="50" fill="white"/>
</clipPath>
</defs>
</svg>
