<svg width="24" height="24" viewBox="0 0 24 24" fill="none" xmlns="http://www.w3.org/2000/svg">
<g clip-path="url(#clip0_432_1299)">
<path d="M17.3977 0.000149193C14.0588 0.023647 11.3176 2.75909 11.2874 6.09793C11.2707 7.93786 12.053 9.64829 13.4436 10.8346C13.3498 11.0814 13.232 11.3185 13.092 11.5423C12.6797 12.2012 13.106 13.0657 13.8795 13.1417C14.098 13.1634 14.295 13.0036 14.3167 12.7827C14.3383 12.5629 14.1776 12.3671 13.9577 12.3455C13.7748 12.3276 13.6729 12.122 13.7701 11.9666C13.9941 11.6086 14.1706 11.222 14.2945 10.8178C14.3432 10.659 14.2887 10.4868 14.1577 10.3848C12.8266 9.34967 12.0719 7.78977 12.0873 6.10508C12.1136 3.2003 14.4985 0.820472 17.4034 0.800024C20.3999 0.781826 22.7971 3.19905 22.7971 6.15492C22.7971 10.6513 19.1463 11.9041 16.9701 12.2508C16.752 12.2855 16.6033 12.4906 16.638 12.7087C16.6727 12.9268 16.8772 13.0753 17.0959 13.0408C21.0164 12.4162 23.597 10.1045 23.597 6.15497C23.597 2.76279 20.8443 -0.0225487 17.3977 0.000149193Z" fill="#136DF4"/>
<path d="M17.6479 3.34969H17.248C16.5864 3.34969 16.0481 3.88799 16.0481 4.54957V5.19951H15.3981C14.7365 5.19951 14.1982 5.73781 14.1982 6.3994V6.79936C14.1982 7.46095 14.7365 7.99925 15.3981 7.99925H16.0481V8.64919C16.0481 9.31078 16.5864 9.84908 17.248 9.84908H17.6479C18.3095 9.84908 18.8478 9.31078 18.8478 8.64919V7.99925H19.4977C20.1593 7.99925 20.6976 7.46095 20.6976 6.79936V6.3994C20.6976 5.73781 20.1593 5.19951 19.4977 5.19951H18.8478V4.54957C18.8478 3.88794 18.3096 3.34969 17.6479 3.34969ZM19.4977 5.99944C19.7183 5.99944 19.8977 6.17887 19.8977 6.3994V6.79936C19.8977 7.01989 19.7183 7.19932 19.4977 7.19932H18.4478C18.227 7.19932 18.0479 7.37841 18.0479 7.59929V8.64919C18.0479 8.86972 17.8684 9.04915 17.6479 9.04915H17.248C17.0274 9.04915 16.848 8.86972 16.848 8.64919V7.59929C16.848 7.37841 16.6689 7.19932 16.448 7.19932H15.3981C15.1776 7.19932 14.9982 7.01989 14.9982 6.79936V6.3994C14.9982 6.17887 15.1776 5.99944 15.3981 5.99944H16.448C16.6689 5.99944 16.848 5.82035 16.848 5.59947V4.54957C16.848 4.32904 17.0274 4.14961 17.248 4.14961H17.6479C17.8684 4.14961 18.0479 4.32904 18.0479 4.54957V5.59947C18.0479 5.82035 18.227 5.99944 18.4478 5.99944H19.4977Z" fill="#136DF4"/>
<path d="M17.1899 15.6352C16.448 15.2112 15.5042 15.3408 14.8947 15.9502C14.7503 16.0949 13.9442 17.5964 11.9365 16.8473C9.81362 16.0553 7.93119 13.1974 9.4407 11.5299C9.72458 11.2206 9.91496 11.1331 9.99345 11.0548C10.6047 10.4435 10.7354 9.49851 10.3113 8.75668C9.61064 7.53084 8.59113 6.51169 7.3629 5.80921C6.63426 5.39249 5.6924 5.52263 5.07246 6.12533C0.238463 10.8156 4.34138 18.584 10.0736 21.6968C8.85001 23.2748 6.72081 23.5333 5.25499 22.8275C5.71185 22.388 6.00127 21.8259 6.03287 21.2345C6.07192 20.4905 5.80049 19.8933 5.28814 19.5961C4.31868 19.034 2.96561 19.7768 3.10869 21.219C3.16634 21.7988 3.42562 22.3329 3.83883 22.7749C3.73989 22.8099 3.63765 22.8391 3.5329 22.8617C3.0581 22.9641 1.87621 23.0527 1.15748 21.6665C1.05579 21.4704 0.81431 21.394 0.618278 21.4955C0.422196 21.5972 0.345654 21.8386 0.447294 22.0347C1.12208 23.3362 2.33847 23.9375 3.70164 23.6436C3.99836 23.5796 4.27874 23.4767 4.53521 23.3428C4.91028 23.5766 5.34623 23.7572 5.82794 23.8698C7.74236 24.3172 9.84756 23.61 11.0006 21.7636C11.1254 21.5638 11.0512 21.299 10.8396 21.1937C5.32204 18.4478 1.15283 11.0431 5.62981 6.69917C5.99577 6.34331 6.54512 6.26296 6.96578 6.50359C8.07028 7.13528 8.98699 8.05165 9.61683 9.15369C9.85696 9.57365 9.78792 10.1082 9.45105 10.4652C9.37316 10.5198 9.29886 10.5766 9.22737 10.635C8.49544 9.50976 7.59687 8.5132 6.55017 7.66833C6.37829 7.52949 6.12646 7.55639 5.98777 7.72833C5.84904 7.90021 5.87589 8.15204 6.04777 8.29072C7.07747 9.12194 7.95459 10.1095 8.65837 11.229C6.14546 14.6455 12.6547 20.5251 15.481 16.4957C15.8364 16.1579 16.3716 16.0889 16.793 16.3297C17.895 16.9597 18.8113 17.8764 19.443 18.9808C19.6836 19.4015 19.6032 19.9508 19.2475 20.3166C19.1889 20.3769 19.1299 20.4353 19.0706 20.4921C18.4136 19.4748 17.6151 18.5561 16.6916 17.7566C16.5246 17.6119 16.272 17.6302 16.1275 17.7972C15.9828 17.9643 16.0011 18.2168 16.1681 18.3614C17.0609 19.1343 17.8287 20.026 18.4552 21.0151C16.6341 22.3783 14.6312 22.345 13.19 22.0344C12.974 21.988 12.7613 22.1251 12.7147 22.3411C12.6682 22.5571 12.8055 22.7698 13.0215 22.8164C15.7213 23.3983 18.0606 22.684 19.8211 20.8744C20.4241 20.2542 20.5541 19.3122 20.1374 18.5837C19.435 17.3555 18.4158 16.3359 17.1899 15.6352ZM5.2341 21.1922C5.21085 21.6272 4.95597 22.0508 4.56501 22.3695C4.18709 22.0267 3.95062 21.6017 3.90472 21.14C3.82618 20.3489 4.48037 20.0523 4.88683 20.2881C5.13385 20.4314 5.25714 20.7527 5.2341 21.1922Z" fill="#136DF4"/>
</g>
<defs>
<clipPath id="clip0_432_1299">
<rect width="24" height="24" fill="white"/>
</clipPath>
</defs>
</svg>
