<svg width="50" height="50" viewBox="0 0 50 50" fill="none" xmlns="http://www.w3.org/2000/svg">
<path d="M47.4844 32.5469C37.3751 19.6719 27.9844 18.5703 25.7813 18.5V17.1328H26.0079C26.9297 17.1328 27.7657 16.5547 28.086 15.6953L29.2657 12.5469H29.3594C30.4532 12.5469 31.336 11.6563 31.336 10.5703V7.92969C32.2657 7.78906 32.9844 6.99219 32.9844 6.02344V3.21875C32.9844 2.78906 32.6329 2.4375 32.2032 2.4375C31.7735 2.4375 31.4219 2.78906 31.4219 3.21875V6.02344C31.4219 6.23438 31.2501 6.39844 31.0469 6.39844H18.9454C18.7422 6.39844 18.5704 6.22656 18.5704 6.02344V3.21875C18.5704 2.78906 18.2188 2.4375 17.7891 2.4375C17.3594 2.4375 17.0079 2.78906 17.0079 3.21875V6.02344C17.0079 6.99219 17.7266 7.78906 18.6563 7.92969V10.5703C18.6563 11.6641 19.5469 12.5469 20.6329 12.5469H20.7266L21.9063 15.6953C22.2266 16.5547 23.0626 17.1328 23.9844 17.1328H24.211V18.5312C19.1407 18.8359 13.8751 21.25 8.91412 25.5625C4.93756 29.0234 2.57037 32.4453 2.47662 32.5859C2.28912 32.8594 2.29694 33.2188 2.48444 33.4844C2.711 33.8047 8.19537 41.3906 15.5391 44.9922C16.0079 45.2969 19.7579 47.5781 24.7969 47.5781C27.8907 47.5781 30.8516 46.7891 34.4219 45.0078C41.3829 41.5391 47.2422 33.8203 47.4922 33.4922C47.7032 33.2109 47.7032 32.8203 47.4844 32.5391V32.5469ZM20.2266 10.5625V7.95313H29.7813V10.5625C29.7813 10.7891 29.5938 10.9766 29.3672 10.9766H20.6485C20.4219 10.9766 20.2344 10.7891 20.2344 10.5625H20.2266ZM23.3751 15.1406L22.3985 12.5391H27.586L26.6094 15.1406C26.5157 15.3984 26.2657 15.5703 25.9922 15.5703H23.9766C23.7032 15.5703 23.461 15.3984 23.3594 15.1406H23.3751ZM41.1016 27.8672C35.7344 24.7266 30.5313 23.5469 25.7813 23.5156V20.0625C27.4532 20.1563 33.6876 20.9844 41.1016 27.8672ZM33.9922 33.0313C33.9922 37.9844 29.961 42.0234 25.0001 42.0234C20.0391 42.0234 16.0079 37.9922 16.0079 33.0313C16.0079 29.9688 17.5469 27.1484 20.1329 25.4766C20.1407 25.4766 20.1485 25.4609 20.1563 25.4531C21.461 25.2109 22.8126 25.0469 24.2188 24.9844V26.8359C21.1407 27.2188 18.7579 29.8516 18.7579 33.0234C18.7579 36.4688 21.5626 39.2656 25.0001 39.2656C28.4376 39.2656 31.2422 36.4609 31.2422 33.0234C31.2422 32.3438 31.1329 31.6797 30.9141 31.0469C31.2891 30.5547 31.5157 29.9453 31.5157 29.2813C31.5157 27.6563 30.1954 26.3359 28.5704 26.3359C27.8594 26.3359 27.211 26.6016 26.7032 27.0234C26.3985 26.9375 26.086 26.875 25.7735 26.8359V24.9609C26.9922 24.9766 28.2344 25.0703 29.5157 25.2656C32.2735 26.875 33.9844 29.8438 33.9844 33.0234L33.9922 33.0313ZM29.6797 33.0313C29.6797 35.6094 27.5782 37.7109 25.0001 37.7109C22.4219 37.7109 20.3204 35.6094 20.3204 33.0313C20.3204 30.7188 22.0079 28.7969 24.2188 28.4219V32.6797C24.2188 33.1094 24.5704 33.4609 25.0001 33.4609C25.4297 33.4609 25.7813 33.1094 25.7813 32.6797V30.1641C26.1563 31.3594 27.2579 32.2344 28.5782 32.2344C28.9297 32.2344 29.2657 32.1641 29.5782 32.0469C29.6485 32.3672 29.6876 32.6953 29.6876 33.0313H29.6797ZM28.5782 30.6719C27.8126 30.6719 27.1954 30.0547 27.1954 29.2891C27.1954 28.5234 27.8126 27.9063 28.5782 27.9063C29.3438 27.9063 29.961 28.5234 29.961 29.2891C29.961 30.0547 29.3438 30.6719 28.5782 30.6719ZM24.2188 20.0938V23.5469C17.4844 23.8594 11.7657 26.3906 7.8985 28.6797C11.5626 25.0234 17.3829 20.5469 24.2188 20.0938ZM33.7344 43.6094C30.3985 45.2734 27.6407 46.0156 24.8047 46.0156C20.0157 46.0156 16.3985 43.6797 16.3672 43.6563C16.336 43.6406 16.3126 43.625 16.2813 43.6094C10.3907 40.7344 5.60162 34.9453 4.19537 33.1328C5.74225 31.8203 10.4297 28.1875 16.9532 26.2422C15.3594 28.1172 14.4532 30.5078 14.4532 33.0391C14.4532 38.8594 19.1876 43.5938 25.0079 43.5938C30.8282 43.5938 35.5626 38.8594 35.5626 33.0391C35.5626 30.3984 34.5469 27.8906 32.8126 25.9766C36.9688 27.125 41.3438 29.3516 45.7969 33.1328C44.3126 34.9766 39.3126 40.8359 33.7344 43.6094Z" fill="white"/>
</svg>
