<svg width="16" height="16" viewBox="0 0 16 16" fill="none" xmlns="http://www.w3.org/2000/svg">
<path d="M8.00004 14.6667C4.31814 14.6667 1.33337 11.6819 1.33337 8.00004C1.33337 4.31814 4.31814 1.33337 8.00004 1.33337C11.6819 1.33337 14.6667 4.31814 14.6667 8.00004C14.6667 11.6819 11.6819 14.6667 8.00004 14.6667ZM6.47339 13.1116C5.83166 11.7506 5.43825 10.2495 5.35158 8.66671H2.70797C2.97204 10.7844 4.47763 12.5165 6.47339 13.1116ZM6.68717 8.66671C6.78744 10.2926 7.25191 11.8198 8.00004 13.168C8.74817 11.8198 9.21264 10.2926 9.31291 8.66671H6.68717ZM13.2921 8.66671H10.6485C10.5618 10.2495 10.1684 11.7506 9.52671 13.1116C11.5224 12.5165 13.028 10.7844 13.2921 8.66671ZM2.70797 7.33337H5.35158C5.43825 5.75055 5.83166 4.24942 6.47339 2.88841C4.47763 3.48359 2.97204 5.21571 2.70797 7.33337ZM6.68717 7.33337H9.31291C9.21264 5.70752 8.74817 4.18021 8.00004 2.83203C7.25191 4.18021 6.78744 5.70752 6.68717 7.33337ZM9.52671 2.88841C10.1684 4.24942 10.5618 5.75055 10.6485 7.33337H13.2921C13.028 5.21571 11.5224 3.48359 9.52671 2.88841Z" fill="white"/>
</svg>
