<svg width="16" height="16" viewBox="0 0 16 16" fill="none" xmlns="http://www.w3.org/2000/svg">
<path d="M2.66667 7.55554L0 6.00001L8 1.33334L16 6.00001V11.6667H14.6667V6.77781L13.3333 7.55554V12.0075L13.1849 12.1909C11.9638 13.6999 10.0945 14.6667 8 14.6667C5.90545 14.6667 4.03619 13.6999 2.81509 12.1909L2.66667 12.0075V7.55554ZM4 8.33334V11.5278C4.97814 12.636 6.40741 13.3333 8 13.3333C9.5926 13.3333 11.0219 12.636 12 11.5278V8.33334L8 10.6667L4 8.33334ZM2.64618 6.00001L8 9.12308L13.3538 6.00001L8 2.87695L2.64618 6.00001Z" fill="#136DF4"/>
</svg>
