<svg width="24" height="24" viewBox="0 0 24 24" fill="none" xmlns="http://www.w3.org/2000/svg">
<path d="M5.00391 9.00268C5.5562 9.00268 6.00391 9.45039 6.00391 10.0027C7.63868 10.0027 9.14255 10.5631 10.3339 11.5022L12.5039 11.5027C13.836 11.5027 15.0329 12.0815 15.8569 13.0014L19.0039 13.0027C20.9962 13.0027 22.7163 14.1679 23.52 15.8541C21.1552 18.9747 17.3258 21.0027 13.0039 21.0027C10.2132 21.0027 7.85369 20.3994 5.94303 19.3447C5.8046 19.7283 5.4363 20.0027 5.00391 20.0027H2.00391C1.45163 20.0027 1.00391 19.555 1.00391 19.0027V10.0027C1.00391 9.45039 1.45163 9.00268 2.00391 9.00268H5.00391ZM6.00492 12.0027L6.00391 17.0238L6.04927 17.0572C7.84309 18.3176 10.182 19.0027 13.0039 19.0027C16.0079 19.0027 18.8025 17.847 20.839 15.8732L20.9719 15.7397L20.8527 15.6393C20.3887 15.2763 19.8195 15.051 19.2089 15.0096L19.0039 15.0027L16.8922 15.0017C16.9653 15.3236 17.0039 15.6586 17.0039 16.0027V17.0027H8.00391V15.0027L14.7939 15.0017L14.7595 14.9232C14.379 14.1296 13.592 13.568 12.6683 13.508L12.5039 13.5027L9.5745 13.5025C8.66726 12.5772 7.40315 12.003 6.00492 12.0027ZM4.00391 11.0027H3.00391V18.0027H4.00391V11.0027ZM13.6503 3.57806L14.0036 3.93183L14.3574 3.57806C15.3337 2.60175 16.9167 2.60175 17.893 3.57806C18.8693 4.55437 18.8693 6.13728 17.893 7.11359L14.0039 11.0027L10.1148 7.11359C9.13851 6.13728 9.13851 4.55437 10.1148 3.57806C11.0911 2.60175 12.674 2.60175 13.6503 3.57806ZM11.529 4.99227C11.3554 5.16584 11.3362 5.43526 11.4704 5.62938L11.5279 5.69831L14.0029 8.17368L16.4788 5.69938C16.6523 5.52581 16.6716 5.25639 16.5366 5.06152L16.4788 4.99227C16.3052 4.81871 16.0358 4.79942 15.8407 4.93457L15.7714 4.99249L14.0023 6.76111L12.235 4.9912L12.1669 4.93442C11.972 4.79942 11.7026 4.81871 11.529 4.99227Z" fill="#136DF4"/>
</svg>
