<svg width="50" height="50" viewBox="0 0 50 50" fill="none" xmlns="http://www.w3.org/2000/svg">
<path d="M49.1445 24.2395H44.9144C46.673 20.2471 46.4829 17.0152 45.8175 14.8289C44.6768 10.9315 40.827 6.70151 35.1236 6.70151C33.6027 6.70151 32.0817 6.98668 30.5133 7.55702C27.8042 8.55512 25.9981 9.64828 25.1901 10.2186C24.3821 9.64828 22.6236 8.55512 19.8669 7.55702C18.2985 6.98668 16.73 6.70151 15.2567 6.70151C9.55323 6.70151 5.70342 10.9315 4.56274 14.8289C3.89734 17.1578 3.6597 20.6749 5.89354 25.095H0.760456C0.3327 25.095 0 25.4277 0 25.8555C0 26.2833 0.3327 26.616 0.760456 26.616H6.79658C7.03422 27.0437 7.31939 27.4715 7.65209 27.8992C12.5951 35.0285 23.3365 42.7757 25.2852 43.2509V43.2985C25.2852 43.2985 25.3327 43.2985 25.3802 43.2509C25.4278 43.2509 25.4753 43.2509 25.5228 43.2509V43.2034C27.1863 42.3954 37.5 35.7414 42.9183 27.8517C43.4411 27.1388 43.8688 26.4258 44.2491 25.7129H49.2395C49.6673 25.7129 50 25.3802 50 24.9525C50 24.5247 49.5722 24.2395 49.1445 24.2395ZM41.5399 27.0437C36.5019 34.4106 27.2338 40.3517 25.2376 41.635C23.1939 40.3517 13.9734 34.3631 8.88783 27.0437C8.79278 26.9011 8.69772 26.7585 8.60266 26.616H15.5894C15.8745 26.616 16.1597 26.4734 16.3023 26.1882L19.4867 19.9144L24.4772 32.6996C24.5722 32.9848 24.9049 33.1749 25.1901 33.1749C25.1901 33.1749 25.1901 33.1749 25.2376 33.1749C25.5703 33.1749 25.8555 32.9372 25.9506 32.6045L30.3232 17.6331L32.6521 25.1901C32.7471 25.4753 32.9848 25.6654 33.27 25.7129C33.5551 25.7604 33.8403 25.6179 34.0304 25.3802L35.884 22.6711L37.4525 25.3327C37.5951 25.5703 37.8327 25.7129 38.1179 25.7129H42.3954C42.1103 26.1882 41.8251 26.616 41.5399 27.0437ZM43.2509 24.2395H38.5932L36.6445 20.9125C36.5019 20.6749 36.2643 20.5323 35.9791 20.5323C35.6939 20.5323 35.4563 20.6274 35.3137 20.865L33.6977 23.2414L31.0837 14.7338C30.9886 14.4011 30.6559 14.211 30.3232 14.1635C29.9905 14.1635 29.6578 14.4011 29.5627 14.7338L25.1426 29.9905L20.3422 17.7281C20.2471 17.443 19.962 17.2528 19.6768 17.2528C19.3441 17.2528 19.1065 17.3954 18.9639 17.6806L15.2091 25.0475H7.65209C5.75095 21.5779 5.22814 18.2509 6.08365 15.2566C7.08175 11.8821 10.3612 8.26995 15.3042 8.26995C16.635 8.26995 18.0133 8.55512 19.3916 9.0304C22.8612 10.3137 24.7148 11.7871 24.7624 11.7871C25.0475 12.0247 25.4278 12.0247 25.7129 11.7871C25.7129 11.7871 27.5665 10.3137 31.0837 9.0304C32.462 8.50759 33.8403 8.26995 35.1711 8.26995C40.0665 8.26995 43.3935 11.8821 44.3916 15.2566C45.1996 18.0133 44.7719 21.0551 43.2509 24.2395Z" fill="#1F2937"/>
</svg>
