<svg width="24" height="24" viewBox="0 0 24 24" fill="none" xmlns="http://www.w3.org/2000/svg">
<path d="M14.3898 14.5091C14.4661 14.4473 14.5134 14.3527 14.5134 14.2509V12.6036V11.2873H16.7316C17.0952 11.2873 17.3934 10.9891 17.3934 10.6255V9.78909C17.3934 9.42546 17.0952 9.12727 16.7316 9.12727H16.3243V8.04727H16.7316C17.0952 8.04727 17.3934 7.74909 17.3934 7.38546V6.54909C17.3934 6.18546 17.0952 5.88727 16.7316 5.88727H16.3243V4.80727H17.557C18.1025 4.80727 18.5498 4.36364 18.5498 3.81455V2.08364C18.5461 1.53455 18.1025 1.09091 17.557 1.09091H6.50249C5.95704 1.09091 5.50977 1.53455 5.50977 2.08364V3.81455C5.50977 4.36 5.9534 4.80727 6.50249 4.80727H7.73522V5.88727H7.32795C6.96431 5.88727 6.66613 6.18546 6.66613 6.54909V7.38546C6.66613 7.74909 6.96431 8.04727 7.32795 8.04727H7.73522V9.12727H7.32795C6.96431 9.12727 6.66613 9.42546 6.66613 9.78909V10.6255C6.66613 10.9891 6.96431 11.2873 7.32795 11.2873H9.54613V12.6036V14.2509C9.54613 14.3527 9.5934 14.4473 9.66977 14.5091L11.7025 16.1382V20.8582C11.7025 21.04 11.8516 21.1891 12.0334 21.1891C12.2152 21.1891 12.3643 21.04 12.3643 20.8582V16.1382L14.3898 14.5091ZM6.17158 3.81455V2.08364C6.17158 1.90182 6.32067 1.75273 6.50249 1.75273H7.36067V2.72364C7.36067 2.90546 7.50977 3.05455 7.69158 3.05455C7.8734 3.05455 8.02249 2.90909 8.02249 2.72364V1.75273H9.09522V2.72364C9.09522 2.90546 9.24431 3.05455 9.42613 3.05455C9.60795 3.05455 9.75704 2.90546 9.75704 2.72364V1.75273H10.8298V2.72364C10.8298 2.90546 10.9789 3.05455 11.1607 3.05455C11.3425 3.05455 11.4916 2.90546 11.4916 2.72364V1.75273H12.5643V2.72364C12.5643 2.90546 12.7134 3.05455 12.8952 3.05455C13.077 3.05455 13.2261 2.90909 13.2261 2.72364V1.75273H14.2989V2.72364C14.2989 2.90546 14.4479 3.05455 14.6298 3.05455C14.8116 3.05455 14.9607 2.90546 14.9607 2.72364V1.75273H16.0334V2.72364C16.0334 2.90909 16.1825 3.05455 16.3643 3.05455C16.5461 3.05455 16.6952 2.90546 16.6952 2.72364V1.75273H17.557C17.7389 1.75273 17.8879 1.90182 17.8879 2.08364V3.81455C17.8879 3.99636 17.7389 4.14546 17.557 4.14546H15.9934H8.06249H6.49886C6.31704 4.14546 6.17158 3.99636 6.17158 3.81455ZM8.3934 4.80727H15.6625V5.88727H8.3934V4.80727ZM7.32431 6.54909H16.7316V7.38546H7.32431V6.54909ZM8.3934 8.04727H15.6625V9.12727H8.3934V8.04727ZM7.32431 9.78909H8.06249H15.9934H16.7316V10.6255H14.1825H9.8734H7.32431V9.78909ZM13.8516 11.2873V12.2727H10.2043V11.2873H13.8516ZM10.2043 12.9345H13.8552V14.0945L12.0298 15.56L10.2043 14.0945V12.9345Z" fill="#136DF4"/>
<path d="M10.6804 20.5309H3.57496C3.04406 20.5309 2.61133 20.9636 2.61133 21.4945V21.9455C2.61133 22.4764 3.04406 22.9091 3.57496 22.9091H10.6804C10.8622 22.9091 11.0113 22.76 11.0113 22.5782V20.8582C11.0113 20.6764 10.8622 20.5309 10.6804 20.5309ZM10.3495 22.2473H3.57496C3.40769 22.2473 3.27315 22.1127 3.27315 21.9455V21.4945C3.27315 21.3273 3.41133 21.1891 3.5786 21.1891H10.3531V22.2473H10.3495Z" fill="#136DF4"/>
<path d="M20.4295 20.5309H13.3241C13.1423 20.5309 12.9932 20.68 12.9932 20.8618V22.5818C12.9932 22.7636 13.1423 22.9127 13.3241 22.9127H20.4295C20.9604 22.9127 21.3932 22.48 21.3932 21.9491V21.4982C21.3895 20.9636 20.9604 20.5309 20.4295 20.5309ZM20.7277 21.9455C20.7277 22.1127 20.5932 22.2509 20.4259 22.2509H13.655V21.1927H20.4295C20.5968 21.1927 20.7313 21.3309 20.7313 21.4982V21.9455H20.7277Z" fill="#136DF4"/>
<path d="M15.5709 16.9636C15.44 16.8327 15.2327 16.8327 15.1018 16.9636L14.2037 17.8618C14.0727 17.9891 14.0727 18.2 14.2037 18.3309C14.2691 18.3964 14.3527 18.4291 14.4364 18.4291C14.52 18.4291 14.6073 18.3964 14.6691 18.3309L15.5673 17.4327C15.6982 17.3018 15.6982 17.0945 15.5709 16.9636Z" fill="#136DF4"/>
<path d="M15.1131 19.6945C15.1349 19.6945 15.1567 19.6909 15.1749 19.6873L16.4221 19.4436C16.6003 19.4073 16.7167 19.2364 16.684 19.0545C16.6476 18.8764 16.4767 18.76 16.2949 18.7927L15.0476 19.0364C14.8694 19.0727 14.7531 19.2436 14.7858 19.4255C14.8185 19.5818 14.9567 19.6945 15.1131 19.6945Z" fill="#136DF4"/>
<path d="M9.61847 18.4255C9.70211 18.4255 9.78938 18.3927 9.8512 18.3273C9.98211 18.1964 9.98211 17.9891 9.8512 17.8582L8.95302 16.96C8.82211 16.8291 8.61483 16.8291 8.48392 16.96C8.35301 17.0909 8.35301 17.2982 8.48392 17.4291L9.38211 18.3273C9.44756 18.3927 9.5312 18.4255 9.61847 18.4255Z" fill="#136DF4"/>
<path d="M7.37091 19.0545C7.33454 19.2327 7.45091 19.4073 7.63272 19.4436L8.88 19.6873C8.90182 19.6909 8.92363 19.6945 8.94182 19.6945C9.09818 19.6945 9.23636 19.5855 9.26545 19.4255C9.30182 19.2473 9.18182 19.0727 9.00363 19.0364L7.75636 18.7927C7.57818 18.76 7.40727 18.8764 7.37091 19.0545Z" fill="#136DF4"/>
</svg>
