<svg width="16" height="16" viewBox="0 0 16 16" fill="none" xmlns="http://www.w3.org/2000/svg">
<path d="M7.99967 1.33334C8.36787 1.33334 8.66633 1.63182 8.66633 2.00001V4.00001C8.66633 4.3682 8.36787 4.66668 7.99967 4.66668C7.63147 4.66668 7.333 4.3682 7.333 4.00001V2.00001C7.333 1.63182 7.63147 1.33334 7.99967 1.33334ZM7.99967 11.3333C8.36787 11.3333 8.66633 11.6318 8.66633 12V14C8.66633 14.3682 8.36787 14.6667 7.99967 14.6667C7.63147 14.6667 7.333 14.3682 7.333 14V12C7.333 11.6318 7.63147 11.3333 7.99967 11.3333ZM13.7731 4.66668C13.9573 4.98554 13.848 5.39326 13.5291 5.57736L11.7971 6.57736C11.4782 6.76148 11.0705 6.6522 10.8864 6.33334C10.7023 6.01448 10.8115 5.60676 11.1304 5.42266L12.8625 4.42266C13.1813 4.23856 13.5891 4.34782 13.7731 4.66668ZM5.1129 9.66668C5.29699 9.98554 5.18774 10.3933 4.86888 10.5773L3.13683 11.5773C2.81797 11.7615 2.41024 11.6522 2.22615 11.3333C2.04205 11.0145 2.1513 10.6067 2.47017 10.4227L4.20221 9.42268C4.52107 9.23854 4.9288 9.34781 5.1129 9.66668ZM13.7731 11.3333C13.5891 11.6522 13.1813 11.7615 12.8625 11.5773L11.1304 10.5773C10.8115 10.3933 10.7023 9.98554 10.8864 9.66668C11.0705 9.34781 11.4782 9.23854 11.7971 9.42268L13.5291 10.4227C13.848 10.6067 13.9573 11.0145 13.7731 11.3333ZM5.1129 6.33334C4.9288 6.6522 4.52107 6.76148 4.20221 6.57736L2.47017 5.57736C2.1513 5.39326 2.04205 4.98554 2.22615 4.66668C2.41024 4.34782 2.81797 4.23856 3.13683 4.42266L4.86888 5.42266C5.18774 5.60676 5.29699 6.01448 5.1129 6.33334Z" fill="#1F2937"/>
</svg>
