<svg width="45" height="50" viewBox="0 0 45 50" fill="none" xmlns="http://www.w3.org/2000/svg">
<g clip-path="url(#clip0_85_85)">
<path d="M33.4847 23.5005C33.2139 22.1642 32.8889 20.8835 32.707 19.5819C32.5042 18.1234 32.4125 16.6482 32.3056 15.1772C32.1153 12.5768 31.0334 10.3807 29.332 8.45122C28.4597 7.46219 27.607 6.45511 26.7459 5.45636C25.6584 4.19369 25.032 2.69487 24.5653 1.12243C24.4139 0.611243 24.6486 0.183406 25.1042 0.0403308C25.5431 -0.0985774 25.9972 0.130621 26.1403 0.651527C26.6889 2.64764 27.8181 4.27703 29.1986 5.78279C30.1347 6.80377 31.0056 7.89142 31.8375 9.0013C33.3278 10.9863 33.9042 13.3061 34.025 15.7328C34.15 18.2401 34.5347 20.696 35.1181 23.131C35.2097 23.5116 35.3695 23.7089 35.75 23.8325C38.5181 24.734 41.2792 25.6606 44.0417 26.5801C44.875 26.8579 44.9847 27.0121 44.9847 27.8914C44.9847 31.1905 45.0306 34.4896 44.9722 37.7872C44.9139 41.128 43.4847 43.8131 40.7556 45.7439C38.8306 47.1066 36.8334 48.3679 34.8847 49.6972C34.3653 50.0514 33.9389 50.0514 33.4181 49.6944C31.5584 48.4193 29.6709 47.1844 27.8042 45.9175C27.5306 45.7328 27.35 45.7328 27.0778 45.9286C23.8695 48.2359 20.2556 49.4389 16.3472 49.7945C15.1042 49.907 13.8542 49.9473 12.6056 49.9973C11.9709 50.0223 11.5695 49.6653 11.5834 49.1499C11.5972 48.6554 11.975 48.3415 12.5931 48.3373C15.6278 48.3123 18.6181 48.0095 21.5014 46.9843C23.0292 46.4412 24.4597 45.7092 25.7972 44.7924C25.8945 44.7257 25.982 44.6465 26.0931 44.5576C24.9 43.2269 24.0264 41.7406 23.6125 40.0237C23.4472 39.3375 23.3375 38.6221 23.332 37.9178C23.3042 34.5326 23.3181 31.146 23.3195 27.7608C23.3195 27.0455 23.4556 26.8621 24.1417 26.6315C27.0986 25.6425 30.057 24.6549 33.0139 23.6658C33.1584 23.6186 33.3028 23.5644 33.4847 23.5005ZM24.9834 33.4144C24.9834 34.9243 24.9334 36.4371 24.9945 37.9442C25.1 40.539 26.1959 42.6838 28.2834 44.2187C30.0847 45.5425 31.9875 46.7288 33.8597 47.9553C33.9986 48.047 34.2986 48.0526 34.4361 47.9637C36.3209 46.726 38.2389 45.5314 40.0514 44.1937C42.1042 42.6796 43.2278 40.5585 43.2972 38.0067C43.382 34.8493 43.3139 31.6878 43.3236 28.529C43.325 28.2304 43.2584 28.0692 42.9445 27.9664C40.1292 27.0455 37.3222 26.0995 34.507 25.1785C34.2945 25.1091 34.0209 25.1077 33.8084 25.1772C30.9931 26.1009 28.1847 27.0482 25.3695 27.9692C25.0597 28.0706 24.9764 28.2123 24.9792 28.5193C24.9903 30.1515 24.9834 31.7836 24.9834 33.4144Z" fill="#136DF4"/>
<path d="M10.0112 24.0978C9.96674 24.0284 9.94868 23.977 9.91118 23.9464C7.37785 21.8044 7.60424 17.6886 10.757 15.5466C12.0751 14.6507 13.5251 13.945 14.8167 13.0185C15.9515 12.2045 17.0112 11.2613 17.9903 10.2626C18.939 9.29715 19.2195 8.01086 19.2695 6.69262C18.3306 6.98016 17.4417 7.32188 16.5223 7.5219C14.364 7.99002 12.7501 7.15241 11.807 5.15074C11.164 3.78527 11.0195 2.3184 10.9681 0.84042C10.9515 0.377856 11.3195 0.0250287 11.7362 0.00558154C12.1723 -0.0152547 12.5473 0.31118 12.6112 0.793191C12.714 1.58358 12.7306 2.39202 12.907 3.16574C13.5501 5.98002 14.864 6.43286 17.1834 5.65081C18.7042 5.13824 20.0223 4.28951 21.2306 3.25325C21.3626 3.14074 21.4862 3.01572 21.6278 2.9171C22.0112 2.65178 22.4695 2.70318 22.7542 3.03239C23.0376 3.35882 23.0445 3.84223 22.7015 4.16033C22.2445 4.584 21.757 4.97849 21.2528 5.3466C20.9987 5.53274 20.9028 5.72026 20.9237 6.0342C21.0084 7.33854 20.7723 8.58733 20.2515 9.7875C19.5459 11.4127 18.2556 12.5393 16.8945 13.5547C15.5778 14.5368 14.1445 15.3633 12.7612 16.2551C12.3237 16.537 11.8598 16.7801 11.4473 17.0955C10.0973 18.1262 9.5459 19.7278 10.0015 21.196C10.432 22.5851 11.7945 23.5519 13.4848 23.6339C13.9501 23.6561 14.4195 23.6102 14.8848 23.57C15.4626 23.52 15.864 23.77 15.9348 24.2534C16.0126 24.7785 15.7042 25.1966 15.1028 25.2105C14.1737 25.2327 13.2417 25.1632 12.3112 25.141C12.1098 25.1355 11.8806 25.1063 11.7084 25.1855C7.62924 27.0524 4.33896 29.7458 2.65979 34.052C1.68201 36.5593 1.25424 39.136 2.05146 41.7878C2.25007 42.4476 2.52646 43.088 2.81118 43.7186C3.13896 44.4423 3.08479 44.9174 2.5834 45.1563C2.07507 45.398 1.67368 45.1771 1.30424 44.4493C-0.345764 41.1946 -0.330486 37.8539 0.748681 34.4395C2.21396 29.8069 5.40285 26.6954 9.51674 24.3826C9.63757 24.3145 9.76118 24.252 9.88201 24.1839C9.9209 24.1673 9.94729 24.1437 10.0112 24.0978Z" fill="#136DF4"/>
<path d="M22.368 39.9167C22.1457 40.2348 21.9985 40.5307 21.7763 40.7474C19.1638 43.2866 16.0916 45.0591 12.5874 46.0217C11.3457 46.3635 10.0402 46.5093 8.75407 46.6399C7.2624 46.7913 5.83601 47.0233 4.69573 48.1179C4.35407 48.4457 3.88462 48.4026 3.57073 48.0901C3.24573 47.765 3.22629 47.2997 3.56657 46.9205C4.33601 46.0606 5.34434 45.5745 6.4374 45.3411C7.44712 45.1258 8.49295 45.0799 9.52212 44.948C13.6818 44.4146 17.2499 42.6254 20.3388 39.8264C20.5318 39.6514 20.6888 39.4 20.9138 39.3083C21.1777 39.2013 21.5318 39.1375 21.7818 39.2305C22.0041 39.318 22.1416 39.6389 22.368 39.9167Z" fill="#136DF4"/>
<path d="M24.8528 10.8181C25.1084 11.0265 25.4403 11.1709 25.5334 11.4085C25.6292 11.6516 25.6028 12.1211 25.4361 12.2614C23.9181 13.5352 24.0834 15.1729 24.5431 16.7634C25.0361 18.4692 25.7542 20.1097 26.3834 21.7752C26.5417 22.1961 26.75 22.5989 26.9 23.0226C27.0528 23.4546 26.8445 23.8908 26.45 24.0575C26.0445 24.2297 25.5778 24.0894 25.3917 23.6657C24.2445 21.0543 22.907 18.5039 22.6347 15.5952C22.4806 13.9519 22.7778 12.4447 24.0806 11.289C24.2806 11.114 24.5389 11.007 24.8528 10.8181Z" fill="#136DF4"/>
<path d="M34.2278 38.0748C34.375 37.8637 34.4625 37.6859 34.5958 37.5525C36.5166 35.6217 38.443 33.6978 40.3694 31.7726C40.4917 31.6503 40.6097 31.5184 40.7514 31.4211C41.1125 31.1725 41.4819 31.1933 41.7958 31.4934C42.1278 31.8115 42.1555 32.1921 41.8958 32.5754C41.8097 32.7032 41.6903 32.8102 41.5805 32.9199C39.3861 35.1161 37.1903 37.3122 34.9944 39.507C34.318 40.1835 33.9819 40.1807 33.3 39.4986C32.2569 38.4568 31.2139 37.415 30.1736 36.3704C29.7042 35.8981 29.6542 35.4258 30.0194 35.0508C30.3875 34.6757 30.8722 34.7146 31.3389 35.18C32.2611 36.0968 33.1764 37.0205 34.2278 38.0748Z" fill="#136DF4"/>
</g>
<defs>
<clipPath id="clip0_85_85">
<rect width="45" height="50" fill="white"/>
</clipPath>
</defs>
</svg>
