<svg width="50" height="50" viewBox="0 0 50 50" fill="none" xmlns="http://www.w3.org/2000/svg">
<path d="M23.4375 31.25C20.8516 31.25 18.75 29.1484 18.75 26.5625C18.75 23.9766 20.8516 21.875 23.4375 21.875V23.4375C21.7109 23.4375 20.3125 24.8359 20.3125 26.5625C20.3125 28.2891 21.7109 29.6875 23.4375 29.6875C25.1641 29.6875 26.5625 28.2891 26.5625 26.5625H28.125C28.125 29.1484 26.0234 31.25 23.4375 31.25Z" fill="#1F2937"/>
<path d="M23.4375 36.7188C22.0234 36.7188 20.6563 36.4375 19.3672 35.875L19.9922 34.4453C21.0781 34.9219 22.2344 35.1641 23.4297 35.1641C28.1719 35.1641 32.0234 31.3125 32.0234 26.5703C32.0234 21.8281 28.1719 17.9766 23.4297 17.9766C18.6875 17.9766 14.8359 21.8281 14.8359 26.5703C14.8359 27.5547 15 28.5156 15.3203 29.4375L13.8516 29.9609C13.4687 28.875 13.2734 27.7344 13.2734 26.5781C13.2734 20.9766 17.8281 16.4219 23.4297 16.4219C29.0312 16.4219 33.5859 20.9766 33.5859 26.5781C33.5859 32.1797 29.0312 36.7344 23.4297 36.7344L23.4375 36.7188Z" fill="#1F2937"/>
<path d="M23.4375 42.1875C22.3281 42.1875 21.2266 42.0703 20.1484 41.8438L20.4766 40.3125C21.4453 40.5156 22.4375 40.625 23.4375 40.625C31.1875 40.625 37.5 34.3125 37.5 26.5625C37.5 18.8125 31.1875 12.5 23.4375 12.5C15.6875 12.5 9.375 18.8125 9.375 26.5625C9.375 27.5625 9.47656 28.5547 9.6875 29.5234L8.15625 29.8516C7.92969 28.7734 7.8125 27.6719 7.8125 26.5625C7.8125 17.9453 14.8203 10.9375 23.4375 10.9375C32.0547 10.9375 39.0625 17.9453 39.0625 26.5625C39.0625 35.1797 32.0547 42.1875 23.4375 42.1875Z" fill="#1F2937"/>
<path d="M23.4375 47.6562C21.7969 47.6562 20.1562 47.4688 18.5703 47.0938L18.9297 45.5703C20.3984 45.9141 21.9141 46.0938 23.4375 46.0938C34.2109 46.0938 42.9688 37.3359 42.9688 26.5625C42.9688 22.3828 41.6719 18.4063 39.2109 15.0469L40.4688 14.125C43.125 17.75 44.5234 22.0547 44.5234 26.5625C44.5234 38.1953 35.0625 47.6562 23.4297 47.6562H23.4375Z" fill="#1F2937"/>
<path d="M2.90625 31.4297C2.53125 29.8438 2.34375 28.2031 2.34375 26.5625C2.34375 14.9297 11.8047 5.46875 23.4375 5.46875C28.1953 5.46875 32.6797 7.01563 36.4219 9.9375L35.4609 11.1719C32 8.46875 27.8438 7.03906 23.4453 7.03906C12.6719 7.03906 3.91406 15.7969 3.91406 26.5703C3.91406 28.0937 4.08594 29.6094 4.4375 31.0781L2.91406 31.4375L2.90625 31.4297Z" fill="#1F2937"/>
<path d="M26.792 22.1L42.4123 6.4797L43.517 7.58438L27.8967 23.2047L26.792 22.1Z" fill="#1F2937"/>
<path d="M23.4374 27.3437C23.2343 27.3437 23.0312 27.2656 22.8827 27.1172C22.6562 26.8906 22.5937 26.5469 22.7187 26.2578L25.0624 20.7891C25.164 20.5469 25.3749 20.375 25.6327 20.3281C25.8905 20.2812 26.1484 20.3594 26.3359 20.5469L29.4609 23.6719C29.6405 23.8516 29.7265 24.1172 29.6796 24.375C29.6327 24.6328 29.4609 24.8437 29.2187 24.9453L23.7499 27.2891C23.6484 27.3281 23.5468 27.3516 23.4452 27.3516L23.4374 27.3437ZM26.0468 22.4609L24.9296 25.0703L27.539 23.9531L26.0468 22.4609Z" fill="#1F2937"/>
<path d="M41.7969 12.8906H37.8906V11.3281H41.4766L44.9922 7.8125H42.9688V6.25H46.875C47.1875 6.25 47.4766 6.4375 47.5937 6.73437C47.7187 7.02344 47.6484 7.35938 47.4219 7.58594L42.3438 12.6641C42.1953 12.8125 42 12.8906 41.7891 12.8906H41.7969Z" fill="#1F2937"/>
<path d="M37.5235 11.9062L36.7422 8.78125C36.6719 8.51562 36.75 8.23437 36.9453 8.03906L42.4141 2.57031C42.6406 2.34375 42.9766 2.28125 43.2656 2.39843C43.5547 2.51562 43.75 2.80468 43.75 3.11718V7.02343H42.1875V5L38.3672 8.82031L39.0391 11.5156L37.5235 11.8906V11.9062Z" fill="#1F2937"/>
<path d="M10.9375 47.6562C6.19531 47.6562 2.34375 43.8047 2.34375 39.0625C2.34375 34.3203 6.19531 30.4688 10.9375 30.4688C15.6797 30.4688 19.5312 34.3203 19.5312 39.0625C19.5312 43.8047 15.6797 47.6562 10.9375 47.6562ZM10.9375 32.0312C7.0625 32.0312 3.90625 35.1875 3.90625 39.0625C3.90625 42.9375 7.0625 46.0938 10.9375 46.0938C14.8125 46.0938 17.9688 42.9375 17.9688 39.0625C17.9688 35.1875 14.8125 32.0312 10.9375 32.0312Z" fill="#1F2937"/>
<path d="M9.375 42.1875C9.17187 42.1875 8.97656 42.1094 8.82031 41.9609L6.47656 39.6172L7.57812 38.5156L9.36719 40.3047L14.2812 35.3906L15.3828 36.4922L9.91406 41.9609C9.75781 42.1172 9.5625 42.1875 9.35937 42.1875H9.375Z" fill="#1F2937"/>
</svg>
