<svg width="48" height="50" viewBox="0 0 48 50" fill="none" xmlns="http://www.w3.org/2000/svg">
<g clip-path="url(#clip0_68_888)">
<path d="M38.6867 0C39.2716 0.127604 39.8643 0.230469 40.44 0.389323C45.1867 1.69792 48.2781 6.10417 47.9805 11.1198C47.7037 15.793 43.9726 19.8021 39.2259 20.5286C31.7664 21.6706 25.628 14.7174 27.7194 7.47786C27.8421 7.05599 27.769 6.77995 27.4687 6.48828C26.3839 5.4375 25.1162 5.08984 23.6959 5.60677C22.2781 6.1237 21.4139 7.20052 21.3878 8.70052C21.3225 12.4583 21.3643 16.2187 21.3656 19.9779C21.3656 20.0052 21.3878 20.0326 21.4113 20.0859C21.7298 19.8633 22.0327 19.6276 22.3591 19.4297C23.0823 18.9896 23.8721 18.7526 24.7233 18.7383C25.2703 18.7292 25.6032 18.9674 25.641 19.3971C25.6802 19.8333 25.3408 20.1693 24.7886 20.1966C23.517 20.2591 22.5092 20.8151 21.8969 21.9115C21.5993 22.444 21.3878 23.1042 21.3839 23.7083C21.3447 29.1107 21.3591 34.5143 21.363 39.918C21.3643 40.8021 21.8186 41.2956 22.7011 41.418C23.1985 41.487 23.4948 41.7865 23.4713 42.1979C23.4465 42.6393 23.1084 42.9023 22.5758 42.8737C22.3656 42.8633 22.1554 42.8203 21.9504 42.7708C21.7651 42.7253 21.5862 42.651 21.3995 42.5872C21.1202 45.0078 22.6032 47.3555 24.9256 48.207C27.2651 49.0638 29.8578 48.2109 31.2546 46.1289C31.9204 45.1367 32.2337 44.0508 32.1815 42.8555C32.1685 42.5521 32.0719 42.4206 31.7363 42.3633C30.2089 42.1042 28.9126 41.3932 27.8578 40.2565C27.4413 39.8073 27.393 39.375 27.7142 39.056C28.0484 38.724 28.4909 38.8008 28.9361 39.2578C30.4883 40.8503 32.3578 41.3646 34.4805 40.7396C36.598 40.1172 37.8564 38.6576 38.2429 36.4909C38.47 35.2161 38.2494 33.9987 37.5484 32.832C36.1724 33.1523 34.846 32.9909 33.6254 32.2305C32.3995 31.4674 31.6554 30.3594 31.3564 29.0352C30.581 28.9453 29.8434 28.875 29.1097 28.7656C28.8578 28.7279 28.6123 28.6094 28.3773 28.4974C27.9596 28.2995 27.8029 27.9115 27.9648 27.5312C28.1241 27.1576 28.5249 26.9792 28.9439 27.1602C29.7181 27.4935 30.5092 27.6198 31.3303 27.4141C32.3434 27.1589 33.098 26.5651 33.641 25.6628C33.7873 25.4206 34.1097 25.1758 34.3786 25.1406C34.9152 25.0716 35.2403 25.6875 34.9831 26.2188C34.5679 27.0755 33.9478 27.7643 33.1162 28.2292C32.7833 28.4154 32.752 28.6133 32.8421 28.9349C33.2442 30.3594 34.4818 31.3763 36.0105 31.5169C37.4034 31.6458 38.8081 30.8112 39.4518 29.4727C40.0719 28.1836 39.8199 26.6185 38.8264 25.5755C37.8995 24.6029 37.9074 24.6094 38.829 23.5964C39.0666 23.3346 39.252 23.0221 39.4426 22.7201C39.7155 22.2852 40.0784 22.1393 40.4622 22.3359C40.8604 22.5391 40.9674 22.9518 40.7285 23.4271C40.6267 23.6302 40.5079 23.8255 40.3813 24.0143C40.2546 24.2031 40.1097 24.3789 39.9426 24.6003C40.9648 25.7474 41.4087 27.1094 41.2181 28.638C41.0288 30.1602 40.2168 31.3268 38.9348 32.2266C40.0196 34.3763 40.1528 36.5651 39.0353 38.7279C37.9178 40.888 36.081 42.0898 33.6946 42.4492C33.6384 43.1107 33.6423 43.763 33.5196 44.3919C32.9544 47.2982 30.7585 49.4154 27.8408 49.918C27.7651 49.931 27.6946 49.9753 27.6215 50.0039C27.0666 50.0039 26.5118 50.0039 25.957 50.0039C25.8669 49.9727 25.7794 49.9284 25.688 49.9141C24.5732 49.737 23.5209 49.3568 22.675 48.6198C21.9008 47.9453 21.2403 47.1406 20.5379 46.401C20.5196 46.4323 20.4387 46.5716 20.3525 46.7083C19.3813 48.2435 18.0275 49.2734 16.2716 49.7643C15.9452 49.8555 15.6136 49.9245 15.2846 50.0039C14.7298 50.0039 14.175 50.0039 13.6202 50.0039C13.2925 49.9206 12.9622 49.8451 12.6371 49.7526C9.52224 48.8659 7.46089 45.9792 7.61885 42.7318C7.62277 42.6523 7.61885 42.5716 7.61885 42.4622C5.21415 42.1055 3.36559 40.9206 2.23765 38.763C1.10841 36.6016 1.21937 34.4154 2.30553 32.2656C-0.386373 30.3594 -0.724493 26.9362 1.30031 24.5768C0.665846 23.8477 0.206316 23.0143 0.0692405 22.0391C-0.224493 19.9635 0.456969 18.2591 2.19326 17.082C3.92825 15.9062 5.76767 15.8997 7.59535 16.9297C8.10188 17.2148 8.24287 17.625 8.01963 18.0156C7.78595 18.4258 7.36689 18.4831 6.83034 18.1784C5.17629 17.2383 3.20762 17.6406 2.12277 19.1406C1.04444 20.6328 1.29901 22.6471 2.72459 23.8932C3.32512 24.418 3.30553 24.7669 2.64496 25.362C1.5366 26.3594 1.15018 27.9557 1.69326 29.2839C2.24809 30.638 3.70893 31.5924 5.12407 31.5247C6.6306 31.4531 7.90736 30.4701 8.3695 29.043C8.49091 28.6667 8.49352 28.4167 8.07185 28.1862C7.28203 27.7552 6.71023 27.082 6.29639 26.2839C6.06402 25.8359 6.15801 25.4336 6.52747 25.2187C6.91389 24.9948 7.33686 25.1172 7.58099 25.5937C8.393 27.1771 10.4361 28.0143 12.2376 27.1836C12.6907 26.974 13.1032 27.1315 13.2768 27.5091C13.4635 27.918 13.2899 28.306 12.8042 28.5273C11.9061 28.9362 10.9661 29.0716 9.95958 28.9115C9.91389 29.0326 9.86298 29.1458 9.82773 29.2656C9.09405 31.8099 6.80684 33.3047 4.18282 32.8971C3.73243 32.8268 3.58882 32.9766 3.42694 33.3242C2.31859 35.7044 3.07707 38.5195 5.2507 40.043C7.36689 41.5273 10.269 41.2799 12.1215 39.4583C12.2376 39.3438 12.3408 39.2174 12.4583 39.1042C12.7807 38.7943 13.2181 38.7656 13.5118 39.0299C13.8081 39.2969 13.8329 39.7357 13.5405 40.0807C12.675 41.1016 11.5875 41.7917 10.3081 42.1823C10.0588 42.2578 9.80292 42.3568 9.54966 42.3581C9.13321 42.3594 9.09143 42.5898 9.07316 42.9167C8.91781 45.6862 11.0888 48.194 13.9322 48.5156C16.675 48.8255 19.3512 46.8138 19.7873 44.0977C19.8643 43.6198 19.876 43.1315 19.9217 42.6185C19.4609 42.7135 19.0614 42.8307 18.6541 42.8685C18.1437 42.9167 17.8264 42.651 17.7899 42.2227C17.7533 41.793 18.0288 41.4909 18.5249 41.4193C19.4739 41.2799 19.8852 40.8112 19.8852 39.8438C19.8865 34.5052 19.8904 29.1667 19.8839 23.8281C19.8813 21.806 18.5118 20.3568 16.4844 20.2005C15.9191 20.1576 15.5875 19.8607 15.611 19.4193C15.6345 18.9688 15.9713 18.724 16.5549 18.7396C17.5993 18.7682 18.5301 19.1198 19.363 19.7409C19.5144 19.8542 19.6632 19.9727 19.8682 20.1315C19.876 19.9792 19.8865 19.8893 19.8865 19.7995C19.8865 16.1536 19.8995 12.5078 19.8799 8.86198C19.8695 6.87891 18.2089 5.32161 16.2298 5.38151C14.504 5.43359 12.9544 6.89713 12.8277 8.57422C12.8003 8.93229 12.8656 9.11719 13.2585 9.23047C14.2598 9.51953 15.1332 10.0573 15.8826 10.7839C16.2729 11.1628 16.3225 11.5716 16.0262 11.8997C15.7259 12.2331 15.2664 12.2161 14.8669 11.8294C12.1254 9.17318 7.39561 10.375 6.14104 13.6797C5.95044 14.1797 5.54966 14.3711 5.14757 14.2109C4.71415 14.0391 4.56402 13.6237 4.80162 13.1068C5.987 10.5234 8.01963 9.13932 10.846 8.89323C10.9909 8.88021 11.1371 8.89193 11.3081 8.89193C11.5379 6.39583 12.7651 4.66276 15.2311 4.06771C17.4883 3.52344 19.2742 4.41146 20.6202 6.25C22.3486 3.6849 25.9008 3.0026 28.4948 5.37109C28.97 4.73958 29.4034 4.07031 29.9269 3.48177C31.6515 1.54557 33.8147 0.410156 36.3982 0.0846354C36.5092 0.0703125 36.6162 0.0286458 36.7259 0C37.3813 0 38.034 0 38.6867 0ZM37.6358 19.1888C42.517 19.2083 46.5157 15.2435 46.5314 10.3685C46.547 5.47917 42.598 1.48958 37.7207 1.46484C32.7977 1.4401 28.7977 5.38411 28.7781 10.2852C28.7598 15.194 32.7128 19.168 37.6358 19.1888Z" fill="#136DF4"/>
<path d="M40.6567 7.32417C41.4778 7.32417 42.2272 7.32027 42.9765 7.32548C44.0196 7.33329 44.6606 7.96089 44.6697 8.99214C44.6776 9.87105 44.6763 10.75 44.6697 11.6289C44.6632 12.6692 44.0588 13.3007 43.0078 13.3307C42.2454 13.3528 41.4817 13.3346 40.658 13.3346C40.658 14.1171 40.6606 14.845 40.658 15.5729C40.6528 16.707 40.0444 17.319 38.9073 17.3268C38.0588 17.3333 37.2102 17.3359 36.3616 17.3255C35.2755 17.3138 34.6645 16.7044 34.6554 15.6289C34.6488 14.8841 34.6541 14.1406 34.6541 13.3359C33.9321 13.3359 33.2663 13.3372 32.6018 13.3359C31.1919 13.332 30.6423 12.7877 30.641 11.3919C30.641 10.5781 30.6332 9.76428 30.6436 8.95048C30.6567 7.97522 31.299 7.3385 32.2755 7.32548C33.0091 7.31636 33.7441 7.32157 34.4778 7.31897C34.5092 7.31897 34.5418 7.30594 34.6554 7.2812C34.6554 6.49475 34.6423 5.68876 34.6593 4.88277C34.6776 3.99214 35.3159 3.36063 36.2076 3.32157C36.3212 3.31636 36.436 3.31897 36.5496 3.31897C37.3812 3.31897 38.2141 3.30855 39.0457 3.32287C39.9974 3.3385 40.6397 3.97912 40.6554 4.92313C40.6658 5.70308 40.6567 6.48042 40.6567 7.32417ZM39.1893 4.81245C38.1253 4.81245 37.1528 4.81245 36.1214 4.81245C36.1214 5.64839 36.1214 6.45699 36.1214 7.26558C36.1214 8.74084 36.0731 8.78771 34.5757 8.78771C33.7663 8.78771 32.9569 8.78771 32.1397 8.78771C32.1397 9.8437 32.1397 10.8268 32.1397 11.8697C33.1123 11.8697 34.0561 11.8684 34.9987 11.8697C35.9243 11.871 36.1201 12.0651 36.1201 12.9817C36.1214 13.9205 36.1201 14.8593 36.1201 15.8281C37.1632 15.8281 38.1475 15.8281 39.1632 15.8281C39.1723 15.6393 39.1867 15.4817 39.1867 15.3229C39.1893 14.4765 39.1828 13.6302 39.1893 12.7838C39.1945 12.1263 39.4478 11.8763 40.1136 11.8697C40.9622 11.8632 41.8107 11.8697 42.6593 11.8658C42.8303 11.8645 43.0013 11.8424 43.1632 11.8294C43.1632 10.789 43.1632 9.80594 43.1632 8.78511C42.1828 8.78511 41.2389 8.78511 40.2951 8.78511C39.3864 8.78511 39.188 8.58329 39.188 7.65881C39.188 6.72261 39.1893 5.78251 39.1893 4.81245Z" fill="#136DF4"/>
</g>
<defs>
<clipPath id="clip0_68_888">
<rect width="48" height="50" fill="white"/>
</clipPath>
</defs>
</svg>
