<svg width="53" height="50" viewBox="0 0 53 50" fill="none" xmlns="http://www.w3.org/2000/svg">
<g clip-path="url(#clip0_85_78)">
<path d="M0 40.3759C0.102135 40.0885 0.191849 39.797 0.309167 39.5151C0.703906 38.5677 1.40367 37.9228 2.30909 37.4497C3.95706 36.5903 5.5857 35.6952 7.22263 34.8124C7.40068 34.7161 7.57044 34.6034 7.66844 34.5442C6.44005 32.9327 5.16612 31.394 4.03987 29.7563C2.05789 26.8741 0.717708 23.7087 0.249818 20.2202C-0.901276 11.644 4.05505 3.70022 12.0396 1.00098C19.1518 -1.40401 26.431 0.599459 31.3956 6.20696C31.4867 6.30872 31.5833 6.40635 31.7103 6.5411C31.8041 6.42972 31.8856 6.33072 31.9698 6.23446C33.3693 4.60776 35.6936 4.21175 37.4851 5.39017C38.7839 6.24546 39.9681 6.25234 41.2668 5.3943C42.9935 4.25575 45.3274 4.60639 46.6869 6.11483C47.0913 6.5631 47.1341 7.01687 46.8001 7.34551C46.4385 7.70303 46.0148 7.64253 45.551 7.1695C44.5103 6.10658 43.1922 5.95945 41.9418 6.78174C40.2317 7.90654 38.5313 7.90654 36.8171 6.78311C35.4286 5.87282 33.684 6.23309 32.9111 7.5944C32.8241 7.74703 32.8145 8.03579 32.9028 8.1788C35.8702 12.9324 36.4099 17.9926 34.8641 23.3224C34.8447 23.3884 34.8254 23.453 34.8089 23.519C34.8047 23.5341 34.8102 23.552 34.813 23.5822C35.6756 23.3939 36.53 23.1518 37.3995 23.0267C41.1288 22.4932 44.52 23.3622 47.5358 25.6063C47.9567 25.9198 48.2176 25.9047 48.5875 25.5885C49.5205 24.7895 49.8007 23.6317 49.3217 22.3612C48.7338 20.8032 48.9367 19.3608 49.9525 18.0394C50.1085 17.8359 50.3017 17.6599 50.4866 17.4797C52.0932 15.9121 51.5632 13.5388 49.4294 12.8403C48.2245 12.4456 47.2832 11.7595 46.7062 10.6223C46.4219 10.0626 46.7394 9.42048 47.3122 9.46586C47.5841 9.48786 47.9305 9.71337 48.0754 9.9485C48.495 10.6305 49.0457 11.0898 49.8076 11.3263C51.548 11.8653 52.6011 13.0176 52.9186 14.8176C52.9296 14.8822 52.971 14.9427 52.9972 15.006C52.9972 15.3154 52.9972 15.6248 52.9972 15.9341C52.7626 16.8733 52.4617 17.7877 51.7054 18.4491C50.5308 19.4763 50.3086 20.6602 50.869 22.1082C51.5218 23.7954 50.9545 25.6311 49.5481 26.793C49.4473 26.8755 49.3507 26.9649 49.2375 27.0639C49.3535 27.1973 49.4418 27.3004 49.5315 27.4008C50.9725 29.0206 51.9938 30.8687 52.5376 32.9643C52.7378 33.7384 52.8482 34.536 52.9986 35.3225C52.9986 36.0788 52.9986 36.8351 52.9986 37.5914C52.7571 38.6598 52.6039 39.7571 52.2588 40.7898C49.613 48.6922 40.378 52.3334 32.9966 48.4104C32.7468 48.277 32.5646 48.1807 32.2665 48.398C30.9484 49.3523 29.5296 49.443 28.0721 48.7294C24.7278 47.0931 21.4843 45.2752 18.3871 43.2085C18.0062 42.9541 17.7647 42.983 17.392 43.2154C15.6102 44.3278 13.8048 45.4003 12.0092 46.4894C11.6683 46.6957 11.2873 46.7809 11.021 46.4605C10.8512 46.2556 10.7504 45.8912 10.8043 45.6382C10.8512 45.4224 11.1383 45.2243 11.3619 45.0855C13.1782 43.9648 15.0332 42.9019 16.822 41.7399C19.9343 39.7172 22.848 37.4346 25.4883 34.822C25.734 34.5786 25.9162 34.206 25.9893 33.8636C26.8285 29.9859 28.9112 26.9773 32.2872 24.8734C32.6502 24.6479 32.8697 24.3839 33.0049 23.9948C35.0725 18.06 34.4321 12.535 30.4805 7.5229C29.2494 5.9622 27.4496 4.48813 25.9645 3.7181C25.9479 3.7401 25.912 3.7731 25.9176 3.7841C27.1694 6.06533 27.3654 8.52944 27.0907 11.0431C26.6587 14.9964 25.4635 18.7283 23.5215 22.2031C21.6734 25.5101 19.0745 28.1805 16.1581 30.5607C12.1638 33.821 7.77471 36.4624 3.16344 38.7519C2.50784 39.0778 1.96404 39.4917 1.7018 40.2012C1.47682 40.8118 1.50443 41.4168 1.77081 42.0067C2.40708 43.4148 3.03508 44.827 3.69344 46.2254C4.30073 47.5152 5.65195 47.9841 6.95211 47.3846C7.24885 47.2471 7.53594 47.0876 7.83406 46.9555C8.31713 46.741 8.73672 46.873 8.93409 47.2869C9.1218 47.6788 8.97411 48.0776 8.53797 48.3224C7.48487 48.9136 6.39588 49.3812 5.14542 49.1281C3.84526 48.8641 2.86393 48.1463 2.31599 46.9404C1.51823 45.1762 0.770156 43.39 0 41.6134C0 41.2009 0 40.7884 0 40.3759ZM39.3939 48.4461C46.0438 48.4392 51.4431 43.0614 51.4459 36.4446C51.4486 29.8113 46.0134 24.3949 39.3635 24.4059C32.7275 24.4155 27.324 29.8072 27.3198 36.424C27.3157 43.0751 32.7178 48.453 39.3939 48.4461ZM9.97891 3.59984C9.70286 3.75523 9.55242 3.8336 9.4075 3.92161C3.3194 7.62465 0.426484 14.7131 2.12552 21.7947C3.04336 25.6215 5.03776 28.8831 7.5387 31.8684C8.05213 32.4816 8.5987 33.0702 9.13008 33.6697C11.856 31.9495 14.4121 30.1303 16.7599 27.9921C16.6011 27.8271 16.4838 27.7019 16.3637 27.5809C14.6978 25.8951 13.2638 24.0278 12.1237 21.9542C10.531 19.0569 9.49031 15.952 8.92581 12.7041C8.39029 9.63087 8.32956 6.5851 9.97891 3.59984ZM24.4973 15.875C24.5718 15.6358 24.645 15.4295 24.7016 15.2191C25.4221 12.568 25.93 9.8935 25.4621 7.13238C25.0066 4.44413 23.5367 2.62493 20.8342 1.91539C19.1242 1.46575 17.381 1.43137 15.6543 1.76139C12.5323 2.35679 10.8871 4.06324 10.3226 7.19288C9.95268 9.24172 10.2011 11.2672 10.6152 13.2775C10.7932 14.1424 11.0389 14.9936 11.2804 15.9562C12.3915 12.9695 14.3707 11.1751 17.4693 11.0114C20.9723 10.8258 23.2372 12.6491 24.4973 15.875ZM17.9234 26.958C18.677 26.1096 19.4126 25.3396 20.082 24.5132C21.4112 22.8727 22.5747 21.1278 23.0177 19.0198C23.4704 16.8609 22.877 15.0115 21.1282 13.6447C19.414 12.3054 17.4955 12.1404 15.537 13.0823C13.0899 14.2593 12.0478 17.0108 12.9795 19.8077C13.9166 22.6238 15.8117 24.8005 17.9234 26.958ZM31.1844 47.2814C27.7726 44.5808 25.9755 41.0992 25.7478 36.8722C23.6043 38.5952 21.4885 40.2947 19.3533 42.0108C19.9095 42.3628 20.4602 42.7492 21.044 43.0751C23.5988 44.5024 26.1591 45.9174 28.7249 47.3227C29.5185 47.7572 30.3246 47.7531 31.1844 47.2814Z" fill="#136DF4"/>
<path d="M43.8603 21.0949C42.4483 21.0852 41.3041 19.9398 41.3027 18.5331C41.3014 17.1127 42.4856 15.9384 43.903 15.9535C45.3053 15.9686 46.4633 17.1319 46.4661 18.5249C46.4689 19.9453 45.2943 21.1031 43.8603 21.0949ZM44.912 18.5455C44.9216 18.0065 44.4579 17.5225 43.9113 17.5046C43.3689 17.4867 42.8817 17.9419 42.8582 18.4878C42.8334 19.0612 43.2985 19.5438 43.8782 19.5466C44.4317 19.5479 44.9009 19.0914 44.912 18.5455Z" fill="#136DF4"/>
<path d="M37.053 12.5489C37.0461 11.1119 38.1972 9.95551 39.6299 9.95826C41.0322 9.96101 42.1943 11.1078 42.2108 12.5076C42.2274 13.9129 41.0377 15.1037 39.6202 15.1024C38.2096 15.0996 37.0599 13.9542 37.053 12.5489ZM39.6092 11.5066C39.0516 11.5148 38.6071 11.9713 38.6071 12.531C38.6085 13.0865 39.0612 13.5472 39.6133 13.5527C40.1778 13.5595 40.6719 13.059 40.6526 12.5007C40.6347 11.9535 40.1557 11.497 39.6092 11.5066Z" fill="#136DF4"/>
<path d="M42.716 33.1444C43.9236 33.1444 45.0264 33.1402 46.1306 33.1457C47.2003 33.1512 47.7468 33.6889 47.7579 34.7656C47.7689 35.8821 47.7689 37 47.7579 38.1166C47.7468 39.1768 47.1823 39.735 46.1209 39.7433C45.0016 39.7529 43.8822 39.7447 42.6884 39.7447C42.6884 40.3249 42.6884 40.8681 42.6884 41.4126C42.687 42.0479 42.7035 42.6846 42.6801 43.3198C42.6483 44.1999 42.088 44.7719 41.2088 44.7898C40.0025 44.8145 38.7934 44.8118 37.5871 44.7911C36.661 44.776 36.0937 44.1985 36.0703 43.2497C36.0468 42.2885 36.0634 41.3246 36.0634 40.3621C36.0634 40.1764 36.0634 39.9908 36.0634 39.7419C35.2794 39.7419 34.5438 39.7419 33.8067 39.7419C33.3927 39.7419 32.9786 39.7502 32.5645 39.7392C31.6191 39.7144 31.0256 39.1754 31.0008 38.2445C30.969 37.0427 30.9704 35.8381 30.9994 34.6363C31.0215 33.6903 31.6025 33.1526 32.5494 33.1444C33.5321 33.1347 34.5162 33.1416 35.4989 33.1416C35.6659 33.1416 35.8342 33.1416 36.0634 33.1416C36.0634 32.0911 36.0592 31.0997 36.0661 30.1069C36.0675 29.8153 36.0675 29.5197 36.1172 29.2351C36.229 28.5915 36.7507 28.113 37.4063 28.102C38.7161 28.0786 40.0287 28.0759 41.3385 28.1006C42.1142 28.1158 42.6566 28.6988 42.6787 29.5211C42.7049 30.5345 42.687 31.5493 42.6911 32.5627C42.6884 32.7497 42.7049 32.9326 42.716 33.1444ZM37.6133 29.6641C37.6133 29.869 37.6133 30.0532 37.6133 30.2375C37.6133 31.1657 37.6202 32.0938 37.612 33.0206C37.6023 34.1385 37.0447 34.6831 35.9129 34.6899C34.9992 34.6954 34.0841 34.6913 33.1704 34.6913C32.9731 34.6913 32.7757 34.6913 32.577 34.6913C32.577 35.9027 32.577 37.0275 32.577 38.1977C33.7488 38.1977 34.8833 38.1922 36.0192 38.1991C37.0323 38.2046 37.5926 38.745 37.6092 39.7488C37.6258 40.7278 37.612 41.7069 37.6147 42.6873C37.6147 42.8674 37.6354 43.0476 37.6451 43.2085C38.839 43.2085 39.968 43.2085 41.1342 43.2085C41.1342 42.9788 41.1342 42.7918 41.1342 42.6048C41.1342 41.6601 41.1204 40.7141 41.1398 39.7694C41.1605 38.7574 41.7222 38.2115 42.7201 38.1991C43.2722 38.1922 43.8243 38.1977 44.3764 38.1977C44.974 38.1977 45.5702 38.1977 46.1775 38.1977C46.1775 36.9959 46.1775 35.8697 46.1775 34.6913C45.9622 34.6913 45.7759 34.6913 45.5909 34.6913C44.6248 34.6913 43.6586 34.7051 42.6939 34.6858C41.7512 34.6679 41.1936 34.1124 41.1411 33.176C41.126 32.9024 41.1356 32.626 41.1356 32.351C41.1356 31.4627 41.1356 30.5758 41.1356 29.6627C39.9404 29.6641 38.8086 29.6641 37.6133 29.6641Z" fill="#136DF4"/>
</g>
<defs>
<clipPath id="clip0_85_78">
<rect width="53" height="50" fill="white"/>
</clipPath>
</defs>
</svg>
