<svg width="75" height="75" viewBox="0 0 75 75" fill="none" xmlns="http://www.w3.org/2000/svg">
<path d="M66.7969 9.375H60.9375V7.03125C60.9375 5.78805 60.4436 4.59576 59.5646 3.71669C58.6855 2.83761 57.4932 2.34375 56.25 2.34375C55.0068 2.34375 53.8145 2.83761 52.9354 3.71669C52.0564 4.59576 51.5625 5.78805 51.5625 7.03125V9.375H42.1875V7.03125C42.1875 5.78805 41.6936 4.59576 40.8146 3.71669C39.9355 2.83761 38.7432 2.34375 37.5 2.34375C36.2568 2.34375 35.0645 2.83761 34.1854 3.71669C33.3064 4.59576 32.8125 5.78805 32.8125 7.03125V9.375H23.4375V7.03125C23.4375 5.78805 22.9436 4.59576 22.0646 3.71669C21.1855 2.83761 19.9932 2.34375 18.75 2.34375C17.5068 2.34375 16.3145 2.83761 15.4354 3.71669C14.5564 4.59576 14.0625 5.78805 14.0625 7.03125V9.375H8.20312C6.64912 9.375 5.15877 9.99233 4.05992 11.0912C2.96108 12.19 2.34375 13.6804 2.34375 15.2344V62.1094C2.34375 63.6634 2.96108 65.1537 4.05992 66.2526C5.15877 67.3514 6.64912 67.9688 8.20312 67.9688H41.0156C41.3264 67.9688 41.6245 67.8453 41.8443 67.6255C42.064 67.4057 42.1875 67.1077 42.1875 66.7969C42.1875 66.4861 42.064 66.188 41.8443 65.9682C41.6245 65.7485 41.3264 65.625 41.0156 65.625H8.20312C7.27158 65.6222 6.37898 65.2509 5.72028 64.5922C5.06157 63.9335 4.69028 63.0409 4.6875 62.1094V25.7812H70.3125V45.7031C70.3125 46.0139 70.436 46.312 70.6557 46.5318C70.8755 46.7515 71.1736 46.875 71.4844 46.875C71.7952 46.875 72.0932 46.7515 72.313 46.5318C72.5328 46.312 72.6562 46.0139 72.6562 45.7031V15.2344C72.6562 13.6804 72.0389 12.19 70.9401 11.0912C69.8412 9.99233 68.3509 9.375 66.7969 9.375ZM53.9062 7.03125C53.9062 6.40965 54.1532 5.81351 54.5927 5.37397C55.0323 4.93443 55.6284 4.6875 56.25 4.6875C56.8716 4.6875 57.4677 4.93443 57.9073 5.37397C58.3468 5.81351 58.5938 6.40965 58.5938 7.03125V14.0625C58.5938 14.6841 58.3468 15.2802 57.9073 15.7198C57.4677 16.1593 56.8716 16.4062 56.25 16.4062C55.6284 16.4062 55.0323 16.1593 54.5927 15.7198C54.1532 15.2802 53.9062 14.6841 53.9062 14.0625V7.03125ZM35.1562 7.03125C35.1562 6.40965 35.4032 5.81351 35.8427 5.37397C36.2823 4.93443 36.8784 4.6875 37.5 4.6875C38.1216 4.6875 38.7177 4.93443 39.1573 5.37397C39.5968 5.81351 39.8438 6.40965 39.8438 7.03125V14.0625C39.8438 14.6841 39.5968 15.2802 39.1573 15.7198C38.7177 16.1593 38.1216 16.4062 37.5 16.4062C36.8784 16.4062 36.2823 16.1593 35.8427 15.7198C35.4032 15.2802 35.1562 14.6841 35.1562 14.0625V7.03125ZM16.4062 7.03125C16.4062 6.40965 16.6532 5.81351 17.0927 5.37397C17.5323 4.93443 18.1284 4.6875 18.75 4.6875C19.3716 4.6875 19.9677 4.93443 20.4073 5.37397C20.8468 5.81351 21.0938 6.40965 21.0938 7.03125V14.0625C21.0938 14.6841 20.8468 15.2802 20.4073 15.7198C19.9677 16.1593 19.3716 16.4062 18.75 16.4062C18.1284 16.4062 17.5323 16.1593 17.0927 15.7198C16.6532 15.2802 16.4062 14.6841 16.4062 14.0625V7.03125ZM70.3125 23.4375H4.6875V15.2344C4.69028 14.3028 5.06157 13.4102 5.72028 12.7515C6.37898 12.0928 7.27158 11.7215 8.20312 11.7188H14.0625V14.0625C14.0625 15.3057 14.5564 16.498 15.4354 17.3771C16.3145 18.2561 17.5068 18.75 18.75 18.75C19.9932 18.75 21.1855 18.2561 22.0646 17.3771C22.9436 16.498 23.4375 15.3057 23.4375 14.0625V11.7188H32.8125V14.0625C32.8125 15.3057 33.3064 16.498 34.1854 17.3771C35.0645 18.2561 36.2568 18.75 37.5 18.75C38.7432 18.75 39.9355 18.2561 40.8146 17.3771C41.6936 16.498 42.1875 15.3057 42.1875 14.0625V11.7188H51.5625V14.0625C51.5625 15.3057 52.0564 16.498 52.9354 17.3771C53.8145 18.2561 55.0068 18.75 56.25 18.75C57.4932 18.75 58.6855 18.2561 59.5646 17.3771C60.4436 16.498 60.9375 15.3057 60.9375 14.0625V11.7188H66.7969C67.7284 11.7215 68.621 12.0928 69.2797 12.7515C69.9384 13.4102 70.3097 14.3028 70.3125 15.2344V23.4375Z" fill="#1F2937"/>
<path d="M35.1562 33.9844C35.1562 33.3628 34.9093 32.7666 34.4698 32.3271C34.0302 31.8876 33.4341 31.6406 32.8125 31.6406H28.125C27.5034 31.6406 26.9073 31.8876 26.4677 32.3271C26.0282 32.7666 25.7812 33.3628 25.7812 33.9844V37.5C25.7812 38.1216 26.0282 38.7177 26.4677 39.1573C26.9073 39.5968 27.5034 39.8438 28.125 39.8438H32.8125C33.4341 39.8438 34.0302 39.5968 34.4698 39.1573C34.9093 38.7177 35.1562 38.1216 35.1562 37.5V33.9844ZM28.125 37.5V33.9844H32.8125V37.5H28.125Z" fill="#1F2937"/>
<path d="M21.0938 33.9844C21.0938 33.3628 20.8468 32.7666 20.4073 32.3271C19.9677 31.8876 19.3716 31.6406 18.75 31.6406H14.0625C13.4409 31.6406 12.8448 31.8876 12.4052 32.3271C11.9657 32.7666 11.7188 33.3628 11.7188 33.9844V37.5C11.7188 38.1216 11.9657 38.7177 12.4052 39.1573C12.8448 39.5968 13.4409 39.8438 14.0625 39.8438H18.75C19.3716 39.8438 19.9677 39.5968 20.4073 39.1573C20.8468 38.7177 21.0938 38.1216 21.0938 37.5V33.9844ZM14.0625 37.5V33.9844H18.75V37.5H14.0625Z" fill="#1F2937"/>
<path d="M60.9375 39.8438C61.5591 39.8438 62.1552 39.5968 62.5948 39.1573C63.0343 38.7177 63.2812 38.1216 63.2812 37.5V33.9844C63.2812 33.3628 63.0343 32.7666 62.5948 32.3271C62.1552 31.8876 61.5591 31.6406 60.9375 31.6406H56.25C55.6284 31.6406 55.0323 31.8876 54.5927 32.3271C54.1532 32.7666 53.9062 33.3628 53.9062 33.9844V37.5C53.9062 38.1216 54.1532 38.7177 54.5927 39.1573C55.0323 39.5968 55.6284 39.8438 56.25 39.8438H60.9375ZM56.25 33.9844H60.9375V37.5H56.25V33.9844Z" fill="#1F2937"/>
<path d="M35.1562 44.5312C35.1562 43.9096 34.9093 43.3135 34.4698 42.874C34.0302 42.4344 33.4341 42.1875 32.8125 42.1875H28.125C27.5034 42.1875 26.9073 42.4344 26.4677 42.874C26.0282 43.3135 25.7812 43.9096 25.7812 44.5312V48.0469C25.7812 48.6685 26.0282 49.2646 26.4677 49.7042C26.9073 50.1437 27.5034 50.3906 28.125 50.3906H32.8125C33.4341 50.3906 34.0302 50.1437 34.4698 49.7042C34.9093 49.2646 35.1562 48.6685 35.1562 48.0469V44.5312ZM28.125 48.0469V44.5312H32.8125V48.0469H28.125Z" fill="#1F2937"/>
<path d="M21.0938 44.5312C21.0938 43.9096 20.8468 43.3135 20.4073 42.874C19.9677 42.4344 19.3716 42.1875 18.75 42.1875H14.0625C13.4409 42.1875 12.8448 42.4344 12.4052 42.874C11.9657 43.3135 11.7188 43.9096 11.7188 44.5312V48.0469C11.7188 48.6685 11.9657 49.2646 12.4052 49.7042C12.8448 50.1437 13.4409 50.3906 14.0625 50.3906H18.75C19.3716 50.3906 19.9677 50.1437 20.4073 49.7042C20.8468 49.2646 21.0938 48.6685 21.0938 48.0469V44.5312ZM14.0625 48.0469V44.5312H18.75V48.0469H14.0625Z" fill="#1F2937"/>
<path d="M32.8125 52.7344H28.125C27.5034 52.7344 26.9073 52.9813 26.4677 53.4208C26.0282 53.8604 25.7812 54.4565 25.7812 55.0781V58.5938C25.7812 59.2154 26.0282 59.8115 26.4677 60.251C26.9073 60.6906 27.5034 60.9375 28.125 60.9375H32.8125C33.4341 60.9375 34.0302 60.6906 34.4698 60.251C34.9093 59.8115 35.1562 59.2154 35.1562 58.5938V55.0781C35.1562 54.4565 34.9093 53.8604 34.4698 53.4208C34.0302 52.9813 33.4341 52.7344 32.8125 52.7344ZM28.125 58.5938V55.0781H32.8125V58.5938H28.125Z" fill="#1F2937"/>
<path d="M42.1875 39.8438H46.875C47.4966 39.8438 48.0927 39.5968 48.5323 39.1573C48.9718 38.7177 49.2188 38.1216 49.2188 37.5V33.9844C49.2188 33.3628 48.9718 32.7666 48.5323 32.3271C48.0927 31.8876 47.4966 31.6406 46.875 31.6406H42.1875C41.5659 31.6406 40.9698 31.8876 40.5302 32.3271C40.0907 32.7666 39.8438 33.3628 39.8438 33.9844V37.5C39.8438 38.1216 40.0907 38.7177 40.5302 39.1573C40.9698 39.5968 41.5659 39.8438 42.1875 39.8438ZM42.1875 33.9844H46.875V37.5H42.1875V33.9844Z" fill="#1F2937"/>
<path d="M39.8438 48.0469C39.8438 48.6685 40.0907 49.2646 40.5302 49.7042C40.9698 50.1437 41.5659 50.3906 42.1875 50.3906C42.4983 50.3906 42.7964 50.2672 43.0161 50.0474C43.2359 49.8276 43.3594 49.5296 43.3594 49.2188C43.3594 48.9079 43.2359 48.6099 43.0161 48.3901C42.7964 48.1703 42.4983 48.0469 42.1875 48.0469V44.5312H46.875C47.1858 44.5312 47.4839 44.4078 47.7036 44.188C47.9234 43.9682 48.0469 43.6702 48.0469 43.3594C48.0469 43.0486 47.9234 42.7505 47.7036 42.5307C47.4839 42.311 47.1858 42.1875 46.875 42.1875H42.1875C41.5659 42.1875 40.9698 42.4344 40.5302 42.874C40.0907 43.3135 39.8438 43.9096 39.8438 44.5312V48.0469Z" fill="#1F2937"/>
<path d="M18.75 52.7344H14.0625C13.4409 52.7344 12.8448 52.9813 12.4052 53.4208C11.9657 53.8604 11.7188 54.4565 11.7188 55.0781V58.5938C11.7188 59.2154 11.9657 59.8115 12.4052 60.251C12.8448 60.6906 13.4409 60.9375 14.0625 60.9375H18.75C19.3716 60.9375 19.9677 60.6906 20.4073 60.251C20.8468 59.8115 21.0938 59.2154 21.0938 58.5938V55.0781C21.0938 54.4565 20.8468 53.8604 20.4073 53.4208C19.9677 52.9813 19.3716 52.7344 18.75 52.7344ZM14.0625 58.5938V55.0781H18.75V58.5938H14.0625Z" fill="#1F2937"/>
<path d="M57.4219 42.1875C54.4088 42.1875 51.4634 43.081 48.9581 44.755C46.4528 46.4289 44.5002 48.8082 43.3472 51.5919C42.1941 54.3757 41.8924 57.4388 42.4802 60.394C43.0681 63.3491 44.519 66.0636 46.6496 68.1942C48.7801 70.3248 51.4946 71.7757 54.4498 72.3635C57.405 72.9513 60.4681 72.6497 63.2518 71.4966C66.0355 70.3435 68.4148 68.3909 70.0888 65.8856C71.7628 63.3804 72.6563 60.4349 72.6563 57.4219C72.6516 53.3829 71.0451 49.5107 68.1891 46.6547C65.3331 43.7987 61.4609 42.1922 57.4219 42.1875ZM57.4219 70.3125C54.8724 70.3125 52.3801 69.5565 50.2602 68.14C48.1404 66.7236 46.4882 64.7104 45.5125 62.3549C44.5368 59.9995 44.2816 57.4076 44.7789 54.907C45.2763 52.4065 46.504 50.1096 48.3068 48.3068C50.1096 46.504 52.4065 45.2763 54.907 44.7789C57.4076 44.2816 59.9995 44.5368 62.3549 45.5125C64.7104 46.4882 66.7236 48.1404 68.14 50.2602C69.5565 52.3801 70.3125 54.8723 70.3125 57.4219C70.3085 60.8394 68.9491 64.1159 66.5325 66.5325C64.1159 68.9491 60.8395 70.3085 57.4219 70.3125Z" fill="#1F2937"/>
<path d="M64.1926 52.5091L55.0778 61.624L50.9352 57.4802C50.7142 57.2668 50.4182 57.1486 50.1109 57.1513C49.8037 57.154 49.5097 57.2772 49.2925 57.4945C49.0752 57.7118 48.9519 58.0057 48.9493 58.313C48.9466 58.6202 49.0647 58.9162 49.2782 59.1373L54.2493 64.1095C54.469 64.3292 54.767 64.4526 55.0778 64.4526C55.3885 64.4526 55.6865 64.3292 55.9063 64.1095L65.8497 54.1662C66.0631 53.9451 66.1812 53.6491 66.1786 53.3419C66.1759 53.0346 66.0527 52.7407 65.8354 52.5234C65.6181 52.3061 65.3242 52.1829 65.0169 52.1802C64.7097 52.1776 64.4136 52.2957 64.1926 52.5091Z" fill="#1F2937"/>
</svg>
