<svg width="50" height="50" viewBox="0 0 50 50" fill="none" xmlns="http://www.w3.org/2000/svg">
<g clip-path="url(#clip0_660_2887)">
<path d="M45.8615 14.259V8.00935C45.8615 7.59927 45.5289 7.26663 45.1188 7.26663H41.0832V0.645067C41.0832 0.234986 40.7506 -0.0976562 40.3405 -0.0976562H10.6384C10.2284 -0.0976562 9.89611 0.234986 9.89611 0.645067V7.26663H5.86015C5.45007 7.26663 5.11781 7.59927 5.11781 8.00935V19.7319H4.46168C2.53983 19.7319 0.976562 21.2956 0.976562 23.2174V46.4169C0.976562 48.3388 2.53983 49.9024 4.46168 49.9024H39.7031C39.7046 49.9024 39.7057 49.9021 39.7073 49.9021H45.5811C47.503 49.9021 49.0663 48.3388 49.0663 46.4169V17.7319C49.0663 15.9046 47.6525 14.4024 45.8615 14.259ZM11.3812 1.38741H39.5982V14.2468H36.3038V8.00935C36.3038 7.59927 35.9715 7.26663 35.5614 7.26663H11.3812V1.38741ZM2.46163 46.4173V23.2174C2.46163 22.1146 3.35885 21.2174 4.46168 21.2174H7.36886C7.77894 21.2174 8.11121 20.8847 8.11121 20.4747C8.11121 20.0646 7.77894 19.7319 7.36886 19.7319H6.60287V8.7517H34.8187V14.2468H27.2893C25.3674 14.2468 23.8041 15.81 23.8041 17.7319C23.8041 18.8347 22.9069 19.7319 21.8037 19.7319H10.3394C9.92929 19.7319 9.59665 20.0646 9.59665 20.4747C9.59665 20.8847 9.92929 21.2174 10.3394 21.2174H21.8037C23.7256 21.2174 25.2892 19.6537 25.2892 17.7319C25.2892 16.6291 26.1864 15.7318 27.2893 15.7318H39.7031C40.8063 15.7318 41.7035 16.6291 41.7035 17.7319V46.4173C41.7035 47.5194 40.807 48.4162 39.705 48.4174H39.7027C39.7023 48.4174 39.7015 48.4174 39.7008 48.4174H4.46168C3.35885 48.4174 2.46163 47.5202 2.46163 46.4173ZM47.5812 46.4173C47.5812 47.5198 46.684 48.4174 45.5811 48.4174H42.5549C42.9013 47.9249 43.1233 47.3393 43.1756 46.7065H45.1188C45.5289 46.7065 45.8615 46.3738 45.8615 45.9638V26.2761C45.8615 25.866 45.5289 25.5337 45.1188 25.5337C44.7087 25.5337 44.3761 25.866 44.3761 26.2761V45.221H43.1886V17.7319C43.1886 16.3002 42.3203 15.0677 41.0832 14.5321V8.7517H44.3761V23.3059C44.3761 23.716 44.7087 24.0483 45.1188 24.0483C45.5289 24.0483 45.8615 23.716 45.8615 23.3059V15.754C46.8316 15.8909 47.5812 16.7244 47.5812 17.7319V46.4173Z" fill="#136DF4"/>
<path d="M10.5158 12.6133H28.3369C28.747 12.6133 29.0793 12.2807 29.0793 11.8706C29.0793 11.4605 28.747 11.1279 28.3369 11.1279H10.5158C10.1057 11.1279 9.77344 11.4605 9.77344 11.8706C9.77344 12.2807 10.1057 12.6133 10.5158 12.6133Z" fill="#136DF4"/>
<path d="M10.5158 16.3258H20.7102C21.1203 16.3258 21.4525 15.9935 21.4525 15.5834C21.4525 15.173 21.1203 14.8407 20.7102 14.8407H10.5158C10.1057 14.8407 9.77344 15.173 9.77344 15.5834C9.77344 15.9935 10.1057 16.3258 10.5158 16.3258Z" fill="#136DF4"/>
<path d="M38.8826 23.7511H23.4377C23.0276 23.7511 22.6953 24.0837 22.6953 24.4938V29.9885C22.6953 30.3986 23.0276 30.7312 23.4377 30.7312H38.8826C39.2927 30.7312 39.6254 30.3986 39.6254 29.9885V24.4938C39.6254 24.0837 39.2927 23.7511 38.8826 23.7511ZM38.1403 29.2458H24.1804V25.2362H38.1403V29.2458Z" fill="#136DF4"/>
</g>
<defs>
<clipPath id="clip0_660_2887">
<rect width="50" height="50" fill="white"/>
</clipPath>
</defs>
</svg>
