<svg width="50" height="50" viewBox="0 0 50 50" fill="none" xmlns="http://www.w3.org/2000/svg">
<g clip-path="url(#clip0_403_732)">
<path d="M35.8636 18.8887H38.0652C38.6208 18.8887 39.0729 18.4366 39.0729 17.881V16.3403H40.6136C41.1691 16.3403 41.6212 15.8883 41.6212 15.3327V13.1309C41.6212 12.5754 41.1691 12.1233 40.6136 12.1233H39.0729V10.5826C39.0729 10.027 38.6208 9.57498 38.0652 9.57498H35.8636C35.308 9.57498 34.856 10.027 34.856 10.5826V12.1233H33.3152C32.7597 12.1233 32.3076 12.5754 32.3076 13.1309V15.3327C32.3076 15.8883 32.7597 16.3403 33.3152 16.3403H34.856V17.881C34.856 18.4366 35.308 18.8887 35.8636 18.8887ZM33.7724 14.8755V13.5881H35.3131C35.8687 13.5881 36.3207 13.136 36.3207 12.5805V11.0397H37.608V12.5805C37.608 13.136 38.0601 13.5881 38.6156 13.5881H40.1563V14.8755H38.6156C38.0601 14.8755 37.608 15.3275 37.608 15.8831V17.4238H36.3207V15.8831C36.3207 15.3275 35.8687 14.8755 35.3131 14.8755H33.7724Z" fill="white"/>
<path d="M49.1808 7.38327C48.2774 5.61853 46.7408 4.3114 44.854 3.70251C41.9904 2.77839 38.9033 3.6612 36.9646 5.90251C35.0364 3.67087 31.967 2.78552 29.1129 3.69099C29.0865 3.67331 29.0602 3.6571 29.0346 3.64304C28.3829 3.28601 27.6575 3.69528 26.7391 4.21355C26.2653 4.48093 25.7104 4.79411 25.1815 4.98112C25.7645 2.23161 25.3951 1.48952 24.942 1.13972C24.7706 1.00749 24.298 0.739523 23.613 1.10759C22.7276 1.58347 21.9685 2.15329 21.2344 2.70427C19.8141 3.77028 18.4726 4.77722 16.3465 4.99802C15.1676 5.12048 13.0922 5.59734 12.4379 7.41423C12.4096 7.49245 12.388 7.57214 12.3714 7.65241C9.28933 9.78025 7.38894 13.2427 7.38894 16.7721C7.38894 16.8586 7.3908 16.9447 7.39295 17.0307C6.75027 17.0901 6.14275 17.3579 5.64773 17.8147C4.85379 18.5475 4.49158 19.6278 4.65408 20.779C4.91013 22.5881 6.32302 24.1096 8.01541 24.5184C8.0658 25.681 8.50974 26.7145 9.32302 27.5825C7.1698 27.5524 5.23504 27.211 3.83484 26.5947C2.78601 26.1324 1.71511 26.2676 0.970289 26.9559C0.147535 27.7164 -0.104027 29.0086 0.329371 30.248C0.746168 31.4401 2.39588 34.2216 8.7575 34.8301C8.69382 35.0043 8.57263 35.3562 8.57185 35.3588C8.42322 35.7974 8.28982 36.2323 8.17439 36.6597C8.15613 36.7281 8.10798 36.7891 8.0405 36.8279C7.36336 37.22 6.73543 37.6481 6.17429 38.1008C5.85935 38.3547 5.81004 38.8157 6.06394 39.1306C6.20867 39.3101 6.42068 39.4033 6.63455 39.4033C6.79597 39.4033 6.95847 39.3502 7.09382 39.241C7.57107 38.8561 8.10525 38.4897 8.68045 38.1512C9.58445 38.9863 10.4172 40.301 10.9642 41.7815C11.573 43.4292 11.757 45.0582 11.4992 46.4362L5.22507 47.4316C4.39129 47.5639 3.55711 47.2282 3.04754 46.555L1.55144 44.5766C1.42673 44.4117 1.46658 44.2424 1.48953 44.1773C1.51228 44.1126 1.58689 43.9565 1.7866 43.9064C2.25486 43.7886 2.67498 43.7424 3.03484 43.7684C3.66716 43.8135 4.25349 43.4017 4.43015 42.7863C4.54148 42.3969 4.72976 41.9839 4.98963 41.5585C5.20056 41.2134 5.09168 40.7626 4.74656 40.5517C4.40125 40.3407 3.95046 40.4495 3.73972 40.7948C3.4282 41.3046 3.19509 41.8112 3.04597 42.3016C2.55447 42.2781 2.01121 42.3396 1.42957 42.4858C0.813258 42.6406 0.319215 43.091 0.107985 43.6907C-0.103441 44.2911 -0.000609038 44.9525 0.38318 45.4601L1.87947 47.4388C2.71638 48.5445 4.0865 49.0966 5.45506 48.8784L11.7545 47.8789C11.7937 47.8726 11.8336 47.8753 11.8719 47.8855C12.1355 47.9644 13.9902 49.0789 18.1933 49.0789H19.2314C23.8177 49.0789 25.3361 47.8254 25.6721 47.8794L31.9685 48.8784C33.3377 49.0954 34.7077 48.5443 35.5446 47.4385L37.0401 45.4608C37.4244 44.9537 37.5278 44.2926 37.3166 43.692C37.1055 43.0917 36.6112 42.6408 35.9945 42.4859C35.4131 42.3396 34.8702 42.2781 34.3787 42.3016C33.7788 40.3335 31.9183 38.293 29.3815 36.827C29.316 36.7893 29.2676 36.7276 29.249 36.6586C29.1351 36.2348 29.0021 35.8006 28.8528 35.3604C28.8514 35.3561 28.85 35.3519 28.8486 35.3476C28.7902 35.1759 28.73 35.0036 28.6665 34.8302C35.0275 34.2224 36.6781 31.4404 37.0949 30.2484C37.5283 29.0089 37.2766 27.7166 36.4539 26.956C35.709 26.2675 34.638 26.1324 33.5891 26.5947C32.1829 27.2141 30.2359 27.5556 28.0675 27.5829C28.8884 26.7188 29.3552 25.686 29.4082 24.5189C30.6964 24.2084 31.8219 23.2524 32.3995 22.0152C32.6635 22.2257 34.8478 23.9635 35.7582 24.6969C36.1078 24.9783 36.5361 25.1188 36.9645 25.1188C37.3928 25.1188 37.8213 24.9782 38.1707 24.6969C39.1151 23.9369 42.4802 21.2688 43.2137 20.6738C43.5279 20.419 43.576 19.9577 43.3213 19.6436C43.0665 19.3296 42.6053 19.2812 42.2911 19.5361C41.5638 20.126 38.201 22.7925 37.2523 23.5558C37.0857 23.6901 36.8436 23.6902 36.677 23.556C35.7634 22.8201 33.222 20.798 32.8003 20.4607C32.86 19.4307 32.4967 18.4796 31.7763 17.8148C31.2814 17.3578 30.6737 17.0901 30.031 17.0306C30.1034 14.2251 28.9744 11.4702 27.012 9.3531C28.3909 7.9531 29.4465 6.21052 29.6021 5.07302C32.0535 4.31696 34.6928 5.19929 36.1927 7.28669C36.3721 7.53562 36.6596 7.68376 36.967 7.68298C37.2719 7.6823 37.5602 7.53308 37.7368 7.28591C39.2528 5.17849 41.9325 4.29851 44.4043 5.09646C45.9187 5.58513 47.1521 6.63435 47.8772 8.05075C48.6023 9.46696 48.7324 11.0809 48.2436 12.5952C47.7166 14.2284 46.7335 15.6059 44.8503 17.35C44.5536 17.6248 44.5357 18.0883 44.8106 18.385C45.0851 18.6813 45.5483 18.6999 45.8457 18.4247C47.9009 16.5211 49.0349 14.9123 49.6377 13.0451C50.2464 11.1587 50.0843 9.14792 49.1808 7.38327ZM6.10447 20.5741C6.01023 19.9064 6.20593 19.293 6.64119 18.8912C6.89617 18.6558 7.20964 18.5186 7.54129 18.4894C7.72976 19.5434 8.09285 20.5603 8.62986 21.5277C8.70515 21.6631 8.71043 21.8232 8.64343 21.9573C8.45613 22.3335 8.31238 22.6974 8.20789 23.0488C7.24197 22.744 6.28357 21.839 6.10447 20.5741ZM18.1933 47.614C16.0871 47.614 14.3198 47.3219 12.9298 46.7471C13.5964 43.274 11.8615 39.0382 9.59871 37.0065C9.6614 36.7758 9.73132 36.5419 9.80486 36.3066H27.6194C27.6931 36.5426 27.763 36.7767 27.8253 37.0067C25.5626 39.0385 23.8278 43.2742 24.4945 46.7471C23.1033 47.3219 21.3363 47.614 19.2314 47.614H18.1933ZM32.9949 42.7871C33.1716 43.402 33.7556 43.8162 34.3885 43.7684C34.7491 43.742 35.169 43.7885 35.6375 43.9065C35.8374 43.9567 35.912 44.113 35.9348 44.1779C35.9577 44.2428 35.9974 44.4115 35.8722 44.5766L34.3764 46.5548C33.8668 47.2281 33.0327 47.5645 32.1983 47.4316L25.925 46.4363C25.6671 45.0582 25.8511 43.4293 26.4599 41.7815C27.007 40.3012 27.8395 38.9867 28.7434 38.1516C31.9983 40.0639 32.8203 42.1798 32.9949 42.7871ZM34.1796 27.9352C34.6929 27.7091 35.1474 27.7433 35.4594 28.0318C35.8537 28.3961 35.9528 29.0764 35.7121 29.7649C35.4524 30.5076 34.1308 32.9658 28.0305 33.414C27.6941 33.4375 27.3855 33.6217 27.205 33.9065C27.0286 34.1847 26.9926 34.5323 27.1056 34.8418H10.3179C10.4312 34.534 10.3962 34.1872 10.2207 33.9088C10.0404 33.6226 9.73152 33.4378 9.39675 33.4143C3.29353 32.9658 1.97175 30.5074 1.71209 29.7646C1.47136 29.0761 1.57048 28.396 1.96453 28.0317C2.27644 27.7433 2.73093 27.7089 3.24441 27.9353C5.27088 28.8275 8.10828 29.2014 11.2522 28.9961C11.2794 29.01 11.3059 29.0243 11.3334 29.0382C12.4383 29.594 13.7819 29.9937 15.3048 30.229C15.5938 32.1816 17.1124 33.6799 18.9249 33.6799C20.7669 33.6799 22.2958 32.1452 22.5553 30.153C23.9331 29.9018 25.1366 29.5097 26.1344 28.9941C29.2961 29.204 32.1469 28.8305 34.1796 27.9352ZM16.8367 30.4049C17.441 30.4517 18.0661 30.4769 18.7119 30.4769C19.5193 30.4769 20.2912 30.4394 21.024 30.3667C20.7384 31.4378 19.9054 32.2152 18.9248 32.2152C17.9594 32.2151 17.1329 31.455 16.8367 30.4049ZM30.7825 18.8913C31.2178 19.293 31.4135 19.9064 31.3193 20.5738C31.1401 21.8398 30.1817 22.7449 29.2159 23.0492C29.1113 22.6975 28.9675 22.3332 28.7798 21.9562C28.7133 21.8233 28.7185 21.6631 28.7941 21.5273C29.331 20.5612 29.6942 19.5444 29.8826 18.4895C30.2142 18.5186 30.5277 18.6559 30.7825 18.8913ZM27.5141 20.8152C27.2032 21.3738 27.1866 22.0452 27.4691 22.6102C27.783 23.2406 27.9489 23.8231 27.9489 24.2945C27.9489 25.7127 27.1014 26.8616 25.4301 27.7093C23.7731 28.5495 21.3872 29.0122 18.7119 29.0122C16.2823 29.0122 13.6207 28.6101 11.7812 27.6194C11.7752 27.6159 11.7688 27.6128 11.7627 27.6093C10.3864 26.8628 9.47488 25.7844 9.47488 24.2945C9.47488 23.8231 9.6408 23.2407 9.95427 22.6113C10.2373 22.045 10.2207 21.3737 9.91023 20.8161C9.20925 19.5533 8.85379 18.1928 8.85379 16.7722C8.85379 13.8904 10.3332 11.0516 12.7629 9.18054C13.7574 10.5421 15.0785 11.8563 16.4095 12.8035C17.2884 13.4289 18.4447 14.0849 19.429 14.0848C19.6854 14.0848 19.9304 14.0402 20.1556 13.939C20.9845 13.5662 21.1441 12.712 21.0684 11.8842C22.6362 12.1178 24.3182 11.5799 25.9198 10.33C27.6108 12.1446 28.57 14.4593 28.57 16.7722C28.57 18.1944 28.2146 19.5548 27.5141 20.8152ZM25.523 8.75163C23.4568 10.6146 21.8134 10.6358 20.7982 10.3251C20.455 10.2201 20.079 10.3062 19.8171 10.5503C19.5571 10.7922 19.4451 11.1577 19.5245 11.5041C19.7261 12.3832 19.5595 12.6001 19.5588 12.6009C19.4397 12.6808 18.6992 12.6107 17.366 11.6854C16.1032 10.8092 14.7931 9.50681 13.8616 8.20163C13.7999 8.11521 13.7824 8.00378 13.816 7.91052C14.0999 7.12204 15.0523 6.60515 16.4977 6.45495C19.0274 6.19216 20.5963 5.01452 22.1136 3.87566C22.7457 3.40124 23.3472 2.94968 24.0156 2.56062C24.0277 3.04284 23.9295 3.96736 23.5917 5.36589C23.5159 5.67966 23.597 6.01238 23.8085 6.25613C24.0207 6.50056 24.34 6.6282 24.6624 6.59695C25.6677 6.50007 26.6607 5.93962 27.4589 5.48923C27.6565 5.37761 27.8931 5.24411 28.0969 5.14109C27.8602 5.91804 26.9421 7.4737 25.523 8.75163Z" fill="white"/>
<path d="M14.4893 19.1135C14.0848 19.1135 13.7568 19.4413 13.7568 19.8459V20.2749C13.7568 20.6794 14.0848 21.0073 14.4893 21.0073C14.8938 21.0073 15.2217 20.6795 15.2217 20.2749V19.8459C15.2216 19.4414 14.8938 19.1135 14.4893 19.1135Z" fill="white"/>
<path d="M22.9346 19.1135C22.5301 19.1135 22.2021 19.4413 22.2021 19.8459V20.2749C22.2021 20.6794 22.5301 21.0073 22.9346 21.0073C23.3391 21.0073 23.667 20.6795 23.667 20.2749V19.8459C23.6669 19.4414 23.3391 19.1135 22.9346 19.1135Z" fill="white"/>
<path d="M16.1888 17.9754C16.3978 17.629 16.2865 17.1789 15.9402 16.9698C14.9911 16.3969 13.9877 16.3969 13.0386 16.9698C12.6923 17.1789 12.581 17.629 12.79 17.9754C12.999 18.3217 13.4492 18.433 13.7956 18.2239C14.2755 17.9343 14.7034 17.9343 15.1833 18.2239C15.3017 18.2953 15.4322 18.3294 15.5611 18.3294C15.8092 18.3293 16.0512 18.2032 16.1888 17.9754Z" fill="white"/>
<path d="M24.3855 16.9698C23.4364 16.3969 22.4331 16.3967 21.4839 16.9698C21.1376 17.1789 21.0264 17.629 21.2353 17.9753C21.4443 18.3216 21.8945 18.433 22.2409 18.2239C22.7209 17.9342 23.1488 17.9342 23.6286 18.2239C23.747 18.2953 23.8775 18.3294 24.0064 18.3294C24.2546 18.3294 24.4966 18.2033 24.6342 17.9753C24.8432 17.629 24.7318 17.1789 24.3855 16.9698Z" fill="white"/>
<path d="M20.627 22.0982H16.7979C16.2222 22.0982 15.7321 22.5121 15.6327 23.0821C15.5984 23.2784 15.5811 23.4795 15.5811 23.6799C15.5811 25.5004 16.9857 26.9814 18.7124 26.9814C20.4391 26.9814 21.8437 25.5004 21.8437 23.6799C21.8437 23.4795 21.8264 23.2784 21.7922 23.0823C21.6928 22.5121 21.2028 22.0982 20.627 22.0982ZM18.7125 25.5166C17.7936 25.5166 17.046 24.6926 17.046 23.6799C17.046 23.641 17.0472 23.6019 17.0494 23.563H20.3757C20.3779 23.6019 20.3791 23.641 20.3791 23.6799C20.379 24.6925 19.6314 25.5166 18.7125 25.5166Z" fill="white"/>
</g>
<defs>
<clipPath id="clip0_403_732">
<rect width="50" height="50" fill="white"/>
</clipPath>
</defs>
</svg>
