<svg width="35" height="35" viewBox="0 0 35 35" fill="none" xmlns="http://www.w3.org/2000/svg">
<g clip-path="url(#clip0_87_255)">
<path d="M23.6996 35C22.7678 34.8327 21.8153 34.7362 20.9062 34.4878C11.0966 31.8075 4.45331 25.6882 1.03383 16.1404C0.558131 14.812 0.255412 13.3995 0.0597782 12.0003C-0.168805 10.3681 0.278065 8.82009 1.15018 7.41167C1.65677 6.59351 2.17881 5.7846 2.69878 4.97568C4.2515 2.55817 7.46402 2.33541 9.34108 4.51374C9.86106 5.11734 10.3862 5.71582 10.8928 6.33072C12.3714 8.12614 12.1047 10.6032 10.2575 12.0219C9.44405 12.646 9.15368 13.4118 9.33593 14.4117C10.379 20.1388 15.0134 24.6956 20.7682 25.6359C21.6094 25.7735 22.3271 25.5117 22.8007 24.8239C24.096 22.9402 26.9595 22.3992 28.9107 24.2501C29.4513 24.7623 30.0351 25.2294 30.588 25.7283C32.6246 27.5668 32.359 30.7276 30.0412 32.2017C29.2072 32.7324 28.366 33.2539 27.5207 33.7682C26.3541 34.4775 25.0814 34.8399 23.7181 34.8922C23.712 34.9282 23.7058 34.9641 23.6996 35ZM23.0334 32.8679C24.7622 32.8525 25.6848 32.5702 26.7288 31.8742C27.4455 31.3969 28.159 30.9154 28.8788 30.4432C30.0855 29.6507 30.2111 28.1622 29.1362 27.2096C28.54 26.6809 27.9263 26.1718 27.3199 25.6554C26.9636 25.3515 26.5548 25.2027 26.0812 25.2037C25.3193 25.2047 24.8374 25.6421 24.3843 26.1882C23.3361 27.4529 21.9677 27.9497 20.3563 27.6623C13.7737 26.49 8.75006 21.6108 7.34767 15.0882C6.94405 13.2106 7.33943 11.6267 8.91583 10.4348C9.88989 9.69881 10.0423 8.55626 9.25356 7.618C8.77477 7.04725 8.28568 6.4847 7.79969 5.9201C6.81534 4.77756 5.30998 4.86687 4.47699 6.12028C3.97967 6.86863 3.49367 7.62416 2.99841 8.37354C2.26118 9.48939 1.95022 10.7161 2.13659 12.0332C2.24882 12.8298 2.41975 13.6264 2.65657 14.3952C5.45311 23.4709 11.4086 29.4331 20.4871 32.2807C21.4601 32.5876 22.4805 32.7437 23.0334 32.8679Z" fill="black"/>
<path d="M18.0612 0.00536728C25.9638 0.285614 32.8625 6.00859 34.5604 13.7785C34.8271 14.998 34.9054 16.2638 34.996 17.5131C35.0577 18.361 34.2958 18.8999 33.574 18.592C33.1385 18.4062 32.9737 18.051 32.9253 17.587C32.8018 16.3911 32.7348 15.1787 32.4785 14.0084C31.2048 8.18795 26.1409 3.37859 20.2493 2.36539C19.2649 2.19601 18.2569 2.16111 17.2591 2.06564C16.7526 2.01637 16.386 1.69608 16.2954 1.21669C16.212 0.774248 16.454 0.291773 16.8833 0.114181C17.0553 0.0423228 17.255 0.0258981 17.4445 0.00947345C17.6494 -0.00797779 17.8563 0.00536728 18.0612 0.00536728Z" fill="black"/>
<path d="M30.8506 17.0928C30.8506 17.1913 30.8578 17.3977 30.8495 17.6019C30.8248 18.223 30.3883 18.6706 29.8127 18.6747C29.2371 18.6778 28.7923 18.2384 28.7768 17.6122C28.7398 16.1504 28.5236 14.7204 27.9325 13.3777C26.073 9.15349 22.846 6.7637 18.2291 6.27404C17.9356 6.24324 17.6391 6.23708 17.3436 6.22066C16.7155 6.18678 16.2768 5.75666 16.283 5.17974C16.2892 4.60693 16.7433 4.13164 17.3621 4.15936C18.1951 4.19631 19.0373 4.24251 19.8528 4.39957C25.5345 5.50002 29.7941 9.91621 30.6961 15.6084C30.7672 16.0642 30.7919 16.5261 30.8506 17.0928Z" fill="black"/>
<path d="M17.5422 8.25537C22.2971 8.40525 26.2314 12.0926 26.6402 16.8157C26.6587 17.0323 26.6814 17.2499 26.6855 17.4676C26.6979 18.1708 26.2839 18.6573 25.6692 18.6738C25.0597 18.6892 24.6293 18.22 24.6066 17.5148C24.5078 14.4157 22.605 11.7538 19.7189 10.7991C18.9507 10.5446 18.1126 10.4871 17.3023 10.3762C16.7843 10.3054 16.392 10.0097 16.2963 9.52007C16.2129 9.092 16.4332 8.61774 16.8451 8.43296C17.0603 8.33647 17.3084 8.31183 17.5422 8.25537Z" fill="black"/>
</g>
<defs>
<clipPath id="clip0_87_255">
<rect width="35" height="35" fill="white"/>
</clipPath>
</defs>
</svg>
