<svg width="50" height="50" viewBox="0 0 50 50" fill="none" xmlns="http://www.w3.org/2000/svg">
<path d="M44.2344 39.4609C43.9001 39.2077 43.5109 39.0368 43.0982 38.9622C42.6856 38.8875 42.2612 38.9112 41.8594 39.0313L31.1406 42.1875H25.2031L20.9844 39.8438H28.9062C29.1135 39.8438 29.3122 39.7614 29.4587 39.6149C29.6052 39.4684 29.6875 39.2697 29.6875 39.0625V36.7188C29.686 36.5116 29.6048 36.313 29.4609 36.1641L27.8984 34.6016C27.7889 34.4942 27.6504 34.4209 27.5 34.3906L15.7813 32.0469C15.7296 32.0378 15.6774 32.0326 15.625 32.0313H10.9375C10.8384 32.0297 10.7401 32.0483 10.6484 32.0859L7.8125 33.2188V32.0313C7.81304 31.8453 7.74725 31.6653 7.62696 31.5236C7.50668 31.3818 7.33978 31.2876 7.15625 31.2578L2.46875 30.4766C2.35657 30.4607 2.24231 30.4685 2.13333 30.4994C2.02434 30.5304 1.92304 30.5838 1.83594 30.6563C1.75062 30.73 1.68208 30.8211 1.63491 30.9235C1.58775 31.0259 1.56306 31.1373 1.5625 31.25V46.875C1.5625 47.0822 1.64481 47.2809 1.79132 47.4274C1.93784 47.5739 2.13655 47.6563 2.34375 47.6563C2.38557 47.6576 2.42742 47.6549 2.46875 47.6484L7.15625 46.8672C7.33978 46.8375 7.50668 46.7432 7.62696 46.6015C7.74725 46.4597 7.81304 46.2797 7.8125 46.0938V45.3125H10.0312L19.2812 48.3984C19.3624 48.4228 19.4465 48.436 19.5312 48.4375H31.25C31.3381 48.4378 31.4255 48.4219 31.5078 48.3906L43.5156 44.1563C44.0409 43.9707 44.4957 43.6269 44.8174 43.1722C45.1392 42.7175 45.3122 42.1742 45.3125 41.6172C45.3149 41.1983 45.2185 40.7848 45.0312 40.4102C44.8439 40.0355 44.5709 39.7103 44.2344 39.4609ZM6.25 45.4297L3.125 45.9531V32.1719L6.25 32.6953V45.4297ZM43 42.6797L31.1172 46.875H19.6562L10.4062 43.7891C10.3251 43.7647 10.241 43.7515 10.1562 43.75H7.8125V34.9063L11.0859 33.5938H15.5469L26.9609 35.875L28.125 37.0391V38.2813H17.9688C17.7964 38.2818 17.6291 38.3393 17.4929 38.4447C17.3566 38.5502 17.2591 38.6978 17.2154 38.8645C17.1717 39.0312 17.1844 39.2076 17.2514 39.3664C17.3184 39.5251 17.436 39.6572 17.5859 39.7422L24.6172 43.6484C24.7332 43.7165 24.8655 43.7516 25 43.75H31.25C31.3241 43.7517 31.398 43.7411 31.4688 43.7188L42.3047 40.5313C42.4725 40.4803 42.65 40.47 42.8225 40.5012C42.995 40.5324 43.1576 40.6043 43.2969 40.7109C43.4605 40.8333 43.5879 40.9977 43.6654 41.1867C43.743 41.3757 43.7679 41.5821 43.7375 41.7841C43.707 41.9861 43.6223 42.1761 43.4925 42.3338C43.3626 42.4915 43.1924 42.6111 43 42.6797Z" fill="white"/>
<path d="M25 31.25C31.8922 31.25 37.5 23.8899 37.5 14.8438V5.46876C37.5 5.29668 37.4431 5.12943 37.3383 4.99297C37.2335 4.85651 37.0866 4.75847 36.9203 4.71407L25.2016 1.58907C25.0695 1.55381 24.9305 1.55381 24.7984 1.58907L13.0797 4.71407C12.9134 4.75847 12.7665 4.85651 12.6617 4.99297C12.5569 5.12943 12.5 5.29668 12.5 5.46876V14.8438C12.5 23.8899 18.1078 31.25 25 31.25ZM14.0625 6.06954L25 3.15235L35.9375 6.06954V14.8438C35.9375 23.0289 31.0312 29.6875 25 29.6875C18.9688 29.6875 14.0625 23.0289 14.0625 14.8438V6.06954Z" fill="white"/>
<path d="M21.875 19.5312V21.875C21.875 22.2894 22.0396 22.6868 22.3326 22.9799C22.6257 23.2729 23.0231 23.4375 23.4375 23.4375H26.5625C26.9769 23.4375 27.3743 23.2729 27.6674 22.9799C27.9604 22.6868 28.125 22.2894 28.125 21.875V19.5312H30.4688C30.8832 19.5312 31.2806 19.3666 31.5736 19.0736C31.8666 18.7806 32.0312 18.3832 32.0312 17.9688V14.8438C32.0312 14.4293 31.8666 14.0319 31.5736 13.7389C31.2806 13.4459 30.8832 13.2812 30.4688 13.2812H28.125V10.9375C28.125 10.5231 27.9604 10.1257 27.6674 9.83265C27.3743 9.53962 26.9769 9.375 26.5625 9.375H23.4375C23.0231 9.375 22.6257 9.53962 22.3326 9.83265C22.0396 10.1257 21.875 10.5231 21.875 10.9375V13.2812H19.5312C19.1168 13.2812 18.7194 13.4459 18.4264 13.7389C18.1334 14.0319 17.9688 14.4293 17.9688 14.8438V17.9688C17.9688 18.3832 18.1334 18.7806 18.4264 19.0736C18.7194 19.3666 19.1168 19.5312 19.5312 19.5312H21.875ZM19.5312 14.8438H21.875C22.2894 14.8438 22.6868 14.6791 22.9799 14.3861C23.2729 14.0931 23.4375 13.6957 23.4375 13.2812V10.9375H26.5625V13.2812C26.5625 13.6957 26.7271 14.0931 27.0201 14.3861C27.3132 14.6791 27.7106 14.8438 28.125 14.8438H30.4688V17.9688H28.125C27.7106 17.9688 27.3132 18.1334 27.0201 18.4264C26.7271 18.7194 26.5625 19.1168 26.5625 19.5312V21.875H23.4375V19.5312C23.4375 19.1168 23.2729 18.7194 22.9799 18.4264C22.6868 18.1334 22.2894 17.9688 21.875 17.9688H19.5312V14.8438Z" fill="white"/>
<path d="M40.625 6.25H42.1875V4.6875H43.75V3.125H42.1875V1.5625H40.625V3.125H39.0625V4.6875H40.625V6.25Z" fill="white"/>
<path d="M48.4375 7.8125H46.875V6.25H45.3125V7.8125H43.75V9.375H45.3125V10.9375H46.875V9.375H48.4375V7.8125Z" fill="white"/>
<path d="M37.5 25.7812V27.3438H35.9375V28.9062H37.5V30.4688H39.0625V28.9062H40.625V27.3438H39.0625V25.7812H37.5Z" fill="white"/>
<path d="M43.75 21.0938H42.1875V22.6562H40.625V24.2188H42.1875V25.7812H43.75V24.2188H45.3125V22.6562H43.75V21.0938Z" fill="white"/>
<path d="M7.8125 6.25H9.375V4.6875H10.9375V3.125H9.375V1.5625H7.8125V3.125H6.25V4.6875H7.8125V6.25Z" fill="white"/>
<path d="M3.125 10.9375H4.6875V9.375H6.25V7.8125H4.6875V6.25H3.125V7.8125H1.5625V9.375H3.125V10.9375Z" fill="white"/>
<path d="M10.9375 25.7812V27.3438H9.375V28.9062H10.9375V30.4688H12.5V28.9062H14.0625V27.3438H12.5V25.7812H10.9375Z" fill="white"/>
<path d="M7.8125 25.7812V24.2188H9.375V22.6562H7.8125V21.0938H6.25V22.6562H4.6875V24.2188H6.25V25.7812H7.8125Z" fill="white"/>
</svg>
