<svg width="24" height="24" viewBox="0 0 24 24" fill="none" xmlns="http://www.w3.org/2000/svg">
<g clip-path="url(#clip0_432_1314)">
<path d="M3.86812 14.2789L7.68188 16.5664C7.79963 16.6372 7.94887 16.638 8.06775 16.5664L11.8815 14.2789C13.3425 13.4025 14.25 11.8009 14.25 10.0988V3.74625C14.25 3.54712 14.0944 3.38287 13.8956 3.37162C12.3968 3.28912 10.1666 2.94825 8.055 1.79325C7.94287 1.73212 7.8075 1.73212 7.69537 1.79325C5.58375 2.94862 3.35325 3.28912 1.85438 3.372C1.65563 3.38287 1.5 3.54712 1.5 3.74625V10.0988C1.5 11.8009 2.4075 13.4025 3.86812 14.2789ZM2.25 4.09725C3.7665 3.98062 5.85712 3.60787 7.875 2.54812C9.89287 3.60787 11.9835 3.98062 13.5 4.09725V10.0988C13.5 11.5387 12.732 12.894 11.4956 13.6357L7.875 15.8077L4.25437 13.6357C3.018 12.894 2.25 11.5387 2.25 10.0988V4.09725Z" fill="#136DF4"/>
<path d="M3.09562 15.5651L7.68188 18.3176C7.79963 18.3885 7.94887 18.3892 8.06775 18.3176L12.654 15.5651C13.5679 15.0169 14.3295 14.2357 14.8241 13.3957C15.4297 12.4069 15.75 11.2669 15.75 10.0987C15.75 10.0211 15.75 2.24625 15.75 2.24625C15.75 2.0475 15.5651 1.857 15.3412 1.87275C15.3015 1.8765 11.3025 2.20575 8.08313 0.0592492C7.94775 -0.0311258 7.77112 -0.0101258 7.66725 0.0592492C4.44712 2.20575 0.448875 1.87687 0.40875 1.87275C0.1845 1.857 0 2.0445 0 2.24625V10.0987C0 12.3255 1.18613 14.4202 3.09562 15.5651ZM0.75 2.6415C3.12075 2.7135 5.79413 2.12812 7.875 0.813374C9.94725 2.1225 12.6173 2.71387 15 2.6415C15 2.88112 15 10.5979 15 10.0987C15 11.1289 14.718 12.1335 14.1818 13.0095C13.7524 13.7374 13.083 14.4334 12.2681 14.922L7.875 17.559L3.4815 14.922C1.79663 13.9117 0.75 12.0634 0.75 10.0987V2.6415Z" fill="#136DF4"/>
<path d="M4.875 10.125H6.75V12C6.75 12.207 6.91762 12.375 7.125 12.375H8.625C8.83238 12.375 9 12.207 9 12V10.125H10.875C11.0824 10.125 11.25 9.957 11.25 9.75V8.25C11.25 8.043 11.0824 7.875 10.875 7.875H9V6C9 5.793 8.83238 5.625 8.625 5.625H7.125C6.91762 5.625 6.75 5.793 6.75 6V7.875H4.875C4.66763 7.875 4.5 8.043 4.5 8.25V9.75C4.5 9.957 4.66763 10.125 4.875 10.125ZM5.25 8.625H7.125C7.33238 8.625 7.5 8.457 7.5 8.25V6.375H8.25V8.25C8.25 8.457 8.41762 8.625 8.625 8.625H10.5V9.375H8.625C8.41762 9.375 8.25 9.543 8.25 9.75V11.625H7.5V9.75C7.5 9.543 7.33238 9.375 7.125 9.375H5.25V8.625Z" fill="#136DF4"/>
<path d="M16.7713 11.3021C17.3147 11.3835 17.8273 11.5875 18.2796 11.889L18.2395 11.9291C17.8885 12.2801 18.4191 12.8104 18.7697 12.4594L19.1383 12.0908C19.1395 12.0896 19.141 12.0893 19.1421 12.0878C19.1425 12.087 19.1428 12.0863 19.1432 12.0859L20.464 10.7651C20.5438 10.6853 20.6042 10.5203 20.5498 10.3718C20.4276 10.0361 20.5127 9.65438 20.7673 9.39975C21.1326 9.0345 21.7277 9.03375 22.0933 9.39975C22.459 9.76538 22.459 10.3601 22.0933 10.7254C21.8383 10.98 21.457 11.0651 21.121 10.9432C20.977 10.89 20.8048 10.9448 20.7137 11.0475L19.3487 12.4129C19.2265 12.5351 19.2141 12.7586 19.3052 12.8906C20.179 14.1585 20.1771 15.8606 19.3 17.1259C19.2838 17.1686 19.2291 17.2429 19.2396 17.3689C19.2475 17.4656 19.306 17.5654 19.3435 17.6025L20.6376 18.8966C20.77 19.029 20.9293 18.9986 21.0313 18.9833C21.367 18.8614 21.7487 18.9465 22.0037 19.2011C22.3693 19.5668 22.3693 20.1615 22.0037 20.5271C21.6385 20.892 21.0433 20.8927 20.6777 20.5271C20.4231 20.2725 20.338 19.8907 20.4602 19.5551C20.5116 19.4141 20.4557 19.2443 20.3732 19.1614L18.6786 17.4668C18.3276 17.1158 17.7977 17.6464 18.1483 17.997L18.2721 18.1208C17.8562 18.3964 17.3916 18.5872 16.9052 18.6731C16.7327 18.7035 16.594 18.8824 16.594 19.0421V20.8271C16.594 20.9276 16.6656 21.0848 16.783 21.1523C17.2202 21.4039 17.4317 21.9109 17.3095 22.4149C17.2157 22.8015 16.891 23.1236 16.5017 23.2163C15.7386 23.3978 15.0951 22.8225 15.0951 22.125C15.0951 21.7245 15.3103 21.3518 15.6568 21.1526C15.8248 21.0563 15.8342 20.865 15.844 20.8275V19.0425C15.844 18.7425 15.5012 18.6559 15.5391 18.6735C14.926 18.5625 14.3368 18.2861 13.8351 17.8748C13.453 17.5594 12.9752 18.1395 13.3596 18.4545C13.8741 18.8768 14.4696 19.1715 15.094 19.3335V20.6287C14.6278 20.979 14.3451 21.5336 14.3451 22.125C14.3451 22.7025 14.605 23.2388 15.058 23.5969C16.1136 24.4312 17.719 23.9104 18.0381 22.5919C18.2215 21.8374 17.9421 21.0787 17.3436 20.6314V19.3361C17.8671 19.203 18.3628 18.9731 18.8072 18.6562L19.6885 19.5375C19.579 20.0813 19.7466 20.6565 20.1471 21.057C20.8063 21.7163 21.8773 21.7133 22.5336 21.057C23.1913 20.3993 23.1913 19.3286 22.5336 18.6705C22.1327 18.27 21.5567 18.102 21.0133 18.2119L20.0867 17.2853C20.4343 16.6976 20.6353 16.0455 20.6908 15.3829H21.0527C21.2305 16.0721 21.835 16.5079 22.4995 16.5079C23.3282 16.5079 23.9995 15.837 23.9995 15.0079C23.9995 14.6074 23.8435 14.2305 23.56 13.947C22.9937 13.3804 22.0052 13.3804 21.439 13.947C21.2466 14.139 21.1187 14.3764 21.0527 14.6329H20.6912C20.6368 13.9706 20.4366 13.3189 20.0905 12.7305L21.1082 11.7128C21.2158 11.7341 21.3238 11.7476 21.4322 11.7476C21.8706 11.7476 22.3026 11.5759 22.6232 11.2556C23.281 10.5979 23.281 9.52725 22.6232 8.86913C21.9655 8.21138 20.8945 8.21138 20.2367 8.86913C19.8362 9.27 19.6682 9.84525 19.7781 10.3894L18.8143 11.3531C18.2417 10.9433 17.584 10.665 16.8812 10.56C16.3945 10.4846 16.2778 11.2286 16.7713 11.3021ZM22.5002 14.2583C23.1677 14.2583 23.5 15.069 23.0305 15.5385C22.5793 15.9896 21.7525 15.6919 21.7506 15.0105C21.7506 15.0098 21.751 15.009 21.751 15.0079C21.751 15.0068 21.7506 15.0064 21.7506 15.0053C21.7517 14.5905 22.0881 14.2583 22.5002 14.2583Z" fill="#136DF4"/>
<path d="M13.1451 17.1109C13.0667 17.0006 12.9932 16.8802 12.9209 16.7422C12.691 16.3024 12.0261 16.6511 12.2567 17.0902C12.2912 17.1562 12.3269 17.2174 12.3625 17.2777L10.1837 19.4565C9.64223 19.347 9.06585 19.5142 8.66085 19.9144C8.00498 20.5699 8.0046 21.6401 8.66198 22.3016C9.31785 22.9534 10.3881 22.9597 11.0462 22.302C11.4479 21.9037 11.6174 21.3289 11.5082 20.7829L12.958 19.3331C13.309 18.9821 12.7784 18.4522 12.4277 18.8029L10.8362 20.394C10.7579 20.5005 10.6724 20.6205 10.7365 20.7979C10.8584 21.1354 10.7729 21.5167 10.5167 21.7702C10.1522 22.134 9.55673 22.134 9.19185 21.771C8.8266 21.4039 8.82623 20.8084 9.18923 20.4457C9.44723 20.1904 9.83048 20.1049 10.1654 20.2275C10.2692 20.2657 10.4537 20.2466 10.5606 20.1397L13.1001 17.6002C13.2239 17.4765 13.2426 17.2474 13.1451 17.1109Z" fill="#136DF4"/>
<path d="M16.8769 12.7598C16.6695 12.7598 16.5 12.9296 16.5 13.1366C16.5 13.3436 16.6695 13.5135 16.8769 13.5135C17.0843 13.5135 17.2537 13.3436 17.2537 13.1366C17.2537 12.9296 17.0843 12.7598 16.8769 12.7598Z" fill="#136DF4"/>
<path d="M14.4238 16.8889C14.4238 17.5091 14.9286 18.0139 15.5488 18.0139C16.1691 18.0139 16.6738 17.5091 16.6738 16.8889C16.6738 16.2686 16.1691 15.7639 15.5488 15.7639C14.9286 15.7639 14.4238 16.2682 14.4238 16.8889ZM15.9238 16.8889C15.9238 17.0955 15.7558 17.2639 15.5488 17.2639C15.3418 17.2639 15.1738 17.0955 15.1738 16.8889C15.1738 16.6822 15.3418 16.5139 15.5488 16.5139C15.7558 16.5139 15.9238 16.6819 15.9238 16.8889Z" fill="#136DF4"/>
<path d="M17.8125 16.1389C18.3296 16.1389 18.75 15.7181 18.75 15.2014C18.75 14.6846 18.3296 14.2639 17.8125 14.2639C17.2954 14.2639 16.875 14.6846 16.875 15.2014C16.875 15.7181 17.2954 16.1389 17.8125 16.1389ZM17.8125 15.0139C17.9156 15.0139 18 15.0979 18 15.2014C18 15.3049 17.9156 15.3889 17.8125 15.3889C17.7094 15.3889 17.625 15.3049 17.625 15.2014C17.625 15.0979 17.7094 15.0139 17.8125 15.0139Z" fill="#136DF4"/>
</g>
<defs>
<clipPath id="clip0_432_1314">
<rect width="24" height="24" fill="white"/>
</clipPath>
</defs>
</svg>
