<svg width="50" height="50" viewBox="0 0 50 50" fill="none" xmlns="http://www.w3.org/2000/svg">
<g clip-path="url(#clip0_413_785)">
<path d="M49.8167 42.5789L45.3848 29.2252C44.919 27.8221 43.6129 26.8795 42.1343 26.8795H39.7501C39.7398 26.767 39.7227 26.6541 39.694 26.5427C39.5537 25.9968 39.2092 25.5383 38.724 25.2518L38.2647 24.9802L40.5527 21.3596C41.5484 19.7845 43.0468 18.5833 44.8866 17.886C46.5403 17.2588 47.9471 16.0736 48.8485 14.5485C49.9476 12.6881 50.2302 10.5183 49.6439 8.43774C49.058 6.35835 47.6812 4.65432 45.7674 3.63923C44.0489 2.7279 42.0553 2.49559 40.1545 2.98501C38.2528 3.47444 36.6194 4.64021 35.5543 6.26794C34.5038 7.87393 34.0773 9.79996 34.3535 11.6909C34.6335 13.6066 34.3153 15.4648 33.4337 17.0643L31.3296 20.8824L30.8699 20.6108C29.8685 20.0192 28.5723 20.3522 27.9806 21.3539L27.1616 22.7394L25.0918 21.516C23.7875 20.7455 22.0991 21.1796 21.3282 22.4842L20.0816 24.5945C19.8069 25.0587 19.961 25.6577 20.4253 25.9319L22.029 26.8791H7.86538C6.38718 26.8791 5.08103 27.8221 4.61526 29.2252L0.183345 42.5789C-0.177907 43.6672 -0.000141887 44.8246 0.670863 45.7546C1.34187 46.6842 2.3848 47.2179 3.5315 47.2179H46.4682C47.6149 47.2179 48.6578 46.6842 49.3288 45.7546C49.9998 44.8246 50.1776 43.6672 49.8167 42.5789ZM35.1443 18.0069C36.233 16.0313 36.6278 13.7493 36.2856 11.4082C36.0785 9.98956 36.3993 8.54379 37.1885 7.33682C38.8331 4.82408 42.1992 3.95776 44.8523 5.36462C46.29 6.12756 47.3242 7.40663 47.764 8.9676C48.2042 10.5293 47.9921 12.1586 47.167 13.5552C46.4808 14.7163 45.4527 15.5827 44.1942 16.0599C41.9554 16.9083 40.1255 18.3804 38.9021 20.3159L36.5824 23.9864L36.4035 23.8804L33.0115 21.8765L35.1443 18.0069ZM28.8431 23.7328L29.6618 22.3476C29.6892 22.3011 29.7289 22.2828 29.7575 22.2755C29.7865 22.2679 29.83 22.2649 29.8765 22.2923L33.8034 24.6128L36.4046 26.1497C36.405 26.1497 36.405 26.1497 36.405 26.1501L37.7306 26.9333C37.7768 26.9604 37.7951 27.0004 37.8023 27.029C37.81 27.0576 37.813 27.1015 37.7855 27.1477L37.6616 27.3579C37.6612 27.3582 37.6608 27.3586 37.6604 27.3594L36.9669 28.5332L28.8431 23.7328ZM23.0097 23.4776C23.2325 23.1003 23.7208 22.9748 24.098 23.1976L27.0087 24.9172L27.009 24.9176L31.9117 27.8145L39.7253 32.431C39.908 32.539 40.0377 32.7118 40.0904 32.9174C40.1434 33.123 40.1129 33.3366 40.0049 33.5194L39.2546 34.7893L26.0977 27.0153C26.0977 27.0149 26.0977 27.0149 26.0973 27.0149L22.2594 24.7471L23.0097 23.4776ZM47.7453 44.6117C47.4459 45.0268 46.9801 45.2648 46.4682 45.2648H3.5315C3.01957 45.2648 2.55418 45.0268 2.25434 44.6117C1.95489 44.1967 1.87554 43.6798 2.0369 43.1938L6.46882 29.8405C6.66871 29.2374 7.22985 28.8322 7.86538 28.8322H25.334L39.102 36.9675C39.136 36.9877 39.1714 37.0048 39.2073 37.0205C39.2176 37.0251 39.2283 37.0293 39.2389 37.0335C39.266 37.0441 39.2939 37.0537 39.3217 37.0621C39.3324 37.0651 39.3427 37.0686 39.353 37.0712C39.39 37.0808 39.4278 37.0888 39.4655 37.0941C39.4724 37.0949 39.4793 37.0949 39.4861 37.096C39.5178 37.0994 39.5495 37.1017 39.5815 37.1021C39.5872 37.1025 39.593 37.1033 39.5987 37.1033C39.6059 37.1033 39.6132 37.1021 39.6204 37.1021C39.6456 37.1014 39.6708 37.0998 39.6959 37.0972C39.7082 37.096 39.7204 37.0953 39.7326 37.0933C39.7692 37.0884 39.8058 37.0819 39.8421 37.0724C40.0927 37.0083 40.3078 36.8465 40.4394 36.6234L41.6865 34.5131C42.018 33.9519 42.1374 33.3057 42.0321 32.6702C42.0187 32.5901 42.0023 32.5104 41.9821 32.431C41.7994 31.7203 41.3504 31.123 40.7187 30.7499L38.6484 29.5265L39.0589 28.8326H42.1343C42.7698 28.8326 43.331 29.2374 43.5312 29.8405L47.9632 43.1938V43.1942C48.1241 43.6798 48.0448 44.1967 47.7453 44.6117Z" fill="#1F2937"/>
<path d="M43.709 8.49839C44.2919 8.78945 44.644 9.18885 44.7855 9.71871C44.9785 10.4412 44.7401 11.2625 44.4372 11.7203C44.1393 12.1697 44.2625 12.7758 44.7119 13.0734C44.8778 13.1832 45.0651 13.2359 45.2505 13.2359C45.5668 13.2359 45.8777 13.0821 46.0653 12.7987C46.5796 12.022 47.0472 10.6178 46.6723 9.21441C46.3862 8.14362 45.6637 7.2918 44.5826 6.75126C44.1 6.51017 43.5137 6.70548 43.2722 7.18804C43.0311 7.6706 43.2265 8.25692 43.709 8.49839Z" fill="#1F2937"/>
<path d="M40.3064 6.9336C40.3308 6.99234 40.361 7.04918 40.3965 7.10182C40.4323 7.15561 40.4735 7.2052 40.5185 7.25022C40.5632 7.29523 40.6131 7.33605 40.6669 7.37229C40.7196 7.40738 40.776 7.4379 40.8348 7.46231C40.8943 7.48673 40.9557 7.50504 41.0175 7.51763C41.0808 7.5306 41.1453 7.53632 41.209 7.53632C41.2723 7.53632 41.3368 7.5306 41.3993 7.51763C41.4619 7.50504 41.5233 7.48673 41.5817 7.46231C41.6412 7.4379 41.698 7.40738 41.7507 7.37229C41.8045 7.33605 41.854 7.29523 41.8991 7.25022C41.9441 7.2052 41.9849 7.15561 42.0204 7.10182C42.0555 7.04918 42.0856 6.99234 42.11 6.9336C42.1344 6.87447 42.1531 6.81267 42.1657 6.75125C42.1783 6.68793 42.1852 6.62308 42.1852 6.55976C42.1852 6.49643 42.1783 6.43196 42.1657 6.3694C42.1531 6.30684 42.1344 6.24543 42.11 6.18668C42.0856 6.12717 42.0555 6.07071 42.0204 6.01807C41.9849 5.96428 41.9441 5.91431 41.8991 5.86968C41.854 5.82466 41.8045 5.78347 41.7507 5.74837C41.698 5.71328 41.6412 5.68314 41.5817 5.65873C41.5233 5.63431 41.4619 5.61562 41.3993 5.60303C41.2731 5.57747 41.1434 5.57747 41.0175 5.60303C40.9557 5.61562 40.8943 5.63431 40.8348 5.65873C40.776 5.68314 40.7196 5.71328 40.6669 5.74837C40.6131 5.78347 40.5632 5.82466 40.5185 5.86968C40.4735 5.91431 40.4323 5.96428 40.3965 6.01807C40.361 6.07071 40.3308 6.12717 40.3064 6.18668C40.282 6.24543 40.2633 6.30684 40.2507 6.3694C40.2381 6.43196 40.2324 6.49643 40.2324 6.55976C40.2324 6.62308 40.2381 6.68793 40.2507 6.75125C40.2633 6.81267 40.282 6.87409 40.3064 6.9336Z" fill="#1F2937"/>
<path d="M10.7369 33.2874H23.2884C23.8278 33.2874 24.265 32.8503 24.265 32.3112C24.265 31.7719 23.8278 31.3347 23.2884 31.3347H10.7369C10.1979 31.3347 9.76074 31.7719 9.76074 32.3112C9.76074 32.8503 10.1979 33.2874 10.7369 33.2874Z" fill="#1F2937"/>
<path d="M9.30566 38.0253H29.0246C29.564 38.0253 30.0011 37.5881 30.0011 37.0487C30.0011 36.5093 29.564 36.0721 29.0246 36.0721H9.30566C8.76627 36.0721 8.3291 36.5093 8.3291 37.0487C8.3291 37.5881 8.76627 38.0253 9.30566 38.0253Z" fill="#1F2937"/>
<path d="M38.0053 40.8096H7.28516C6.74576 40.8096 6.30859 41.2472 6.30859 41.7862C6.30859 42.3256 6.74576 42.7628 7.28516 42.7628H38.0053C38.5443 42.7628 38.9818 42.3256 38.9818 41.7862C38.9818 41.2472 38.5443 40.8096 38.0053 40.8096Z" fill="#1F2937"/>
</g>
<defs>
<clipPath id="clip0_413_785">
<rect width="50" height="50" fill="white"/>
</clipPath>
</defs>
</svg>
