<svg width="24" height="24" viewBox="0 0 24 24" fill="none" xmlns="http://www.w3.org/2000/svg">
<path d="M12.9965 2L12.9959 3.278L17.9965 4.94591L21.629 3.73509L22.2614 5.63246L19.2299 6.643L22.3252 15.1549C21.2333 16.2921 19.6976 17 17.9965 17C16.2955 17 14.7598 16.2921 13.6679 15.1549L16.7619 6.643L12.9959 5.387V19H16.9965V21H6.99659V19H10.9959V5.387L7.22997 6.643L10.3252 15.1549C9.23333 16.2921 7.69762 17 5.99659 17C4.29555 17 2.75984 16.2921 1.66797 15.1549L4.76197 6.643L1.73168 5.63246L2.36413 3.73509L5.99659 4.94591L10.9959 3.278L10.9965 2H12.9965ZM17.9965 9.10267L16.038 14.4892C16.626 14.8201 17.2959 15 17.9965 15C18.6973 15 19.3671 14.8201 19.955 14.4892L17.9965 9.10267ZM5.99659 9.10267L4.03809 14.4892C4.626 14.8201 5.29597 15 5.99659 15C6.69721 15 7.36717 14.8201 7.95508 14.4892L5.99659 9.10267Z" fill="#136DF4"/>
</svg>
