<svg width="75" height="75" viewBox="0 0 75 75" fill="none" xmlns="http://www.w3.org/2000/svg">
<path d="M44.2458 6.5619C43.2058 7.82403 42.3176 8.98148 41.3138 9.77075C38.8699 11.3555 35.9114 11.4903 33.6829 9.77075C32.6791 8.98148 31.7909 7.82407 30.7509 6.5619C21.2763 -4.30599 6.51204 2.99635 3.3034 12.6593C0.321975 19.7852 0.204382 29.6933 4.06101 41.5053C4.49949 43.1422 6.74847 42.0778 6.43453 40.8117C2.68842 29.3743 2.90004 20.0132 5.57852 13.6114C9.6973 4.79412 21.4131 -0.827392 28.8398 8.13429C29.5429 8.98766 30.2433 9.88468 31.0622 10.7115C29.0984 10.4657 26.96 10.1036 25.0426 9.55327C23.4315 9.2233 23.2323 11.4115 24.3926 11.8033C28.1751 13.0487 38.0137 15.4146 42.8359 11.7071C44.18 10.6502 45.1521 9.3454 46.1501 8.13429C52.9674 0.241623 65.1077 3.57567 69.4114 13.6114C72.1425 20.1389 72.3262 29.7373 68.347 41.4824C64.1445 53.8867 61.851 61.6089 59.8166 66.0345C58.4625 69.1676 56.3421 71.3931 53.2866 71.4156C50.8901 71.4156 49.6055 70.375 48.4847 68.5087C45.8243 63.5943 45.8044 57.8908 43.5111 53.1782C40.7478 47.6362 34.3209 47.6973 31.4856 53.1782C29.0197 58.1626 29.209 63.8833 26.512 68.5087C25.3912 70.375 24.1089 71.4156 21.7124 71.4156C18.0985 71.4023 16.3509 68.5511 15.1801 66.0345C13.3764 62.1107 11.1619 55.0174 7.80092 44.9454C7.40761 43.4767 4.9405 43.7823 5.46863 45.7533C8.88207 55.9851 10.9655 62.7906 12.9302 67.0644C14.7203 71.0521 17.5866 73.8806 21.7124 73.8806C24.9311 73.8806 27.2279 72.1164 28.6315 69.7791C31.5228 64.8573 31.3163 59.1834 33.692 54.2861C35.8114 50.4331 39.6949 51.1316 41.3047 54.2861C43.6007 59.3763 43.7063 65.2315 46.3653 69.7791C47.7689 72.1164 50.0679 73.8806 53.2866 73.8806C57.9458 73.8806 60.4517 70.5378 62.0665 67.0644C64.2578 62.2975 66.4944 54.6356 70.684 42.2698C74.801 30.118 74.7416 19.9394 71.6956 12.6593C66.8138 1.11583 52.8232 -2.97225 44.2458 6.5619Z" fill="#1F2937"/>
<path d="M29.2661 28.9908C26.2959 27.9063 24.5382 29.9918 24.4736 32.1753C24.4736 39.626 30.563 44.8462 37.5015 44.9263C45.0946 44.9263 50.5294 38.4147 50.5294 32.1753C50.5648 30.6104 48.2176 30.5584 48.1851 32.1234C48.1851 38.3766 43.1961 42.5163 37.5015 42.582C31.6504 42.2981 27.0827 38.3766 26.8266 32.1407C26.8266 30.9166 27.8055 30.9055 28.3491 31.1464C31.5179 32.384 34.5843 32.9437 37.4928 32.9717C37.4973 32.9717 37.5061 32.9717 37.5106 32.9717C40.1352 32.9495 42.8816 32.4903 45.7201 31.4924C47.1964 30.9791 46.4265 28.7646 44.9501 29.2779C42.3514 30.1914 39.8729 30.6047 37.5106 30.6274C34.5546 30.4471 32.2765 30.2416 29.2661 28.9908Z" fill="#1F2937"/>
<path d="M19.3611 20.1917C20.5033 19.0496 22.0539 18.4097 23.6691 18.4097C25.2844 18.4097 26.835 19.0496 27.9772 20.1917C29.0844 21.299 27.4235 22.9599 26.3162 21.8526C25.613 21.1494 24.6637 20.754 23.6691 20.754C22.6746 20.754 21.7253 21.1495 21.022 21.8526C19.8037 22.9564 18.272 21.2117 19.3611 20.1917Z" fill="#1F2937"/>
<path d="M45.0532 20.3992C46.1954 19.2571 47.7374 18.6172 49.3526 18.6172C50.9678 18.6172 52.5185 19.2571 53.6606 20.3992C54.8401 21.5 53.1153 23.2338 52.0084 22.0601C51.3051 21.3569 50.3471 20.9615 49.3526 20.9615C48.3581 20.9615 47.4088 21.357 46.7055 22.0601C45.4281 23.3252 43.9517 21.4761 45.0532 20.3992Z" fill="#1F2937"/>
</svg>
