<svg width="50" height="50" viewBox="0 0 50 50" fill="none" xmlns="http://www.w3.org/2000/svg">
<g clip-path="url(#clip0_403_670)">
<path d="M47.7787 38.4555L39.9185 21.6727C39.7471 21.3064 39.3109 21.1487 38.9445 21.32C38.5782 21.4916 38.4203 21.9278 38.5919 22.2941L46.4519 39.0765C46.8034 39.8284 46.4781 40.7265 45.7265 41.0787L30.6565 48.1361C29.905 48.4882 29.0071 48.1631 28.6548 47.4115L25.8373 41.3938L33.1707 23.7003C33.4876 22.9356 33.4698 22.0663 33.1221 21.3153L29.1109 12.6505L34.3104 14.2954C34.7105 14.4218 35.0418 14.712 35.2195 15.0925L37.1455 19.2032C37.27 19.4691 37.5339 19.6251 37.8093 19.6251C37.9133 19.6251 38.019 19.6027 38.1195 19.5558C38.4858 19.3842 38.6436 18.948 38.472 18.5816L36.5463 14.4716C36.1959 13.7214 35.5417 13.148 34.7518 12.8986L28.4813 10.9148C29.7741 9.02632 31.1359 6.50101 31.6044 5.37044C32.8332 2.40597 31.8414 0.757326 30.5037 0.20283C29.1659 -0.35147 27.2988 0.112302 26.0701 3.07677C25.5417 4.35178 25.0568 7.12855 24.712 9.5107C24.3017 9.53619 23.8892 9.62212 23.4874 9.77574L14.0003 13.4006C13.2413 13.6906 12.6276 14.2875 12.3164 15.038L2.1694 39.521C1.86559 40.254 1.86539 41.0614 2.16891 41.7945C2.47233 42.5276 3.04313 43.0986 3.77605 43.4023L6.74384 44.6323C7.11757 44.7872 7.54619 44.6098 7.70097 44.2361C7.85586 43.8624 7.67851 43.4338 7.30478 43.279L4.33699 42.0489C3.9656 41.895 3.67624 41.6056 3.52243 41.234C3.36862 40.8624 3.36872 40.4534 3.52273 40.0819L13.6701 15.5985C13.8278 15.2182 14.1388 14.9156 14.5235 14.7686L24.0105 11.1438C24.1735 11.0815 24.3393 11.0364 24.5058 11.007C24.4152 11.695 24.3418 12.2967 24.2887 12.7476C23.978 12.7654 23.6703 12.8421 23.38 12.978C22.7813 13.2583 22.3277 13.755 22.1027 14.3764C21.8776 14.998 21.9081 15.6699 22.1884 16.2686C22.6086 17.166 23.5021 17.6936 24.4333 17.6936C24.7842 17.6936 25.1406 17.6186 25.4789 17.4602C26.0775 17.1799 26.5312 16.6831 26.7563 16.0617C26.9813 15.4401 26.9509 14.7682 26.6706 14.1696C26.4618 13.7239 26.1329 13.3589 25.722 13.1084C25.7765 12.642 25.8596 11.9542 25.965 11.1535C26.599 11.4006 27.141 11.8821 27.4457 12.5404L31.7926 21.9304C31.9689 22.311 31.9778 22.7517 31.8171 23.1392L21.6766 47.606C21.5227 47.9774 21.2334 48.2668 20.8618 48.4206C20.4903 48.5745 20.0811 48.5743 19.7096 48.4204L10.6472 44.6644C10.2736 44.5093 9.84493 44.6869 9.69005 45.0606C9.53526 45.4343 9.71251 45.8629 10.0862 46.0177L19.1487 49.7737C19.5193 49.9273 19.9038 50 20.2821 50C21.448 50 22.5565 49.3093 23.0299 48.1669L25.0776 43.2263L27.328 48.0328C27.8326 49.1098 28.9052 49.743 30.0225 49.743C30.4438 49.743 30.8717 49.6529 31.2778 49.4626L46.3478 42.4052C47.8305 41.7105 48.4724 39.9389 47.7787 38.4555ZM25.3788 15.5629C25.287 15.8164 25.102 16.019 24.8576 16.1335C24.3535 16.3696 23.7512 16.1515 23.515 15.6474C23.4007 15.4032 23.3883 15.129 23.4801 14.8754C23.5719 14.6219 23.7569 14.4192 24.0012 14.3048C24.1373 14.241 24.2827 14.209 24.4287 14.209C24.5446 14.209 24.6608 14.2292 24.773 14.2698C25.0266 14.3616 25.2292 14.5467 25.3437 14.7909C25.4582 15.0352 25.4707 15.3093 25.3788 15.5629ZM27.2244 10.1579C26.8961 9.94976 26.5404 9.78814 26.1687 9.6773C26.4989 7.39145 26.952 4.77629 27.4238 3.63752C27.7562 2.83546 28.667 1.02744 29.9431 1.55606C31.2191 2.08497 30.5838 4.00744 30.2513 4.8094C29.8009 5.89613 28.4729 8.352 27.2244 10.1579Z" fill="white"/>
<path d="M15.079 24.6967C16.666 23.8521 18.4869 23.6758 20.2064 24.2009C23.0605 25.0722 24.9763 27.6605 24.9735 30.6416C24.9731 31.0461 25.3008 31.3744 25.7054 31.3748C25.7056 31.3748 25.7058 31.3748 25.706 31.3748C26.1103 31.3748 26.4382 31.0472 26.4386 30.6429C26.4401 28.9229 25.8807 27.2062 24.8633 25.8089C23.8108 24.3637 22.3484 23.3231 20.634 22.7996C16.3119 21.4803 11.7223 23.9231 10.403 28.2451C9.76387 30.3388 9.97832 32.556 11.0069 34.4885C12.0355 36.4209 13.7548 37.8371 15.8485 38.4763C16.631 38.7152 17.4375 38.8337 18.2426 38.8337C19.3875 38.8337 20.5285 38.5937 21.5892 38.1185C23.378 37.3171 24.8209 35.904 25.6521 34.1395C25.8246 33.7735 25.6677 33.337 25.3018 33.1646C24.9358 32.9921 24.4993 33.1491 24.3269 33.515C22.914 36.5144 19.4533 38.045 16.2764 37.075C14.557 36.5502 13.1449 35.3871 12.3002 33.8002C11.4556 32.2133 11.2794 30.3923 11.8044 28.6728C12.329 26.9535 13.4922 25.5414 15.079 24.6967Z" fill="white"/>
<path d="M21.0592 28.6443C20.8839 28.3148 20.5907 28.0732 20.2336 27.9643L19.9009 27.8628L20.127 27.1221C20.245 26.7352 20.0271 26.3257 19.6403 26.2077C19.2532 26.0898 18.844 26.3075 18.7259 26.6943L18.4947 27.4517C17.5188 27.2833 16.5442 27.863 16.2478 28.8343C16.0922 29.3441 16.1444 29.8842 16.3949 30.3547C16.6453 30.8252 17.0641 31.1702 17.5739 31.3258L18.496 31.6072C18.6316 31.6486 18.743 31.7403 18.8096 31.8655C18.8762 31.9906 18.89 32.1343 18.8486 32.2699C18.8072 32.4055 18.7155 32.5168 18.5903 32.5834C18.4652 32.6501 18.3217 32.664 18.186 32.6225L17.7251 32.4817L16.7534 32.1852C16.8297 31.8187 16.615 31.4477 16.2499 31.3362C15.8628 31.2184 15.4535 31.436 15.3354 31.8229C15.1105 32.5599 15.5269 33.3424 16.2639 33.5675L16.5968 33.6691L16.3707 34.4097C16.2526 34.7966 16.4705 35.2061 16.8573 35.3241C16.9286 35.3459 17.0006 35.3563 17.0714 35.3563C17.385 35.3563 17.6754 35.1531 17.7718 34.8374L18.0027 34.0808C18.116 34.1005 18.2299 34.1115 18.3435 34.1115C18.6661 34.1115 18.9859 34.0324 19.2787 33.8766C19.7492 33.6262 20.0942 33.2073 20.2498 32.6976C20.5711 31.645 19.9763 30.5273 18.9237 30.206L18.0016 29.9246C17.8661 29.8832 17.7548 29.7915 17.6882 29.6663C17.6216 29.5412 17.6076 29.3975 17.6491 29.2619C17.7345 28.982 18.0315 28.8236 18.3118 28.9093L18.7725 29.0499L18.7727 29.05H18.7729L19.7443 29.3466C19.6681 29.713 19.8827 30.084 20.2479 30.1954C20.6348 30.3135 21.0442 30.0956 21.1623 29.7087C21.2712 29.3518 21.2346 28.9738 21.0592 28.6443Z" fill="white"/>
<path d="M42.928 38.417L38.2401 28.4551C38.0677 28.089 37.6312 27.9319 37.2655 28.1043C36.8994 28.2765 36.7424 28.7129 36.9146 29.0789L41.6025 39.0407C41.7274 39.306 41.9908 39.4615 42.2658 39.4615C42.3703 39.4615 42.4764 39.4391 42.5771 39.3916C42.9431 39.2194 43.1002 38.783 42.928 38.417Z" fill="white"/>
<path d="M39.6526 40.1685L34.9647 30.2066C34.7925 29.8405 34.3558 29.6835 33.9901 29.8557C33.6241 30.028 33.467 30.4644 33.6392 30.8304L38.3271 40.7922C38.452 41.0575 38.7154 41.213 38.9904 41.213C39.0949 41.213 39.2011 41.1906 39.3018 41.1431C39.6678 40.9708 39.8248 40.5344 39.6526 40.1685Z" fill="white"/>
</g>
<defs>
<clipPath id="clip0_403_670">
<rect width="50" height="50" fill="white"/>
</clipPath>
</defs>
</svg>
