<svg width="622" height="609" viewBox="0 0 622 609" fill="none" xmlns="http://www.w3.org/2000/svg">
<path d="M568.354 608.603C611.621 571.773 645.136 524.841 665.932 471.964C686.728 419.088 694.162 361.898 687.577 305.462C680.991 249.026 660.589 195.085 628.177 148.417C595.766 101.749 552.345 63.7952 501.761 37.9166C451.178 12.038 394.992 -0.966194 338.182 0.0559108C281.373 1.078 225.692 16.0949 176.071 43.7763C126.451 71.4577 84.424 110.949 53.712 158.753C22.9999 206.556 4.55126 261.196 7.68462e-05 317.833L212.305 334.893C214.051 313.17 221.127 292.214 232.906 273.879C244.686 255.544 260.805 240.397 279.837 229.78C298.868 219.163 320.225 213.403 342.014 213.011C363.803 212.619 385.353 217.607 404.754 227.533C424.155 237.458 440.809 252.015 453.24 269.915C465.672 287.814 473.497 308.503 476.023 330.148C478.548 351.794 475.697 373.729 467.721 394.01C459.745 414.29 446.89 432.291 430.295 446.417L568.354 608.603Z" fill="#DDD7F9"/>
</svg>
