<svg width="51" height="50" viewBox="0 0 51 50" fill="none" xmlns="http://www.w3.org/2000/svg">
<g clip-path="url(#clip0_12_2596)">
<path d="M18.2297 23.4808C19.506 11.6603 24.0078 2.41026 35.6911 2.37179C35.634 0.647436 33.8624 0 32.3449 0C18.5154 0 15.239 0 15.239 0C15.239 0 15.239 10.2564 15.239 14.1026C15.239 14.1026 11.4293 14.1026 0 14.1026V34.6154C0 34.6154 2.01282 34.6154 5.98767 34.6154C7.29569 28.8462 11.8611 24.9679 18.2297 23.4808Z" fill="#0054D3"/>
<path d="M16.9598 39.3911L15.239 37.6346V42.9167C15.874 41.8398 16.5597 40.5834 16.9598 39.3911Z" fill="#136DF4"/>
<path d="M23.9889 27.4615C24.1032 25.9808 24.2619 24.4936 24.4461 23.0128C25.8874 22.8974 26.8589 22.8718 29.8813 22.5128L25.8366 18.3718C25.9827 17.6795 26.1478 17.0321 26.3129 16.4167L32.0021 22.2372C33.0307 22.0833 34.0594 21.9103 35.0626 21.6987L27.2335 13.6859C27.6717 12.609 27.7669 12.4872 28.0145 12.0321L37.0056 21.2308C37.9453 20.9744 38.8597 20.6859 39.7296 20.3526C36.5421 17.0897 35.4309 16.1667 36.3452 16.1667C38.4406 16.1667 37.558 15.6859 41.3995 19.6154C43.7997 18.3718 45.514 16.7949 46.9046 14.3141C46.5998 14.2821 35.5579 14.2949 35.5579 14.2949C35.5579 14.218 35.5579 13.3141 35.5579 5.39103C37.4628 4.25001 41.59 3.76924 42.5107 3.73719C39.3613 3.23078 33.6847 4.40385 31.4497 5.53847C25.1318 8.7436 23.0746 15.3013 22.2047 27.5962C21.0681 45.0449 14.3248 46.1474 10.0134 48.3974C13.7597 47.7115 18.1663 46.1538 20.8268 41.4808C20.8268 41.4808 19.7537 45.3141 15.2772 48.2949C15.9059 49.25 16.4964 50.0064 18.1917 50.0064C33.7609 50 35.5579 50 35.5579 50V34.6154H49.9588C49.9588 34.6154 50.0032 21.9872 49.9778 17.859C48.619 20.3526 45.7934 21.7628 45.7934 21.7628C48.0983 20.5 52.4288 13.7692 50.5429 5.36539C50.4921 8.46154 52.5304 26.1859 23.9889 27.4615ZM30.6496 8.61539C34.3007 12.359 33.907 11.5897 33.907 13.6346C33.907 14.6795 32.6371 13.0962 29.4623 9.84616C30.0464 9.14103 30.2496 8.97436 30.6496 8.61539Z" fill="#136DF4"/>
<path d="M12.6673 34.6153C11.1244 33.9743 11.0672 33.5384 11.8292 32.7628C12.5213 32.064 12.1657 32.3974 16.9914 37.2435C17.201 36.2371 17.3724 35.2948 17.4867 34.1923C13.4229 30.032 13.4229 30.4615 14.877 29.8397C15.5056 29.5705 15.6834 29.9871 17.6772 32.0256C17.7597 30.7243 17.8042 29.4038 17.8931 27.9679C10.4069 29.1153 6.55268 33.6794 5.93677 38.7307C7.72736 34.2307 10.0259 32.4423 10.0259 32.4423C9.26396 33.3333 8.69884 34.6153 8.34962 34.6153H12.6673Z" fill="#136DF4"/>
</g>
<defs>
<clipPath id="clip0_12_2596">
<rect width="51" height="50" fill="white"/>
</clipPath>
</defs>
</svg>
