<svg width="190" height="50" viewBox="0 0 190 50" fill="none" xmlns="http://www.w3.org/2000/svg">
<g clip-path="url(#clip0_727_8436)">
<path d="M18.2297 23.4808C19.506 11.6603 24.0078 2.41026 35.6911 2.37179C35.634 0.647436 33.8624 0 32.3449 0C18.5154 0 15.239 0 15.239 0C15.239 0 15.239 10.2564 15.239 14.1026C15.239 14.1026 11.4293 14.1026 0 14.1026V34.6154C0 34.6154 2.01282 34.6154 5.98767 34.6154C7.29569 28.8462 11.8611 24.9679 18.2297 23.4808Z" fill="#0054D3"/>
<path d="M16.9551 39.3912L15.2344 37.6348V42.9168C15.8693 41.8399 16.5551 40.5835 16.9551 39.3912Z" fill="#136DF4"/>
<path d="M23.9911 27.4618C24.1054 25.981 24.2641 24.4938 24.4483 23.0131C25.8896 22.8977 26.8611 22.872 29.8835 22.5131L25.8388 18.372C25.9849 17.6797 26.15 17.0323 26.3151 16.4169L32.0043 22.2374C33.0329 22.0836 34.0616 21.9105 35.0648 21.699L27.2357 13.6861C27.6739 12.6092 27.7691 12.4874 28.0167 12.0323L37.0078 21.231C37.9475 20.9746 38.8619 20.6861 39.7318 20.3528C36.5443 17.09 35.4331 16.1669 36.3474 16.1669C38.4428 16.1669 37.5602 15.6861 41.4017 19.6156C43.8018 18.372 45.5162 16.7951 46.9068 14.3144C46.602 14.2823 35.5601 14.2951 35.5601 14.2951C35.5601 14.2182 35.5601 13.3144 35.5601 5.39128C37.465 4.25025 41.5922 3.76948 42.5129 3.73743C39.3635 3.23102 33.6869 4.4041 31.4519 5.53871C25.134 8.74384 23.0768 15.3015 22.2069 27.5964C21.0703 45.0451 14.327 46.1477 10.0156 48.3977C13.7619 47.7118 18.1685 46.1541 20.829 41.481C20.829 41.481 19.7559 45.3143 15.2794 48.2951C15.9081 49.2502 16.4986 50.0067 18.1939 50.0067C33.7631 50.0002 35.5601 50.0002 35.5601 50.0002V34.6156H49.961C49.961 34.6156 50.0054 21.9874 49.98 17.8592C48.6212 20.3528 45.7956 21.7631 45.7956 21.7631C48.1005 20.5002 52.431 13.7695 50.5451 5.36563C50.4943 8.46179 52.5326 26.1861 23.9911 27.4618ZM30.6518 8.61563C34.3028 12.3592 33.9092 11.59 33.9092 13.6349C33.9092 14.6797 32.6393 13.0964 29.4645 9.8464C30.0486 9.14128 30.2518 8.97461 30.6518 8.61563Z" fill="#136DF4"/>
<path d="M12.6681 34.6152C11.1251 33.9742 11.068 33.5383 11.8299 32.7626C12.522 32.0639 12.1665 32.3973 16.9922 37.2434C17.2017 36.237 17.3731 35.2947 17.4874 34.1921C13.4237 30.0319 13.4237 30.4614 14.8777 29.8396C15.5063 29.5703 15.6841 29.987 17.6779 32.0255C17.7605 30.7242 17.8049 29.4037 17.8938 27.9678C10.4076 29.1152 6.55341 33.6793 5.9375 38.7306C7.72809 34.2306 10.0266 32.4421 10.0266 32.4421C9.26469 33.3332 8.69958 34.6152 8.35035 34.6152H12.6681Z" fill="#136DF4"/>
</g>
<path d="M81.268 12.3H87.1V37.5H81.268V12.3ZM69.82 37.5H63.988V12.3H69.82V37.5ZM81.7 27.168H69.388V22.236H81.7V27.168ZM101.882 37.788C99.8182 37.788 97.9822 37.356 96.3742 36.492C94.7902 35.628 93.5302 34.452 92.5942 32.964C91.6822 31.452 91.2262 29.736 91.2262 27.816C91.2262 25.872 91.6822 24.156 92.5942 22.668C93.5302 21.156 94.7902 19.98 96.3742 19.14C97.9822 18.276 99.8182 17.844 101.882 17.844C103.922 17.844 105.746 18.276 107.354 19.14C108.962 19.98 110.222 21.144 111.134 22.632C112.046 24.12 112.502 25.848 112.502 27.816C112.502 29.736 112.046 31.452 111.134 32.964C110.222 34.452 108.962 35.628 107.354 36.492C105.746 37.356 103.922 37.788 101.882 37.788ZM101.882 33.18C102.818 33.18 103.658 32.964 104.402 32.532C105.146 32.1 105.734 31.488 106.166 30.696C106.598 29.88 106.814 28.92 106.814 27.816C106.814 26.688 106.598 25.728 106.166 24.936C105.734 24.144 105.146 23.532 104.402 23.1C103.658 22.668 102.818 22.452 101.882 22.452C100.946 22.452 100.106 22.668 99.3622 23.1C98.6182 23.532 98.0182 24.144 97.5622 24.936C97.1302 25.728 96.9142 26.688 96.9142 27.816C96.9142 28.92 97.1302 29.88 97.5622 30.696C98.0182 31.488 98.6182 32.1 99.3622 32.532C100.106 32.964 100.946 33.18 101.882 33.18ZM122.772 37.788C121.116 37.788 119.52 37.596 117.984 37.212C116.472 36.804 115.272 36.3 114.384 35.7L116.256 31.668C117.144 32.22 118.188 32.676 119.388 33.036C120.612 33.372 121.812 33.54 122.988 33.54C124.284 33.54 125.196 33.384 125.724 33.072C126.276 32.76 126.552 32.328 126.552 31.776C126.552 31.32 126.336 30.984 125.904 30.768C125.496 30.528 124.944 30.348 124.248 30.228C123.552 30.108 122.784 29.988 121.944 29.868C121.128 29.748 120.3 29.592 119.46 29.4C118.62 29.184 117.852 28.872 117.156 28.464C116.46 28.056 115.896 27.504 115.464 26.808C115.056 26.112 114.852 25.212 114.852 24.108C114.852 22.884 115.2 21.804 115.896 20.868C116.616 19.932 117.648 19.2 118.992 18.672C120.336 18.12 121.944 17.844 123.816 17.844C125.136 17.844 126.48 17.988 127.848 18.276C129.216 18.564 130.356 18.984 131.268 19.536L129.396 23.532C128.46 22.98 127.512 22.608 126.552 22.416C125.616 22.2 124.704 22.092 123.816 22.092C122.568 22.092 121.656 22.26 121.08 22.596C120.504 22.932 120.216 23.364 120.216 23.892C120.216 24.372 120.42 24.732 120.828 24.972C121.26 25.212 121.824 25.404 122.52 25.548C123.216 25.692 123.972 25.824 124.788 25.944C125.628 26.04 126.468 26.196 127.308 26.412C128.148 26.628 128.904 26.94 129.576 27.348C130.272 27.732 130.836 28.272 131.268 28.968C131.7 29.64 131.916 30.528 131.916 31.632C131.916 32.832 131.556 33.9 130.836 34.836C130.116 35.748 129.072 36.468 127.704 36.996C126.36 37.524 124.716 37.788 122.772 37.788ZM146.829 37.788C145.197 37.788 143.769 37.428 142.545 36.708C141.321 35.988 140.361 34.896 139.665 33.432C138.993 31.944 138.657 30.072 138.657 27.816C138.657 25.536 138.981 23.664 139.629 22.2C140.277 20.736 141.213 19.644 142.437 18.924C143.661 18.204 145.125 17.844 146.829 17.844C148.653 17.844 150.285 18.264 151.725 19.104C153.189 19.92 154.341 21.072 155.181 22.56C156.045 24.048 156.477 25.8 156.477 27.816C156.477 29.856 156.045 31.62 155.181 33.108C154.341 34.596 153.189 35.748 151.725 36.564C150.285 37.38 148.653 37.788 146.829 37.788ZM135.381 44.484V18.132H140.745V22.092L140.637 27.852L140.997 33.576V44.484H135.381ZM145.857 33.18C146.793 33.18 147.621 32.964 148.341 32.532C149.085 32.1 149.673 31.488 150.105 30.696C150.561 29.88 150.789 28.92 150.789 27.816C150.789 26.688 150.561 25.728 150.105 24.936C149.673 24.144 149.085 23.532 148.341 23.1C147.621 22.668 146.793 22.452 145.857 22.452C144.921 22.452 144.081 22.668 143.337 23.1C142.593 23.532 142.005 24.144 141.573 24.936C141.141 25.728 140.925 26.688 140.925 27.816C140.925 28.92 141.141 29.88 141.573 30.696C142.005 31.488 142.593 32.1 143.337 32.532C144.081 32.964 144.921 33.18 145.857 33.18ZM160.237 37.5V18.132H165.853V37.5H160.237ZM163.045 15.432C162.013 15.432 161.173 15.132 160.525 14.532C159.877 13.932 159.553 13.188 159.553 12.3C159.553 11.412 159.877 10.668 160.525 10.068C161.173 9.468 162.013 9.168 163.045 9.168C164.077 9.168 164.917 9.456 165.565 10.032C166.213 10.584 166.537 11.304 166.537 12.192C166.537 13.128 166.213 13.908 165.565 14.532C164.941 15.132 164.101 15.432 163.045 15.432ZM171.065 37.5V10.788H176.681V37.5H171.065Z" fill="white"/>
<defs>
<clipPath id="clip0_727_8436">
<rect width="51" height="50" fill="white"/>
</clipPath>
</defs>
</svg>
