<svg width="190" height="50" viewBox="0 0 190 50" fill="none" xmlns="http://www.w3.org/2000/svg">
<g clip-path="url(#clip0_15_26)">
<path d="M18.2297 23.4808C19.506 11.6603 24.0078 2.41026 35.6911 2.37179C35.634 0.647436 33.8624 0 32.3449 0C18.5154 0 15.239 0 15.239 0C15.239 0 15.239 10.2564 15.239 14.1026C15.239 14.1026 11.4293 14.1026 0 14.1026V34.6154C0 34.6154 2.01282 34.6154 5.98767 34.6154C7.29569 28.8462 11.8611 24.9679 18.2297 23.4808Z" fill="#0054D3"/>
<path d="M16.9598 39.3911L15.239 37.6346V42.9167C15.874 41.8398 16.5597 40.5834 16.9598 39.3911Z" fill="#136DF4"/>
<path d="M23.9889 27.4615C24.1032 25.9808 24.2619 24.4936 24.4461 23.0128C25.8874 22.8974 26.8589 22.8718 29.8813 22.5128L25.8366 18.3718C25.9827 17.6795 26.1478 17.0321 26.3129 16.4167L32.0021 22.2372C33.0307 22.0833 34.0594 21.9103 35.0626 21.6987L27.2335 13.6859C27.6717 12.609 27.7669 12.4872 28.0145 12.0321L37.0056 21.2308C37.9453 20.9744 38.8597 20.6859 39.7296 20.3526C36.5421 17.0897 35.4309 16.1667 36.3452 16.1667C38.4406 16.1667 37.558 15.6859 41.3995 19.6154C43.7997 18.3718 45.514 16.7949 46.9046 14.3141C46.5998 14.2821 35.5579 14.2949 35.5579 14.2949C35.5579 14.218 35.5579 13.3141 35.5579 5.39103C37.4628 4.25001 41.59 3.76924 42.5107 3.73719C39.3613 3.23078 33.6847 4.40385 31.4497 5.53847C25.1318 8.7436 23.0746 15.3013 22.2047 27.5962C21.0681 45.0449 14.3248 46.1474 10.0134 48.3974C13.7597 47.7115 18.1663 46.1538 20.8268 41.4808C20.8268 41.4808 19.7537 45.3141 15.2772 48.2949C15.9059 49.25 16.4964 50.0064 18.1917 50.0064C33.7609 50 35.5579 50 35.5579 50V34.6154H49.9588C49.9588 34.6154 50.0032 21.9872 49.9778 17.859C48.619 20.3526 45.7934 21.7628 45.7934 21.7628C48.0983 20.5 52.4288 13.7692 50.5429 5.36539C50.4921 8.46154 52.5304 26.1859 23.9889 27.4615ZM30.6496 8.61539C34.3007 12.359 33.907 11.5897 33.907 13.6346C33.907 14.6795 32.6371 13.0962 29.4623 9.84616C30.0464 9.14103 30.2496 8.97436 30.6496 8.61539Z" fill="#136DF4"/>
<path d="M12.6673 34.6153C11.1244 33.9743 11.0672 33.5384 11.8292 32.7628C12.5213 32.064 12.1657 32.3974 16.9914 37.2435C17.201 36.2371 17.3724 35.2948 17.4867 34.1923C13.4229 30.032 13.4229 30.4615 14.877 29.8397C15.5056 29.5705 15.6834 29.9871 17.6772 32.0256C17.7597 30.7243 17.8042 29.4038 17.8931 27.9679C10.4069 29.1153 6.55268 33.6794 5.93677 38.7307C7.72736 34.2307 10.0259 32.4423 10.0259 32.4423C9.26396 33.3333 8.69884 34.6153 8.34962 34.6153H12.6673Z" fill="#136DF4"/>
</g>
<path d="M81.268 12.3H87.1V37.5H81.268V12.3ZM69.82 37.5H63.988V12.3H69.82V37.5ZM81.7 27.168H69.388V22.236H81.7V27.168ZM101.882 37.788C99.8182 37.788 97.9822 37.356 96.3742 36.492C94.7902 35.628 93.5302 34.452 92.5942 32.964C91.6822 31.452 91.2262 29.736 91.2262 27.816C91.2262 25.872 91.6822 24.156 92.5942 22.668C93.5302 21.156 94.7902 19.98 96.3742 19.14C97.9822 18.276 99.8182 17.844 101.882 17.844C103.922 17.844 105.746 18.276 107.354 19.14C108.962 19.98 110.222 21.144 111.134 22.632C112.046 24.12 112.502 25.848 112.502 27.816C112.502 29.736 112.046 31.452 111.134 32.964C110.222 34.452 108.962 35.628 107.354 36.492C105.746 37.356 103.922 37.788 101.882 37.788ZM101.882 33.18C102.818 33.18 103.658 32.964 104.402 32.532C105.146 32.1 105.734 31.488 106.166 30.696C106.598 29.88 106.814 28.92 106.814 27.816C106.814 26.688 106.598 25.728 106.166 24.936C105.734 24.144 105.146 23.532 104.402 23.1C103.658 22.668 102.818 22.452 101.882 22.452C100.946 22.452 100.106 22.668 99.3622 23.1C98.6182 23.532 98.0182 24.144 97.5622 24.936C97.1302 25.728 96.9142 26.688 96.9142 27.816C96.9142 28.92 97.1302 29.88 97.5622 30.696C98.0182 31.488 98.6182 32.1 99.3622 32.532C100.106 32.964 100.946 33.18 101.882 33.18ZM122.772 37.788C121.116 37.788 119.52 37.596 117.984 37.212C116.472 36.804 115.272 36.3 114.384 35.7L116.256 31.668C117.144 32.22 118.188 32.676 119.388 33.036C120.612 33.372 121.812 33.54 122.988 33.54C124.284 33.54 125.196 33.384 125.724 33.072C126.276 32.76 126.552 32.328 126.552 31.776C126.552 31.32 126.336 30.984 125.904 30.768C125.496 30.528 124.944 30.348 124.248 30.228C123.552 30.108 122.784 29.988 121.944 29.868C121.128 29.748 120.3 29.592 119.46 29.4C118.62 29.184 117.852 28.872 117.156 28.464C116.46 28.056 115.896 27.504 115.464 26.808C115.056 26.112 114.852 25.212 114.852 24.108C114.852 22.884 115.2 21.804 115.896 20.868C116.616 19.932 117.648 19.2 118.992 18.672C120.336 18.12 121.944 17.844 123.816 17.844C125.136 17.844 126.48 17.988 127.848 18.276C129.216 18.564 130.356 18.984 131.268 19.536L129.396 23.532C128.46 22.98 127.512 22.608 126.552 22.416C125.616 22.2 124.704 22.092 123.816 22.092C122.568 22.092 121.656 22.26 121.08 22.596C120.504 22.932 120.216 23.364 120.216 23.892C120.216 24.372 120.42 24.732 120.828 24.972C121.26 25.212 121.824 25.404 122.52 25.548C123.216 25.692 123.972 25.824 124.788 25.944C125.628 26.04 126.468 26.196 127.308 26.412C128.148 26.628 128.904 26.94 129.576 27.348C130.272 27.732 130.836 28.272 131.268 28.968C131.7 29.64 131.916 30.528 131.916 31.632C131.916 32.832 131.556 33.9 130.836 34.836C130.116 35.748 129.072 36.468 127.704 36.996C126.36 37.524 124.716 37.788 122.772 37.788ZM146.829 37.788C145.197 37.788 143.769 37.428 142.545 36.708C141.321 35.988 140.361 34.896 139.665 33.432C138.993 31.944 138.657 30.072 138.657 27.816C138.657 25.536 138.981 23.664 139.629 22.2C140.277 20.736 141.213 19.644 142.437 18.924C143.661 18.204 145.125 17.844 146.829 17.844C148.653 17.844 150.285 18.264 151.725 19.104C153.189 19.92 154.341 21.072 155.181 22.56C156.045 24.048 156.477 25.8 156.477 27.816C156.477 29.856 156.045 31.62 155.181 33.108C154.341 34.596 153.189 35.748 151.725 36.564C150.285 37.38 148.653 37.788 146.829 37.788ZM135.381 44.484V18.132H140.745V22.092L140.637 27.852L140.997 33.576V44.484H135.381ZM145.857 33.18C146.793 33.18 147.621 32.964 148.341 32.532C149.085 32.1 149.673 31.488 150.105 30.696C150.561 29.88 150.789 28.92 150.789 27.816C150.789 26.688 150.561 25.728 150.105 24.936C149.673 24.144 149.085 23.532 148.341 23.1C147.621 22.668 146.793 22.452 145.857 22.452C144.921 22.452 144.081 22.668 143.337 23.1C142.593 23.532 142.005 24.144 141.573 24.936C141.141 25.728 140.925 26.688 140.925 27.816C140.925 28.92 141.141 29.88 141.573 30.696C142.005 31.488 142.593 32.1 143.337 32.532C144.081 32.964 144.921 33.18 145.857 33.18ZM160.237 37.5V18.132H165.853V37.5H160.237ZM163.045 15.432C162.013 15.432 161.173 15.132 160.525 14.532C159.877 13.932 159.553 13.188 159.553 12.3C159.553 11.412 159.877 10.668 160.525 10.068C161.173 9.468 162.013 9.168 163.045 9.168C164.077 9.168 164.917 9.456 165.565 10.032C166.213 10.584 166.537 11.304 166.537 12.192C166.537 13.128 166.213 13.908 165.565 14.532C164.941 15.132 164.101 15.432 163.045 15.432ZM171.065 37.5V10.788H176.681V37.5H171.065Z" fill="#1F2937"/>
<defs>
<clipPath id="clip0_15_26">
<rect width="51" height="50" fill="white"/>
</clipPath>
</defs>
</svg>
