<svg width="185" height="50" viewBox="0 0 185 50" fill="none" xmlns="http://www.w3.org/2000/svg">
<g clip-path="url(#clip0_2287_1040)">
<path fill-rule="evenodd" clip-rule="evenodd" d="M17.8942 14.1302V3.61555H32.0053V8.20289C28.469 13.9612 21.8663 17.0637 15.2114 16.1482C16.3058 17.2971 17.2777 18.5566 18.1091 19.9087C25.1134 19.7075 31.7081 15.9491 35.3669 9.5972C35.6721 9.06805 35.6139 9.28735 35.6139 8.69382V0H14.2856V13.8304C15.611 14.0135 16.5006 14.1664 17.8942 14.1302Z" fill="#25C0D9"/>
<path fill-rule="evenodd" clip-rule="evenodd" d="M14.103 32.0711H3.60859V17.9329H8.1871C13.9343 21.476 17.0309 28.0914 16.1172 34.7592C17.2638 33.6626 18.5209 32.6888 19.8703 31.8558C19.6695 24.838 15.9184 18.2306 9.57873 14.5648C9.05059 14.259 9.26948 14.3173 8.67708 14.3173H0V35.6887H13.8038C13.9866 34.3588 14.1392 33.4675 14.103 32.0711Z" fill="#25C0D9"/>
<path fill-rule="evenodd" clip-rule="evenodd" d="M32.0092 35.8698V46.3825H17.8982V41.7951C21.4345 36.0368 28.0372 32.9343 34.6921 33.8498C33.5977 32.7009 32.6257 31.4414 31.7944 30.0894C24.7901 30.2906 18.1954 34.049 14.5366 40.4008C14.2314 40.93 14.2896 40.7107 14.2896 41.3042V49.996H35.6198V36.1656C34.2925 35.9885 33.4029 35.8336 32.0092 35.8698Z" fill="#25C0D9"/>
<path fill-rule="evenodd" clip-rule="evenodd" d="M35.8006 17.9288H46.293V32.0671H41.7145C35.9672 28.524 32.8707 21.9086 33.7844 15.2408C32.6378 16.3374 31.3807 17.3112 30.0312 18.1441C30.2321 25.162 33.9832 31.7693 40.3229 35.4352C40.851 35.741 40.6321 35.6827 41.2245 35.6827H49.8996V14.3133H36.0958C35.9191 15.6412 35.7644 16.5325 35.8006 17.9288Z" fill="#25C0D9"/>
<path fill-rule="evenodd" clip-rule="evenodd" d="M81.0798 19.2729C82.9032 19.2729 84.3611 19.8684 85.4535 21.0575C86.5459 22.2466 87.0921 23.8401 87.0921 25.838V35.6525H82.9895V26.1257C82.9895 25.17 82.7566 24.4256 82.2907 23.8944C81.8248 23.3632 81.1661 23.0976 80.3187 23.0976C79.3849 23.0976 78.66 23.4055 78.1399 24.0211C77.6198 24.6368 77.3607 25.5301 77.3607 26.6971V35.6505H73.2562V26.1237C73.2562 25.168 73.0232 24.4235 72.5573 23.8924C72.0914 23.3612 71.4328 23.0956 70.5854 23.0956C69.6737 23.0956 68.9467 23.4035 68.4065 24.0191C67.8664 24.6348 67.5953 25.5281 67.5953 26.6951V35.6484H63.4927V19.7195H67.5953V21.4076C68.5491 19.9851 70.0231 19.2729 72.0151 19.2729C73.965 19.2729 75.4068 20.0374 76.3406 21.5665C77.4009 20.0374 78.9793 19.2729 81.0798 19.2729ZM94.6667 29.3751C95.219 31.371 96.713 32.3709 99.1509 32.3709C100.719 32.3709 101.908 31.8397 102.713 30.7774L106.021 32.6888C104.452 34.9624 102.141 36.0991 99.0886 36.0991C96.46 36.0991 94.3494 35.3024 92.759 33.7089C91.1686 32.1154 90.3734 30.1074 90.3734 27.687C90.3734 25.2867 91.1585 23.2848 92.7269 21.6812C94.2952 20.0776 96.3094 19.2749 98.7693 19.2749C101.101 19.2749 103.027 20.0817 104.541 21.6973C106.057 23.3109 106.814 25.3088 106.814 27.687C106.814 28.2182 106.762 28.7815 106.655 29.3751H94.6667ZM94.6045 26.1881H102.713C102.48 25.1056 101.998 24.2968 101.265 23.7656C100.534 23.2345 99.7011 22.9689 98.7693 22.9689C97.6669 22.9689 96.7552 23.2506 96.0343 23.8139C95.3133 24.3773 94.8374 25.168 94.6045 26.1881ZM122.218 13.3475H126.321V35.6525H122.218V33.7733C121.009 35.3245 119.292 36.0991 117.065 36.0991C114.925 36.0991 113.095 35.2863 111.579 33.6606C110.063 32.0349 109.306 30.0451 109.306 27.687C109.306 25.3289 110.063 23.3371 111.579 21.7134C113.095 20.0877 114.923 19.2749 117.065 19.2749C119.292 19.2749 121.009 20.0495 122.218 21.6007V13.3475ZM114.664 30.9203C115.501 31.7593 116.555 32.1798 117.828 32.1798C119.1 32.1798 120.15 31.7613 120.977 30.9203C121.804 30.0813 122.218 29.0028 122.218 27.687C122.218 26.3691 121.804 25.2927 120.977 24.4537C120.15 23.6147 119.102 23.1942 117.828 23.1942C116.557 23.1942 115.501 23.6127 114.664 24.4537C113.826 25.2927 113.406 26.3712 113.406 27.687C113.408 29.0028 113.826 30.0813 114.664 30.9203ZM132.69 23.8521C132.69 24.5644 133.014 25.1257 133.654 25.5462C134.301 25.9607 135.08 26.3007 135.992 26.5603C136.904 26.8259 137.815 27.0854 138.727 27.347C139.639 27.6065 140.408 28.0793 141.032 28.7594C141.663 29.4435 141.976 30.3428 141.976 31.4474C141.976 32.8075 141.44 33.9121 140.37 34.7612C139.299 35.6102 137.916 36.0348 136.219 36.0348C134.693 36.0348 133.393 35.6947 132.323 35.0147C131.253 34.3346 130.506 33.4534 130.08 32.3709L131.861 31.3186C132.158 32.1476 132.692 32.7995 133.468 33.2783C134.241 33.7572 135.158 33.9946 136.219 33.9946C137.257 33.9946 138.126 33.7874 138.827 33.3729C139.526 32.9584 139.878 32.3166 139.878 31.4454C139.878 30.7231 139.56 30.1557 138.924 29.7292C138.287 29.3046 137.514 28.9586 136.602 28.699C135.691 28.4395 134.779 28.1779 133.867 27.9184C132.956 27.6588 132.182 27.19 131.546 26.5221C130.909 25.8521 130.592 24.9768 130.592 23.8924C130.592 22.5967 131.106 21.5142 132.134 20.643C133.162 19.7718 134.462 19.3372 136.03 19.3372C137.323 19.3372 138.458 19.629 139.434 20.2145C140.41 20.7979 141.131 21.5907 141.596 22.5886L139.847 23.6087C139.233 22.1218 137.96 21.3774 136.032 21.3774C135.12 21.3774 134.335 21.5907 133.678 22.0192C133.018 22.4498 132.69 23.0594 132.69 23.8521ZM153.878 21.7597H149.3V31.4152C149.3 32.2864 149.468 32.9081 149.808 33.2783C150.147 33.6505 150.655 33.8417 151.334 33.8517C152.013 33.8618 152.86 33.8457 153.878 33.8035V35.6525C151.651 35.9925 149.982 35.8336 148.87 35.1736C147.757 34.5157 147.201 33.2622 147.201 31.4132V21.7577H143.862V19.7195H147.201V15.8967L149.3 15.2589V19.7195H153.878V21.7597ZM170.712 19.7195H172.811V35.6505H170.712V32.5278C169.25 34.8638 167.108 36.0327 164.288 36.0327C162.019 36.0327 160.085 35.2259 158.485 33.6103C156.884 31.9967 156.083 30.0209 156.083 27.683C156.083 25.3471 156.884 23.3713 158.485 21.7556C160.085 20.142 162.021 19.3332 164.288 19.3332C167.108 19.3332 169.25 20.5022 170.712 22.8381V19.7195ZM159.995 32.1617C161.204 33.3829 162.688 33.9946 164.447 33.9946C166.206 33.9946 167.69 33.385 168.899 32.1617C170.108 30.9404 170.712 29.4475 170.712 27.685C170.712 25.9225 170.108 24.4296 168.899 23.2083C167.69 21.987 166.206 21.3754 164.447 21.3754C162.688 21.3754 161.204 21.985 159.995 23.2083C158.786 24.4296 158.182 25.9225 158.182 27.685C158.182 29.4495 158.786 30.9404 159.995 32.1617ZM179.976 22.3653C180.952 20.4318 182.626 19.466 185 19.466V21.5062C183.558 21.5062 182.361 21.9307 181.405 22.7798C180.452 23.6288 179.974 24.9668 179.974 26.7937V35.6525H177.875V19.7195H179.974V22.3653H179.976Z" fill="#1F2937"/>
</g>
<defs>
<clipPath id="clip0_2287_1040">
<rect width="185" height="50" fill="white"/>
</clipPath>
</defs>
</svg>
