<svg width="138" height="50" viewBox="0 0 138 50" fill="none" xmlns="http://www.w3.org/2000/svg">
<g clip-path="url(#clip0_278_570)">
<path d="M13.3613 34.7717C14.3624 34.7717 15.1733 35.5865 15.1733 36.5903C15.1733 37.5949 14.3614 38.4088 13.3613 38.4088C9.6718 38.4088 6.3317 36.908 3.91351 34.4811C1.49532 32.0551 0 28.7029 0 25C0 22.0712 0.939281 19.3584 2.5321 17.1485C4.16257 14.8863 6.48519 13.154 9.19009 12.2607C9.84073 12.0456 10.5271 11.879 11.2453 11.7637C11.3824 11.7414 11.5195 11.722 11.6556 11.7036C12.0379 8.68276 13.4212 5.97485 15.4619 3.92672C17.8801 1.50074 21.2202 0 24.9098 0C26.9524 0 28.8928 0.464075 30.6314 1.2934C32.4337 2.15277 34.0149 3.40645 35.265 4.944C35.8549 5.67257 35.7892 6.72086 35.1405 7.36998L35.1444 7.37386L26.1908 16.3599C25.4832 17.07 24.3354 17.07 23.6278 16.3599C22.9202 15.6497 22.9202 14.4978 23.6278 13.7876L31.3313 6.05623C30.6594 5.46524 29.9045 4.96435 29.0878 4.57487C27.8261 3.97322 26.4099 3.63703 24.9098 3.63703C22.2213 3.63703 19.7867 4.73086 18.0249 6.49899C16.2632 8.26713 15.1733 10.7105 15.1733 13.4088V26.6635C15.1733 27.6682 14.3614 28.482 13.3613 28.482C12.3603 28.482 11.5494 27.6672 11.5494 26.6635V15.391C11.1343 15.4695 10.7202 15.578 10.3099 15.7136C8.34638 16.3618 6.65606 17.6261 5.46385 19.28C4.30737 20.8844 3.62584 22.8608 3.62584 25C3.62584 27.6982 4.71571 30.1416 6.47747 31.9098C8.23826 33.6779 10.6719 34.7717 13.3613 34.7717ZM34.6462 23.3355C34.6462 22.3308 35.4581 21.517 36.4582 21.517C37.4593 21.517 38.2702 22.3318 38.2702 23.3355V34.6032C40.2327 34.2321 41.9867 33.271 43.343 31.9107C45.1048 30.1426 46.1947 27.6992 46.1947 25.001C46.1947 22.3027 45.1048 19.8593 43.343 18.0912C41.5813 16.323 39.1467 15.2292 36.4582 15.2292C35.4571 15.2292 34.6462 14.4144 34.6462 13.4107C34.6462 12.406 35.4581 11.5922 36.4582 11.5922C40.1478 11.5922 43.4878 13.0929 45.906 15.5199C48.3242 17.9468 49.8195 21.299 49.8195 25.0019C49.8195 28.7049 48.3242 32.057 45.906 34.484C43.8663 36.5312 41.171 37.9185 38.163 38.3032C37.7798 41.3221 36.3964 44.0271 34.3576 46.0742C31.9394 48.5012 28.5993 50.0019 24.9098 50.0019C22.8671 50.0019 20.9268 49.5379 19.1882 48.7085C17.3859 47.8492 15.8046 46.5955 14.5545 45.0579C13.9647 44.3294 14.0303 43.2811 14.679 42.632L14.6752 42.6281L23.6288 33.6421C24.3364 32.9319 25.4842 32.9319 26.1918 33.6421C26.8994 34.3522 26.8994 35.5042 26.1918 36.2143L18.4883 43.9457C19.1602 44.5367 19.9151 45.0376 20.7318 45.4271C21.9935 46.0287 23.4096 46.3649 24.9098 46.3649C27.5983 46.3649 30.0329 45.2711 31.7946 43.5029C33.5564 41.7348 34.6462 39.2914 34.6462 36.5932V23.3355Z" fill="#136DF4"/>
<path fill-rule="evenodd" clip-rule="evenodd" d="M66.2547 10.8269C67.8938 10.8269 69.1864 11.3288 70.1315 12.3315C71.0775 13.3353 71.5496 14.6858 71.5496 16.3852V24.7104H69.7666V16.3852C69.7666 15.1741 69.4471 14.2343 68.807 13.5649C68.168 12.8964 67.2625 12.5611 66.0915 12.5611C64.7951 12.5611 63.7409 12.9719 62.93 13.7955C62.1191 14.618 61.7146 15.8882 61.7146 17.6049V24.7095H59.9316V5.72887H61.7146V13.2674C62.7244 11.6407 64.238 10.8269 66.2547 10.8269ZM67.0385 45.0842C65.0026 45.0842 63.3103 44.4021 61.9589 43.037C60.6083 41.6719 59.9326 39.9862 59.9326 37.9797C59.9326 35.9732 60.6083 34.2874 61.9589 32.9223C63.3094 31.5572 65.0026 30.8752 67.0385 30.8752C68.3717 30.8752 69.5696 31.1959 70.6325 31.8382C71.6953 32.4796 72.4695 33.3428 72.9561 34.4279L71.4974 35.2689C71.1374 34.455 70.5562 33.8088 69.755 33.3302C68.9538 32.8516 68.0483 32.6113 67.0395 32.6113C65.5442 32.6113 64.2834 33.1306 63.2573 34.1702C62.2301 35.2098 61.7175 36.4799 61.7175 37.9797C61.7175 39.4804 62.2311 40.7506 63.2573 41.7892C64.2844 42.8287 65.5451 43.348 67.0395 43.348C68.0483 43.348 68.9489 43.1087 69.7415 42.6292C70.534 42.1506 71.1557 41.5034 71.6056 40.6905L73.0912 41.5586C72.5323 42.6437 71.7137 43.5021 70.6325 44.1347C69.5513 44.7684 68.3533 45.0842 67.0385 45.0842ZM87.9682 31.2007H89.7512V44.7587H87.9682V42.1011C86.7258 44.0902 84.9061 45.0842 82.5101 45.0842C80.5823 45.0842 78.9393 44.3973 77.5791 43.0235C76.2189 41.6497 75.5393 39.9687 75.5393 37.9797C75.5393 35.9907 76.2189 34.3097 77.5791 32.9359C78.9393 31.5621 80.5823 30.8752 82.5101 30.8752C84.9061 30.8752 86.7248 31.8692 87.9682 33.8582V31.2007ZM78.863 41.7901C79.8902 42.8297 81.1509 43.349 82.6453 43.349C84.1406 43.349 85.4013 42.8297 86.4275 41.7901C87.4546 40.7506 87.9672 39.4804 87.9672 37.9807C87.9672 36.4799 87.4536 35.2098 86.4275 34.1712C85.4003 33.1316 84.1396 32.6123 82.6453 32.6123C81.1499 32.6123 79.8892 33.1316 78.863 34.1712C77.8359 35.2107 77.3233 36.4809 77.3233 37.9807C77.3223 39.4804 77.8359 40.7506 78.863 41.7901ZM96.1446 33.4513C96.9729 31.8062 98.3958 30.9837 100.413 30.9837V32.7189C99.1884 32.7189 98.1709 33.0803 97.36 33.804C96.5491 34.5267 96.1446 35.6661 96.1446 37.2211V44.7596H94.3617V31.2007H96.1446V33.4513ZM109.103 30.8752C111.103 30.8752 112.72 31.5844 113.953 33.0037C115.187 34.4231 115.804 36.0992 115.804 38.0339C115.804 38.2326 115.786 38.5126 115.75 38.8749H103.889C104.069 40.2487 104.649 41.3377 105.631 42.1428C106.613 42.9469 107.824 43.349 109.266 43.349C110.293 43.349 111.179 43.1368 111.927 42.7115C112.674 42.2872 113.237 41.731 113.615 41.0441L115.182 41.9665C114.588 42.9247 113.778 43.6842 112.751 44.2442C111.723 44.8042 110.553 45.0852 109.238 45.0852C107.112 45.0852 105.383 44.4167 104.05 43.0787C102.717 41.7407 102.051 40.0414 102.051 37.9807C102.051 35.9558 102.708 34.2661 104.023 32.9097C105.339 31.5534 107.032 30.8752 109.103 30.8752ZM109.103 32.6104C107.699 32.6104 106.523 33.0308 105.577 33.8718C104.631 34.7128 104.068 35.8017 103.889 37.1397H113.967C113.786 35.7116 113.237 34.5994 112.319 33.804C111.4 33.0086 110.328 32.6104 109.103 32.6104ZM81.7929 10.8269C83.7921 10.8269 85.409 11.5361 86.6428 12.9555C87.8765 14.3748 88.4933 16.0509 88.4933 17.9857C88.4933 18.1843 88.475 18.4643 88.4393 18.8266H76.5781C76.7586 20.2005 77.3388 21.2894 78.3205 22.0946C79.3023 22.8987 80.5138 23.3008 81.955 23.3008C82.9822 23.3008 83.8693 23.0886 84.6165 22.6633C85.3637 22.2389 85.9265 21.6828 86.3049 20.9959L87.8716 21.9182C87.277 22.8764 86.4671 23.636 85.4399 24.196C84.4128 24.756 83.2428 25.0369 81.927 25.0369C79.8013 25.0369 78.0724 24.3684 76.7393 23.0305C75.4061 21.6925 74.74 19.9931 74.74 17.9324C74.74 15.9075 75.3974 14.2179 76.7122 12.8615C78.028 11.5051 79.7212 10.8269 81.7929 10.8269ZM81.7929 12.5631C80.3883 12.5631 79.2125 12.9836 78.2674 13.8245C77.3214 14.6655 76.7586 15.7544 76.579 17.0924H86.6572C86.4767 15.6643 85.9274 14.5521 85.0094 13.7567C84.0894 12.9603 83.0179 12.5631 81.7929 12.5631ZM103.491 11.1525H105.274V24.7104H103.491V22.0529C102.249 24.0419 100.429 25.036 98.0329 25.036C96.1051 25.036 94.462 24.349 93.1019 22.9752C91.7417 21.6014 91.0621 19.9205 91.0621 17.9314C91.0621 15.9424 91.7417 14.2615 93.1019 12.8876C94.462 11.5138 96.1051 10.8269 98.0329 10.8269C100.429 10.8269 102.248 11.821 103.491 13.81V11.1525ZM94.3858 21.7419C95.4129 22.7815 96.6737 23.3008 98.168 23.3008C99.6633 23.3008 100.924 22.7815 101.95 21.7419C102.977 20.7023 103.49 19.4322 103.49 17.9324C103.49 16.4317 102.976 15.1615 101.95 14.1229C100.923 13.0834 99.6624 12.5641 98.168 12.5641C96.6727 12.5641 95.4119 13.0834 94.3858 14.1229C93.3587 15.1625 92.8461 16.4326 92.8461 17.9324C92.8451 19.4322 93.3587 20.7023 94.3858 21.7419ZM109.6 24.7114V4.91602H111.383V24.7114H109.6ZM122.867 12.8876H118.977V21.1044C118.977 21.8456 119.121 22.3745 119.409 22.6904C119.698 23.0062 120.13 23.169 120.706 23.1787C121.282 23.1874 122.002 23.1738 122.867 23.138V24.7104C120.976 25.0001 119.557 24.8645 118.612 24.3035C117.666 23.7435 117.194 22.6768 117.194 21.1034V12.8867H114.357V11.1515H117.193V7.89811L118.976 7.35556V11.1515H122.866L122.867 12.8876ZM132.704 10.8269C134.343 10.8269 135.636 11.3288 136.581 12.3315C137.527 13.3353 137.999 14.6858 137.999 16.3852V24.7104H136.216V16.3852C136.216 15.1741 135.897 14.2343 135.257 13.5649C134.618 12.8964 133.712 12.5611 132.541 12.5611C131.245 12.5611 130.19 12.9719 129.38 13.7955C128.569 14.618 128.164 15.8882 128.164 17.6049V24.7095H126.381V5.72887H128.164V13.2674C129.174 11.6407 130.687 10.8269 132.704 10.8269Z" fill="#1F2937"/>
</g>
<defs>
<clipPath id="clip0_278_570">
<rect width="138" height="50" fill="white"/>
</clipPath>
</defs>
</svg>
