<svg width="158" height="30" viewBox="0 0 158 30" fill="none" xmlns="http://www.w3.org/2000/svg">
<rect width="30" height="30" fill="#00B67A"/>
<path d="M25.4211 11.6438H17.2413L14.7147 4L12.1791 11.6444L4 11.6361L10.6245 16.3645L8.09021 24L14.7147 19.2792L21.3315 24L18.8049 16.3645L25.4211 11.6438Z" fill="white"/>
<path d="M19.3731 18.094L18.8044 16.3652L14.7148 19.2799L19.3731 18.094Z" fill="#126849"/>
<rect width="30" height="30" transform="translate(32)" fill="#00B67A"/>
<path d="M57.4211 11.6438H49.2413L46.7147 4L44.1791 11.6444L36 11.6361L42.6245 16.3645L40.0902 24L46.7147 19.2792L53.3315 24L50.8049 16.3645L57.4211 11.6438Z" fill="white"/>
<path d="M51.3731 18.094L50.8044 16.3652L46.7148 19.2799L51.3731 18.094Z" fill="#126849"/>
<rect width="30" height="30" transform="translate(64)" fill="#00B67A"/>
<path d="M89.4211 11.6438H81.2413L78.7147 4L76.1791 11.6444L68 11.6361L74.6245 16.3645L72.0902 24L78.7147 19.2792L85.3315 24L82.8049 16.3645L89.4211 11.6438Z" fill="white"/>
<path d="M83.3731 18.094L82.8044 16.3652L78.7148 19.2799L83.3731 18.094Z" fill="#126849"/>
<rect width="30" height="30" transform="translate(96)" fill="#00B67A"/>
<path d="M121.421 11.6438H113.241L110.715 4L108.179 11.6444L100 11.6361L106.624 16.3645L104.09 24L110.715 19.2792L117.331 24L114.805 16.3645L121.421 11.6438Z" fill="white"/>
<path d="M115.373 18.094L114.804 16.3652L110.715 19.2799L115.373 18.094Z" fill="#126849"/>
<rect width="30" height="30" transform="translate(128)" fill="#00B67A"/>
<path d="M153.421 11.6438H145.241L142.715 4L140.179 11.6444L132 11.6361L138.624 16.3645L136.09 24L142.715 19.2792L149.331 24L146.805 16.3645L153.421 11.6438Z" fill="white"/>
<path d="M147.373 18.094L146.804 16.3652L142.715 19.2799L147.373 18.094Z" fill="#126849"/>
</svg>
