<svg width="1920" height="921" viewBox="0 0 1920 921" fill="none" xmlns="http://www.w3.org/2000/svg">
<mask id="mask0_580_1972" style="mask-type:alpha" maskUnits="userSpaceOnUse" x="0" y="0" width="1920" height="921">
<rect width="1920" height="921" fill="#D9D9D9"/>
</mask>
<g mask="url(#mask0_580_1972)">
<g filter="url(#filter0_f_580_1972)">
<path d="M466.793 351.628L149.249 312.789C94.016 374.151 -12.9034 501.344 1.28354 519.221C19.0172 541.566 65.014 496.875 449.059 496.875C833.105 496.875 466.793 538.906 492.839 580.937C518.886 622.969 772.145 580.937 847.513 580.937C922.881 580.937 993.262 538.906 1106.87 477.721C1220.47 416.537 1272.57 494.215 1321.89 496.875C1371.21 499.535 1435.5 538.906 1531.37 580.937C1608.07 614.562 1664.19 566.927 1682.66 538.906L1909.87 460.696C1913.75 424.34 1919.18 343.86 1909.87 312.789C1898.23 273.95 1770.22 226.066 1700.39 195.207C1630.57 164.349 1519.73 178.714 1479.28 195.207C1446.91 208.402 1327.99 279.093 1272.57 312.789C1172.63 312.789 964.001 305.553 928.977 276.61C893.953 247.667 741.85 230.854 670.176 226.066C651.704 239.19 610.768 267.671 594.808 276.61C578.848 285.548 502.815 330.346 466.793 351.628Z" fill="#DBD5F7" fill-opacity="0.48"/>
<path d="M468.009 663.297L149.638 624.503C94.2608 685.794 -12.937 812.84 1.28689 830.696C19.0668 853.016 65.1833 808.376 450.229 808.376C835.274 808.376 468.009 850.358 494.123 892.341C520.237 934.324 774.156 892.341 849.72 892.341C925.285 892.341 995.849 850.358 1109.75 789.245C1223.65 728.131 1337.55 725.203 1387 727.861C1436.45 730.518 1439.23 850.358 1535.36 892.341C1612.25 925.927 1744.48 836.364 1763 808.376L1914.85 772.239C1918.74 735.925 1924.18 655.538 1914.85 624.503C1903.18 585.709 1774.83 537.881 1704.82 507.058C1634.81 476.235 1523.69 490.584 1483.13 507.058C1450.68 520.237 1331.44 590.846 1275.88 624.503C1175.68 624.503 966.512 617.276 931.397 588.366C896.281 559.456 743.782 542.663 671.922 537.881C653.401 550.989 612.359 579.438 596.357 588.366C580.355 597.294 504.124 642.04 468.009 663.297Z" fill="#C8DDFF" fill-opacity="0.8"/>
</g>
</g>
<defs>
<filter id="filter0_f_580_1972" x="-150" y="27.0591" width="2220" height="1033.94" filterUnits="userSpaceOnUse" color-interpolation-filters="sRGB">
<feFlood flood-opacity="0" result="BackgroundImageFix"/>
<feBlend mode="normal" in="SourceGraphic" in2="BackgroundImageFix" result="shape"/>
<feGaussianBlur stdDeviation="75" result="effect1_foregroundBlur_580_1972"/>
</filter>
</defs>
</svg>
