<svg width="607" height="609" viewBox="0 0 607 609" fill="none" xmlns="http://www.w3.org/2000/svg">
<path d="M485.009 608.603C528.275 571.773 561.79 524.841 582.586 471.964C603.382 419.088 610.816 361.898 604.231 305.462C597.645 249.026 577.243 195.085 544.831 148.417C512.42 101.749 468.999 63.7952 418.415 37.9167C367.832 12.0381 311.646 -0.966133 254.837 0.0559718C198.027 1.07806 142.346 16.0949 92.7255 43.7763C43.1055 71.4577 1.07808 110.949 -29.634 158.753C-60.346 206.556 -78.7947 261.196 -83.3459 317.833L128.96 334.893C130.705 313.171 137.781 292.214 149.561 273.879C161.34 255.544 177.459 240.397 196.491 229.78C215.523 219.163 236.879 213.403 258.668 213.011C280.457 212.619 302.007 217.607 321.408 227.533C340.809 237.458 357.463 252.015 369.894 269.915C382.326 287.814 390.151 308.503 392.677 330.149C395.202 351.794 392.351 373.729 384.375 394.01C376.399 414.29 363.544 432.291 346.949 446.417L485.009 608.603Z" fill="#136DF4" fill-opacity="0.3"/>
</svg>
