<svg width="120" height="122" viewBox="0 0 120 122" fill="none" xmlns="http://www.w3.org/2000/svg">
<path d="M29.3793 100.158L30.5047 100.885L30.5248 110.893L30.5707 110.923C30.6804 110.728 30.8055 110.505 30.946 110.254C31.0841 110.006 31.2371 109.744 31.405 109.468C31.5667 109.192 31.7378 108.915 31.9183 108.635L35.0348 103.813L35.9419 104.399L30.5178 112.793L29.3982 112.069L29.3805 102.096L29.3404 102.07C29.2614 102.209 29.1486 102.405 29.0018 102.657C28.8525 102.913 28.6921 103.187 28.5205 103.477C28.3427 103.769 28.1746 104.038 28.0163 104.283L24.8739 109.146L23.9552 108.552L29.3793 100.158ZM20.7471 102.83C20.2748 102.401 19.9649 101.929 19.8174 101.414C19.67 100.898 19.6784 100.37 19.8427 99.83C20.004 99.2931 20.3128 98.7733 20.7693 98.2706L21.2426 97.7493L25.0737 101.228C25.6549 100.568 25.9433 99.9246 25.9389 99.299C25.9345 98.6733 25.6473 98.1016 25.0771 97.5838C24.7262 97.2652 24.3867 97.0154 24.0586 96.8344C23.7304 96.6534 23.3646 96.4936 22.9611 96.355L23.6321 95.6161C24.0254 95.7455 24.3865 95.9072 24.7152 96.1011C25.0406 96.2918 25.3906 96.5573 25.7651 96.8973C26.2981 97.3814 26.6657 97.9121 26.8678 98.4896C27.0634 99.0673 27.0794 99.6666 26.9157 100.287C26.7521 100.908 26.393 101.524 25.8385 102.135C25.2962 102.732 24.728 103.158 24.1337 103.412C23.533 103.667 22.9432 103.747 22.3644 103.652C21.7822 103.555 21.2431 103.281 20.7471 102.83ZM21.3822 102.151C21.831 102.559 22.3219 102.737 22.8549 102.685C23.388 102.634 23.9188 102.368 24.4473 101.887L21.512 99.222C21.2152 99.5557 21.004 99.8933 20.8785 100.235C20.7466 100.577 20.719 100.909 20.7959 101.231C20.8696 101.556 21.0651 101.863 21.3822 102.151ZM15.0962 96.87C14.6904 96.3777 14.4516 95.8658 14.3798 95.3344C14.3079 94.803 14.3921 94.2818 14.6324 93.7708C14.8691 93.2627 15.2495 92.7927 15.7735 92.3608L16.3168 91.9129L19.6081 95.9061C20.2782 95.3361 20.656 94.7413 20.7416 94.1214C20.8272 93.5016 20.6251 92.8946 20.1352 92.3003C19.8338 91.9345 19.5337 91.6385 19.235 91.4123C18.9363 91.186 18.5972 90.9753 18.2178 90.7801L18.988 90.1453C19.3587 90.3299 19.6928 90.5418 19.9902 90.7809C20.2848 91.0165 20.593 91.3294 20.9147 91.7198C21.3727 92.2754 21.6602 92.8535 21.7771 93.4539C21.8877 94.0538 21.8174 94.6492 21.5662 95.2401C21.315 95.831 20.8712 96.3888 20.2346 96.9134C19.6122 97.4265 18.9886 97.7662 18.364 97.9327C17.7329 98.0985 17.1377 98.0929 16.5785 97.916C16.0164 97.7356 15.5223 97.3869 15.0962 96.87ZM15.8223 96.2892C16.2078 96.7569 16.668 97.0036 17.203 97.0293C17.7379 97.0549 18.3014 96.868 18.8935 96.4686L16.3717 93.4091C16.03 93.6966 15.7725 94.0004 15.5992 94.3204C15.4195 94.6398 15.3445 94.9644 15.3743 95.2943C15.4005 95.627 15.5498 95.9587 15.8223 96.2892ZM17.1539 86.3356C17.6399 87.1494 17.7477 87.9609 17.4772 88.7701C17.2044 89.5753 16.5202 90.3051 15.4247 90.9594C14.3174 91.6207 13.3372 91.877 12.484 91.7284C11.6269 91.5821 10.9577 91.1059 10.4763 90.2999C10.273 89.9595 10.1404 89.6353 10.0785 89.3272C10.0166 89.0191 10.0071 88.7276 10.0498 88.4526C10.0887 88.1799 10.1666 87.9237 10.2835 87.684L10.2414 87.6136C10.1295 87.7016 9.97256 87.8166 9.77063 87.9584C9.56869 88.1003 9.40121 88.2109 9.26819 88.2904L6.69175 89.8292L6.10989 88.8549L15.2419 83.4009L15.7116 84.1873L14.8836 84.8808L14.9082 84.9219C15.1723 84.9287 15.4388 84.9792 15.7074 85.0736C15.9738 85.164 16.231 85.3103 16.4791 85.5124C16.721 85.713 16.9459 85.9874 17.1539 86.3356ZM16.2529 86.6667C15.8416 85.9781 15.355 85.6079 14.7932 85.5559C14.2313 85.504 13.565 85.7082 12.7942 86.1685L12.6182 86.2737C11.8004 86.7621 11.2543 87.2741 10.9796 87.8097C10.7027 88.3414 10.778 88.9652 11.2056 89.6812C11.5631 90.2798 12.0616 90.5899 12.7008 90.6116C13.3362 90.6355 14.051 90.4103 14.8453 89.9359C15.6356 89.4639 16.1583 88.9526 16.4135 88.4022C16.6663 87.8478 16.6127 87.2693 16.2529 86.6667ZM11.2055 72.8199L8.57143 74.9732L9.81346 78.7817L13.2084 78.9616L13.573 80.0794L2.82 79.4734L2.49571 78.479L10.8324 71.6761L11.2055 72.8199ZM7.69817 75.6247L5.06454 77.7132C4.99503 77.7646 4.88134 77.8496 4.72348 77.9682C4.56421 78.0824 4.39915 78.201 4.22829 78.3238C4.05743 78.4467 3.91987 78.5466 3.81561 78.6238C4.00738 78.6092 4.20056 78.5989 4.39516 78.593C4.58401 78.5841 4.76203 78.5788 4.92922 78.577C5.09207 78.5766 5.23114 78.5768 5.34643 78.5775L8.71129 78.7313L7.69817 75.6247ZM2.73536 68.9452C2.59591 68.0675 2.70646 67.3693 3.06703 66.8506C3.42309 66.3326 4.07596 65.9981 5.02564 65.8472L9.84603 65.0813L10.022 66.1885L5.27583 66.9426C4.65921 67.0406 4.22041 67.2557 3.9594 67.5879C3.69769 67.9155 3.61296 68.3697 3.70521 68.9503C3.83537 69.7694 4.1587 70.3087 4.6752 70.5681C5.19171 70.8275 5.89104 70.8871 6.77321 70.747L10.6484 70.1312L10.8265 71.2519L3.42713 72.4276L3.28338 71.523L4.32326 71.1847L4.31361 71.1239C4.02753 71.0079 3.77742 70.8423 3.56327 70.6271C3.34461 70.4127 3.16632 70.1619 3.02839 69.8746C2.88596 69.5881 2.78828 69.2783 2.73536 68.9452ZM2.23829 64.7739L2.21899 63.5573L6.53985 61.8342C6.79351 61.7345 7.03816 61.6417 7.27381 61.5559C7.5049 61.4702 7.72702 61.3938 7.94017 61.3266C8.15333 61.2594 8.35986 61.206 8.55978 61.1663L8.55902 61.1185C8.33017 61.0583 8.03026 60.9719 7.65929 60.8593C7.28376 60.7468 6.90125 60.6252 6.51176 60.4947L2.14664 58.9983L2.12723 57.7748L10.7707 60.8988C11.2336 61.0647 11.6378 61.2611 11.9833 61.488C12.3287 61.7105 12.5951 61.9843 12.7826 62.3094C12.9746 62.6346 13.0743 63.0295 13.0817 63.4943C13.0851 63.7085 13.0744 63.8978 13.0497 64.0623C13.0295 64.2267 13.0044 64.3684 12.9744 64.4873L12.0653 64.5018C12.0865 64.4012 12.1051 64.2801 12.1211 64.1385C12.137 63.9924 12.1437 63.8419 12.1412 63.687C12.1368 63.4045 12.0782 63.1616 11.9656 62.9582C11.8575 62.7503 11.6997 62.5728 11.4922 62.4256C11.2848 62.2785 11.039 62.1525 10.7547 62.0476L9.69559 61.6542L2.23829 64.7739ZM8.49536 47.6501C9.07798 47.7576 9.54858 47.995 9.90716 48.3624C10.2621 48.7244 10.4992 49.1852 10.6184 49.7448C10.7376 50.3044 10.7323 50.9359 10.6025 51.6396C10.5339 52.0115 10.4511 52.3601 10.3541 52.6851C10.257 53.0101 10.1493 53.3054 10.0308 53.5708C9.91234 53.8363 9.78437 54.0653 9.64692 54.2577L8.55115 54.0556C8.75208 53.7451 8.95769 53.359 9.16798 52.8973C9.37378 52.4348 9.52546 51.9391 9.62301 51.4102C9.71394 50.9172 9.72584 50.4885 9.6587 50.1239C9.58708 49.7585 9.44414 49.4656 9.22989 49.2454C9.01198 49.0198 8.72824 48.8748 8.37867 48.8103C8.04254 48.7483 7.7488 48.7706 7.49743 48.8772C7.24159 48.9829 6.98996 49.1914 6.74256 49.5026C6.4915 49.8084 6.20609 50.2378 5.88633 50.7905C5.66155 51.18 5.43242 51.5177 5.19894 51.8037C4.96098 52.0888 4.71012 52.3183 4.44635 52.4921C4.18259 52.6659 3.89248 52.7815 3.57602 52.839C3.26039 52.892 2.9121 52.8833 2.53115 52.8131C2.0068 52.7164 1.58302 52.5015 1.25981 52.1684C0.93295 51.8301 0.714323 51.4074 0.60393 50.9005C0.489883 50.3882 0.489487 49.8251 0.602742 49.2111C0.699464 48.6868 0.838044 48.2118 1.01848 47.7863C1.19975 47.3564 1.4076 46.9707 1.64204 46.6293L2.5578 47.1666C2.3446 47.4934 2.15191 47.8471 1.97974 48.2278C1.8084 48.604 1.68387 49.0027 1.60616 49.424C1.52845 49.8453 1.52548 50.2132 1.59723 50.5276C1.66533 50.8368 1.79736 51.0882 1.99334 51.2819C2.18932 51.4756 2.44192 51.601 2.75116 51.658C3.09625 51.7217 3.39631 51.7029 3.65133 51.6016C3.90717 51.4959 4.15408 51.3005 4.39204 51.0153C4.62634 50.7249 4.88863 50.333 5.17889 49.8397C5.49617 49.3005 5.81078 48.851 6.12271 48.4915C6.43016 48.1311 6.77361 47.8771 7.15307 47.7292C7.52805 47.5806 7.97548 47.5542 8.49536 47.6501ZM5.13159 41.858C5.33592 41.2536 5.6449 40.7808 6.05852 40.4395C6.47214 40.0983 6.95939 39.895 7.52028 39.8296C8.07685 39.7628 8.67677 39.8382 9.32004 40.0556L9.98706 40.2811L8.32979 45.1834C9.1674 45.4521 9.8721 45.4594 10.4439 45.2053C11.0157 44.9512 11.4249 44.4594 11.6715 43.7298C11.8233 43.2808 11.9166 42.8697 11.9513 42.4966C11.986 42.1235 11.9863 41.7243 11.9521 41.299L12.8976 41.6186C12.9362 42.031 12.9323 42.4265 12.886 42.8054C12.8412 43.1799 12.7378 43.6067 12.5758 44.086C12.3452 44.7681 12.0056 45.3172 11.5571 45.7332C11.1057 46.1434 10.5627 46.3977 9.92822 46.4958C9.29369 46.594 8.58572 46.511 7.80429 46.2469C7.04014 45.9885 6.42265 45.6379 5.95184 45.1949C5.47816 44.7461 5.16904 44.2375 5.02445 43.6691C4.88133 43.0963 4.91704 42.4926 5.13159 41.858ZM6.00793 42.1687C5.81382 42.7429 5.84691 43.264 6.10721 43.732C6.36752 44.2001 6.82347 44.5803 7.47507 44.8728L8.74484 41.1168C8.32029 40.978 7.92638 40.9194 7.56312 40.941C7.197 40.9567 6.88165 41.0642 6.61707 41.2634C6.34817 41.4611 6.14513 41.7629 6.00793 42.1687ZM8.46948 33.838C8.53502 33.7026 8.61174 33.5651 8.69964 33.4254C8.78344 33.2837 8.86545 33.1614 8.94566 33.0584L9.83062 33.6464C9.74829 33.7432 9.66615 33.8554 9.58421 33.9828C9.50226 34.1102 9.4325 34.2334 9.3749 34.3523C9.24383 34.6231 9.17508 34.9062 9.16866 35.2019C9.16012 35.4914 9.21471 35.7761 9.33241 36.0558C9.44602 36.3336 9.62156 36.5933 9.85904 36.8349C10.0924 37.0744 10.3834 37.2786 10.7321 37.4474L14.3499 39.1991L13.8524 40.2266L7.10902 36.9616L7.52011 36.1126L8.81658 36.6036L8.83744 36.5605C8.65475 36.2999 8.50852 36.0215 8.39876 35.7253C8.28489 35.4271 8.22899 35.1191 8.23105 34.8011C8.2351 34.479 8.31457 34.1579 8.46948 33.838ZM17.0711 34.2581L9.2242 32.6316L9.8779 31.6053L14.5856 32.6506C14.9082 32.721 15.2589 32.8066 15.6378 32.9074C16.0166 33.0083 16.3144 33.1007 16.531 33.1846L16.5567 33.1443C16.3939 32.9757 16.1892 32.7373 15.9426 32.4289C15.6921 32.118 15.4662 31.8364 15.265 31.584L12.3274 27.7596L12.9811 26.7333L17.7689 33.1626L17.0711 34.2581ZM14.544 24.701L20.4637 29.2934L19.7681 30.19L13.8484 25.5976L14.544 24.701ZM11.9901 23.4206C12.1046 23.2729 12.251 23.1846 12.4292 23.1556C12.6067 23.1202 12.7962 23.1807 12.9978 23.3372C13.1959 23.4908 13.3016 23.6593 13.315 23.8428C13.3312 24.0226 13.2821 24.1864 13.1675 24.334C13.0474 24.4888 12.8983 24.5808 12.72 24.6098C12.5446 24.6352 12.3578 24.571 12.1598 24.4174C11.9582 24.261 11.8496 24.096 11.8342 23.9226C11.818 23.7427 11.87 23.5754 11.9901 23.4206ZM23.8711 25.7436C23.4084 26.2343 22.8992 26.5717 22.3437 26.7556C21.7881 26.9395 21.2046 26.9405 20.5932 26.7586C19.9818 26.5766 19.3611 26.1886 18.7311 25.5946C18.0713 24.9724 17.6357 24.3549 17.4243 23.7421C17.2127 23.1229 17.1887 22.524 17.3522 21.9453C17.5158 21.3667 17.8305 20.8303 18.2964 20.3363C18.5527 20.0644 18.8279 19.8291 19.1219 19.6302C19.4157 19.425 19.6807 19.2802 19.9168 19.1959L20.3736 20.0964C20.1509 20.1997 19.9099 20.3357 19.6505 20.5045C19.3942 20.67 19.177 20.8472 18.9987 21.0362C18.6423 21.4142 18.4265 21.8058 18.3514 22.211C18.2793 22.6129 18.3414 23.0253 18.5376 23.4483C18.7369 23.868 19.0669 24.2952 19.5278 24.7298C19.9688 25.1456 20.4014 25.4408 20.8256 25.6154C21.253 25.7866 21.6621 25.831 22.053 25.7486C22.4437 25.6598 22.8094 25.4347 23.1502 25.0733C23.4223 24.7848 23.6379 24.4964 23.797 24.208C23.9529 23.9165 24.0785 23.6372 24.1738 23.37L24.9099 24.0641C24.8308 24.334 24.7098 24.6052 24.5469 24.8775C24.3871 25.1466 24.1619 25.4353 23.8711 25.7436ZM23.357 15.7753C23.8514 15.372 24.3644 15.1357 24.8961 15.0665C25.4279 14.9973 25.9486 15.0841 26.4585 15.3269C26.9654 15.5661 27.4335 15.9488 27.8628 16.4749L28.308 17.0205L24.2985 20.292C24.8652 20.9648 25.4582 21.3456 26.0776 21.4343C26.697 21.523 27.305 21.3239 27.9017 20.8369C28.269 20.5373 28.5665 20.2387 28.7942 19.9411C29.0219 19.6435 29.2343 19.3055 29.4314 18.9271L30.0624 19.7004C29.8759 20.0702 29.6624 20.4032 29.4218 20.6995C29.1848 20.9929 28.8703 21.2995 28.4784 21.6193C27.9205 22.0745 27.341 22.3591 26.7399 22.4731C26.1395 22.5807 25.5445 22.5074 24.9548 22.2533C24.3652 21.9992 23.8096 21.5526 23.2881 20.9135C22.7782 20.2885 22.4415 19.6633 22.2782 19.0378C22.1155 18.4059 22.124 17.8108 22.3036 17.2525C22.4868 16.6912 22.838 16.1989 23.357 15.7753ZM23.9342 16.5043C23.4646 16.8875 23.2156 17.3465 23.1873 17.8813C23.159 18.4161 23.3431 18.9805 23.7396 19.5746L26.8116 17.068C26.5257 16.7249 26.2232 16.4658 25.9041 16.291C25.5856 16.1097 25.2613 16.0331 24.9314 16.0612C24.5985 16.0858 24.2661 16.2335 23.9342 16.5043ZM34.6328 14.7563C34.8845 15.1632 34.994 15.5698 34.9612 15.9759C34.9298 16.3757 34.7674 16.7629 34.4739 17.1374C34.1843 17.5094 33.7779 17.8573 33.2546 18.181C32.8089 18.4567 32.4017 18.6603 32.033 18.792C31.6643 18.9236 31.3183 19.001 30.995 19.0241L30.4448 18.1346C30.7836 18.1019 31.1656 18.0264 31.5907 17.9081C32.0159 17.7897 32.4165 17.6143 32.7924 17.3818C33.3428 17.0413 33.6868 16.7052 33.8246 16.3735C33.9623 16.0418 33.9365 15.7228 33.7471 15.4167C33.6392 15.2423 33.4942 15.1203 33.3119 15.0509C33.1311 14.9752 32.886 14.9472 32.5768 14.9671C32.2651 14.983 31.8571 15.0425 31.3528 15.1455C30.85 15.2422 30.4026 15.3072 30.0106 15.3407C29.6202 15.3679 29.2752 15.3213 28.9758 15.2011C28.6802 15.0785 28.4234 14.8408 28.2052 14.4882C27.872 13.9494 27.8337 13.4024 28.0903 12.8471C28.3485 12.2855 28.8322 11.7853 29.5414 11.3466C29.9251 11.1093 30.3076 10.9263 30.6889 10.7976C31.0716 10.6626 31.4479 10.5692 31.8177 10.5173L31.9704 11.4919C31.6373 11.5425 31.2976 11.6214 30.9512 11.7285C30.6048 11.8356 30.2766 11.985 29.9666 12.1768C29.5209 12.4525 29.2234 12.7383 29.0742 13.0343C28.9289 13.3278 28.9354 13.6024 29.0936 13.8582C29.2159 14.0559 29.3708 14.1851 29.5585 14.2459C29.75 14.3042 30.0026 14.3141 30.3163 14.2755C30.63 14.2368 31.0332 14.1696 31.5259 14.0738C32.0162 13.9742 32.4558 13.9139 32.8448 13.893C33.2314 13.8682 33.5717 13.9202 33.8658 14.0491C34.1613 14.1718 34.417 14.4075 34.6328 14.7563ZM41.7957 12.8826C41.9692 12.8133 42.141 12.7274 42.3111 12.6251C42.4812 12.5227 42.615 12.4276 42.7123 12.3396L43.0396 13.1585C42.9389 13.2625 42.7861 13.3776 42.5812 13.5036C42.3806 13.6279 42.1767 13.7316 41.9693 13.8144C41.6011 13.9616 41.2414 14.0317 40.8902 14.0248C40.5374 14.0137 40.2082 13.8901 39.9028 13.6539C39.6016 13.416 39.3419 13.0241 39.1237 12.4782L37.4747 8.35216L36.4844 8.74793L36.2789 8.23376L37.1106 7.42285L36.9258 5.74465L37.5605 5.49095L38.2049 7.10328L40.2425 6.28891L40.5724 7.11412L38.5347 7.92849L40.1711 12.0228C40.3453 12.4587 40.575 12.7448 40.8601 12.8811C41.1495 13.0157 41.4613 13.0162 41.7957 12.8826ZM49.2283 7.72155C49.3845 8.3166 49.4469 8.868 49.4154 9.37574C49.3838 9.88349 49.2648 10.3364 49.0584 10.7346C48.852 11.1328 48.5643 11.4723 48.1951 11.753C47.8291 12.0282 47.3861 12.234 46.866 12.3707C46.3811 12.498 45.914 12.5312 45.4644 12.4702C45.0182 12.4037 44.6051 12.2483 44.2253 12.0041C43.8499 11.7587 43.5193 11.4239 43.2335 10.9995C42.9521 10.5739 42.7332 10.0636 42.5769 9.46857C42.3685 8.67517 42.3258 7.96546 42.4488 7.33946C42.5707 6.70905 42.8424 6.18298 43.2641 5.76124C43.689 5.33394 44.2475 5.0294 44.9395 4.84764C45.6007 4.67398 46.2169 4.66998 46.7881 4.83563C47.3638 5.00013 47.8617 5.32638 48.2821 5.81439C48.7056 6.29683 49.021 6.93255 49.2283 7.72155ZM43.7141 9.16987C43.8669 9.7517 44.0766 10.2361 44.3432 10.6232C44.6098 11.0102 44.9346 11.2783 45.3178 11.4274C45.7009 11.5765 46.1459 11.5844 46.6528 11.4513C47.1553 11.3193 47.5367 11.0943 47.7971 10.7761C48.062 10.4569 48.2153 10.0632 48.2573 9.5951C48.2993 9.12702 48.2439 8.60207 48.091 8.02024C47.9394 7.44282 47.7314 6.965 47.4672 6.58678C47.2018 6.20416 46.8781 5.9405 46.4961 5.79581C46.1141 5.65112 45.6675 5.64592 45.1562 5.78022C44.4024 5.97819 43.9147 6.37253 43.6929 6.96323C43.4755 7.55277 43.4826 8.28832 43.7141 9.16987ZM58.7327 1.48659C58.1816 1.50591 57.6885 1.61897 57.2534 1.82575C56.8227 2.02781 56.4588 2.31418 56.1618 2.68484C55.8691 3.0508 55.6496 3.48942 55.5034 4.00072C55.3571 4.51202 55.2951 5.0842 55.3173 5.71728C55.3467 6.5553 55.5021 7.27947 55.7834 7.88978C56.0691 8.49537 56.4775 8.95758 57.0085 9.27641C57.5441 9.59507 58.2036 9.74067 58.9869 9.7132C59.4333 9.69755 59.851 9.64642 60.2402 9.55981C60.6337 9.46849 61.0152 9.35935 61.3847 9.23239L61.4201 10.2435C61.0605 10.3929 60.6815 10.5065 60.2829 10.5843C59.8845 10.6667 59.4098 10.7176 58.8587 10.7369C57.843 10.7725 56.9863 10.5928 56.2884 10.1977C55.5949 9.79795 55.0639 9.2192 54.6953 8.46146C54.3313 7.70357 54.1309 6.80086 54.0942 5.75333C54.0677 4.99728 54.1482 4.3036 54.3359 3.67229C54.5279 3.03627 54.8186 2.48342 55.208 2.01376C55.6019 1.54393 56.0906 1.17567 56.674 0.908964C57.2619 0.637545 57.9407 0.48834 58.7104 0.461348C59.2159 0.44362 59.705 0.47663 60.1777 0.560379C60.6503 0.644127 61.0789 0.772741 61.4635 0.946219L61.0334 1.94628C60.7095 1.81172 60.3544 1.69877 59.9681 1.60743C59.5863 1.51138 59.1745 1.4711 58.7327 1.48659ZM66.3186 3.34979C67.2058 3.45302 67.8413 3.72883 68.225 4.17722C68.6087 4.62561 68.7497 5.28663 68.648 6.1603L68.0595 11.2189L67.2379 11.1234L67.1486 9.99807L67.0942 9.99175C66.8544 10.2391 66.6105 10.4424 66.3626 10.6017C66.1152 10.7564 65.8366 10.864 65.5267 10.9243C65.222 10.9806 64.8546 10.9837 64.4245 10.9337C63.9718 10.881 63.5782 10.7549 63.2435 10.5554C62.9134 10.3564 62.6652 10.0843 62.4989 9.73925C62.3371 9.39467 62.2849 8.97568 62.3423 8.48226C62.4287 7.73987 62.7893 7.20374 63.4241 6.87385C64.0589 6.54397 64.9805 6.43097 66.1888 6.53485L67.4785 6.62984L67.5314 6.17491C67.6062 5.53211 67.5206 5.06563 67.2745 4.77548C67.0283 4.48533 66.6541 4.31102 66.1516 4.25256C65.7623 4.20726 65.3845 4.22066 65.0183 4.29274C64.652 4.36483 64.3015 4.4594 63.9667 4.57644L63.7199 3.68059C64.0749 3.54755 64.4768 3.4452 64.9256 3.37354C65.3744 3.30188 65.8387 3.29396 66.3186 3.34979ZM67.3725 7.42271L66.233 7.33831C65.3008 7.26655 64.6291 7.34209 64.2177 7.56493C63.8064 7.78776 63.5723 8.14363 63.5154 8.63252C63.4659 9.05803 63.5583 9.38765 63.7926 9.62138C64.027 9.8551 64.3569 9.99672 64.7824 10.0462C65.4433 10.1231 66.0056 10.0027 66.4692 9.68504C66.9329 9.36736 67.2074 8.84185 67.2927 8.10851L67.3725 7.42271ZM70.9857 11.7663L69.8702 11.5236L72.1317 1.1301L73.2472 1.37283L70.9857 11.7663ZM74.0557 12.5929L72.9605 12.2707L75.962 2.06627L77.0572 2.38841L74.0557 12.5929ZM87.7591 10.42L84.4361 17.135L83.6029 16.7227L83.9227 15.7064L83.8676 15.6791C83.6135 15.8432 83.3368 15.9503 83.0374 16.0005C82.738 16.0506 82.4302 16.0458 82.1141 15.9859C81.8 15.9322 81.4877 15.8285 81.1773 15.6749C80.6463 15.4121 80.2435 15.106 79.969 14.7566C79.6944 14.4072 79.5542 14.0073 79.5483 13.5569C79.5464 13.1085 79.685 12.6025 79.9639 12.0388L82.1408 7.6398L83.1701 8.14915L81.0296 12.4747C80.7527 13.0343 80.6721 13.5156 80.7879 13.9186C80.9057 14.3176 81.224 14.6455 81.7427 14.9022C82.2411 15.1488 82.6837 15.2509 83.0708 15.2085C83.462 15.1682 83.8128 14.9986 84.1234 14.6998C84.436 14.3968 84.7237 13.9799 84.9865 13.4489L86.7359 9.91371L87.7591 10.42ZM91.0449 19.0299C90.7747 19.4248 90.4472 19.6894 90.0626 19.8238C89.6843 19.957 89.2645 19.9651 88.8033 19.8483C88.3458 19.734 87.8632 19.5032 87.3555 19.1557C86.923 18.8597 86.572 18.5698 86.3024 18.2859C86.0328 18.002 85.822 17.7169 85.67 17.4306L86.2607 16.5675C86.4277 16.8641 86.6514 17.1828 86.9317 17.5237C87.2119 17.8646 87.5345 18.1599 87.8993 18.4096C88.4333 18.775 88.8799 18.9537 89.239 18.9454C89.5981 18.9371 89.8793 18.7844 90.0826 18.4873C90.1985 18.3181 90.2512 18.136 90.241 17.9412C90.237 17.7453 90.1634 17.5099 90.0201 17.2351C89.8794 16.9566 89.6599 16.6076 89.3616 16.1881C89.0697 15.7674 88.8291 15.3846 88.6399 15.0397C88.457 14.6937 88.36 14.3594 88.3487 14.037C88.3412 13.7171 88.4546 13.386 88.6888 13.0438C89.0466 12.521 89.5313 12.2646 90.143 12.2745C90.761 12.2833 91.4141 12.5232 92.1024 12.9942C92.4747 13.249 92.7968 13.5247 93.0688 13.8213C93.3471 14.1167 93.5848 14.4229 93.7819 14.7401L92.9525 15.2742C92.7714 14.9901 92.5618 14.7113 92.3237 14.4379C92.0856 14.1645 91.8161 13.9249 91.5152 13.719C91.0827 13.423 90.701 13.2667 90.37 13.25C90.0428 13.2359 89.7943 13.353 89.6244 13.6012C89.4931 13.793 89.4377 13.987 89.458 14.1832C89.4822 14.3819 89.5754 14.6169 89.7377 14.8881C89.9 15.1593 90.1246 15.5008 90.4116 15.9126C90.7012 16.3206 90.9342 16.6983 91.1108 17.0455C91.2899 17.389 91.38 17.7212 91.3812 18.0423C91.3887 18.3622 91.2766 18.6914 91.0449 19.0299ZM91.2781 20.9052C91.4817 20.6596 91.6853 20.5353 91.8889 20.5324C92.0955 20.5261 92.2847 20.5941 92.4566 20.7366C92.6356 20.8849 92.7428 21.0626 92.7784 21.2697C92.8168 21.4732 92.7343 21.6978 92.5307 21.9434C92.33 22.1855 92.1218 22.3118 91.9059 22.3223C91.6929 22.3293 91.497 22.2586 91.318 22.1103C91.1461 21.9678 91.0456 21.7927 91.0164 21.585C90.9902 21.3739 91.0774 21.1473 91.2781 20.9052ZM95.1475 16.2368C95.3569 15.9842 95.5634 15.8565 95.7671 15.8536C95.9736 15.8472 96.1629 15.9153 96.3348 16.0578C96.5137 16.2061 96.621 16.3838 96.6565 16.5908C96.695 16.7944 96.6095 17.0225 96.4001 17.2751C96.2024 17.5137 95.997 17.6365 95.7841 17.6434C95.5711 17.6504 95.3751 17.5798 95.1962 17.4314C95.0243 17.2889 94.9237 17.1139 94.8946 16.9062C94.8655 16.6986 94.9498 16.4754 95.1475 16.2368ZM101.894 24.9256L103.722 27.0683L103.015 27.6717L101.187 25.529L98.9818 27.41L98.374 26.6975L100.579 24.8164L98.7514 22.6737L99.4587 22.0704L101.286 24.2131L103.502 22.3232L104.11 23.0357L101.894 24.9256ZM102.274 34.7065L101.685 33.7689L107.681 30.0005C107.908 29.8574 108.103 29.735 108.265 29.6331C108.434 29.5327 108.587 29.442 108.724 29.361C108.868 29.2814 109.015 29.2025 109.165 29.1244C108.966 29.0824 108.79 29.0371 108.636 28.9887C108.485 28.9379 108.298 28.8753 108.073 28.801L106.69 28.3219L107.028 27.4073L110.234 28.5899L110.736 29.3886L102.274 34.7065ZM109.865 46.1194L109.354 44.7123L107.176 45.5037L106.798 44.4629L108.976 43.6715L107.325 39.129L108.225 38.8022L116.217 40.9605L116.621 42.072L110.318 44.3621L110.829 45.7692L109.865 46.1194ZM109.94 43.3213L113.011 42.2054C113.246 42.1198 113.459 42.0449 113.649 41.9807C113.843 41.915 114.024 41.8568 114.189 41.8062C114.36 41.7541 114.52 41.7029 114.672 41.6527C114.825 41.6068 114.975 41.5596 115.122 41.5109L115.104 41.4595C114.903 41.4404 114.686 41.4123 114.455 41.3753C114.229 41.341 114.022 41.2975 113.833 41.2449L108.674 39.839L109.94 43.3213ZM111.4 53.5713L111.1 52.1046L108.83 52.5692L108.608 51.4842L110.878 51.0197L109.909 46.2848L110.847 46.0929L118.438 49.3961L118.675 50.5547L112.105 51.8991L112.405 53.3657L111.4 53.5713ZM111.883 50.8141L115.084 50.1591C115.329 50.1088 115.551 50.0658 115.748 50.0301C115.95 49.9935 116.137 49.9622 116.308 49.9364C116.484 49.9097 116.651 49.8826 116.808 49.8551C116.966 49.8321 117.121 49.8073 117.274 49.7807L117.263 49.7271C117.067 49.6788 116.857 49.6194 116.634 49.5489C116.415 49.4819 116.217 49.4086 116.037 49.329L111.14 47.1843L111.883 50.8141ZM111.842 61.1712L111.757 59.6765L109.444 59.808L109.381 58.7023L111.694 58.5709L111.42 53.7456L112.376 53.6914L119.409 58.0573L119.476 59.238L112.781 59.6184L112.866 61.113L111.842 61.1712ZM112.718 58.5127L115.98 58.3274C116.231 58.3132 116.456 58.3026 116.656 58.2958C116.861 58.2887 117.051 58.2848 117.224 58.2841C117.402 58.2831 117.571 58.2804 117.73 58.2759C117.89 58.2759 118.047 58.2739 118.202 58.2696L118.199 58.215C118.012 58.1389 117.813 58.0498 117.602 57.9477C117.396 57.8499 117.21 57.7486 117.044 57.6439L112.508 54.8136L112.718 58.5127ZM118.827 69.6458C118.738 70.2178 118.57 70.7105 118.321 71.124C118.073 71.5376 117.754 71.841 117.364 72.0344C116.979 72.233 116.531 72.2929 116.022 72.2142C115.621 72.1522 115.284 72.0101 115.009 71.7878C114.738 71.5707 114.513 71.2984 114.333 70.9708C114.158 70.6439 114.01 70.289 113.889 69.906C113.63 70.2995 113.353 70.6462 113.057 70.9464C112.761 71.2511 112.433 71.4771 112.074 71.6244C111.714 71.7718 111.31 71.8106 110.859 71.741C110.305 71.6553 109.846 71.446 109.483 71.1131C109.123 70.7854 108.872 70.3639 108.731 69.8486C108.589 69.3332 108.568 68.7513 108.669 68.1028C108.777 67.4047 108.972 66.8262 109.255 66.3673C109.542 65.9136 109.901 65.5887 110.333 65.3926C110.768 65.2017 111.263 65.1491 111.817 65.2347C112.272 65.305 112.651 65.4628 112.954 65.708C113.262 65.9539 113.513 66.2555 113.707 66.6129C113.9 66.9703 114.051 67.351 114.159 67.7551C114.39 67.4542 114.642 67.1841 114.914 66.9449C115.186 66.7102 115.487 66.5355 115.818 66.4207C116.153 66.3111 116.526 66.288 116.936 66.3514C117.436 66.4287 117.84 66.6202 118.147 66.9261C118.459 67.2371 118.671 67.6272 118.783 68.0965C118.898 68.5709 118.913 69.0873 118.827 69.6458ZM111.64 66.3348C111.135 66.2568 110.691 66.3703 110.307 66.6753C109.928 66.9809 109.683 67.4941 109.571 68.2147C109.466 68.8992 109.546 69.4535 109.812 69.8775C110.083 70.3021 110.484 70.5555 111.016 70.6377C111.345 70.6885 111.646 70.6475 111.92 70.5147C112.199 70.3826 112.462 70.1742 112.709 69.8895C112.956 69.6049 113.193 69.2612 113.422 68.8584L113.547 68.6288C113.44 68.188 113.303 67.8049 113.137 67.4794C112.974 67.1591 112.772 66.9019 112.53 66.7076C112.288 66.5134 111.991 66.3892 111.64 66.3348ZM117.91 69.4902C117.992 68.9588 117.931 68.5043 117.727 68.1268C117.527 67.7501 117.188 67.5248 116.71 67.4509C116.368 67.398 116.065 67.4342 115.801 67.5594C115.541 67.6898 115.304 67.8837 115.089 68.1409C114.878 68.3989 114.674 68.6924 114.475 69.0214C114.567 69.386 114.677 69.7144 114.807 70.0065C114.942 70.2994 115.117 70.5409 115.332 70.7309C115.547 70.921 115.821 71.0417 116.154 71.0933C116.632 71.1671 117.022 71.0546 117.327 70.7558C117.631 70.4616 117.825 70.0397 117.91 69.4902ZM106.221 78.2643L108.155 72.0076L109.063 72.2882L110.867 75.6434C111.199 76.266 111.502 76.7963 111.777 77.2343C112.051 77.6766 112.342 78.0385 112.651 78.32C112.964 78.6029 113.338 78.8116 113.774 78.9462C114.314 79.1131 114.775 79.0792 115.157 78.8445C115.543 78.6155 115.817 78.2398 115.978 77.7173C116.12 77.2601 116.166 76.831 116.119 76.4299C116.071 76.0287 115.961 75.5987 115.788 75.1398L116.699 74.7846C116.834 75.1031 116.939 75.436 117.013 75.7832C117.085 76.1348 117.117 76.4952 117.108 76.8644C117.097 77.238 117.032 77.6185 116.912 78.006C116.73 78.5938 116.471 79.0694 116.135 79.4328C115.798 79.7963 115.405 80.0348 114.955 80.1485C114.503 80.2665 114.016 80.2447 113.494 80.0832C112.989 79.9271 112.549 79.6816 112.176 79.3467C111.807 79.0132 111.465 78.5997 111.15 78.1065C110.839 77.6145 110.521 77.0535 110.196 76.4235L108.768 73.7067L108.722 73.6925L107.214 78.5712L106.221 78.2643ZM113.683 86.2903C113.433 86.8123 113.129 87.2354 112.772 87.5595C112.415 87.8836 112.022 88.082 111.593 88.1546C111.166 88.2333 110.72 88.1614 110.256 87.939C109.89 87.7639 109.608 87.5303 109.409 87.2381C109.213 86.952 109.076 86.6262 108.998 86.2606C108.925 85.897 108.885 85.5145 108.88 85.113C108.519 85.4148 108.153 85.6667 107.784 85.8687C107.412 86.0748 107.033 86.1965 106.646 86.2337C106.26 86.2709 105.861 86.1912 105.45 85.9944C104.944 85.7523 104.565 85.4194 104.313 84.9957C104.064 84.5781 103.946 84.1021 103.959 83.5678C103.972 83.0335 104.12 82.4704 104.404 81.8785C104.709 81.2414 105.063 80.744 105.467 80.3865C105.872 80.035 106.31 79.8278 106.78 79.7647C107.252 79.7076 107.741 79.8002 108.246 80.0422C108.661 80.2409 108.979 80.5015 109.198 80.8239C109.422 81.1482 109.575 81.5094 109.657 81.9076C109.739 82.3057 109.774 82.7138 109.761 83.1319C110.069 82.9105 110.388 82.7246 110.717 82.5743C111.045 82.428 111.384 82.3478 111.734 82.3336C112.087 82.3255 112.45 82.411 112.824 82.5901C113.281 82.8085 113.612 83.1086 113.818 83.4903C114.027 83.8781 114.117 84.3127 114.088 84.7943C114.062 85.2819 113.927 85.7806 113.683 86.2903ZM107.759 81.0443C107.298 80.8239 106.84 80.8042 106.385 80.9853C105.934 81.1684 105.55 81.5887 105.236 82.2464C104.936 82.8712 104.853 83.425 104.986 83.9079C105.123 84.3927 105.433 84.7512 105.919 84.9834C106.219 85.1271 106.519 85.1749 106.82 85.127C107.125 85.081 107.437 84.9574 107.755 84.7562C108.074 84.5551 108.401 84.2947 108.736 83.975L108.922 83.7914C108.947 83.3385 108.927 82.9322 108.861 82.5725C108.798 82.2189 108.679 81.9142 108.503 81.6583C108.328 81.4024 108.079 81.1978 107.759 81.0443ZM112.85 85.8765C113.082 85.3915 113.155 84.9387 113.068 84.5183C112.986 84.0998 112.727 83.7862 112.291 83.5776C111.978 83.4281 111.678 83.3752 111.389 83.4188C111.103 83.4686 110.819 83.5856 110.539 83.7698C110.263 83.9559 109.982 84.1778 109.697 84.4355C109.679 84.8109 109.69 85.1572 109.731 85.4745C109.775 85.7938 109.872 86.0754 110.023 86.3195C110.174 86.5635 110.402 86.7584 110.706 86.904C111.142 87.1126 111.548 87.1178 111.926 86.9197C112.302 86.7257 112.61 86.378 112.85 85.8765ZM98.4516 91.618L99.129 90.7419L104.732 95.0737C104.944 95.2382 105.126 95.3789 105.278 95.496C105.43 95.6195 105.568 95.7318 105.691 95.833C105.816 95.9405 105.94 96.0513 106.065 96.1652C106.036 95.9643 106.018 95.783 106.01 95.6216C106.006 95.4629 106.001 95.2655 105.993 95.0293L105.967 93.5658L106.942 93.5678L106.935 96.9847L106.358 97.731L98.4516 91.618ZM98.5203 100.593C98.0318 101.065 97.5265 101.391 97.0044 101.572C96.4855 101.756 95.9757 101.786 95.4751 101.661C94.9713 101.539 94.5025 101.254 94.0689 100.805C93.5941 100.313 93.2908 99.7854 93.1589 99.2223C93.0301 98.6625 93.0724 98.0927 93.2857 97.5131C93.5021 96.9368 93.889 96.3796 94.4464 95.8415C94.8202 95.4807 95.1994 95.178 95.584 94.9333C95.9686 94.6887 96.3341 94.526 96.6804 94.445L97.4305 95.2221C97.0519 95.3089 96.651 95.4743 96.2277 95.7182C95.8044 95.9621 95.4321 96.2392 95.1108 96.5494C94.7468 96.9007 94.4842 97.2651 94.3228 97.6426C94.1613 98.0265 94.1191 98.4093 94.1962 98.791C94.2732 99.1791 94.4857 99.5535 94.8339 99.9142C95.296 100.393 95.7997 100.619 96.3448 100.593C96.8898 100.574 97.4788 100.259 98.1116 99.648C98.3148 99.4518 98.522 99.2201 98.7329 98.9531C98.9439 98.6861 99.1091 98.457 99.2285 98.2657L99.9028 98.1374L102.884 101.777L99.3089 105.229L98.5872 104.481L101.464 101.704L99.5525 99.3591C99.4532 99.5057 99.3179 99.687 99.1465 99.9031C98.9782 100.123 98.7695 100.353 98.5203 100.593ZM88.8398 106.943C88.3667 106.284 87.994 105.66 87.7218 105.07C87.4496 104.48 87.2919 103.928 87.2488 103.415C87.2056 102.902 87.2866 102.429 87.4916 101.995C87.6992 101.566 88.0418 101.179 88.5193 100.836C89.1227 100.403 89.7407 100.209 90.3734 100.254C91.0024 100.302 91.6382 100.566 92.281 101.047C92.9227 101.534 93.5599 102.219 94.1926 103.1C94.8146 103.966 95.2619 104.772 95.5345 105.519C95.806 106.272 95.8652 106.956 95.7121 107.571C95.5616 108.19 95.1643 108.731 94.5202 109.193C93.9094 109.632 93.2863 109.827 92.651 109.778C92.0184 109.733 91.3812 109.467 90.7394 108.979C90.1004 108.496 89.4672 107.817 88.8398 106.943ZM93.2653 103.765C92.723 103.01 92.2137 102.422 91.7375 102.001C91.2612 101.58 90.805 101.336 90.3688 101.267C89.9316 101.205 89.5038 101.324 89.0855 101.625C88.6672 101.925 88.4194 102.291 88.3421 102.723C88.2611 103.157 88.3439 103.667 88.5907 104.252C88.8338 104.841 89.2277 105.515 89.7727 106.273C90.307 107.018 90.8109 107.598 91.2845 108.016C91.7608 108.437 92.217 108.681 92.6532 108.75C93.092 108.822 93.5243 108.705 93.95 108.399C94.3757 108.093 94.6246 107.721 94.6966 107.282C94.7712 106.847 94.6852 106.337 94.4384 105.751C94.1906 105.171 93.7996 104.51 93.2653 103.765ZM84.1994 103.817L84.6665 113.656L89.5068 111.155L89.9838 112.078L84.0625 115.138L83.6609 114.36L83.0941 104.389L84.1994 103.817ZM67.0828 120.459L66.9824 117.735L64.4095 118.87L64.0755 117.708L66.6017 117.103L64.6553 115.121L65.6728 114.372L67.2203 116.621L68.0242 114.059L69.2428 114.51L67.896 116.931L70.479 116.856L70.4471 118.067L67.7074 117.639L68.3297 120.294L67.0828 120.459ZM58.6304 120.912L58.9059 118.2L56.2012 118.97L56.0304 117.773L58.6159 117.521L56.9608 115.29L58.0718 114.688L59.2949 117.129L60.4438 114.702L61.5887 115.317L59.9215 117.529L62.4902 117.81L62.2919 119.006L59.6373 118.204L59.8881 120.919L58.6304 120.912ZM50.1907 120.19L50.8404 117.542L48.0549 117.93L48.0521 116.72L50.6474 116.83L49.3184 114.391L50.5022 113.949L51.3744 116.536L52.8493 114.292L53.8977 115.06L51.9394 117.019L54.4441 117.655L54.0816 118.811L51.5641 117.648L51.4353 120.372L50.1907 120.19Z" fill="white"/>
</svg>
