<svg width="79" height="37" viewBox="0 0 79 37" fill="none" xmlns="http://www.w3.org/2000/svg">
<g clip-path="url(#clip0_320_1960)">
<path d="M17.5777 0L18.3241 3.9964C18.9438 7.30575 23.013 8.6187 25.4734 6.30216L28.441 3.5036L26.68 7.17266C25.2197 10.2122 27.7344 13.6475 31.0971 13.2086L35.1554 12.6799L31.5572 14.6187C28.5751 16.2266 28.5751 20.4712 31.5572 22.0791L35.1554 24.018L31.0971 23.4892C27.7344 23.0504 25.2197 26.4856 26.68 29.5252L28.441 33.1942L25.4734 30.3957C23.013 28.0791 18.9438 29.3921 18.3241 32.7014L17.5777 36.6978L16.8313 32.6978C16.2116 29.3885 12.1424 28.0755 9.68205 30.3921L6.71438 33.1906L8.47542 29.5216C9.93569 26.482 7.42097 23.0468 4.05834 23.4856L0 24.018L3.59816 22.0791C6.58031 20.4712 6.58031 16.2266 3.59816 14.6187L0 12.6763L4.05834 13.205C7.42097 13.6439 9.93569 10.2086 8.47542 7.16906L6.71438 3.5L9.68205 6.29856C12.1424 8.61511 16.2116 7.30216 16.8313 3.99281L17.5777 0Z" fill="#FFF7C9"/>
<path d="M27.2691 20.0394C28.2107 14.7272 24.6359 9.66297 19.2847 8.72824C13.9334 7.79351 8.83204 11.3422 7.89045 16.6545C6.94886 21.9667 10.5236 27.0309 15.8749 27.9657C21.2261 28.9004 26.3275 25.3517 27.2691 20.0394Z" fill="#FFE869"/>
<path d="M55.6754 23.7733C53.9253 23.7733 52.2766 24.2121 50.838 24.9891C50.1242 18.3884 44.4969 13.2517 37.6593 13.2517C32.503 13.2517 28.0388 16.1726 25.8466 20.4388C25.3755 20.3632 24.8936 20.3201 24.4008 20.3201C19.4982 20.3201 15.5232 24.2661 15.5232 29.133C10.9431 29.133 7.17097 32.579 6.69629 37.0035H15.063H20.4041H24.3465H28.3903H29.7817H45.5259H46.0224H52.8781H65.3176C65.6437 36.0143 65.8249 34.9567 65.8249 33.856C65.8285 28.2841 61.2846 23.7733 55.6754 23.7733Z" fill="white"/>
<path d="M75.8729 33.8921C74.1445 33.8921 72.7422 35.2842 72.7422 37H79.0036C79 35.2842 77.6013 33.8921 75.8729 33.8921Z" fill="white"/>
</g>
<defs>
<clipPath id="clip0_320_1960">
<rect width="79" height="37" fill="white"/>
</clipPath>
</defs>
</svg>
