<svg width="622" height="648" viewBox="0 0 622 648" fill="none" xmlns="http://www.w3.org/2000/svg">
<path d="M363.868 -81.6635C303.921 -81.6635 244.899 -66.8791 192.03 -38.6201C139.161 -10.3611 94.0772 30.5004 60.7722 80.3449C27.4672 130.189 6.96884 187.478 1.09296 247.137C-4.78292 306.796 4.145 366.983 27.0859 422.367C50.0268 477.751 86.2725 526.623 132.613 564.653C178.953 602.684 233.956 628.699 292.752 640.394C351.548 652.089 412.32 649.103 469.686 631.702C527.052 614.3 579.241 583.019 621.631 540.63L462.732 381.731C446.474 397.989 426.457 409.987 404.454 416.661C382.452 423.336 359.143 424.481 336.592 419.995C314.041 415.509 292.945 405.532 275.171 390.945C257.398 376.359 243.496 357.614 234.697 336.372C225.898 315.13 222.474 292.045 224.728 269.163C226.981 246.281 234.843 224.308 247.617 205.191C260.391 186.073 277.683 170.401 297.961 159.562C318.238 148.724 340.876 143.053 363.868 143.053V-81.6635Z" fill="url(#paint0_linear_146_1078)"/>
<defs>
<linearGradient id="paint0_linear_146_1078" x1="363.868" y1="-81.6635" x2="230.191" y2="693.89" gradientUnits="userSpaceOnUse">
<stop stop-color="#136DF4" stop-opacity="0.3"/>
<stop offset="0.656006" stop-color="#136DF4" stop-opacity="0.8"/>
<stop offset="0.915335" stop-color="#136DF4" stop-opacity="0.6"/>
</linearGradient>
</defs>
</svg>
