<svg width="188" height="50" viewBox="0 0 188 50" fill="none" xmlns="http://www.w3.org/2000/svg">
<g clip-path="url(#clip0_2287_1082)">
<path d="M131.639 36.2625C130.346 41.7776 125.625 45.3506 120.829 47.4728C120.247 46.445 118.393 45.3884 117.804 44.1842C121.097 42.7982 124.235 41.1026 125.793 37.8609C126.52 36.3525 126.639 34.5723 125.56 33.2475C124.597 32.0613 122.91 31.8975 121.576 32.5005C120.454 33.0045 119.129 34.3131 119.556 35.7153L120.568 39.0489C120.971 40.3862 120.413 41.7758 119.263 42.4544C118.303 43.0196 116.816 43.097 115.86 42.2672C114.306 40.9226 113.013 39.4827 111.701 37.8987C110.595 36.5703 110.176 34.6713 111.087 33.0369C112.205 31.0173 114.738 30.1875 116.981 30.6015C117.811 30.1983 118.132 29.3739 118.901 28.9059C121.189 27.5073 123.971 27.025 126.576 27.7107C130.391 28.7097 132.542 32.4051 131.639 36.2625Z" fill="#F06022"/>
<path d="M120.816 47.444C117.25 49.1432 113.296 50.0234 109.344 49.9982C106.28 49.9784 103.165 49.4006 100.499 47.8922C97.8304 46.3856 95.6501 43.8765 94.9498 40.8939C94.3503 38.3379 94.903 35.6487 96.102 33.3483C96.6998 32.2035 97.4613 31.048 98.3904 30.1426C98.6712 29.869 101.93 27.3832 101.885 27.313C102.648 28.528 103.412 29.7412 104.175 30.9562C102.596 32.4015 101.285 34.2933 101.107 36.4245C100.942 38.4063 101.8 40.3989 103.181 41.8299C104.562 43.2609 106.424 44.1699 108.356 44.6468C111.436 45.4064 114.709 45.1184 117.752 44.2203C118.776 45.293 119.803 46.364 120.827 47.4368C120.825 47.4404 120.822 47.4422 120.816 47.444Z" fill="#1F2937"/>
<path d="M111.045 17.0873C106.872 20.0608 111.117 25.6048 113.622 28.5586C111.269 29.5846 109.486 30.9346 108.714 33.4347C107.187 31.5088 105.947 29.6008 104.587 27.601C102.36 24.3178 101.491 20.113 104.333 16.8137C107.365 13.2965 112.421 11.8331 116.848 13.2263C119.565 14.0813 121.47 16.3259 121.841 18.7541C122.28 21.6304 121.246 24.4366 118.827 25.8982C117.217 26.8702 115.103 26.5084 114.048 24.9352C115.172 23.6986 116.317 22.7302 116.859 21.1822C117.309 19.8916 117.349 18.2105 116.277 17.2097C114.821 15.8561 112.558 16.0091 111.045 17.0873Z" fill="#1F2937"/>
<path d="M114.752 8.95132C113.337 10.5443 111.175 10.5335 109.751 9.08812C107.734 7.04154 107.556 3.67736 109.326 1.42558C110.041 0.516588 111.018 0.025192 112.007 -7.78493e-06C113.047 -0.0270076 114.055 0.421189 114.792 1.28698C116.644 3.46856 116.729 6.72474 114.752 8.95132Z" fill="#1F2937"/>
<path d="M106.564 10.7459C106.319 12.0311 105.594 12.9167 104.735 13.4027C103.774 13.9445 102.531 14.0147 101.422 13.5233C98.9971 12.4469 97.8142 9.46969 98.7432 6.98571C99.4382 5.12632 101.402 3.99053 103.268 4.62773C105.779 5.48632 107.066 8.1107 106.564 10.7459Z" fill="#1F2937"/>
<path d="M122.71 11.5937C121.245 12.5207 119.451 12.2903 118.558 10.8395C117.082 8.43832 118.065 5.14075 120.658 4.03556C122.256 3.35336 123.947 4.05896 124.633 5.55294C125.654 7.77233 124.856 10.2365 122.71 11.5937Z" fill="#1F2937"/>
<path d="M126.092 18.691C125.114 18.799 124.345 18.4786 123.888 17.9368C122.646 16.4591 123.335 13.6655 124.882 12.6305C125.92 11.9357 127.451 11.7485 128.407 12.5423C129.482 13.4333 129.566 14.9903 129.055 16.2629C128.619 17.3447 127.64 18.52 126.092 18.691Z" fill="#1F2937"/>
<path d="M147.552 16.0379C147.442 16.2143 147.334 16.3925 147.23 16.5707C145.1 20.2048 143.948 24.406 143.917 28.618C143.886 32.7705 145.199 37.2957 148.676 39.5691C151.898 41.6769 156.259 41.3061 159.716 39.6051C160.618 39.1605 161.703 38.6331 162.562 39.1551C163.264 39.5817 163.442 40.5825 163.147 41.3493C162.852 42.1161 162.2 42.6885 161.527 43.1583C159.127 44.8358 156.199 45.626 153.283 45.9032C150.119 46.2056 146.832 45.9176 143.967 44.5461C138.696 42.0225 135.632 36.0699 135.405 30.2308C134.928 17.9567 143.949 5.41077 157.15 6.69956C159.181 6.89755 161.235 7.45735 162.838 8.72094C164.44 9.98273 165.509 12.0455 165.192 14.0597C164.876 16.0739 162.929 17.8199 160.907 17.5499C160.625 17.5121 160.33 17.4275 160.144 17.2115C159.834 16.8497 159.96 16.3097 160.015 15.8363C160.247 13.8527 158.785 11.9069 156.898 11.2445C155.013 10.5821 152.858 11.0537 151.176 12.1337C149.673 13.1057 148.505 14.5151 147.552 16.0379Z" fill="#F16525"/>
<path d="M179.261 20.5631C173.944 19.6325 168.711 21.7906 165.947 26.53C163.894 30.049 163.329 34.2898 164.447 38.2389C166.516 45.5505 175.237 47.4656 181.209 44.1519C185.217 41.9253 187.336 37.8717 187.879 33.5392C188.661 27.3256 185.636 21.6845 179.261 20.5631ZM178.924 38.9121C178.543 39.6627 178.064 40.3629 177.414 40.8939C176.551 41.5977 175.34 41.9541 174.294 41.5725C172.947 41.0829 172.266 39.5889 171.922 38.1993C171.325 35.7729 171.339 33.2062 171.924 30.778C172.455 28.573 173.408 25.8172 175.7 24.8974C176.492 24.5788 177.419 24.5482 178.19 24.9154C178.881 25.243 179.405 25.8604 179.74 26.5498C180.075 27.2374 180.235 27.997 180.348 28.753C180.824 31.9138 180.512 35.2167 179.27 38.1615C179.165 38.4117 179.05 38.6655 178.924 38.9121Z" fill="#F06425"/>
<path d="M7.4718 12.9419C7.36198 12.6539 7.21254 12.3893 6.98389 12.1823C6.07469 11.3615 4.65057 11.9555 3.56132 12.5189C2.47208 13.0823 0.911129 13.4801 0.210772 12.4757C-0.185317 11.9087 0.0127276 11.0609 0.536645 10.6433C0.668075 10.5389 0.82651 10.4795 0.95614 10.3733C1.10737 10.2473 1.25321 10.1195 1.40984 9.9989C1.77532 9.72171 2.15161 9.45891 2.53869 9.21411C4.08884 8.23312 5.80463 7.51492 7.59063 7.09733C8.42962 6.90113 9.28481 6.77333 10.1454 6.71393C11.1968 6.64193 12.2897 6.68153 13.2457 7.12613C15.4674 8.16112 16.1858 10.9133 16.6467 13.3199C18.2076 21.4684 19.7686 29.6187 21.3277 37.7673C24.392 30.1155 27.4545 22.4638 30.5188 14.8103C32.1571 10.7171 33.7973 6.62033 35.7183 2.65316C36.0352 1.99977 36.3809 1.32477 36.9732 0.905376C37.5674 0.485979 38.3235 0.38518 39.0473 0.32758C40.3598 0.224981 41.6813 0.224981 42.9956 0.32938C43.3016 0.35278 43.6275 0.39238 43.8616 0.588578C44.3675 1.01517 44.1298 1.82697 43.8526 2.42636C37.5494 16.0883 31.2461 29.7519 24.9429 43.4138C24.4478 44.4884 23.9239 45.599 23.0165 46.3568C21.5258 47.6006 19.3905 47.6006 17.4496 47.5376C16.8933 47.5196 16.3082 47.4926 15.8347 47.1992C15.3612 46.904 15.0767 46.3856 14.8427 45.8798C13.892 43.8152 13.4257 41.5671 12.9666 39.3423C11.213 30.8373 9.46125 22.3342 7.70766 13.8293C7.64644 13.5341 7.57803 13.2263 7.4718 12.9419Z" fill="#1F2937"/>
<path d="M71.4005 40.5626C71.5319 40.7048 71.7228 40.8002 71.7948 40.9784C71.9118 41.2718 71.6418 41.5652 71.3969 41.7632C69.7045 43.133 67.8753 44.4272 65.7652 44.969C63.657 45.5108 61.203 45.1652 59.6799 43.61C58.2089 42.107 57.8813 39.8517 57.7228 37.7547C57.3682 33.0675 57.4798 28.3551 57.8291 23.6662C57.0621 23.677 56.2537 23.677 55.5912 23.2936C55.105 23.0128 54.727 22.4458 54.7522 21.8734C54.7594 21.724 54.808 21.5998 54.8512 21.4594C54.8926 21.3226 54.9016 21.1948 54.9664 21.0652C55.1032 20.7916 55.3211 20.5612 55.5804 20.401C55.809 20.2606 56.0719 20.1724 56.3401 20.1598C56.9955 20.131 57.8345 20.428 58.1909 19.8754C58.2882 19.726 58.3152 19.5442 58.3422 19.3678C58.632 17.4328 58.9219 15.4996 59.2118 13.5647C59.3396 12.7043 59.5538 11.7197 60.3244 11.3183C60.6845 11.1311 61.1058 11.1113 61.5109 11.1005C62.8738 11.0645 64.2385 11.0879 65.5978 11.1725C65.8805 11.1905 66.1973 11.2283 66.3684 11.4533C66.525 11.6585 66.5016 11.9447 66.4692 12.2003C66.1541 14.7581 65.8409 17.314 65.5258 19.8718C67.1426 19.8754 68.7593 19.8772 70.3779 19.8808C71.0188 19.8826 71.8056 19.9762 72.0451 20.5702C72.1495 20.8312 72.1135 21.1246 72.0631 21.4C71.9388 22.0912 71.6922 22.8382 71.0818 23.1874C70.7056 23.4016 70.2537 23.425 69.8216 23.443C68.2534 23.5096 66.6852 23.5744 65.1171 23.641C64.8092 28.4487 64.5014 33.2889 65.0847 38.0715C65.2053 39.0669 65.461 40.199 66.3468 40.6706C66.9139 40.973 67.6143 40.9136 68.2174 40.6904C68.8205 40.4672 69.3553 40.0983 69.9134 39.7797C70.1798 39.6267 70.5093 39.4845 70.783 39.6249C71.1196 39.7977 71.143 40.2782 71.4005 40.5626Z" fill="#1F2937"/>
<path d="M73.064 41.7417C73.2818 40.7751 73.7049 39.8535 74.3008 39.0615C74.4593 38.8509 74.6537 38.6331 74.9166 38.5953C75.1056 38.5683 75.2929 38.6403 75.4657 38.7177C76.5333 39.1929 77.4605 39.9273 78.4742 40.5087C79.4878 41.0901 80.6599 41.5275 81.8085 41.3205C82.959 41.1135 84.014 40.0713 83.888 38.9103C83.8178 38.2641 83.4163 37.7043 82.9896 37.2129C81.8319 35.8755 80.4114 34.7973 79.0557 33.6597C77.7 32.5239 76.3767 31.2945 75.4999 29.7591C74.805 28.5442 74.4107 27.1024 74.5907 25.7002C74.6339 25.3636 74.7761 25.0342 74.805 24.7012C74.8302 24.3988 74.9634 24.127 75.102 23.857C75.3991 23.2792 75.797 22.7554 76.2597 22.3C76.7116 21.8554 77.2247 21.472 77.7756 21.157C79.1367 20.3776 80.6923 19.9978 82.246 19.7944C84.8422 19.456 87.568 19.6108 89.9356 20.725C90.4325 20.959 90.9348 21.2542 91.212 21.7294C91.6243 22.4296 91.4461 23.3224 91.1706 24.0874C91.041 24.4492 90.8736 24.8272 90.5513 25.0378C89.8545 25.4878 88.9777 24.919 88.2864 24.4636C86.9703 23.5978 85.3157 23.0794 83.8034 23.5276C83.2525 23.6914 82.7195 23.9956 82.4153 24.4816C82.0228 25.1062 82.075 25.9342 82.3811 26.6038C82.6889 27.2734 83.2182 27.8152 83.7656 28.3102C85.0925 29.5107 86.5778 30.5259 87.9029 31.7283C89.228 32.9307 90.4145 34.3689 90.9168 36.0861C91.5469 38.2407 90.9654 40.7067 89.4386 42.3536C88.2828 43.5992 86.675 44.3498 85.0276 44.7674C82.2064 45.4802 79.1601 45.2732 76.4613 44.1842C75.4639 43.7756 73.0946 41.7345 73.064 41.7417Z" fill="#1F2937"/>
<path d="M53.6468 38.2065C53.618 38.1957 53.5892 38.1885 53.5622 38.1849C53.2579 38.1543 52.9033 38.5827 52.6746 38.7393C52.2893 39.0021 51.9022 39.2577 51.5025 39.4989C50.7284 39.9687 49.9164 40.3845 49.054 40.6689C47.4084 41.2125 45.5018 41.2341 44.0309 40.3143C42.5671 39.3981 41.7533 37.6827 41.5319 35.9709C43.8454 35.6919 46.1553 35.1267 48.1862 33.9837C50.2171 32.8408 51.9562 31.0804 52.7682 28.8952C53.2903 27.4894 53.4146 25.927 53.0491 24.4726C52.7718 23.362 52.2011 22.309 51.3477 21.544C50.3575 20.6566 49.0396 20.2013 47.7217 20.0195C43.8904 19.4939 39.9205 21.2344 37.391 24.1612C34.8614 27.088 33.7163 31.0642 33.8748 34.9287C33.9684 37.2111 34.5229 39.5385 35.8786 41.3781C37.706 43.8603 40.8567 45.1815 43.939 45.1941C47.0213 45.2067 50.0244 44.0223 52.572 42.2853C53.2831 41.8011 53.9961 41.2323 54.3112 40.4313C54.52 39.9021 54.493 39.2487 54.1959 38.7573C54.0987 38.5899 53.8647 38.2893 53.6468 38.2065ZM45.2407 23.7454C45.6638 23.5834 46.0905 23.4898 46.3786 23.6068C46.7693 23.7652 47.151 24.1684 47.2518 24.7156C47.9305 28.4146 45.4298 32.272 41.4635 32.8192C41.1916 29.9932 42.5743 24.7822 45.2407 23.7454Z" fill="#1F2937"/>
</g>
<defs>
<clipPath id="clip0_2287_1082">
<rect width="188" height="50" fill="white"/>
</clipPath>
</defs>
</svg>
