<svg width="211" height="50" viewBox="0 0 211 50" fill="none" xmlns="http://www.w3.org/2000/svg">
<g clip-path="url(#clip0_2287_1030)">
<path fill-rule="evenodd" clip-rule="evenodd" d="M21.5736 19.8986C25.1386 19.8986 28.0286 22.7838 28.0286 26.343C28.0286 29.9022 25.1386 32.7874 21.5736 32.7874C18.0086 32.7874 15.1187 29.9022 15.1187 26.343C15.1166 22.7838 18.0086 19.8986 21.5736 19.8986Z" fill="#ED5131"/>
<path d="M10.913 47.3019C26.8962 49.9859 44.3042 44.6179 51.8293 29.5018C57.198 18.7196 51.1017 2.37013 37.5973 7.31359C32.7768 9.07811 29.4717 13.3013 26.8377 17.6411C15.9512 -1.23335 -2.05736 9.54288 5.93323 26.9627C7.30161 29.9445 9.26852 32.1597 11.3926 33.8015C19.8931 40.3746 31.9989 37.5297 38.2745 29.4415C31.878 43.9258 12.6421 43.3443 4.65353 32.6908C-0.572099 25.7193 -1.69864 16.0114 2.82768 8.56102C5.28632 4.51692 9.29472 1.61965 14.1012 1.79067C18.2043 1.93755 22.6802 4.35194 26.8257 10.0459C31.7309 3.10853 37.0351 0.181081 41.8778 0.00804975C54.3544 -0.434588 62.6352 16.9269 55.4789 31.3006C47.8894 46.5414 28.7825 54.5431 10.913 47.3019Z" fill="#ED5131"/>
<path d="M71.0567 13.9028H75.2908V32.0711H81.4535V36.0971H71.0547V13.9028H71.0567ZM91.6227 19.2588C93.1744 19.2588 94.6355 19.6491 96.0019 20.4217C97.3642 21.1943 98.4303 22.2506 99.1941 23.5725C99.9619 24.9004 100.345 26.3329 100.345 27.8721C100.345 29.4213 99.9579 30.87 99.19 32.218C98.4162 33.568 97.3702 34.6183 96.0381 35.3788C94.708 36.1353 93.2429 36.5176 91.6388 36.5176C89.2809 36.5176 87.2696 35.6786 85.603 34.0046C83.9364 32.3307 83.102 30.2965 83.102 27.9023C83.102 25.337 84.0452 23.2003 85.9295 21.4921C87.578 20.0052 89.4764 19.2588 91.6227 19.2588ZM91.6831 23.1359C90.4034 23.1359 89.3353 23.5845 88.4849 24.4738C87.6344 25.3652 87.2112 26.5019 87.2112 27.8882C87.2112 29.3187 87.6284 30.4736 88.4748 31.3589C89.3152 32.2442 90.3772 32.6868 91.667 32.6868C92.9568 32.6868 94.0289 32.2381 94.8854 31.3428C95.7419 30.4474 96.1691 29.2986 96.1691 27.8882C96.1691 26.4818 95.752 25.339 94.9116 24.4577C94.0672 23.5785 92.993 23.1359 91.6831 23.1359ZM101.629 19.6813H105.826L109.984 29.367L114.121 19.6813H118.309L111.31 36.0971H108.638L101.629 19.6813ZM136.876 29.0833H123.619C123.811 30.2463 124.327 31.1738 125.157 31.8639C125.987 32.554 127.045 32.8981 128.335 32.8981C129.877 32.8981 131.203 32.3568 132.311 31.2804L135.788 32.9121C134.921 34.1374 133.885 35.0448 132.672 35.6364C131.465 36.2239 130.032 36.5176 128.365 36.5176C125.786 36.5176 123.688 35.7048 122.068 34.0811C120.443 32.4534 119.633 30.4193 119.633 27.9787C119.633 25.4718 120.443 23.3954 122.057 21.7375C123.678 20.0837 125.703 19.2547 128.14 19.2547C130.729 19.2547 132.833 20.0837 134.457 21.7375C136.078 23.3954 136.892 25.5784 136.892 28.2926L136.876 29.0833ZM132.734 25.84C132.46 24.9225 131.924 24.1821 131.126 23.6047C130.326 23.0333 129.393 22.7455 128.335 22.7455C127.19 22.7455 126.179 23.0695 125.312 23.7133C124.77 24.1157 124.264 24.8259 123.801 25.84H132.734ZM161.216 18.0234L159.463 19.3674C158.498 18.1119 157.339 17.1582 155.981 16.5104C154.624 15.8605 153.139 15.5366 151.515 15.5366C149.741 15.5366 148.101 15.9591 146.589 16.8082C145.078 17.6572 143.907 18.802 143.077 20.2326C142.247 21.6691 141.829 23.2807 141.829 25.0674C141.829 27.7755 142.758 30.031 144.621 31.8438C146.477 33.6505 148.824 34.5579 151.656 34.5579C154.765 34.5579 157.371 33.3427 159.465 30.9062L161.218 32.2341C160.11 33.6405 158.728 34.731 157.071 35.4996C155.414 36.2722 153.564 36.6524 151.517 36.6524C147.627 36.6524 144.564 35.3607 142.315 32.7753C140.433 30.5963 139.488 27.9606 139.488 24.8702C139.488 21.6208 140.628 18.8926 142.912 16.6713C145.191 14.4521 148.049 13.3455 151.485 13.3455C153.562 13.3455 155.437 13.758 157.107 14.5769C158.776 15.3957 160.148 16.5446 161.216 18.0234ZM181.391 19.6813V36.0971H179.308V33.2743C178.421 34.3507 177.425 35.1595 176.321 35.7048C175.217 36.246 174.009 36.5176 172.699 36.5176C170.374 36.5176 168.387 35.6726 166.736 33.9886C165.092 32.3045 164.265 30.2543 164.265 27.8399C164.265 25.4758 165.102 23.4578 166.762 21.7798C168.423 20.1018 170.424 19.2568 172.762 19.2568C174.114 19.2568 175.335 19.5445 176.424 20.1159C177.518 20.6933 178.477 21.5524 179.308 22.6952V19.6773H181.391V19.6813ZM172.927 21.2969C171.75 21.2969 170.662 21.5846 169.662 22.1621C168.667 22.7435 167.873 23.5524 167.284 24.6026C166.696 25.6488 166.402 26.7554 166.402 27.9184C166.402 29.0773 166.696 30.1839 167.288 31.2402C167.887 32.2965 168.681 33.1153 169.687 33.7069C170.688 34.2944 171.764 34.5881 172.911 34.5881C174.072 34.5881 175.17 34.2944 176.206 33.7129C177.242 33.1314 178.042 32.3427 178.6 31.3448C179.162 30.3509 179.441 29.2282 179.441 27.9828C179.441 26.0834 178.812 24.492 177.558 23.2143C176.307 21.9367 174.765 21.2969 172.927 21.2969ZM185.037 19.6813H187.197V22.0816C187.842 21.14 188.523 20.4338 189.235 19.965C189.952 19.4962 190.694 19.2588 191.474 19.2588C192.056 19.2588 192.681 19.4499 193.346 19.8201L192.242 21.6027C191.798 21.4076 191.427 21.315 191.123 21.315C190.422 21.315 189.741 21.6027 189.086 22.1802C188.431 22.7616 187.931 23.659 187.59 24.8742C187.326 25.8118 187.199 27.7011 187.199 30.548V36.0991H185.039V19.6813H185.037ZM208.674 30.6486L210.454 31.5862C209.871 32.7351 209.196 33.6566 208.432 34.3628C207.665 35.069 206.802 35.6042 205.849 35.9704C204.89 36.3365 203.805 36.5217 202.6 36.5217C199.918 36.5217 197.824 35.6464 196.313 33.89C194.801 32.1335 194.047 30.1517 194.047 27.9365C194.047 25.8561 194.686 23.997 195.966 22.3693C197.586 20.299 199.757 19.2588 202.475 19.2588C205.276 19.2588 207.515 20.3251 209.186 22.4458C210.377 23.9447 210.982 25.8138 211.002 28.0532H196.224C196.26 29.9686 196.875 31.5339 198.05 32.7552C199.231 33.9765 200.686 34.5881 202.419 34.5881C203.255 34.5881 204.069 34.4433 204.859 34.1495C205.649 33.8558 206.324 33.4695 206.877 32.9866C207.425 32.5077 208.029 31.7251 208.674 30.6486ZM208.674 26.2303C208.39 25.1016 207.977 24.2022 207.441 23.5322C206.899 22.8582 206.187 22.311 205.301 21.9005C204.414 21.488 203.485 21.2828 202.505 21.2828C200.895 21.2828 199.509 21.8019 198.354 22.8381C197.508 23.5906 196.869 24.7233 196.435 26.2323H208.674V26.2303Z" fill="#1F2937"/>
</g>
<defs>
<clipPath id="clip0_2287_1030">
<rect width="211" height="50" fill="white"/>
</clipPath>
</defs>
</svg>
