<svg width="170" height="50" viewBox="0 0 170 50" fill="none" xmlns="http://www.w3.org/2000/svg">
<g clip-path="url(#clip0_2287_1054)">
<path d="M22.204 2.29921C22.2206 2.29921 22.2368 2.29607 22.2534 2.29248C22.2731 2.28574 22.2893 2.27586 22.2992 2.26643C23.977 0.249753 26.9164 -0.852006 29.2298 0.817026C30.2486 1.55138 30.737 2.68278 30.6943 4.21393C30.57 8.62096 25.3105 12.0507 22.3153 14.5987C22.3055 14.6054 22.2956 14.6086 22.2857 14.6117C22.2561 14.6117 22.2269 14.6148 22.2004 14.6148C22.1744 14.6148 22.1448 14.6117 22.112 14.6117C22.1021 14.6086 22.0923 14.605 22.086 14.5987C19.0909 12.0475 13.8349 8.61782 13.7106 4.21078C13.6679 2.67964 14.1563 1.54824 15.1787 0.813882C17.4921 -0.855599 20.4311 0.249753 22.1089 2.26598C22.1187 2.27586 22.1349 2.28574 22.1515 2.29203C22.1681 2.29562 22.1843 2.29921 22.204 2.29921Z" fill="#1BB0A0"/>
<path d="M34.1186 13.7264C29.2132 13.4543 25.6054 15.8249 22.4105 19.2977C22.2925 19.4257 22.0927 19.4189 21.9814 19.2878C19.5007 16.3301 16.129 14.2281 12.2065 13.8118C5.79392 13.1363 0.623257 17.5923 0.0563688 23.9405C-0.34355 28.3969 1.40963 31.7548 4.51607 34.8269C9.16249 39.4208 11.9543 42.1557 12.8915 43.0311C16.1321 46.0511 18.5307 48.3629 20.0905 49.9726C20.1264 50.0086 20.1856 50.0086 20.2215 49.9726L20.2283 49.9664C20.2709 49.9268 20.274 49.8613 20.2381 49.8154C18.6685 47.9659 17.6986 46.6741 17.322 45.9429C15.2151 41.8408 16.7093 38.0536 18.8229 34.3908C19.9073 32.5152 21.0546 30.6692 22.2638 28.8524C24.1906 31.6101 25.8487 34.4465 27.2414 37.3678C27.4609 37.9288 27.6575 38.4862 27.8281 39.0435C29.1485 43.3423 27.0906 46.5394 24.1875 49.8514C24.1615 49.8842 24.1615 49.9336 24.1906 49.9628L24.1938 49.9659C24.2364 50.0054 24.3019 50.0054 24.341 49.9659C28.0731 46.2506 32.0153 42.6767 35.4853 39.2007C38.6968 35.9839 40.4823 34.1838 40.8395 33.797C43.2678 31.1641 44.4864 28.2227 44.49 24.97C44.4994 19.0744 40.1806 14.0611 34.1186 13.7264ZM18.4095 24.3932C16.7286 26.7311 15.2901 28.8986 14.0939 30.8893C13.4157 32.0202 12.865 33.1157 12.4458 34.1779C12.4031 34.2794 12.2721 34.3059 12.1967 34.2237C9.19839 31.0397 3.15608 26.4391 7.09467 21.547C9.29355 18.8157 13.0584 19.2649 15.572 21.2389C16.5913 22.0424 17.5347 22.9668 18.3965 24.0164C18.4849 24.1242 18.4917 24.2783 18.4095 24.3932ZM38.4405 26.3542C38.2798 27.138 37.7591 28.0821 36.8776 29.1839C35.8125 30.5183 34.2169 32.1972 32.0965 34.2237C32.0342 34.2826 31.9327 34.2633 31.8968 34.1842C30.7792 31.6627 29.4358 29.2984 27.8599 27.0886L26.1036 24.2684C26.0219 24.0847 26.0282 23.9374 26.1202 23.8224C27.372 22.2418 28.8007 21.0516 30.4093 20.2481C32.1428 19.3826 34.8102 19.3956 36.4683 20.6514C38.2767 22.0226 38.9356 23.9243 38.4405 26.3542Z" fill="#1BB0A0"/>
<path d="M106.068 35.8653C106.067 35.9606 105.989 36.0392 105.893 36.0387L102.42 36.0324C102.325 36.0324 102.246 35.9534 102.247 35.8582L102.285 13.6263C102.286 13.531 102.364 13.4524 102.459 13.4529L105.933 13.4587C106.028 13.4592 106.107 13.5378 106.106 13.633L106.068 35.8653Z" fill="#1F2937"/>
<path d="M98.5965 35.9637C98.5965 36.0261 98.544 36.0782 98.4821 36.0782H94.8972C94.8348 36.0782 94.7827 36.0257 94.7827 35.9637V13.686C94.7827 13.6235 94.8352 13.571 94.8972 13.571H98.4821C98.5445 13.571 98.5965 13.6235 98.5965 13.686V35.9637Z" fill="#1F2937"/>
<path d="M91.2596 31.9928V34.557C91.2596 34.8063 91.1254 35.0358 90.9059 35.1539C88.5562 36.4362 85.948 36.8328 83.0875 36.3442C78.3163 35.5307 76.7369 31.0123 77.2481 26.7364C77.7593 22.4377 80.7805 19.7324 85.2698 19.9588C88.0486 20.0967 90.0181 21.4145 91.1779 23.9135C91.9315 25.5399 91.9809 27.6648 91.8857 29.4947C91.8826 29.5769 91.8171 29.6388 91.7349 29.6388H81.4654C81.2818 29.6388 81.1409 29.8095 81.1772 29.9896C82.1077 34.7443 87.9799 33.6327 90.9028 31.7965C91.0563 31.6977 91.2596 31.8091 91.2596 31.9928ZM81.3209 26.8775L88.032 26.9035C88.1074 26.9035 88.1698 26.8411 88.1698 26.7656V26.7099C88.1765 24.8181 86.6688 23.2767 84.8043 23.2704H84.575C82.7105 23.2636 81.1898 24.7916 81.1835 26.6839V26.7396C81.1831 26.8155 81.2455 26.8775 81.3209 26.8775Z" fill="#1F2937"/>
<path d="M113.643 22.346C113.643 22.4839 113.824 22.5329 113.896 22.4183C114.961 20.6837 116.615 19.8838 118.86 20.0212C121.111 20.1591 122.622 21.1131 123.392 22.8805C123.762 23.7361 123.923 25.1662 123.87 27.1663C123.802 29.7565 123.795 32.6652 123.851 35.8887C123.854 35.974 123.785 36.0428 123.7 36.0428H120.052C119.951 36.0428 119.866 35.9606 119.869 35.8591C119.918 32.5277 119.931 29.5306 119.908 26.8712C119.892 24.9596 119.056 23.212 116.795 23.556C114.901 23.8444 114.003 25.7137 113.951 27.4546C113.872 30.0682 113.875 32.8781 113.964 35.8914C113.967 36.0028 113.879 36.0949 113.77 36.0949H110.087C109.979 36.0949 109.891 36.0064 109.891 35.895V20.4933C109.891 20.3918 109.972 20.3096 110.074 20.3096H113.469C113.564 20.3096 113.642 20.3882 113.642 20.4834V22.346H113.643Z" fill="#1F2937"/>
<path d="M140.772 31.7143V34.8952C140.772 34.9311 140.752 34.9639 140.723 34.9837C138.135 36.6397 133.91 37.0758 131.142 35.82C128.53 34.636 127.118 32.5178 126.911 29.4587C126.518 23.6418 129.615 19.1099 135.942 20.1429C139.114 20.6608 141.093 23.34 141.24 26.4584C141.293 27.5732 141.29 28.5406 141.231 29.3603C141.224 29.4749 141.126 29.5638 141.011 29.5638H131.046C130.902 29.5638 130.791 29.6949 130.81 29.8391C131.564 34.8363 137.813 33.5706 140.719 31.6851C140.743 31.6716 140.772 31.6878 140.772 31.7143ZM131.086 26.881L137.404 26.9008C137.538 26.9039 137.646 26.7926 137.646 26.6614V26.612C137.653 24.7822 136.198 23.2968 134.396 23.2906H134.121C132.318 23.2838 130.85 24.7597 130.844 26.5859V26.6349C130.844 26.7692 130.952 26.8774 131.086 26.881Z" fill="#1F2937"/>
<path d="M158.031 32.1437C158.031 32.0979 158.08 32.0683 158.122 32.088C160.511 33.2064 162.599 33.6192 164.381 33.3277C164.958 33.2325 165.803 32.9342 166.082 32.3768C166.691 31.1668 165.462 30.406 164.371 30.1567C163.152 29.8778 161.979 29.5863 160.852 29.2876C158.614 28.6943 157.716 26.533 157.995 24.3003C158.614 19.2999 165.305 19.6507 168.861 20.7915C168.995 20.8342 169.083 20.9586 169.083 21.0996V24.2113C169.083 24.3295 168.962 24.4081 168.854 24.3587C167.271 23.6274 165.597 23.2636 163.834 23.2636C161.576 23.2636 160.619 25.385 163.162 26.2181C166.045 27.1658 170.338 27.3724 169.977 31.7858C169.758 34.4842 168.168 36.0158 165.21 36.3796C162.919 36.6617 160.557 36.3994 158.128 35.5896C158.07 35.5698 158.03 35.5141 158.03 35.4517V32.1437H158.031Z" fill="#1F2937"/>
<path d="M143.827 32.1994C143.827 32.075 143.955 31.996 144.066 32.0485C145.698 32.8386 150.462 34.3931 151.727 32.4321C152.468 31.2809 151.688 30.4513 150.548 30.2057C147.297 29.5072 143.627 29.4776 143.817 24.9134C144.06 19.0273 151.331 19.7455 155.063 20.88C155.126 20.8962 155.168 20.9523 155.168 21.0179V24.3789C155.168 24.4148 155.129 24.4377 155.096 24.4247C152.586 23.3786 150.551 22.9919 148.995 23.2641C147.782 23.4738 146.812 24.4283 147.769 25.6383C148.034 25.976 148.517 26.2285 149.221 26.3955C151.872 27.0252 155.716 27.6123 155.764 31.1534C155.85 37.5048 148.087 36.9083 144.132 35.7472C143.951 35.6947 143.827 35.5276 143.827 35.3408V32.1994H143.827Z" fill="#1F2937"/>
<path d="M69.0102 31.4255C69.0201 31.4682 69.0789 31.4682 69.0888 31.4255L71.7365 20.421C71.7527 20.3487 71.8182 20.2966 71.8905 20.2966H75.4556C75.5669 20.2966 75.6455 20.4017 75.6163 20.5099L71.5202 35.754C71.4744 35.9179 71.3267 36.0293 71.1598 36.0293H66.9361C66.8347 36.0293 66.7463 35.9606 66.7198 35.8586C65.6484 31.6551 64.7866 28.3561 64.1313 25.9657C64.1147 25.9001 64.0788 25.8444 64.0263 25.7986C64.0065 25.7825 63.9738 25.7919 63.9675 25.8184L61.274 35.8294C61.248 35.9345 61.1528 36.0064 61.0446 36.0064H56.8632C56.7847 36.0064 56.7124 35.9539 56.6927 35.8753L52.4753 20.5229C52.4457 20.4178 52.5279 20.3132 52.6392 20.3132H56.3322C56.4404 20.3132 56.532 20.3855 56.5585 20.4902L59.1667 31.298C59.1734 31.324 59.2125 31.324 59.2192 31.298L62.0079 20.5297C62.0375 20.4147 62.1421 20.333 62.2632 20.333H66.1103C66.2382 20.333 66.3526 20.4214 66.3823 20.5463L69.0102 31.4255Z" fill="#1F2937"/>
</g>
<defs>
<clipPath id="clip0_2287_1054">
<rect width="170" height="50" fill="white"/>
</clipPath>
</defs>
</svg>
