<svg width="50" height="50" viewBox="0 0 50 50" fill="none" xmlns="http://www.w3.org/2000/svg">
<g clip-path="url(#clip0_2287_1126)">
<path d="M34.135 29.3717C37.4768 32.6956 41.6995 34.4687 45.7936 32.164C48.2986 30.754 50 28.0675 50 25.0032C50 22.434 48.7992 20.0177 46.935 18.4758C46.1437 17.8221 45.2327 17.3255 44.2436 17.0414C41.6897 16.3087 36.3395 17.4973 27.7036 16.7923C33.1808 20.0601 39.4412 17.6504 42.4631 20.148C43.8162 21.2666 44.6872 23.0201 44.6872 24.8844C44.6872 27.1077 43.4523 29.0574 41.6352 30.0807C39.4754 31.297 36.6871 30.8069 34.135 29.3717ZM41.7256 24.7786C41.7256 26.4914 40.3375 27.8794 38.6247 27.8794C36.9118 27.8794 35.5238 26.4914 35.5238 24.7786C35.5238 23.0657 36.9118 21.6777 38.6247 21.6777C40.3375 21.6769 41.7256 23.0657 41.7256 24.7786Z" fill="#FAA708"/>
<path d="M15.8659 20.6283C12.524 17.3044 8.30131 15.5313 4.20724 17.836C1.70146 19.246 0 21.9325 0 24.9967C0 27.566 1.20079 29.9822 3.06506 31.5233C3.85636 32.177 4.76733 32.6736 5.75646 32.9577C8.31027 33.6904 13.6605 32.5018 22.2964 33.2069C16.8192 29.9391 10.5588 32.3488 7.53688 29.8512C6.18386 28.7326 5.31278 26.979 5.31278 25.1148C5.31278 22.8915 6.54776 20.9417 8.36563 19.9184C10.5246 18.703 13.3129 19.193 15.8659 20.6283ZM8.27445 25.2222C8.27445 23.5094 9.66248 22.1213 11.3753 22.1213C13.0882 22.1213 14.4762 23.5094 14.4762 25.2222C14.4762 26.9351 13.0882 28.3231 11.3753 28.3231C9.66329 28.3231 8.27445 26.9351 8.27445 25.2222Z" fill="#EF3454"/>
<path d="M20.6284 34.135C17.3045 37.4768 15.5314 41.6995 17.8361 45.7936C19.2461 48.2986 21.9326 50 24.9968 50C27.5661 50 29.9824 48.7992 31.5242 46.935C32.178 46.1437 32.6746 45.2327 32.9587 44.2436C33.6914 41.6897 32.5028 36.3395 33.2078 27.7036C29.94 33.1808 32.3497 39.4412 29.8521 42.4631C28.7335 43.8162 26.98 44.6872 25.1157 44.6872C22.8924 44.6872 20.9427 43.4523 19.9193 41.6344C18.7031 39.4754 19.1932 36.6871 20.6284 34.135ZM25.2223 41.7256C23.5095 41.7256 22.1215 40.3375 22.1215 38.6247C22.1215 36.9118 23.5095 35.5238 25.2223 35.5238C26.9352 35.5238 28.3232 36.9118 28.3232 38.6247C28.3232 40.3375 26.9352 41.7256 25.2223 41.7256Z" fill="#932CAC"/>
<path d="M29.3719 15.8659C32.6958 12.524 34.4689 8.30131 32.1642 4.20724C30.755 1.70146 28.0677 0 25.0034 0C22.4341 0 20.0179 1.20079 18.476 3.06506C17.8223 3.85636 17.3257 4.76733 17.0416 5.75646C16.3089 8.31027 17.4975 13.6605 16.7925 22.2964C20.0603 16.8192 17.6505 10.5588 20.1482 7.53688C21.2667 6.18386 23.0203 5.31278 24.8846 5.31278C27.1079 5.31278 29.0576 6.54776 30.0809 8.36563C31.2972 10.5246 30.8071 13.3129 29.3719 15.8659ZM24.7787 8.27445C26.4916 8.27445 27.8796 9.66248 27.8796 11.3753C27.8796 13.0882 26.4916 14.4762 24.7787 14.4762C23.0659 14.4762 21.6779 13.0882 21.6779 11.3753C21.677 9.66329 23.0659 8.27445 24.7787 8.27445Z" fill="#2AAC64"/>
<path d="M48.8921 32.3822C46.4815 40.1934 40.3449 46.37 32.5581 48.8367C39.3737 44.5822 44.6262 39.166 48.8921 32.3822Z" fill="#2AAC64"/>
<path d="M17.6185 48.892C9.80729 46.4807 3.63077 40.3448 1.16406 32.558C5.41852 39.3736 10.8347 44.6262 17.6185 48.892Z" fill="#FAA708"/>
<path d="M1.10791 17.6186C3.51926 9.80736 9.65589 3.63083 17.4427 1.16412C10.6271 5.41858 5.37457 10.8347 1.10791 17.6186Z" fill="#932CAC"/>
<path d="M32.3823 1.10797C40.1936 3.51932 46.3701 9.65514 48.8368 17.4419C44.5823 10.6272 39.1662 5.37464 32.3823 1.10797Z" fill="#EF3454"/>
</g>
<defs>
<clipPath id="clip0_2287_1126">
<rect width="50" height="50" fill="white"/>
</clipPath>
</defs>
</svg>
