<svg width="100" height="100" viewBox="0 0 100 100" fill="none" xmlns="http://www.w3.org/2000/svg">
<path d="M13.318 80.623C13.0008 80.623 12.6908 80.5289 12.4273 80.3524C12.1638 80.176 11.9587 79.9252 11.838 79.632L8.51997 71.558C8.36633 71.1841 8.35992 70.7658 8.50202 70.3874C8.64412 70.009 8.9242 69.6983 9.28597 69.518C14.971 66.683 19.152 62.218 21.713 56.248C22.6201 54.1338 23.2765 51.9208 23.669 49.654H14.817C14.3926 49.654 13.9857 49.4854 13.6856 49.1853C13.3855 48.8853 13.217 48.4783 13.217 48.054V20.977C13.217 20.5526 13.3855 20.1456 13.6856 19.8456C13.9857 19.5455 14.3926 19.377 14.817 19.377H47.5C47.9243 19.377 48.3313 19.5455 48.6313 19.8456C48.9314 20.1456 49.1 20.5526 49.1 20.977V39.52C49.1021 46.5846 47.3036 53.5333 43.8742 59.7097C40.4448 65.8862 35.4976 71.0866 29.5 74.82C25.4391 77.3442 20.9697 79.142 16.292 80.133C14.579 80.498 13.527 80.608 13.483 80.613C13.4282 80.6193 13.3731 80.6226 13.318 80.623ZM12.032 71.684L14.322 77.258C14.685 77.195 15.122 77.112 15.622 77.005C33.17 73.272 45.9 57.507 45.9 39.52V22.577H16.417V46.454H25.484C25.7016 46.4536 25.917 46.4977 26.1171 46.5835C26.3171 46.6693 26.4975 46.795 26.6473 46.9529C26.797 47.1108 26.913 47.2976 26.9881 47.5019C27.0632 47.7062 27.0958 47.9236 27.084 48.141C27.075 48.312 26.834 52.377 24.707 57.389C23.4936 60.2747 21.8407 62.9551 19.807 65.335C17.6075 67.8907 14.9757 70.0397 12.032 71.684Z" fill="#136DF4"/>
<path d="M55.8131 80.623C55.4961 80.6228 55.1863 80.5286 54.923 80.3522C54.6597 80.1757 54.4547 79.9251 54.3341 79.632L51.0161 71.558C50.8624 71.1841 50.856 70.7658 50.9981 70.3874C51.1402 70.009 51.4203 69.6983 51.7821 69.518C57.4671 66.683 61.6481 62.218 64.2091 56.248C65.1152 54.1335 65.7717 51.9205 66.1651 49.654H57.3131C56.8887 49.654 56.4818 49.4854 56.1817 49.1853C55.8816 48.8853 55.7131 48.4783 55.7131 48.054V20.977C55.7131 20.5526 55.8816 20.1456 56.1817 19.8456C56.4818 19.5455 56.8887 19.377 57.3131 19.377H90.0001C90.4244 19.377 90.8314 19.5455 91.1314 19.8456C91.4315 20.1456 91.6001 20.5526 91.6001 20.977V39.52C91.6179 49.0263 88.3672 58.2499 82.393 65.6445C76.4187 73.039 68.084 78.1551 58.7861 80.135C57.0731 80.5 56.0221 80.61 55.9781 80.615C55.9233 80.6206 55.8682 80.6233 55.8131 80.623ZM54.5271 71.684L56.8181 77.258C57.1801 77.195 57.6181 77.112 58.1181 77.005C75.6661 73.272 88.4001 57.507 88.4001 39.52V22.577H58.9131V46.454H67.9801C68.1977 46.4536 68.4131 46.4977 68.6131 46.5835C68.8132 46.6693 68.9936 46.795 69.1433 46.9529C69.2931 47.1108 69.4091 47.2976 69.4842 47.5019C69.5593 47.7062 69.5919 47.9236 69.5801 48.141C69.5711 48.312 69.3291 52.377 67.2031 57.389C65.9897 60.2747 64.3368 62.9551 62.3031 65.335C60.1037 67.8912 57.4716 70.0403 54.5271 71.684Z" fill="#136DF4"/>
</svg>
