<svg width="124" height="30" viewBox="0 0 124 30" fill="none" xmlns="http://www.w3.org/2000/svg">
<g clip-path="url(#clip0_350_5887)">
<path d="M32.5809 10.5619H45.1341V12.8534H40.1989V25.7375H37.4833V12.8534H32.5693V10.561H32.58L32.5809 10.5619ZM44.5982 14.7487H46.9188V16.8699H46.9622C47.0393 16.5699 47.181 16.2804 47.3891 16.0016C47.8342 15.404 48.4365 14.9407 49.1295 14.6631C49.4815 14.5241 49.8563 14.4514 50.2349 14.4487C50.5183 14.4487 50.7274 14.4593 50.8372 14.4707C50.9461 14.4813 51.0551 14.5025 51.1755 14.5131V16.8478C50.9978 16.8168 50.8191 16.7918 50.6397 16.7728C50.4615 16.7518 50.2823 16.7412 50.1029 16.741C49.6867 16.741 49.2934 16.8266 48.9214 16.9881C48.5494 17.1478 48.2314 17.394 47.9586 17.7054C47.6675 18.0537 47.4446 18.4533 47.3014 18.8834C47.1376 19.3546 47.0605 19.8893 47.0605 20.5007V25.7269H44.5876V14.7487H44.5982ZM62.5472 25.7384H60.1177V24.2066H60.0734C59.767 24.7643 59.3188 25.2037 58.7165 25.5354C58.1142 25.8672 57.5013 26.0384 56.8778 26.0384C55.4004 26.0384 54.3269 25.6854 53.6715 24.9672C53.0143 24.2499 52.6857 23.1681 52.6857 21.7219V14.7496H55.1595V21.4863C55.1595 22.4507 55.3455 23.1363 55.729 23.5325C56.101 23.9287 56.6369 24.1325 57.3153 24.1325C57.8405 24.1325 58.2675 24.0575 58.6173 23.896C58.9681 23.7354 59.2524 23.5325 59.4605 23.2643C59.6793 23.0075 59.8325 22.6863 59.9317 22.3219C60.0291 21.9575 60.0734 21.5613 60.0734 21.1334V14.7602H62.5472V25.7384ZM66.7606 22.2152C66.8376 22.921 67.1104 23.4152 67.5816 23.7037C68.0626 23.9825 68.6321 24.1325 69.2999 24.1325C69.5302 24.1325 69.7924 24.1104 70.0882 24.0787C70.3831 24.046 70.6674 23.971 70.9199 23.8757C71.182 23.7787 71.3893 23.6287 71.5647 23.4363C71.7294 23.2422 71.8056 22.9969 71.795 22.6863C71.7935 22.5422 71.7617 22.4 71.7014 22.2689C71.6411 22.1379 71.5538 22.0209 71.4451 21.9257C71.2255 21.7228 70.9527 21.5728 70.6125 21.444C70.2336 21.3132 69.8459 21.2094 69.4523 21.1334C69.0147 21.0478 68.5772 20.9507 68.129 20.8546C67.6775 20.7572 67.2316 20.6356 66.7933 20.4902C66.3823 20.3589 65.9946 20.1639 65.6446 19.9122C65.3035 19.6751 65.0254 19.359 64.8341 18.991C64.6269 18.616 64.5277 18.1554 64.5277 17.5987C64.5277 16.9987 64.6809 16.5063 64.9767 16.0987C65.2751 15.6944 65.6603 15.3616 66.1043 15.1246C66.5813 14.8733 67.0942 14.6963 67.625 14.5996C68.183 14.5034 68.7198 14.4496 69.2229 14.4496C69.803 14.4496 70.361 14.514 70.8871 14.6322C71.3965 14.7408 71.882 14.9402 72.3202 15.2207C72.7471 15.489 73.097 15.8419 73.3822 16.2707C73.6665 16.6987 73.8419 17.2237 73.918 17.8343H71.3353C71.2148 17.2563 70.9518 16.8602 70.5257 16.6669C70.0988 16.464 69.6064 16.3669 69.059 16.3669C68.8836 16.3669 68.6755 16.3775 68.4355 16.4102C68.2042 16.4408 67.9766 16.4946 67.7561 16.5707C67.5546 16.6447 67.3717 16.7615 67.2202 16.9131C67.1467 16.9922 67.0895 17.085 67.052 17.1861C67.0145 17.2872 66.9973 17.3948 67.0015 17.5025C67.0015 17.8025 67.1104 18.0381 67.3186 18.2199C67.5267 18.4016 67.8004 18.5516 68.1396 18.6804C68.4789 18.7987 68.8624 18.9054 69.2999 18.991C69.7374 19.0766 70.1856 19.1728 70.6462 19.2699C71.0944 19.366 71.5319 19.4949 71.9703 19.6334C72.4079 19.7728 72.7905 19.966 73.1306 20.2122C73.4699 20.4584 73.7435 20.7584 73.9508 21.1228C74.1589 21.4863 74.2688 21.9469 74.2688 22.4825C74.2688 23.1354 74.1155 23.6825 73.8082 24.1431C73.5026 24.5931 73.1085 24.9672 72.6267 25.246C72.1222 25.5355 71.5757 25.7451 71.0067 25.8672C70.4278 25.9941 69.8369 26.0586 69.2441 26.0596C68.5803 26.067 67.9183 25.9878 67.2752 25.824C66.6729 25.6634 66.1477 25.4278 65.7101 25.1181C65.2777 24.8051 64.9221 24.3984 64.6703 23.9287C64.4187 23.4575 64.2868 22.8893 64.2655 22.2363H66.7606V22.2152ZM74.9251 14.7504H76.7966V11.4504H79.2704V14.7504H81.5024V16.5593H79.2713V22.4296C79.2713 22.6854 79.2819 22.9007 79.3041 23.0931C79.3253 23.2757 79.3802 23.4363 79.4573 23.5643C79.541 23.6987 79.6681 23.8008 79.8178 23.8537C79.9825 23.9181 80.1898 23.9507 80.475 23.9507C80.6495 23.9507 80.8248 23.9507 81.0002 23.9393C81.1756 23.9287 81.35 23.9075 81.5254 23.8643V25.7384C81.2517 25.771 80.9781 25.7922 80.7265 25.824C80.4613 25.8547 80.1945 25.8691 79.9276 25.8672C79.2713 25.8672 78.746 25.8028 78.351 25.6854C77.9578 25.5672 77.6398 25.3854 77.421 25.1499C77.1907 24.9143 77.049 24.6249 76.9613 24.271C76.8761 23.8731 76.8286 23.4681 76.8196 23.0613V16.5796H74.9481V14.7478H74.926L74.9251 14.7504ZM83.2535 14.7504H85.5962V16.2381H85.6405C85.9894 15.5957 86.4713 15.1457 87.0948 14.8678C87.7322 14.5855 88.4229 14.4429 89.1204 14.4496C90.0061 14.4496 90.7723 14.5996 91.4295 14.9102C92.0858 15.2102 92.6332 15.6284 93.0707 16.1631C93.5083 16.6987 93.8262 17.3199 94.045 18.0275C94.2679 18.7636 94.3787 19.5289 94.3736 20.2978C94.3736 21.0363 94.2753 21.7537 94.0778 22.4402C93.8964 23.1023 93.596 23.7262 93.1912 24.2816C92.7933 24.8171 92.2765 25.2535 91.681 25.5566C91.0681 25.8778 90.3569 26.0384 89.5252 26.0384C89.1617 26.038 88.7989 26.0055 88.4411 25.9413C88.0842 25.8773 87.7357 25.7734 87.4021 25.6316C87.0708 25.4939 86.7609 25.3097 86.4819 25.0846C86.2065 24.8657 85.9666 24.6059 85.7706 24.3143H85.7264V29.7981H83.2535V14.7487V14.7504ZM91.8998 20.2546C91.9003 19.7662 91.8341 19.2799 91.7032 18.8093C91.5819 18.3633 91.3815 17.9426 91.1115 17.5669C90.8553 17.2095 90.5229 16.913 90.1381 16.6987C89.7248 16.4762 89.2616 16.3621 88.7918 16.3669C87.752 16.3669 86.9637 16.7199 86.4385 17.4275C85.9133 18.1343 85.6502 19.0775 85.6502 20.2546C85.6502 20.8113 85.7166 21.3257 85.8583 21.7969C86 22.2681 86.1976 22.6757 86.4819 23.0181C86.7565 23.3613 87.0842 23.6287 87.4677 23.821C87.8503 24.0249 88.2994 24.121 88.8025 24.121C89.372 24.121 89.8423 24.0037 90.2364 23.7787C90.6181 23.5599 90.9468 23.2602 91.1992 22.9007C91.4507 22.5363 91.6376 22.1287 91.7466 21.669C91.8473 21.2042 91.8987 20.7301 91.8998 20.2546ZM96.2664 10.5619H98.7402V12.8543H96.2664V10.5619ZM96.2664 14.7496H98.7402V25.7384H96.2664V14.7496ZM100.951 10.5619H103.425V25.7384H100.951V10.5619ZM111.009 26.0384C110.111 26.0384 109.312 25.8884 108.612 25.5999C107.942 25.3258 107.334 24.9173 106.829 24.3999C106.337 23.872 105.96 23.2483 105.722 22.5681C105.462 21.8173 105.333 21.0277 105.34 20.2334C105.34 19.3978 105.471 18.6275 105.722 17.9199C105.96 17.24 106.337 16.6166 106.829 16.089C107.309 15.5746 107.912 15.1784 108.612 14.889C109.312 14.5996 110.111 14.4496 111.009 14.4496C111.906 14.4496 112.705 14.5996 113.406 14.889C114.106 15.1784 114.697 15.586 115.19 16.089C115.681 16.6165 116.058 17.2399 116.295 17.9199C116.547 18.6266 116.678 19.3978 116.678 20.2334C116.678 21.0804 116.547 21.8613 116.295 22.5681C116.058 23.2484 115.681 23.8721 115.19 24.3999C114.708 24.9143 114.106 25.3104 113.406 25.5999C112.705 25.8884 111.906 26.0384 111.009 26.0384ZM111.009 24.121C111.556 24.121 112.037 24.0037 112.442 23.7787C112.837 23.5599 113.177 23.256 113.439 22.8893C113.701 22.5257 113.887 22.1075 114.019 21.6469C114.139 21.1863 114.205 20.7152 114.205 20.2334C114.205 19.7622 114.139 19.3016 114.019 18.8304C113.906 18.3835 113.709 17.9619 113.439 17.5881C113.177 17.2248 112.836 16.9248 112.442 16.7102C112.037 16.4852 111.556 16.3669 111.009 16.3669C110.462 16.3669 109.98 16.4852 109.575 16.7102C109.184 16.9281 108.844 17.2275 108.58 17.5881C108.313 17.9642 108.116 18.385 107.999 18.8304C107.878 19.2884 107.815 19.7598 107.813 20.2334C107.813 20.7152 107.879 21.1863 107.999 21.6469C108.12 22.1075 108.317 22.5257 108.58 22.8893C108.842 23.2537 109.17 23.5537 109.575 23.7787C109.98 24.0143 110.462 24.121 111.009 24.121ZM117.4 14.7504H119.272V11.4504H121.746V14.7504H123.978V16.5593H121.746V22.4296C121.746 22.6854 121.756 22.9007 121.778 23.0931C121.8 23.2757 121.855 23.4363 121.932 23.5643C122.015 23.6988 122.142 23.8009 122.292 23.8537C122.457 23.9181 122.664 23.9507 122.949 23.9507C123.124 23.9507 123.299 23.9507 123.475 23.9393C123.65 23.9287 123.824 23.9075 124 23.8643V25.7384C123.726 25.771 123.452 25.7922 123.201 25.824C122.936 25.8547 122.669 25.8691 122.402 25.8672C121.746 25.8672 121.22 25.8028 120.825 25.6854C120.432 25.5672 120.114 25.3854 119.895 25.1499C119.666 24.9143 119.523 24.6249 119.436 24.271C119.351 23.8731 119.303 23.4681 119.294 23.0613V16.5796H117.423V14.7478H117.4V14.7504Z" fill="#1F2937"/>
<path d="M29.6918 10.5609H18.3538L14.8517 0L11.3371 10.5618L0 10.5503L9.1822 17.0832L5.66946 27.6326L14.8517 21.1103L24.0232 27.6326L20.5211 17.0832L29.6918 10.5609Z" fill="#00B67A"/>
<path d="M21.3084 19.4725L20.5201 17.084L14.8516 21.111L21.3084 19.4725Z" fill="#126849"/>
</g>
<defs>
<clipPath id="clip0_350_5887">
<rect width="124" height="30" fill="white"/>
</clipPath>
</defs>
</svg>
