<svg width="1060" height="1080" viewBox="0 0 1060 1080" fill="none" xmlns="http://www.w3.org/2000/svg">
<g clip-path="url(#clip0_533_479)">
<path d="M759.769 1031.18L844.025 1080L929.881 1030.29L929.893 931.723L1012.58 883.845L1096.84 932.661L1182.7 882.949L1182.71 785.377L1266.98 736.585L1266.99 637.136L1182.74 588.32L1182.75 489.845L1096.91 440.109L1011.05 489.821L1011.04 588.296L928.347 636.167L845.679 588.271L845.692 490.663L759.847 440.927L675.574 489.719L591.312 440.903L505.468 490.627L505.456 588.229L422.764 636.107L338.509 587.291L252.653 636.997L252.641 736.446L336.902 785.262L336.89 881.956L252.617 930.748L252.604 1030.2L338.449 1079.93L422.722 1031.14L506.978 1079.96L591.252 1031.17L675.507 1079.98L759.769 1031.18ZM926.758 734.665L844.037 782.561L761.4 734.683L761.412 638.917L844.103 591.039L926.77 638.935L926.758 734.665ZM758.223 734.683L675.538 782.561L592.864 734.659L592.876 638.893L675.568 591.015L758.241 638.911L758.223 734.683ZM508.591 786.147L591.282 738.27L673.955 786.171L673.943 881.944L591.258 929.821L508.585 881.92L508.591 786.147ZM842.466 881.968L759.781 929.845L677.108 881.944L677.12 786.171L759.811 738.294L842.485 786.195L842.466 881.968ZM589.705 638.887L589.693 734.653L507.002 782.531L424.329 734.629L424.341 638.85L507.026 590.979L589.705 638.887ZM422.746 738.246L505.42 786.147L505.408 881.92L422.722 929.797L340.049 881.896L340.061 786.123L422.746 738.246ZM592.834 932.631L675.519 884.754L758.193 932.655L758.181 1028.43L675.489 1076.31L592.816 1028.4L592.834 932.631ZM926.71 1028.45L844.025 1076.33L761.352 1028.43L761.364 932.655L844.049 884.778L926.722 932.679L926.71 1028.45ZM845.637 881.071L845.649 785.335L928.335 737.457L1011.01 785.359L1011 881.095L928.305 928.973L845.637 881.071ZM1096.85 928.991L1014.17 881.089L1014.18 785.353L1096.87 737.475L1179.54 785.377L1179.53 881.114L1096.85 928.991ZM1263.83 638.977L1263.82 734.75L1181.17 782.609L1098.46 734.69L1098.47 638.953L1181.16 591.075L1263.83 638.977ZM1096.91 443.791L1179.59 491.692L1179.57 587.465L1096.88 635.343L1014.21 587.441L1014.22 491.668L1096.91 443.791ZM1095.3 638.953L1095.29 734.69L1012.6 782.567L929.929 734.665L929.941 638.929L1012.63 591.051L1095.3 638.953ZM842.527 492.511L842.515 588.277L759.823 636.155L677.15 588.259L677.162 492.493L759.847 444.615L842.527 492.511ZM591.324 444.585L673.997 492.487L673.985 588.253L591.294 636.131L508.621 588.235L508.633 492.463L591.324 444.585ZM255.8 734.605L255.812 638.832L338.503 590.955L421.176 638.85L421.164 734.623L338.479 782.501L255.8 734.605ZM255.757 1028.36L255.769 932.583L338.461 884.706L421.134 932.607L421.122 1028.38L338.437 1076.26L255.757 1028.36ZM424.293 1028.38L424.305 932.607L506.99 884.73L589.663 932.631L589.651 1028.4L506.96 1076.28L424.293 1028.38Z" fill="white"/>
<path d="M507.177 591.063L591.432 639.879L677.289 590.167L677.301 491.602L759.992 443.725L844.248 492.541L930.104 442.828L930.116 345.256L1014.39 296.464L1014.4 197.015L930.146 148.199L930.158 49.7246L844.326 0L758.47 49.7126L758.458 148.187L675.766 196.058L593.099 148.163L593.111 50.555L507.267 0.818314L422.993 49.6163L338.732 0.794246L252.875 50.5068L252.863 148.109L170.172 195.986L85.9164 147.17L0.0541528 196.877L0.0421188 296.326L84.3038 345.142L84.2918 441.835L0.0120339 490.627L0 590.071L85.8442 639.807L170.118 591.015L254.374 639.831L338.647 591.039L422.903 639.855L507.177 591.063ZM674.166 294.551L591.444 342.446L508.807 294.569L508.819 198.802L591.511 150.925L674.178 198.82L674.166 294.551ZM505.636 294.563L422.951 342.44L340.278 294.539L340.29 198.772L422.981 150.895L505.654 198.79L505.636 294.563ZM256.004 346.026L338.695 298.149L421.369 346.051L421.357 441.823L338.671 489.701L255.998 441.799L256.004 346.026ZM589.88 441.853L507.195 489.725L424.522 441.823L424.534 346.051L507.225 298.173L589.898 346.075L589.88 441.853ZM337.119 198.766L337.107 294.533L254.416 342.41L171.742 294.509L171.755 198.736L254.44 150.865L337.119 198.766ZM170.16 298.131L252.833 346.032L252.821 441.805L170.136 489.683L87.4627 441.781L87.4748 346.008L170.16 298.131ZM340.248 492.511L422.933 444.633L505.606 492.535L505.594 588.308L422.903 636.185L340.23 588.284L340.248 492.511ZM674.124 588.338L591.438 636.215L508.765 588.314L508.777 492.541L591.462 444.657L674.136 492.559L674.124 588.338ZM593.051 440.951L593.063 345.214L675.748 297.337L758.421 345.238L758.409 440.975L675.718 488.852L593.051 440.951ZM844.254 488.876L761.58 440.975L761.592 345.238L844.278 297.361L926.951 345.262L926.939 440.999L844.254 488.876ZM1011.24 198.862L1011.23 294.635L928.575 342.494L845.866 294.575L845.878 198.838L928.569 150.961L1011.24 198.862ZM844.326 3.67038L926.999 51.5718L926.987 147.345L844.296 195.222L761.622 147.321L761.635 51.5478L844.326 3.67038ZM842.713 198.832L842.701 294.569L760.016 342.446L677.343 294.545L677.355 198.808L760.046 150.931L842.713 198.832ZM589.94 52.3901L589.928 148.157L507.237 196.034L424.564 148.139L424.576 52.3721L507.267 4.48869L589.94 52.3901ZM338.732 4.46462L421.405 52.3661L421.393 148.133L338.701 196.01L256.028 148.115L256.04 52.342L338.732 4.46462ZM3.21306 294.491L3.2251 198.718L85.9164 150.841L168.59 198.736L168.578 294.509L85.8923 342.386L3.21306 294.491ZM3.17094 588.235L3.18298 492.463L85.8742 444.585L168.547 492.487L168.535 588.259L85.8502 636.137L3.17094 588.235ZM171.7 588.259L171.712 492.487L254.398 444.609L337.071 492.511L337.059 588.284L254.368 636.161L171.7 588.259Z" fill="white"/>
</g>
<defs>
<clipPath id="clip0_533_479">
<rect width="1267" height="1080" fill="white"/>
</clipPath>
</defs>
</svg>
