<svg width="948" height="1080" viewBox="0 0 948 1080" fill="none" xmlns="http://www.w3.org/2000/svg">
<g clip-path="url(#clip0_535_549)">
<path d="M188.231 1031.18L103.975 1080L18.1189 1030.29L18.107 931.723L-64.5844 883.845L-148.84 932.661L-234.696 882.949L-234.708 785.377L-318.982 736.585L-318.994 637.136L-234.738 588.32L-234.75 489.845L-148.906 440.109L-63.05 489.821L-63.038 588.296L19.6533 636.167L102.32 588.271L102.308 490.663L188.153 440.927L272.426 489.719L356.688 440.903L442.532 490.627L442.544 588.229L525.236 636.107L609.491 587.291L695.347 636.997L695.359 736.446L611.098 785.262L611.11 881.956L695.383 930.748L695.396 1030.2L609.551 1079.93L525.278 1031.14L441.022 1079.96L356.748 1031.17L272.493 1079.98L188.231 1031.18ZM21.2418 734.665L103.963 782.561L186.6 734.684L186.588 638.917L103.897 591.039L21.2298 638.935L21.2418 734.665ZM189.777 734.684L272.462 782.561L355.136 734.659L355.124 638.893L272.432 591.015L189.759 638.911L189.777 734.684ZM439.409 786.147L356.718 738.27L274.045 786.171L274.057 881.944L356.742 929.821L439.415 881.92L439.409 786.147ZM105.534 881.968L188.219 929.845L270.892 881.944L270.88 786.171L188.189 738.294L105.516 786.195L105.534 881.968ZM358.295 638.887L358.307 734.653L440.998 782.531L523.671 734.629L523.659 638.85L440.974 590.979L358.295 638.887ZM525.254 738.246L442.58 786.147L442.592 881.92L525.278 929.797L607.951 881.896L607.939 786.123L525.254 738.246ZM355.166 932.631L272.481 884.754L189.807 932.655L189.819 1028.43L272.511 1076.31L355.184 1028.4L355.166 932.631ZM21.2899 1028.45L103.975 1076.33L186.648 1028.43L186.636 932.655L103.951 884.778L21.2778 932.679L21.2899 1028.45ZM102.363 881.071L102.351 785.335L19.6653 737.457L-63.0078 785.359L-62.9958 881.095L19.6954 928.973L102.363 881.071ZM-148.846 928.991L-66.1728 881.089L-66.1848 785.353L-148.87 737.475L-231.543 785.377L-231.531 881.114L-148.846 928.991ZM-315.835 638.977L-315.823 734.75L-233.168 782.609L-150.459 734.69L-150.471 638.953L-233.162 591.075L-315.835 638.977ZM-148.912 443.791L-231.585 491.692L-231.573 587.465L-148.882 635.343L-66.2089 587.441L-66.2209 491.668L-148.912 443.791ZM-147.3 638.953L-147.288 734.69L-64.6024 782.567L18.0709 734.665L18.0588 638.929L-64.6324 591.051L-147.3 638.953ZM105.473 492.511L105.485 588.277L188.177 636.155L270.85 588.259L270.838 492.493L188.153 444.615L105.473 492.511ZM356.676 444.585L274.003 492.487L274.015 588.253L356.706 636.131L439.379 588.235L439.367 492.463L356.676 444.585ZM692.2 734.605L692.188 638.832L609.497 590.955L526.824 638.85L526.836 734.623L609.521 782.501L692.2 734.605ZM692.243 1028.36L692.231 932.583L609.539 884.706L526.866 932.607L526.878 1028.38L609.563 1076.26L692.243 1028.36ZM523.707 1028.38L523.695 932.607L441.01 884.73L358.337 932.631L358.349 1028.4L441.04 1076.28L523.707 1028.38Z" fill="url(#paint0_linear_535_549)" fill-opacity="0.1"/>
<path d="M440.823 591.063L356.568 639.879L270.711 590.167L270.699 491.602L188.008 443.725L103.753 492.541L17.8962 442.828L17.8843 345.256L-66.3895 296.464L-66.4016 197.015L17.8542 148.199L17.8421 49.7246L103.674 0L189.53 49.7126L189.542 148.187L272.234 196.058L354.901 148.163L354.889 50.555L440.733 0.818314L525.007 49.6163L609.268 0.794246L695.125 50.5068L695.137 148.109L777.828 195.986L862.084 147.17L947.946 196.877L947.958 296.326L863.696 345.142L863.708 441.835L947.988 490.627L948 590.071L862.156 639.807L777.882 591.015L693.626 639.831L609.353 591.039L525.097 639.855L440.823 591.063ZM273.834 294.551L356.556 342.446L439.193 294.569L439.181 198.802L356.489 150.925L273.822 198.82L273.834 294.551ZM442.364 294.563L525.049 342.44L607.722 294.539L607.71 198.772L525.019 150.895L442.346 198.79L442.364 294.563ZM691.996 346.026L609.305 298.149L526.631 346.051L526.643 441.823L609.329 489.701L692.002 441.799L691.996 346.026ZM358.12 441.853L440.805 489.725L523.478 441.823L523.466 346.051L440.775 298.173L358.102 346.075L358.12 441.853ZM610.881 198.766L610.893 294.533L693.584 342.41L776.258 294.509L776.245 198.736L693.56 150.865L610.881 198.766ZM777.84 298.131L695.167 346.033L695.179 441.805L777.864 489.683L860.537 441.781L860.525 346.008L777.84 298.131ZM607.752 492.511L525.067 444.633L442.394 492.535L442.406 588.308L525.097 636.185L607.77 588.284L607.752 492.511ZM273.876 588.338L356.562 636.215L439.235 588.314L439.223 492.541L356.538 444.657L273.864 492.559L273.876 588.338ZM354.949 440.951L354.937 345.214L272.252 297.337L189.579 345.238L189.591 440.975L272.282 488.852L354.949 440.951ZM103.746 488.876L186.42 440.975L186.408 345.238L103.722 297.361L21.0491 345.262L21.0612 440.999L103.746 488.876ZM-63.2426 198.862L-63.2306 294.635L19.4246 342.494L102.134 294.575L102.122 198.838L19.4306 150.961L-63.2426 198.862ZM103.674 3.67038L21.001 51.5718L21.0131 147.345L103.704 195.222L186.378 147.321L186.365 51.5478L103.674 3.67038ZM105.287 198.832L105.299 294.569L187.984 342.446L270.657 294.545L270.645 198.808L187.954 150.931L105.287 198.832ZM358.06 52.3901L358.072 148.157L440.763 196.034L523.436 148.139L523.424 52.3721L440.733 4.48869L358.06 52.3901ZM609.268 4.46462L526.595 52.3661L526.607 148.133L609.299 196.01L691.972 148.115L691.96 52.342L609.268 4.46462ZM944.787 294.491L944.775 198.718L862.084 150.841L779.41 198.736L779.422 294.509L862.108 342.386L944.787 294.491ZM944.829 588.235L944.817 492.463L862.126 444.585L779.453 492.487L779.465 588.259L862.15 636.137L944.829 588.235ZM776.3 588.259L776.288 492.487L693.602 444.609L610.929 492.511L610.941 588.284L693.632 636.161L776.3 588.259Z" fill="url(#paint1_linear_535_549)" fill-opacity="0.1"/>
</g>
<defs>
<linearGradient id="paint0_linear_535_549" x1="188.201" y1="440.109" x2="188.201" y2="1080" gradientUnits="userSpaceOnUse">
<stop stop-color="#8694A7" stop-opacity="0.3"/>
<stop offset="1" stop-color="#8694A7" stop-opacity="0.7"/>
</linearGradient>
<linearGradient id="paint1_linear_535_549" x1="440.799" y1="0" x2="440.799" y2="639.879" gradientUnits="userSpaceOnUse">
<stop stop-color="#8694A7" stop-opacity="0.3"/>
<stop offset="1" stop-color="#8694A7" stop-opacity="0.7"/>
</linearGradient>
<clipPath id="clip0_535_549">
<rect width="1267" height="1080" fill="white" transform="matrix(-1 0 0 1 948 0)"/>
</clipPath>
</defs>
</svg>
