<svg width="1920" height="846" viewBox="0 0 1920 846" fill="none" xmlns="http://www.w3.org/2000/svg">
<mask id="mask0_518_1871" style="mask-type:alpha" maskUnits="userSpaceOnUse" x="0" y="0" width="1920" height="846">
<rect width="1920" height="846" fill="#D9D9D9"/>
</mask>
<g mask="url(#mask0_518_1871)">
<g filter="url(#filter0_f_518_1871)">
<path d="M462.009 456.874L143.638 418.443C88.2608 479.16 -18.937 605.016 -4.71311 622.704C13.0668 644.815 59.1833 600.594 444.229 600.594C829.274 600.594 462.009 642.183 488.123 683.772C514.237 725.362 768.156 683.772 843.72 683.772C919.285 683.772 989.849 642.183 1103.75 581.642C1217.65 521.1 1269.88 597.961 1319.33 600.594C1368.78 603.226 1433.23 642.183 1529.36 683.772C1606.25 717.044 1662.52 669.909 1681.04 642.183L1908.85 564.795C1912.74 528.821 1918.18 449.188 1908.85 418.443C1897.18 380.012 1768.83 332.632 1698.82 302.098C1628.81 271.564 1517.69 285.779 1477.13 302.098C1444.68 315.154 1325.44 385.101 1269.88 418.443C1169.68 418.443 960.512 411.283 925.397 382.645C890.281 354.006 737.782 337.37 665.922 332.632C647.401 345.618 606.359 373.8 590.357 382.645C574.355 391.489 498.124 435.816 462.009 456.874Z" fill="#BFD4CD"/>
<path d="M468.009 595.272L149.638 556.944C94.2608 617.499 -12.937 743.019 1.28689 760.66C19.0668 782.712 65.1833 738.609 450.229 738.609C835.274 738.609 468.009 780.087 494.123 821.565C520.237 863.043 774.156 821.565 849.72 821.565C925.285 821.565 995.849 780.087 1109.75 719.707C1223.65 659.327 1337.55 656.435 1387 659.06C1436.45 661.685 1439.23 780.087 1535.36 821.565C1612.25 854.748 1744.48 766.261 1763 738.609L1914.85 702.906C1918.74 667.028 1924.18 587.606 1914.85 556.944C1903.18 518.616 1774.83 471.362 1704.82 440.91C1634.81 410.457 1523.69 424.633 1483.13 440.91C1450.68 453.931 1331.44 523.691 1275.88 556.944C1175.68 556.944 966.512 549.803 931.397 521.241C896.281 492.679 743.782 476.087 671.922 471.362C653.401 484.313 612.359 512.42 596.357 521.241C580.355 530.062 504.124 574.27 468.009 595.272Z" fill="#C8DDFF" fill-opacity="0.8"/>
</g>
</g>
<defs>
<filter id="filter0_f_518_1871" x="-156" y="134.141" width="2226" height="855.859" filterUnits="userSpaceOnUse" color-interpolation-filters="sRGB">
<feFlood flood-opacity="0" result="BackgroundImageFix"/>
<feBlend mode="normal" in="SourceGraphic" in2="BackgroundImageFix" result="shape"/>
<feGaussianBlur stdDeviation="75" result="effect1_foregroundBlur_518_1871"/>
</filter>
</defs>
</svg>
