<svg width="1920" height="906" viewBox="0 0 1920 906" fill="none" xmlns="http://www.w3.org/2000/svg">
<mask id="mask0_549_664" style="mask-type:alpha" maskUnits="userSpaceOnUse" x="0" y="0" width="1920" height="906">
<rect width="1920" height="906" fill="#D9D9D9"/>
</mask>
<g mask="url(#mask0_549_664)">
<g filter="url(#filter0_f_549_664)">
<path d="M468.009 457.048L149.638 425.89C94.2608 475.118 -12.937 577.159 1.28689 591.501C19.0668 609.428 65.1833 573.574 450.229 573.574C835.274 573.574 468.009 607.294 494.123 641.013C520.237 674.733 774.156 641.013 849.72 641.013C925.285 641.013 995.849 607.294 1109.75 558.208C1223.65 509.122 1275.88 571.44 1325.33 573.574C1374.78 575.708 1439.23 607.294 1535.36 641.013C1612.25 667.989 1668.52 629.774 1687.04 607.294L1914.85 544.549C1918.74 515.382 1924.18 450.817 1914.85 425.89C1903.18 394.731 1774.83 356.316 1704.82 331.56C1634.81 306.803 1523.69 318.328 1483.13 331.56C1450.68 342.145 1331.44 398.857 1275.88 425.89C1175.68 425.89 966.512 420.085 931.397 396.865C896.281 373.645 743.782 360.157 671.922 356.316C653.401 366.844 612.359 389.694 596.357 396.865C580.355 404.036 504.124 439.975 468.009 457.048Z" fill="#C8DDFF" fill-opacity="0.8"/>
<path d="M468.009 707.048L149.638 675.89C94.2608 725.118 -12.937 827.159 1.28689 841.501C19.0668 859.428 65.1833 823.574 450.229 823.574C835.274 823.574 468.009 857.294 494.123 891.013C520.237 924.733 774.156 891.013 849.72 891.013C925.285 891.013 995.849 857.294 1109.75 808.208C1223.65 759.122 1275.88 821.44 1325.33 823.574C1374.78 825.708 1439.23 857.294 1535.36 891.013C1612.25 917.989 1668.52 879.774 1687.04 857.294L1914.85 794.549C1918.74 765.382 1924.18 700.817 1914.85 675.89C1903.18 644.731 1774.83 606.316 1704.82 581.56C1634.81 556.803 1523.69 568.328 1483.13 581.56C1450.68 592.145 1331.44 648.857 1275.88 675.89C1175.68 675.89 966.512 670.085 931.397 646.865C896.281 623.645 743.782 610.157 671.922 606.316C653.401 616.844 612.359 639.694 596.357 646.865C580.355 654.036 504.124 689.975 468.009 707.048Z" fill="#FFF6EB"/>
</g>
</g>
<defs>
<filter id="filter0_f_549_664" x="-164" y="153" width="2248" height="917" filterUnits="userSpaceOnUse" color-interpolation-filters="sRGB">
<feFlood flood-opacity="0" result="BackgroundImageFix"/>
<feBlend mode="normal" in="SourceGraphic" in2="BackgroundImageFix" result="shape"/>
<feGaussianBlur stdDeviation="82" result="effect1_foregroundBlur_549_664"/>
</filter>
</defs>
</svg>
