<svg width="940" height="1067" viewBox="0 0 940 1067" fill="none" xmlns="http://www.w3.org/2000/svg">
<g clip-path="url(#clip0_578_1968)">
<path d="M189.825 1018.77L106.633 1067L21.8612 1017.89L21.8495 920.508L-59.7977 873.207L-142.989 921.435L-227.761 872.321L-227.773 775.923L-310.983 727.719L-310.994 629.467L-227.803 581.238L-227.815 483.949L-143.055 434.811L-58.2827 483.925L-58.2708 581.214L23.3762 628.509L105 581.191L104.988 484.757L189.748 435.619L272.957 483.824L356.155 435.596L440.915 484.722L440.927 581.149L522.574 628.45L605.765 580.222L690.537 629.33L690.549 727.582L607.352 775.81L607.364 871.34L690.573 919.545L690.585 1017.8L605.825 1066.93L522.615 1018.73L439.424 1066.96L356.214 1018.75L273.023 1066.98L189.825 1018.77ZM24.9447 725.822L106.621 773.141L188.215 725.84L188.203 631.226L106.556 583.925L24.9328 631.244L24.9447 725.822ZM191.352 725.84L272.993 773.141L354.622 725.816L354.61 631.202L272.963 583.901L191.334 631.22L191.352 725.84ZM437.832 776.684L356.185 729.383L274.555 776.708L274.567 871.328L356.208 918.629L437.837 871.304L437.832 776.684ZM108.172 871.352L189.813 918.653L271.442 871.328L271.43 776.708L189.783 729.407L108.154 776.732L108.172 871.352ZM357.741 631.196L357.753 725.81L439.4 773.112L521.029 725.787L521.017 631.161L439.376 583.866L357.741 631.196ZM522.592 729.359L440.962 776.684L440.974 871.304L522.615 918.605L604.245 871.281L604.233 776.66L522.592 729.359ZM354.652 921.405L273.011 874.104L191.381 921.429L191.393 1016.05L273.04 1063.35L354.67 1016.03L354.652 921.405ZM24.9921 1016.07L106.633 1063.37L188.262 1016.05L188.251 921.429L106.609 874.128L24.9802 921.453L24.9921 1016.07ZM105.041 870.466L105.029 775.882L23.3881 728.581L-58.241 775.906L-58.2292 870.49L23.4178 917.791L105.041 870.466ZM-142.995 917.809L-61.366 870.484L-61.3779 775.9L-143.019 728.599L-224.648 775.923L-224.636 870.508L-142.995 917.809ZM-307.875 631.286L-307.864 725.906L-226.252 773.189L-144.587 725.846L-144.599 631.262L-226.246 583.961L-307.875 631.286ZM-143.061 438.449L-224.69 485.774L-224.678 580.394L-143.031 627.695L-61.4017 580.37L-61.4136 485.75L-143.061 438.449ZM-141.468 631.262L-141.457 725.846L-59.8155 773.147L21.8138 725.822L21.8019 631.238L-59.8451 583.937L-141.468 631.262ZM108.113 486.582L108.124 581.197L189.771 628.498L271.401 581.179L271.389 486.565L189.748 439.264L108.113 486.582ZM356.143 439.234L274.514 486.559L274.526 581.173L356.173 628.474L437.802 581.155L437.79 486.535L356.143 439.234ZM687.43 725.763L687.418 631.143L605.771 583.842L524.142 631.161L524.154 725.781L605.795 773.082L687.43 725.763ZM687.472 1015.98L687.46 921.358L605.813 874.057L524.184 921.381L524.196 1016L605.837 1063.3L687.472 1015.98ZM521.065 1016L521.053 921.381L439.412 874.08L357.783 921.405L357.795 1016.03L439.442 1063.33L521.065 1016Z" fill="url(#paint0_linear_578_1968)" fill-opacity="0.1"/>
<path d="M439.228 583.949L356.036 632.177L271.264 583.063L271.253 485.685L189.606 438.384L106.414 486.612L21.6418 437.498L21.63 341.1L-61.5795 292.896L-61.5914 194.644L21.6003 146.415L21.5884 49.1261L106.337 0L191.109 49.1142L191.12 146.403L272.768 193.698L354.391 146.38L354.379 49.9464L439.139 0.808464L522.348 49.0191L605.546 0.784686L690.318 49.8989L690.33 146.326L771.977 193.627L855.169 145.399L939.947 194.507L939.958 292.759L856.761 340.987L856.773 436.517L939.988 484.722L940 582.968L855.24 632.106L772.03 583.901L688.839 632.13L605.629 583.925L522.438 632.153L439.228 583.949ZM274.348 291.005L356.025 338.324L437.618 291.023L437.606 196.409L355.959 149.108L274.336 196.427L274.348 291.005ZM440.749 291.017L522.39 338.318L604.019 290.993L604.007 196.379L522.36 149.078L440.731 196.397L440.749 291.017ZM687.229 341.861L605.582 294.56L523.953 341.885L523.964 436.505L605.605 483.806L687.235 436.481L687.229 341.861ZM357.569 436.535L439.21 483.83L520.839 436.505L520.828 341.885L439.181 294.584L357.551 341.909L357.569 436.535ZM607.138 196.374L607.15 290.988L688.797 338.289L770.426 290.964L770.414 196.344L688.773 149.049L607.138 196.374ZM771.989 294.542L690.36 341.867L690.372 436.487L772.013 483.788L853.642 436.464L853.63 341.844L771.989 294.542ZM604.049 486.582L522.408 439.281L440.779 486.606L440.791 581.226L522.438 628.527L604.067 581.202L604.049 486.582ZM274.389 581.256L356.03 628.557L437.66 581.232L437.648 486.612L356.007 439.305L274.378 486.63L274.389 581.256ZM354.438 435.643L354.426 341.059L272.785 293.758L191.156 341.083L191.168 435.667L272.815 482.968L354.438 435.643ZM106.408 482.992L188.037 435.667L188.025 341.083L106.384 293.782L24.7549 341.106L24.7668 435.691L106.408 482.992ZM-58.4724 196.469L-58.4605 291.089L23.1509 338.372L104.816 291.029L104.804 196.445L23.1569 149.144L-58.4724 196.469ZM106.337 3.6262L24.7074 50.9511L24.7193 145.571L106.366 192.872L187.995 145.547L187.984 50.9273L106.337 3.6262ZM107.929 196.439L107.941 291.023L189.582 338.324L271.211 290.999L271.199 196.415L189.552 149.114L107.929 196.439ZM357.51 51.7595L357.522 146.374L439.169 193.675L520.798 146.356L520.786 51.7417L439.139 4.43466L357.51 51.7595ZM605.546 4.41088L523.917 51.7357L523.929 146.35L605.576 193.651L687.205 146.332L687.193 51.712L605.546 4.41088ZM936.828 290.946L936.816 196.326L855.169 149.025L773.539 196.344L773.551 290.964L855.192 338.265L936.828 290.946ZM936.869 581.155L936.857 486.535L855.21 439.234L773.581 486.559L773.593 581.179L855.234 628.48L936.869 581.155ZM770.468 581.179L770.456 486.559L688.815 439.257L607.186 486.582L607.198 581.202L688.845 628.503L770.468 581.179Z" fill="url(#paint1_linear_578_1968)" fill-opacity="0.1"/>
</g>
<defs>
<linearGradient id="paint0_linear_578_1968" x1="189.795" y1="434.811" x2="189.795" y2="1067" gradientUnits="userSpaceOnUse">
<stop stop-color="#8694A7" stop-opacity="0.3"/>
<stop offset="1" stop-color="#8694A7" stop-opacity="0.7"/>
</linearGradient>
<linearGradient id="paint1_linear_578_1968" x1="439.204" y1="0" x2="439.204" y2="632.177" gradientUnits="userSpaceOnUse">
<stop stop-color="#8694A7" stop-opacity="0.3"/>
<stop offset="1" stop-color="#8694A7" stop-opacity="0.7"/>
</linearGradient>
<clipPath id="clip0_578_1968">
<rect width="1251" height="1067" fill="white" transform="matrix(-1 0 0 1 940 0)"/>
</clipPath>
</defs>
</svg>
