<svg width="488" height="495" viewBox="0 0 488 495" fill="none" xmlns="http://www.w3.org/2000/svg">
<path d="M235.377 484.969C207.163 484.012 179.084 478.159 152.528 467.405C123.381 455.598 96.064 437.899 72.4247 414.285C48.7854 390.672 31.0542 363.406 19.2312 334.293C7.40813 305.187 1.5 274.248 1.5 243.302C1.5 212.357 7.40813 181.418 19.2312 152.312C31.0542 123.206 48.7786 95.9262 72.4247 72.3196C96.064 48.7131 123.375 31.0065 152.528 19.1998C181.674 7.39994 212.656 1.5 243.638 1.5C274.62 1.5 305.609 7.39994 334.755 19.2066C363.901 31.0133 391.219 48.7131 414.858 72.3264C438.497 95.933 456.228 123.206 468.052 152.318C479.875 181.431 485.783 212.37 485.783 243.309C485.783 274.248 479.875 305.194 468.052 334.3C457.207 360.996 441.394 386.15 420.61 408.351" stroke="#FCFCFC" stroke-width="3" stroke-miterlimit="10" stroke-linecap="round" stroke-linejoin="round"/>
<path d="M243.638 493.374C248.208 493.374 251.912 489.675 251.912 485.111C251.912 480.548 248.208 476.849 243.638 476.849C239.068 476.849 235.364 480.548 235.364 485.111C235.364 489.675 239.068 493.374 243.638 493.374Z" stroke="#FCFCFC" stroke-width="3" stroke-miterlimit="10" stroke-linecap="round" stroke-linejoin="round"/>
<path d="M414.858 422.548C419.428 422.548 423.132 418.848 423.132 414.285C423.132 409.722 419.428 406.022 414.858 406.022C410.288 406.022 406.584 409.722 406.584 414.285C406.584 418.848 410.288 422.548 414.858 422.548Z" stroke="#FCFCFC" stroke-width="3" stroke-miterlimit="10" stroke-linecap="round" stroke-linejoin="round"/>
</svg>
